{
	"asset":{
		"generator":"Khronos glTF Blender I/O v4.3.47",
		"version":"2.0"
	},
	"extensionsUsed":[
		"KHR_lights_punctual"
	],
	"extensionsRequired":[
		"KHR_lights_punctual"
	],
	"extensions":{
		"KHR_lights_punctual":{
			"lights":[
				{
					"color":[
						1,
						1,
						1
					],
					"intensity":54351.41306588226,
					"type":"point",
					"name":"Light"
				}
			]
		}
	},
	"scene":0,
	"scenes":[
		{
			"name":"Scene",
			"nodes":[
				0,
				1,
				2,
				3
			]
		}
	],
	"nodes":[
		{
			"extensions":{
				"KHR_lights_punctual":{
					"light":0
				}
			},
			"name":"Light",
			"rotation":[
				-0.28416627645492554,
				0.7269423007965088,
				0.34203392267227173,
				0.5232754945755005
			],
			"translation":[
				4.076245307922363,
				5.903861999511719,
				-1.0054539442062378
			]
		},
		{
			"camera":0,
			"name":"Camera",
			"rotation":[
				-0.20997299253940582,
				0.3857799470424652,
				0.09062844514846802,
				0.8937962055206299
			],
			"translation":[
				7.358891487121582,
				4.958309173583984,
				6.925790786743164
			]
		},
		{
			"name":"Empty",
			"translation":[
				0.00013799933367408812,
				1.4566854238510132,
				-0.5283980965614319
			]
		},
		{
			"mesh":0,
			"name":"Anthurium"
		}
	],
	"cameras":[
		{
			"name":"Camera",
			"perspective":{
				"aspectRatio":1.7777777777777777,
				"yfov":0.39959652046304894,
				"zfar":100,
				"znear":0.10000000149011612
			},
			"type":"perspective"
		}
	],
	"materials":[
		{
			"doubleSided":true,
			"name":"Anthurium_green",
			"pbrMetallicRoughness":{
				"baseColorFactor":[
					0.0368894599378109,
					0.10461650043725967,
					0.006512089632451534,
					1
				],
				"metallicFactor":0,
				"roughnessFactor":0.5
			}
		}
	],
	"meshes":[
		{
			"name":"Plane.004",
			"primitives":[
				{
					"attributes":{
						"POSITION":0,
						"NORMAL":1,
						"TEXCOORD_0":2
					},
					"indices":3,
					"material":0
				}
			]
		}
	],
	"accessors":[
		{
			"bufferView":0,
			"componentType":5126,
			"count":798,
			"max":[
				1.23444402217865,
				1.3667603731155396,
				0.9916520714759827
			],
			"min":[
				-1.085782527923584,
				-0.0060877371579408646,
				-1.0814387798309326
			],
			"type":"VEC3"
		},
		{
			"bufferView":1,
			"componentType":5126,
			"count":798,
			"type":"VEC3"
		},
		{
			"bufferView":2,
			"componentType":5126,
			"count":798,
			"type":"VEC2"
		},
		{
			"bufferView":3,
			"componentType":5123,
			"count":1218,
			"type":"SCALAR"
		}
	],
	"bufferViews":[
		{
			"buffer":0,
			"byteLength":9576,
			"byteOffset":0,
			"target":34962
		},
		{
			"buffer":0,
			"byteLength":9576,
			"byteOffset":9576,
			"target":34962
		},
		{
			"buffer":0,
			"byteLength":6384,
			"byteOffset":19152,
			"target":34962
		},
		{
			"buffer":0,
			"byteLength":2436,
			"byteOffset":25536,
			"target":34963
		}
	],
	"buffers":[
		{
			"byteLength":27972,
			"uri":"Anthurium-8a5a6880dbe5fa015ed496db01293215.bin"
		}
	]
}
