{
	"asset":{
		"generator":"Khronos glTF Blender I/O v4.3.47",
		"version":"2.0"
	},
	"scene":0,
	"scenes":[
		{
			"name":"Scene",
			"nodes":[
				0
			]
		}
	],
	"nodes":[
		{
			"mesh":0,
			"name":"Apple"
		}
	],
	"materials":[
		{
			"doubleSided":true,
			"name":"Green_Apple",
			"pbrMetallicRoughness":{
				"baseColorFactor":[
					0,
					0.11443541198968887,
					0.003676513209939003,
					1
				],
				"metallicFactor":0,
				"roughnessFactor":0.5
			}
		},
		{
			"doubleSided":true,
			"name":"Red_Apple",
			"pbrMetallicRoughness":{
				"baseColorFactor":[
					0.3419145941734314,
					0.006512019783258438,
					0.006512099876999855,
					1
				],
				"metallicFactor":0,
				"roughnessFactor":0.5
			}
		},
		{
			"doubleSided":true,
			"name":"DarkBrown_Apple",
			"pbrMetallicRoughness":{
				"baseColorFactor":[
					0.19461789727210999,
					0.06301000714302063,
					0,
					1
				],
				"metallicFactor":0,
				"roughnessFactor":0.5
			}
		}
	],
	"meshes":[
		{
			"name":"Plane.002",
			"primitives":[
				{
					"attributes":{
						"POSITION":0,
						"NORMAL":1,
						"TEXCOORD_0":2
					},
					"indices":3,
					"material":0
				},
				{
					"attributes":{
						"POSITION":4,
						"NORMAL":5,
						"TEXCOORD_0":6
					},
					"indices":7,
					"material":1
				},
				{
					"attributes":{
						"POSITION":8,
						"NORMAL":9,
						"TEXCOORD_0":10
					},
					"indices":11,
					"material":2
				}
			]
		}
	],
	"accessors":[
		{
			"bufferView":0,
			"componentType":5126,
			"count":474,
			"max":[
				0.6888860464096069,
				0.2747217118740082,
				0.6912099719047546
			],
			"min":[
				-0.7924190163612366,
				-0.07709857076406479,
				-0.40229085087776184
			],
			"type":"VEC3"
		},
		{
			"bufferView":1,
			"componentType":5126,
			"count":474,
			"type":"VEC3"
		},
		{
			"bufferView":2,
			"componentType":5126,
			"count":474,
			"type":"VEC2"
		},
		{
			"bufferView":3,
			"componentType":5123,
			"count":2772,
			"type":"SCALAR"
		},
		{
			"bufferView":4,
			"componentType":5126,
			"count":158,
			"max":[
				0.7319735288619995,
				0.053680695593357086,
				0.727961540222168
			],
			"min":[
				-0.8638965487480164,
				-1.329380989074707,
				-0.8679083585739136
			],
			"type":"VEC3"
		},
		{
			"bufferView":5,
			"componentType":5126,
			"count":158,
			"type":"VEC3"
		},
		{
			"bufferView":6,
			"componentType":5126,
			"count":158,
			"type":"VEC2"
		},
		{
			"bufferView":7,
			"componentType":5123,
			"count":720,
			"type":"SCALAR"
		},
		{
			"bufferView":8,
			"componentType":5126,
			"count":71,
			"max":[
				0.5029032826423645,
				0.5535215139389038,
				0.0049169245176017284
			],
			"min":[
				-0.07941829413175583,
				-0.20343473553657532,
				-0.1448638141155243
			],
			"type":"VEC3"
		},
		{
			"bufferView":9,
			"componentType":5126,
			"count":71,
			"type":"VEC3"
		},
		{
			"bufferView":10,
			"componentType":5126,
			"count":71,
			"type":"VEC2"
		},
		{
			"bufferView":11,
			"componentType":5123,
			"count":228,
			"type":"SCALAR"
		}
	],
	"bufferViews":[
		{
			"buffer":0,
			"byteLength":5688,
			"byteOffset":0,
			"target":34962
		},
		{
			"buffer":0,
			"byteLength":5688,
			"byteOffset":5688,
			"target":34962
		},
		{
			"buffer":0,
			"byteLength":3792,
			"byteOffset":11376,
			"target":34962
		},
		{
			"buffer":0,
			"byteLength":5544,
			"byteOffset":15168,
			"target":34963
		},
		{
			"buffer":0,
			"byteLength":1896,
			"byteOffset":20712,
			"target":34962
		},
		{
			"buffer":0,
			"byteLength":1896,
			"byteOffset":22608,
			"target":34962
		},
		{
			"buffer":0,
			"byteLength":1264,
			"byteOffset":24504,
			"target":34962
		},
		{
			"buffer":0,
			"byteLength":1440,
			"byteOffset":25768,
			"target":34963
		},
		{
			"buffer":0,
			"byteLength":852,
			"byteOffset":27208,
			"target":34962
		},
		{
			"buffer":0,
			"byteLength":852,
			"byteOffset":28060,
			"target":34962
		},
		{
			"buffer":0,
			"byteLength":568,
			"byteOffset":28912,
			"target":34962
		},
		{
			"buffer":0,
			"byteLength":456,
			"byteOffset":29480,
			"target":34963
		}
	],
	"buffers":[
		{
			"byteLength":29936,
			"uri":"Apple-34713056d02427ebc7f0201ce13ed6f0.bin"
		}
	]
}
