{
	"asset":{
		"generator":"Khronos glTF Blender I/O v4.3.47",
		"version":"2.0"
	},
	"scene":0,
	"scenes":[
		{
			"name":"Scene",
			"nodes":[
				0
			]
		}
	],
	"nodes":[
		{
			"mesh":0,
			"name":"Arc02Wall01"
		}
	],
	"materials":[
		{
			"doubleSided":true,
			"name":"LightBrown_House01",
			"pbrMetallicRoughness":{
				"baseColorFactor":[
					0.6724432706832886,
					0.5906189680099487,
					0.5149176716804504,
					1
				],
				"metallicFactor":0,
				"roughnessFactor":0.5
			}
		},
		{
			"doubleSided":true,
			"name":"Cream_House01",
			"pbrMetallicRoughness":{
				"baseColorFactor":[
					0.8713672757148743,
					0.8631572127342224,
					0.84687340259552,
					1
				],
				"metallicFactor":0,
				"roughnessFactor":0.4000000059604645
			}
		}
	],
	"meshes":[
		{
			"name":"Cube",
			"primitives":[
				{
					"attributes":{
						"POSITION":0,
						"NORMAL":1,
						"TEXCOORD_0":2
					},
					"indices":3,
					"material":0
				},
				{
					"attributes":{
						"POSITION":4,
						"NORMAL":5,
						"TEXCOORD_0":6
					},
					"indices":7,
					"material":1
				}
			]
		}
	],
	"accessors":[
		{
			"bufferView":0,
			"componentType":5126,
			"count":32,
			"max":[
				0.4186774492263794,
				1.2714965343475342,
				0.5591011047363281
			],
			"min":[
				-0.4186774492263794,
				-0.45409712195396423,
				-0.5591011047363281
			],
			"type":"VEC3"
		},
		{
			"bufferView":1,
			"componentType":5126,
			"count":32,
			"type":"VEC3"
		},
		{
			"bufferView":2,
			"componentType":5126,
			"count":32,
			"type":"VEC2"
		},
		{
			"bufferView":3,
			"componentType":5123,
			"count":60,
			"type":"SCALAR"
		},
		{
			"bufferView":4,
			"componentType":5126,
			"count":24,
			"max":[
				0.4186774492263794,
				-0.08984528481960297,
				0.5591011047363281
			],
			"min":[
				-0.4186774492263794,
				-0.45409712195396423,
				-0.5591011047363281
			],
			"type":"VEC3"
		},
		{
			"bufferView":5,
			"componentType":5126,
			"count":24,
			"type":"VEC3"
		},
		{
			"bufferView":6,
			"componentType":5126,
			"count":24,
			"type":"VEC2"
		},
		{
			"bufferView":7,
			"componentType":5123,
			"count":42,
			"type":"SCALAR"
		}
	],
	"bufferViews":[
		{
			"buffer":0,
			"byteLength":384,
			"byteOffset":0,
			"target":34962
		},
		{
			"buffer":0,
			"byteLength":384,
			"byteOffset":384,
			"target":34962
		},
		{
			"buffer":0,
			"byteLength":256,
			"byteOffset":768,
			"target":34962
		},
		{
			"buffer":0,
			"byteLength":120,
			"byteOffset":1024,
			"target":34963
		},
		{
			"buffer":0,
			"byteLength":288,
			"byteOffset":1144,
			"target":34962
		},
		{
			"buffer":0,
			"byteLength":288,
			"byteOffset":1432,
			"target":34962
		},
		{
			"buffer":0,
			"byteLength":192,
			"byteOffset":1720,
			"target":34962
		},
		{
			"buffer":0,
			"byteLength":84,
			"byteOffset":1912,
			"target":34963
		}
	],
	"buffers":[
		{
			"byteLength":1996,
			"uri":"ArcWall02_house_01-84081d499e4f3cbf51ad5d962343239d.bin"
		}
	]
}
