{
	"asset":{
		"generator":"Khronos glTF Blender I/O v4.3.47",
		"version":"2.0"
	},
	"scene":0,
	"scenes":[
		{
			"name":"Scene",
			"nodes":[
				0
			]
		}
	],
	"nodes":[
		{
			"mesh":0,
			"name":"Balcony01_House05"
		}
	],
	"materials":[
		{
			"doubleSided":true,
			"name":"Wood_house05",
			"pbrMetallicRoughness":{
				"baseColorFactor":[
					0.7011020183563232,
					0.42869052290916443,
					0.11697068810462952,
					1
				],
				"metallicFactor":0,
				"roughnessFactor":0.5
			}
		},
		{
			"doubleSided":true,
			"name":"Black_house05",
			"pbrMetallicRoughness":{
				"baseColorFactor":[
					0.02909950166940689,
					0.02909950166940689,
					0.02909950166940689,
					1
				],
				"metallicFactor":0,
				"roughnessFactor":0.5
			}
		}
	],
	"meshes":[
		{
			"name":"Cylinder.004",
			"primitives":[
				{
					"attributes":{
						"POSITION":0,
						"NORMAL":1,
						"TEXCOORD_0":2
					},
					"indices":3,
					"material":0
				},
				{
					"attributes":{
						"POSITION":4,
						"NORMAL":5,
						"TEXCOORD_0":6
					},
					"indices":7,
					"material":1
				}
			]
		}
	],
	"accessors":[
		{
			"bufferView":0,
			"componentType":5126,
			"count":24,
			"max":[
				2.3073999881744385,
				-1.2635579109191895,
				1.1484417915344238
			],
			"min":[
				-2.3014230728149414,
				-1.411350131034851,
				-3.014817953109741
			],
			"type":"VEC3"
		},
		{
			"bufferView":1,
			"componentType":5126,
			"count":24,
			"type":"VEC3"
		},
		{
			"bufferView":2,
			"componentType":5126,
			"count":24,
			"type":"VEC2"
		},
		{
			"bufferView":3,
			"componentType":5123,
			"count":36,
			"type":"SCALAR"
		},
		{
			"bufferView":4,
			"componentType":5126,
			"count":600,
			"max":[
				2.2661290168762207,
				1.4394071102142334,
				1.0749695301055908
			],
			"min":[
				-2.2601518630981445,
				-1.411856770515442,
				-2.0691466331481934
			],
			"type":"VEC3"
		},
		{
			"bufferView":5,
			"componentType":5126,
			"count":600,
			"type":"VEC3"
		},
		{
			"bufferView":6,
			"componentType":5126,
			"count":600,
			"type":"VEC2"
		},
		{
			"bufferView":7,
			"componentType":5123,
			"count":1032,
			"type":"SCALAR"
		}
	],
	"bufferViews":[
		{
			"buffer":0,
			"byteLength":288,
			"byteOffset":0,
			"target":34962
		},
		{
			"buffer":0,
			"byteLength":288,
			"byteOffset":288,
			"target":34962
		},
		{
			"buffer":0,
			"byteLength":192,
			"byteOffset":576,
			"target":34962
		},
		{
			"buffer":0,
			"byteLength":72,
			"byteOffset":768,
			"target":34963
		},
		{
			"buffer":0,
			"byteLength":7200,
			"byteOffset":840,
			"target":34962
		},
		{
			"buffer":0,
			"byteLength":7200,
			"byteOffset":8040,
			"target":34962
		},
		{
			"buffer":0,
			"byteLength":4800,
			"byteOffset":15240,
			"target":34962
		},
		{
			"buffer":0,
			"byteLength":2064,
			"byteOffset":20040,
			"target":34963
		}
	],
	"buffers":[
		{
			"byteLength":22104,
			"uri":"Balcony01_house5-be00e571940fdb90d62e117e882ef1a8.bin"
		}
	]
}
