{
	"asset":{
		"generator":"Khronos glTF Blender I/O v4.3.47",
		"version":"2.0"
	},
	"scene":0,
	"scenes":[
		{
			"name":"Scene",
			"nodes":[
				0
			]
		}
	],
	"nodes":[
		{
			"mesh":0,
			"name":"Balcony02_House05"
		}
	],
	"materials":[
		{
			"doubleSided":true,
			"name":"Wood_house05",
			"pbrMetallicRoughness":{
				"baseColorFactor":[
					0.7011020183563232,
					0.42869052290916443,
					0.11697068810462952,
					1
				],
				"metallicFactor":0,
				"roughnessFactor":0.5
			}
		},
		{
			"doubleSided":true,
			"name":"Black_house05",
			"pbrMetallicRoughness":{
				"baseColorFactor":[
					0.02909950166940689,
					0.02909950166940689,
					0.02909950166940689,
					1
				],
				"metallicFactor":0,
				"roughnessFactor":0.5
			}
		}
	],
	"meshes":[
		{
			"name":"Cylinder.004",
			"primitives":[
				{
					"attributes":{
						"POSITION":0,
						"NORMAL":1,
						"TEXCOORD_0":2
					},
					"indices":3,
					"material":0
				},
				{
					"attributes":{
						"POSITION":4,
						"NORMAL":5,
						"TEXCOORD_0":6
					},
					"indices":7,
					"material":1
				}
			]
		}
	],
	"accessors":[
		{
			"bufferView":0,
			"componentType":5126,
			"count":24,
			"max":[
				2.837921619415283,
				-0.8274784088134766,
				1.3308223485946655
			],
			"min":[
				-3.247605562210083,
				-0.975270688533783,
				-2.832437515258789
			],
			"type":"VEC3"
		},
		{
			"bufferView":1,
			"componentType":5126,
			"count":24,
			"type":"VEC3"
		},
		{
			"bufferView":2,
			"componentType":5126,
			"count":24,
			"type":"VEC2"
		},
		{
			"bufferView":3,
			"componentType":5123,
			"count":36,
			"type":"SCALAR"
		},
		{
			"bufferView":4,
			"componentType":5126,
			"count":1488,
			"max":[
				2.8377437591552734,
				0.9016622304916382,
				1.336643934249878
			],
			"min":[
				-3.212899684906006,
				-0.923146665096283,
				-3.151611804962158
			],
			"type":"VEC3"
		},
		{
			"bufferView":5,
			"componentType":5126,
			"count":1488,
			"type":"VEC3"
		},
		{
			"bufferView":6,
			"componentType":5126,
			"count":1488,
			"type":"VEC2"
		},
		{
			"bufferView":7,
			"componentType":5123,
			"count":2568,
			"type":"SCALAR"
		}
	],
	"bufferViews":[
		{
			"buffer":0,
			"byteLength":288,
			"byteOffset":0,
			"target":34962
		},
		{
			"buffer":0,
			"byteLength":288,
			"byteOffset":288,
			"target":34962
		},
		{
			"buffer":0,
			"byteLength":192,
			"byteOffset":576,
			"target":34962
		},
		{
			"buffer":0,
			"byteLength":72,
			"byteOffset":768,
			"target":34963
		},
		{
			"buffer":0,
			"byteLength":17856,
			"byteOffset":840,
			"target":34962
		},
		{
			"buffer":0,
			"byteLength":17856,
			"byteOffset":18696,
			"target":34962
		},
		{
			"buffer":0,
			"byteLength":11904,
			"byteOffset":36552,
			"target":34962
		},
		{
			"buffer":0,
			"byteLength":5136,
			"byteOffset":48456,
			"target":34963
		}
	],
	"buffers":[
		{
			"byteLength":53592,
			"uri":"Balcony02_house5-15daa89ba5c18087ff78ec33ecdacd0a.bin"
		}
	]
}
