{
	"asset":{
		"generator":"Khronos glTF Blender I/O v4.3.47",
		"version":"2.0"
	},
	"scene":0,
	"scenes":[
		{
			"name":"Scene",
			"nodes":[
				0
			]
		}
	],
	"nodes":[
		{
			"mesh":0,
			"name":"Banana"
		}
	],
	"materials":[
		{
			"doubleSided":true,
			"name":"Yellow_Banana",
			"pbrMetallicRoughness":{
				"baseColorFactor":[
					0.3915727734565735,
					0.3789845108985901,
					0.045823708176612854,
					1
				],
				"metallicFactor":0,
				"roughnessFactor":0.5
			}
		},
		{
			"doubleSided":true,
			"name":"Brown_Banana",
			"pbrMetallicRoughness":{
				"baseColorFactor":[
					0.1946178823709488,
					0.08228267729282379,
					0,
					1
				],
				"metallicFactor":0,
				"roughnessFactor":0.5
			}
		}
	],
	"meshes":[
		{
			"name":"Cylinder.002",
			"primitives":[
				{
					"attributes":{
						"POSITION":0,
						"NORMAL":1
					},
					"indices":2,
					"material":0
				},
				{
					"attributes":{
						"POSITION":3,
						"NORMAL":4
					},
					"indices":5,
					"material":1
				}
			]
		}
	],
	"accessors":[
		{
			"bufferView":0,
			"componentType":5126,
			"count":1032,
			"max":[
				1.2584422826766968,
				0.7424354553222656,
				0.2963998019695282
			],
			"min":[
				-0.9873215556144714,
				-0.46669802069664,
				-0.2963997721672058
			],
			"type":"VEC3"
		},
		{
			"bufferView":1,
			"componentType":5126,
			"count":1032,
			"type":"VEC3"
		},
		{
			"bufferView":2,
			"componentType":5123,
			"count":6048,
			"type":"SCALAR"
		},
		{
			"bufferView":3,
			"componentType":5126,
			"count":282,
			"max":[
				1.258643627166748,
				0.745479941368103,
				0.07201913744211197
			],
			"min":[
				-0.9885189533233643,
				0.23292385041713715,
				-0.07201901078224182
			],
			"type":"VEC3"
		},
		{
			"bufferView":4,
			"componentType":5126,
			"count":282,
			"type":"VEC3"
		},
		{
			"bufferView":5,
			"componentType":5123,
			"count":1536,
			"type":"SCALAR"
		}
	],
	"bufferViews":[
		{
			"buffer":0,
			"byteLength":12384,
			"byteOffset":0,
			"target":34962
		},
		{
			"buffer":0,
			"byteLength":12384,
			"byteOffset":12384,
			"target":34962
		},
		{
			"buffer":0,
			"byteLength":12096,
			"byteOffset":24768,
			"target":34963
		},
		{
			"buffer":0,
			"byteLength":3384,
			"byteOffset":36864,
			"target":34962
		},
		{
			"buffer":0,
			"byteLength":3384,
			"byteOffset":40248,
			"target":34962
		},
		{
			"buffer":0,
			"byteLength":3072,
			"byteOffset":43632,
			"target":34963
		}
	],
	"buffers":[
		{
			"byteLength":46704,
			"uri":"Banana-9ba4a35b2688a63f8863563cf13ef2b4.bin"
		}
	]
}
