{
	"asset":{
		"generator":"Khronos glTF Blender I/O v4.3.47",
		"version":"2.0"
	},
	"scene":0,
	"scenes":[
		{
			"name":"Scene",
			"nodes":[
				0
			]
		}
	],
	"nodes":[
		{
			"mesh":0,
			"name":"Beer01"
		}
	],
	"materials":[
		{
			"doubleSided":true,
			"name":"Gray_Beer01",
			"pbrMetallicRoughness":{
				"baseColorFactor":[
					0.3031978905200958,
					0.3031978905200958,
					0.3031978905200958,
					1
				],
				"metallicFactor":0,
				"roughnessFactor":0.5
			}
		},
		{
			"doubleSided":true,
			"name":"Brown_Beer01",
			"pbrMetallicRoughness":{
				"baseColorFactor":[
					0.22322802245616913,
					0.09084170311689377,
					0.009134065359830856,
					1
				],
				"metallicFactor":0,
				"roughnessFactor":0.5
			}
		},
		{
			"doubleSided":true,
			"name":"DarkGray_Beer01",
			"pbrMetallicRoughness":{
				"baseColorFactor":[
					0.12823939323425293,
					0.12823939323425293,
					0.12823939323425293,
					1
				],
				"metallicFactor":0,
				"roughnessFactor":0.5
			}
		},
		{
			"doubleSided":true,
			"name":"Yellow_Beer01",
			"pbrMetallicRoughness":{
				"baseColorFactor":[
					0.8900054693222046,
					0.7800315022468567,
					0.4995182156562805,
					1
				],
				"metallicFactor":0,
				"roughnessFactor":0.5
			}
		}
	],
	"meshes":[
		{
			"name":"Sphere.015",
			"primitives":[
				{
					"attributes":{
						"POSITION":0,
						"NORMAL":1,
						"TEXCOORD_0":2
					},
					"indices":3,
					"material":0
				},
				{
					"attributes":{
						"POSITION":4,
						"NORMAL":5,
						"TEXCOORD_0":6
					},
					"indices":7,
					"material":1
				},
				{
					"attributes":{
						"POSITION":8,
						"NORMAL":9,
						"TEXCOORD_0":10
					},
					"indices":11,
					"material":2
				},
				{
					"attributes":{
						"POSITION":12,
						"NORMAL":13,
						"TEXCOORD_0":14
					},
					"indices":15,
					"material":3
				}
			]
		}
	],
	"accessors":[
		{
			"bufferView":0,
			"componentType":5126,
			"count":864,
			"max":[
				0.858653724193573,
				-0.004763574339449406,
				0.952415943145752
			],
			"min":[
				-1.1011162996292114,
				-1.6568022966384888,
				-1.0073540210723877
			],
			"type":"VEC3"
		},
		{
			"bufferView":1,
			"componentType":5126,
			"count":864,
			"type":"VEC3"
		},
		{
			"bufferView":2,
			"componentType":5126,
			"count":864,
			"type":"VEC2"
		},
		{
			"bufferView":3,
			"componentType":5123,
			"count":3360,
			"type":"SCALAR"
		},
		{
			"bufferView":4,
			"componentType":5126,
			"count":856,
			"max":[
				1.8384180068969727,
				0.7833781838417053,
				0.8900478482246399
			],
			"min":[
				-1.0387479066848755,
				-1.6922684907913208,
				-0.9449852108955383
			],
			"type":"VEC3"
		},
		{
			"bufferView":5,
			"componentType":5126,
			"count":856,
			"type":"VEC3"
		},
		{
			"bufferView":6,
			"componentType":5126,
			"count":856,
			"type":"VEC2"
		},
		{
			"bufferView":7,
			"componentType":5123,
			"count":3324,
			"type":"SCALAR"
		},
		{
			"bufferView":8,
			"componentType":5126,
			"count":105,
			"max":[
				0.7962852716445923,
				0.059958867728710175,
				0.8900478482246399
			],
			"min":[
				-1.0387479066848755,
				-1.6922684907913208,
				-0.9449852108955383
			],
			"type":"VEC3"
		},
		{
			"bufferView":9,
			"componentType":5126,
			"count":105,
			"type":"VEC3"
		},
		{
			"bufferView":10,
			"componentType":5126,
			"count":105,
			"type":"VEC2"
		},
		{
			"bufferView":11,
			"componentType":5123,
			"count":360,
			"type":"SCALAR"
		},
		{
			"bufferView":12,
			"componentType":5126,
			"count":1230,
			"max":[
				0.634802520275116,
				1.3668062686920166,
				0.8863291144371033
			],
			"min":[
				-1.0798672437667847,
				-0.46876323223114014,
				-1.0417454242706299
			],
			"type":"VEC3"
		},
		{
			"bufferView":13,
			"componentType":5126,
			"count":1230,
			"type":"VEC3"
		},
		{
			"bufferView":14,
			"componentType":5126,
			"count":1230,
			"type":"VEC2"
		},
		{
			"bufferView":15,
			"componentType":5123,
			"count":7368,
			"type":"SCALAR"
		}
	],
	"bufferViews":[
		{
			"buffer":0,
			"byteLength":10368,
			"byteOffset":0,
			"target":34962
		},
		{
			"buffer":0,
			"byteLength":10368,
			"byteOffset":10368,
			"target":34962
		},
		{
			"buffer":0,
			"byteLength":6912,
			"byteOffset":20736,
			"target":34962
		},
		{
			"buffer":0,
			"byteLength":6720,
			"byteOffset":27648,
			"target":34963
		},
		{
			"buffer":0,
			"byteLength":10272,
			"byteOffset":34368,
			"target":34962
		},
		{
			"buffer":0,
			"byteLength":10272,
			"byteOffset":44640,
			"target":34962
		},
		{
			"buffer":0,
			"byteLength":6848,
			"byteOffset":54912,
			"target":34962
		},
		{
			"buffer":0,
			"byteLength":6648,
			"byteOffset":61760,
			"target":34963
		},
		{
			"buffer":0,
			"byteLength":1260,
			"byteOffset":68408,
			"target":34962
		},
		{
			"buffer":0,
			"byteLength":1260,
			"byteOffset":69668,
			"target":34962
		},
		{
			"buffer":0,
			"byteLength":840,
			"byteOffset":70928,
			"target":34962
		},
		{
			"buffer":0,
			"byteLength":720,
			"byteOffset":71768,
			"target":34963
		},
		{
			"buffer":0,
			"byteLength":14760,
			"byteOffset":72488,
			"target":34962
		},
		{
			"buffer":0,
			"byteLength":14760,
			"byteOffset":87248,
			"target":34962
		},
		{
			"buffer":0,
			"byteLength":9840,
			"byteOffset":102008,
			"target":34962
		},
		{
			"buffer":0,
			"byteLength":14736,
			"byteOffset":111848,
			"target":34963
		}
	],
	"buffers":[
		{
			"byteLength":126584,
			"uri":"Beer01-87d4c8e159846624e871fe58051f4da5.bin"
		}
	]
}
