{
	"asset":{
		"generator":"Khronos glTF Blender I/O v4.3.47",
		"version":"2.0"
	},
	"extensionsUsed":[
		"KHR_lights_punctual"
	],
	"extensionsRequired":[
		"KHR_lights_punctual"
	],
	"extensions":{
		"KHR_lights_punctual":{
			"lights":[
				{
					"color":[
						1,
						1,
						1
					],
					"intensity":54351.41306588226,
					"type":"point",
					"name":"Light"
				}
			]
		}
	},
	"scene":0,
	"scenes":[
		{
			"name":"Scene",
			"nodes":[
				0,
				1,
				2
			]
		}
	],
	"nodes":[
		{
			"extensions":{
				"KHR_lights_punctual":{
					"light":0
				}
			},
			"name":"Light",
			"rotation":[
				-0.28416627645492554,
				0.7269423007965088,
				0.34203392267227173,
				0.5232754945755005
			],
			"translation":[
				4.076245307922363,
				5.903861999511719,
				-1.0054539442062378
			]
		},
		{
			"camera":0,
			"name":"Camera",
			"rotation":[
				-0.20997299253940582,
				0.3857799470424652,
				0.09062844514846802,
				0.8937962055206299
			],
			"translation":[
				7.358891487121582,
				4.958309173583984,
				6.925790786743164
			]
		},
		{
			"mesh":0,
			"name":"Bell_flowers"
		}
	],
	"cameras":[
		{
			"name":"Camera",
			"perspective":{
				"aspectRatio":1.7777777777777777,
				"yfov":0.39959652046304894,
				"zfar":100,
				"znear":0.10000000149011612
			},
			"type":"perspective"
		}
	],
	"materials":[
		{
			"doubleSided":true,
			"name":"Green_BellFlowers",
			"pbrMetallicRoughness":{
				"baseColorFactor":[
					0.13286834955215454,
					0.28314879536628723,
					0.03189603611826897,
					1
				],
				"metallicFactor":0,
				"roughnessFactor":0.5
			}
		},
		{
			"doubleSided":true,
			"name":"Purple_BellFlowers",
			"pbrMetallicRoughness":{
				"baseColorFactor":[
					0.20507875084877014,
					0.0423114150762558,
					0.5209956765174866,
					1
				],
				"metallicFactor":0,
				"roughnessFactor":0.5
			}
		}
	],
	"meshes":[
		{
			"name":"Circle.004",
			"primitives":[
				{
					"attributes":{
						"POSITION":0,
						"NORMAL":1,
						"TEXCOORD_0":2
					},
					"indices":3,
					"material":0
				},
				{
					"attributes":{
						"POSITION":4,
						"NORMAL":5,
						"TEXCOORD_0":6
					},
					"indices":7,
					"material":1
				}
			]
		}
	],
	"accessors":[
		{
			"bufferView":0,
			"componentType":5126,
			"count":906,
			"max":[
				0.37494227290153503,
				1.1037606000900269,
				0.474828839302063
			],
			"min":[
				-0.4271884560585022,
				-0.0010611286852508783,
				-0.4474639892578125
			],
			"type":"VEC3"
		},
		{
			"bufferView":1,
			"componentType":5126,
			"count":906,
			"type":"VEC3"
		},
		{
			"bufferView":2,
			"componentType":5126,
			"count":906,
			"type":"VEC2"
		},
		{
			"bufferView":3,
			"componentType":5123,
			"count":1404,
			"type":"SCALAR"
		},
		{
			"bufferView":4,
			"componentType":5126,
			"count":2616,
			"max":[
				0.6242982745170593,
				1.0940358638763428,
				0.6847732663154602
			],
			"min":[
				-0.7794828414916992,
				0.21507595479488373,
				-0.6095042824745178
			],
			"type":"VEC3"
		},
		{
			"bufferView":5,
			"componentType":5126,
			"count":2616,
			"type":"VEC3"
		},
		{
			"bufferView":6,
			"componentType":5126,
			"count":2616,
			"type":"VEC2"
		},
		{
			"bufferView":7,
			"componentType":5123,
			"count":4212,
			"type":"SCALAR"
		}
	],
	"bufferViews":[
		{
			"buffer":0,
			"byteLength":10872,
			"byteOffset":0,
			"target":34962
		},
		{
			"buffer":0,
			"byteLength":10872,
			"byteOffset":10872,
			"target":34962
		},
		{
			"buffer":0,
			"byteLength":7248,
			"byteOffset":21744,
			"target":34962
		},
		{
			"buffer":0,
			"byteLength":2808,
			"byteOffset":28992,
			"target":34963
		},
		{
			"buffer":0,
			"byteLength":31392,
			"byteOffset":31800,
			"target":34962
		},
		{
			"buffer":0,
			"byteLength":31392,
			"byteOffset":63192,
			"target":34962
		},
		{
			"buffer":0,
			"byteLength":20928,
			"byteOffset":94584,
			"target":34962
		},
		{
			"buffer":0,
			"byteLength":8424,
			"byteOffset":115512,
			"target":34963
		}
	],
	"buffers":[
		{
			"byteLength":123936,
			"uri":"Bell_flower-22f9360f86e94a3792705305085e30e5.bin"
		}
	]
}
