{
	"asset":{
		"generator":"Khronos glTF Blender I/O v4.3.47",
		"version":"2.0"
	},
	"scene":0,
	"scenes":[
		{
			"name":"Scene",
			"nodes":[
				0
			]
		}
	],
	"nodes":[
		{
			"mesh":0,
			"name":"Bench_02"
		}
	],
	"materials":[
		{
			"doubleSided":true,
			"name":"Wood_Bench02",
			"pbrMetallicRoughness":{
				"baseColorFactor":[
					0.14731444418430328,
					0.09207994490861893,
					0.05493638291954994,
					1
				],
				"metallicFactor":0,
				"roughnessFactor":0.5
			}
		},
		{
			"doubleSided":true,
			"name":"Steel_Bench02",
			"pbrMetallicRoughness":{
				"baseColorFactor":[
					0.13286834955215454,
					0.13286834955215454,
					0.13286834955215454,
					1
				],
				"metallicFactor":0,
				"roughnessFactor":0.5
			}
		}
	],
	"meshes":[
		{
			"name":"Cube.039",
			"primitives":[
				{
					"attributes":{
						"POSITION":0,
						"NORMAL":1,
						"TEXCOORD_0":2
					},
					"indices":3,
					"material":0
				},
				{
					"attributes":{
						"POSITION":4,
						"NORMAL":5,
						"TEXCOORD_0":6
					},
					"indices":7,
					"material":1
				}
			]
		}
	],
	"accessors":[
		{
			"bufferView":0,
			"componentType":5126,
			"count":144,
			"max":[
				8.225729942321777,
				5.806853294372559,
				4.4885945320129395
			],
			"min":[
				-8.225729942321777,
				-1.3711707592010498,
				-3.9194393157958984
			],
			"type":"VEC3"
		},
		{
			"bufferView":1,
			"componentType":5126,
			"count":144,
			"type":"VEC3"
		},
		{
			"bufferView":2,
			"componentType":5126,
			"count":144,
			"type":"VEC2"
		},
		{
			"bufferView":3,
			"componentType":5123,
			"count":216,
			"type":"SCALAR"
		},
		{
			"bufferView":4,
			"componentType":5126,
			"count":300,
			"max":[
				8.397933006286621,
				6.378323078155518,
				4.672582626342773
			],
			"min":[
				-8.397934913635254,
				-6.322412490844727,
				-4.994418144226074
			],
			"type":"VEC3"
		},
		{
			"bufferView":5,
			"componentType":5126,
			"count":300,
			"type":"VEC3"
		},
		{
			"bufferView":6,
			"componentType":5126,
			"count":300,
			"type":"VEC2"
		},
		{
			"bufferView":7,
			"componentType":5123,
			"count":576,
			"type":"SCALAR"
		}
	],
	"bufferViews":[
		{
			"buffer":0,
			"byteLength":1728,
			"byteOffset":0,
			"target":34962
		},
		{
			"buffer":0,
			"byteLength":1728,
			"byteOffset":1728,
			"target":34962
		},
		{
			"buffer":0,
			"byteLength":1152,
			"byteOffset":3456,
			"target":34962
		},
		{
			"buffer":0,
			"byteLength":432,
			"byteOffset":4608,
			"target":34963
		},
		{
			"buffer":0,
			"byteLength":3600,
			"byteOffset":5040,
			"target":34962
		},
		{
			"buffer":0,
			"byteLength":3600,
			"byteOffset":8640,
			"target":34962
		},
		{
			"buffer":0,
			"byteLength":2400,
			"byteOffset":12240,
			"target":34962
		},
		{
			"buffer":0,
			"byteLength":1152,
			"byteOffset":14640,
			"target":34963
		}
	],
	"buffers":[
		{
			"byteLength":15792,
			"uri":"Bench_02-94ab5f661f3f9a75a2d0ee56842a04e1.bin"
		}
	]
}
