{
	"asset":{
		"generator":"Khronos glTF Blender I/O v4.3.47",
		"version":"2.0"
	},
	"scene":0,
	"scenes":[
		{
			"name":"Scene",
			"nodes":[
				0
			]
		}
	],
	"nodes":[
		{
			"mesh":0,
			"name":"Bench_01"
		}
	],
	"materials":[
		{
			"doubleSided":true,
			"name":"Wood_Bench01",
			"pbrMetallicRoughness":{
				"baseColorFactor":[
					0.28829705715179443,
					0.1082184761762619,
					0.05149945616722107,
					1
				],
				"metallicFactor":0,
				"roughnessFactor":0.5
			}
		},
		{
			"doubleSided":true,
			"name":"Steel_Bench01",
			"pbrMetallicRoughness":{
				"baseColorFactor":[
					0.2704978585243225,
					0.2704978585243225,
					0.2704978585243225,
					1
				],
				"metallicFactor":0,
				"roughnessFactor":0.5
			}
		}
	],
	"meshes":[
		{
			"name":"Cube.013",
			"primitives":[
				{
					"attributes":{
						"POSITION":0,
						"NORMAL":1,
						"TEXCOORD_0":2,
						"TANGENT":3
					},
					"indices":4,
					"material":0
				},
				{
					"attributes":{
						"POSITION":5,
						"NORMAL":6,
						"TEXCOORD_0":7,
						"TANGENT":8
					},
					"indices":9,
					"material":1
				}
			]
		}
	],
	"accessors":[
		{
			"bufferView":0,
			"componentType":5126,
			"count":104,
			"max":[
				7.9019455909729,
				6.176416397094727,
				4.010473251342773
			],
			"min":[
				-7.9019455909729,
				-0.24918264150619507,
				-2.849738597869873
			],
			"type":"VEC3"
		},
		{
			"bufferView":1,
			"componentType":5126,
			"count":104,
			"type":"VEC3"
		},
		{
			"bufferView":2,
			"componentType":5126,
			"count":104,
			"type":"VEC2"
		},
		{
			"bufferView":3,
			"componentType":5126,
			"count":104,
			"type":"VEC4"
		},
		{
			"bufferView":4,
			"componentType":5123,
			"count":156,
			"type":"SCALAR"
		},
		{
			"bufferView":5,
			"componentType":5126,
			"count":152,
			"max":[
				6.429900646209717,
				5.077423572540283,
				3.665303945541382
			],
			"min":[
				-6.429900646209717,
				-5.287971019744873,
				-2.9798359870910645
			],
			"type":"VEC3"
		},
		{
			"bufferView":6,
			"componentType":5126,
			"count":152,
			"type":"VEC3"
		},
		{
			"bufferView":7,
			"componentType":5126,
			"count":152,
			"type":"VEC2"
		},
		{
			"bufferView":8,
			"componentType":5126,
			"count":152,
			"type":"VEC4"
		},
		{
			"bufferView":9,
			"componentType":5123,
			"count":228,
			"type":"SCALAR"
		}
	],
	"bufferViews":[
		{
			"buffer":0,
			"byteLength":1248,
			"byteOffset":0,
			"target":34962
		},
		{
			"buffer":0,
			"byteLength":1248,
			"byteOffset":1248,
			"target":34962
		},
		{
			"buffer":0,
			"byteLength":832,
			"byteOffset":2496,
			"target":34962
		},
		{
			"buffer":0,
			"byteLength":1664,
			"byteOffset":3328,
			"target":34962
		},
		{
			"buffer":0,
			"byteLength":312,
			"byteOffset":4992,
			"target":34963
		},
		{
			"buffer":0,
			"byteLength":1824,
			"byteOffset":5304,
			"target":34962
		},
		{
			"buffer":0,
			"byteLength":1824,
			"byteOffset":7128,
			"target":34962
		},
		{
			"buffer":0,
			"byteLength":1216,
			"byteOffset":8952,
			"target":34962
		},
		{
			"buffer":0,
			"byteLength":2432,
			"byteOffset":10168,
			"target":34962
		},
		{
			"buffer":0,
			"byteLength":456,
			"byteOffset":12600,
			"target":34963
		}
	],
	"buffers":[
		{
			"byteLength":13056,
			"uri":"Bench_01-9b92fa993d5f9ef2c09814fe2d324486.bin"
		}
	]
}
