{
	"asset":{
		"generator":"Khronos glTF Blender I/O v4.3.47",
		"version":"2.0"
	},
	"scene":0,
	"scenes":[
		{
			"name":"Scene",
			"nodes":[
				0
			]
		}
	],
	"nodes":[
		{
			"mesh":0,
			"name":"BusStop"
		}
	],
	"materials":[
		{
			"doubleSided":true,
			"name":"BlueBusStop",
			"pbrMetallicRoughness":{
				"baseColorFactor":[
					0.0030352696776390076,
					0.11953846365213394,
					0.597201943397522,
					1
				],
				"metallicFactor":0,
				"roughnessFactor":0.5
			}
		},
		{
			"doubleSided":true,
			"name":"LightBlue_BusStop",
			"pbrMetallicRoughness":{
				"baseColorFactor":[
					0.18782080709934235,
					0.4564110040664673,
					0.9911022186279297,
					1
				],
				"metallicFactor":0,
				"roughnessFactor":0.5
			}
		}
	],
	"meshes":[
		{
			"name":"Cylinder.023",
			"primitives":[
				{
					"attributes":{
						"POSITION":0,
						"NORMAL":1,
						"TEXCOORD_0":2,
						"TANGENT":3
					},
					"indices":4,
					"material":0
				},
				{
					"attributes":{
						"POSITION":5,
						"NORMAL":6,
						"TEXCOORD_0":7,
						"TANGENT":8
					},
					"indices":9,
					"material":1
				}
			]
		}
	],
	"accessors":[
		{
			"bufferView":0,
			"componentType":5126,
			"count":674,
			"max":[
				19.57882308959961,
				8.876015663146973,
				17.7950439453125
			],
			"min":[
				-18.72686004638672,
				-18.323226928710938,
				-6.9695916175842285
			],
			"type":"VEC3"
		},
		{
			"bufferView":1,
			"componentType":5126,
			"count":674,
			"type":"VEC3"
		},
		{
			"bufferView":2,
			"componentType":5126,
			"count":674,
			"type":"VEC2"
		},
		{
			"bufferView":3,
			"componentType":5126,
			"count":674,
			"type":"VEC4"
		},
		{
			"bufferView":4,
			"componentType":5123,
			"count":1020,
			"type":"SCALAR"
		},
		{
			"bufferView":5,
			"componentType":5126,
			"count":216,
			"max":[
				19.57882308959961,
				8.876015663146973,
				17.7950439453125
			],
			"min":[
				-18.72686004638672,
				-18.323226928710938,
				-6.9695916175842285
			],
			"type":"VEC3"
		},
		{
			"bufferView":6,
			"componentType":5126,
			"count":216,
			"type":"VEC3"
		},
		{
			"bufferView":7,
			"componentType":5126,
			"count":216,
			"type":"VEC2"
		},
		{
			"bufferView":8,
			"componentType":5126,
			"count":216,
			"type":"VEC4"
		},
		{
			"bufferView":9,
			"componentType":5123,
			"count":348,
			"type":"SCALAR"
		}
	],
	"bufferViews":[
		{
			"buffer":0,
			"byteLength":8088,
			"byteOffset":0,
			"target":34962
		},
		{
			"buffer":0,
			"byteLength":8088,
			"byteOffset":8088,
			"target":34962
		},
		{
			"buffer":0,
			"byteLength":5392,
			"byteOffset":16176,
			"target":34962
		},
		{
			"buffer":0,
			"byteLength":10784,
			"byteOffset":21568,
			"target":34962
		},
		{
			"buffer":0,
			"byteLength":2040,
			"byteOffset":32352,
			"target":34963
		},
		{
			"buffer":0,
			"byteLength":2592,
			"byteOffset":34392,
			"target":34962
		},
		{
			"buffer":0,
			"byteLength":2592,
			"byteOffset":36984,
			"target":34962
		},
		{
			"buffer":0,
			"byteLength":1728,
			"byteOffset":39576,
			"target":34962
		},
		{
			"buffer":0,
			"byteLength":3456,
			"byteOffset":41304,
			"target":34962
		},
		{
			"buffer":0,
			"byteLength":696,
			"byteOffset":44760,
			"target":34963
		}
	],
	"buffers":[
		{
			"byteLength":45456,
			"uri":"BusStop-d61a48e0f19cf298bcef4736ab2b3f0d.bin"
		}
	]
}
