{
	"asset":{
		"generator":"Khronos glTF Blender I/O v4.3.47",
		"version":"2.0"
	},
	"scene":0,
	"scenes":[
		{
			"name":"Scene",
			"nodes":[
				0
			]
		}
	],
	"nodes":[
		{
			"mesh":0,
			"name":"Cake03"
		}
	],
	"materials":[
		{
			"doubleSided":true,
			"name":"DarkRed_Cake03",
			"pbrMetallicRoughness":{
				"baseColorFactor":[
					0.3419145941734314,
					0.0168073121458292,
					0.030713461339473724,
					1
				],
				"metallicFactor":0,
				"roughnessFactor":0.5
			}
		},
		{
			"doubleSided":true,
			"name":"Brown_Cake03",
			"pbrMetallicRoughness":{
				"baseColorFactor":[
					0.3762623369693756,
					0.08650041371583939,
					0.017641965299844742,
					1
				],
				"metallicFactor":0,
				"roughnessFactor":0.5
			}
		},
		{
			"doubleSided":true,
			"name":"Red_Cake03",
			"pbrMetallicRoughness":{
				"baseColorFactor":[
					0.3762623369693756,
					0.02315331995487213,
					0.017641963437199593,
					1
				],
				"metallicFactor":0,
				"roughnessFactor":0.5
			}
		}
	],
	"meshes":[
		{
			"name":"Cylinder.083",
			"primitives":[
				{
					"attributes":{
						"POSITION":0,
						"NORMAL":1,
						"TEXCOORD_0":2
					},
					"indices":3,
					"material":0
				},
				{
					"attributes":{
						"POSITION":4,
						"NORMAL":5,
						"TEXCOORD_0":6
					},
					"indices":7,
					"material":1
				},
				{
					"attributes":{
						"POSITION":8,
						"NORMAL":9,
						"TEXCOORD_0":10
					},
					"indices":11,
					"material":2
				}
			]
		}
	],
	"accessors":[
		{
			"bufferView":0,
			"componentType":5126,
			"count":2666,
			"max":[
				5.410063743591309,
				0.9272595643997192,
				5.459959030151367
			],
			"min":[
				-5.487814426422119,
				-3.0881922245025635,
				-5.437921524047852
			],
			"type":"VEC3"
		},
		{
			"bufferView":1,
			"componentType":5126,
			"count":2666,
			"type":"VEC3"
		},
		{
			"bufferView":2,
			"componentType":5126,
			"count":2666,
			"type":"VEC2"
		},
		{
			"bufferView":3,
			"componentType":5123,
			"count":14520,
			"type":"SCALAR"
		},
		{
			"bufferView":4,
			"componentType":5126,
			"count":166,
			"max":[
				5.05203914642334,
				0.10534415394067764,
				5.009031772613525
			],
			"min":[
				-4.862955093383789,
				-4.539273738861084,
				-4.905962944030762
			],
			"type":"VEC3"
		},
		{
			"bufferView":5,
			"componentType":5126,
			"count":166,
			"type":"VEC3"
		},
		{
			"bufferView":6,
			"componentType":5126,
			"count":166,
			"type":"VEC2"
		},
		{
			"bufferView":7,
			"componentType":5123,
			"count":588,
			"type":"SCALAR"
		},
		{
			"bufferView":8,
			"componentType":5126,
			"count":1750,
			"max":[
				4.804197311401367,
				1.6213043928146362,
				4.457382678985596
			],
			"min":[
				-4.629265308380127,
				-0.43547487258911133,
				-4.71578311920166
			],
			"type":"VEC3"
		},
		{
			"bufferView":9,
			"componentType":5126,
			"count":1750,
			"type":"VEC3"
		},
		{
			"bufferView":10,
			"componentType":5126,
			"count":1750,
			"type":"VEC2"
		},
		{
			"bufferView":11,
			"componentType":5123,
			"count":8064,
			"type":"SCALAR"
		}
	],
	"bufferViews":[
		{
			"buffer":0,
			"byteLength":31992,
			"byteOffset":0,
			"target":34962
		},
		{
			"buffer":0,
			"byteLength":31992,
			"byteOffset":31992,
			"target":34962
		},
		{
			"buffer":0,
			"byteLength":21328,
			"byteOffset":63984,
			"target":34962
		},
		{
			"buffer":0,
			"byteLength":29040,
			"byteOffset":85312,
			"target":34963
		},
		{
			"buffer":0,
			"byteLength":1992,
			"byteOffset":114352,
			"target":34962
		},
		{
			"buffer":0,
			"byteLength":1992,
			"byteOffset":116344,
			"target":34962
		},
		{
			"buffer":0,
			"byteLength":1328,
			"byteOffset":118336,
			"target":34962
		},
		{
			"buffer":0,
			"byteLength":1176,
			"byteOffset":119664,
			"target":34963
		},
		{
			"buffer":0,
			"byteLength":21000,
			"byteOffset":120840,
			"target":34962
		},
		{
			"buffer":0,
			"byteLength":21000,
			"byteOffset":141840,
			"target":34962
		},
		{
			"buffer":0,
			"byteLength":14000,
			"byteOffset":162840,
			"target":34962
		},
		{
			"buffer":0,
			"byteLength":16128,
			"byteOffset":176840,
			"target":34963
		}
	],
	"buffers":[
		{
			"byteLength":192968,
			"uri":"Cake03-4382c6f761130ded4bb9b4f055a0eb6d.bin"
		}
	]
}
