{
	"asset":{
		"generator":"Khronos glTF Blender I/O v4.3.47",
		"version":"2.0"
	},
	"scene":0,
	"scenes":[
		{
			"name":"Scene",
			"nodes":[
				0
			]
		}
	],
	"nodes":[
		{
			"mesh":0,
			"name":"Cake01"
		}
	],
	"materials":[
		{
			"doubleSided":true,
			"name":"White_Cake01",
			"pbrMetallicRoughness":{
				"metallicFactor":0,
				"roughnessFactor":0.5
			}
		},
		{
			"doubleSided":true,
			"name":"Brown_Cake01",
			"pbrMetallicRoughness":{
				"baseColorFactor":[
					0.15896090865135193,
					0.08865558356046677,
					0,
					1
				],
				"metallicFactor":0,
				"roughnessFactor":0.5
			}
		},
		{
			"doubleSided":true,
			"name":"DarkBrown_Cake01",
			"pbrMetallicRoughness":{
				"baseColorFactor":[
					0.12279394268989563,
					0.03688030317425728,
					0,
					1
				],
				"metallicFactor":0,
				"roughnessFactor":0.5
			}
		}
	],
	"meshes":[
		{
			"name":"Cylinder.025",
			"primitives":[
				{
					"attributes":{
						"POSITION":0,
						"NORMAL":1,
						"TEXCOORD_0":2
					},
					"indices":3,
					"material":0
				},
				{
					"attributes":{
						"POSITION":4,
						"NORMAL":5,
						"TEXCOORD_0":6
					},
					"indices":7,
					"material":1
				},
				{
					"attributes":{
						"POSITION":8,
						"NORMAL":9,
						"TEXCOORD_0":10
					},
					"indices":11,
					"material":2
				}
			]
		}
	],
	"accessors":[
		{
			"bufferView":0,
			"componentType":5126,
			"count":3531,
			"max":[
				3.4310364723205566,
				1.3644182682037354,
				3.5765743255615234
			],
			"min":[
				-3.8340704441070557,
				0.025859907269477844,
				-3.6835291385650635
			],
			"type":"VEC3"
		},
		{
			"bufferView":1,
			"componentType":5126,
			"count":3531,
			"type":"VEC3"
		},
		{
			"bufferView":2,
			"componentType":5126,
			"count":3531,
			"type":"VEC2"
		},
		{
			"bufferView":3,
			"componentType":5123,
			"count":14256,
			"type":"SCALAR"
		},
		{
			"bufferView":4,
			"componentType":5126,
			"count":124,
			"max":[
				3.9200963973999023,
				0.05635923519730568,
				4.010833740234375
			],
			"min":[
				-4.245914459228516,
				-3.546734571456909,
				-4.155177116394043
			],
			"type":"VEC3"
		},
		{
			"bufferView":5,
			"componentType":5126,
			"count":124,
			"type":"VEC3"
		},
		{
			"bufferView":6,
			"componentType":5126,
			"count":124,
			"type":"VEC2"
		},
		{
			"bufferView":7,
			"componentType":5123,
			"count":468,
			"type":"SCALAR"
		},
		{
			"bufferView":8,
			"componentType":5126,
			"count":6683,
			"max":[
				4.394952297210693,
				0.7207236886024475,
				4.471844673156738
			],
			"min":[
				-4.707480430603027,
				-2.5554277896881104,
				-4.648691654205322
			],
			"type":"VEC3"
		},
		{
			"bufferView":9,
			"componentType":5126,
			"count":6683,
			"type":"VEC3"
		},
		{
			"bufferView":10,
			"componentType":5126,
			"count":6683,
			"type":"VEC2"
		},
		{
			"bufferView":11,
			"componentType":5123,
			"count":34560,
			"type":"SCALAR"
		}
	],
	"bufferViews":[
		{
			"buffer":0,
			"byteLength":42372,
			"byteOffset":0,
			"target":34962
		},
		{
			"buffer":0,
			"byteLength":42372,
			"byteOffset":42372,
			"target":34962
		},
		{
			"buffer":0,
			"byteLength":28248,
			"byteOffset":84744,
			"target":34962
		},
		{
			"buffer":0,
			"byteLength":28512,
			"byteOffset":112992,
			"target":34963
		},
		{
			"buffer":0,
			"byteLength":1488,
			"byteOffset":141504,
			"target":34962
		},
		{
			"buffer":0,
			"byteLength":1488,
			"byteOffset":142992,
			"target":34962
		},
		{
			"buffer":0,
			"byteLength":992,
			"byteOffset":144480,
			"target":34962
		},
		{
			"buffer":0,
			"byteLength":936,
			"byteOffset":145472,
			"target":34963
		},
		{
			"buffer":0,
			"byteLength":80196,
			"byteOffset":146408,
			"target":34962
		},
		{
			"buffer":0,
			"byteLength":80196,
			"byteOffset":226604,
			"target":34962
		},
		{
			"buffer":0,
			"byteLength":53464,
			"byteOffset":306800,
			"target":34962
		},
		{
			"buffer":0,
			"byteLength":69120,
			"byteOffset":360264,
			"target":34963
		}
	],
	"buffers":[
		{
			"byteLength":429384,
			"uri":"Cake01-f46529121543b793b538f22465b7b71d.bin"
		}
	]
}
