{
	"asset":{
		"generator":"Khronos glTF Blender I/O v4.3.47",
		"version":"2.0"
	},
	"scene":0,
	"scenes":[
		{
			"name":"Scene",
			"nodes":[
				0
			]
		}
	],
	"nodes":[
		{
			"mesh":0,
			"name":"Cake02"
		}
	],
	"materials":[
		{
			"doubleSided":true,
			"name":"White_Cake02",
			"pbrMetallicRoughness":{
				"metallicFactor":0,
				"roughnessFactor":0.5
			}
		},
		{
			"doubleSided":true,
			"name":"Blue_Cake02",
			"pbrMetallicRoughness":{
				"baseColorFactor":[
					0.17786481976509094,
					0.17075732350349426,
					0.2956920564174652,
					1
				],
				"metallicFactor":0,
				"roughnessFactor":0.5
			}
		},
		{
			"doubleSided":true,
			"name":"DarkBlue_Cake02",
			"pbrMetallicRoughness":{
				"baseColorFactor":[
					0.04373503476381302,
					0.030713459476828575,
					0.05126946419477463,
					1
				],
				"metallicFactor":0,
				"roughnessFactor":0.5
			}
		},
		{
			"doubleSided":true,
			"name":"WhiteCake2_Cake02",
			"pbrMetallicRoughness":{
				"baseColorFactor":[
					0.800000011920929,
					0.800000011920929,
					0.800000011920929,
					1
				],
				"metallicFactor":0,
				"roughnessFactor":0.5
			}
		}
	],
	"meshes":[
		{
			"name":"Cylinder.080",
			"primitives":[
				{
					"attributes":{
						"POSITION":0,
						"NORMAL":1,
						"TEXCOORD_0":2
					},
					"indices":3,
					"material":0
				},
				{
					"attributes":{
						"POSITION":4,
						"NORMAL":5,
						"TEXCOORD_0":6
					},
					"indices":7,
					"material":1
				},
				{
					"attributes":{
						"POSITION":8,
						"NORMAL":9,
						"TEXCOORD_0":10
					},
					"indices":11,
					"material":2
				},
				{
					"attributes":{
						"POSITION":12,
						"NORMAL":13,
						"TEXCOORD_0":14
					},
					"indices":15,
					"material":3
				}
			]
		}
	],
	"accessors":[
		{
			"bufferView":0,
			"componentType":5126,
			"count":7700,
			"max":[
				4.368317127227783,
				2.433793067932129,
				4.418968200683594
			],
			"min":[
				-4.310862064361572,
				-2.311842441558838,
				-4.37075662612915
			],
			"type":"VEC3"
		},
		{
			"bufferView":1,
			"componentType":5126,
			"count":7700,
			"type":"VEC3"
		},
		{
			"bufferView":2,
			"componentType":5126,
			"count":7700,
			"type":"VEC2"
		},
		{
			"bufferView":3,
			"componentType":5123,
			"count":30240,
			"type":"SCALAR"
		},
		{
			"bufferView":4,
			"componentType":5126,
			"count":11284,
			"max":[
				3.964841365814209,
				2.7093663215637207,
				3.980257034301758
			],
			"min":[
				-3.937960386276245,
				-1.6681015491485596,
				-3.9406416416168213
			],
			"type":"VEC3"
		},
		{
			"bufferView":5,
			"componentType":5126,
			"count":11284,
			"type":"VEC3"
		},
		{
			"bufferView":6,
			"componentType":5126,
			"count":11284,
			"type":"VEC2"
		},
		{
			"bufferView":7,
			"componentType":5123,
			"count":50400,
			"type":"SCALAR"
		},
		{
			"bufferView":8,
			"componentType":5126,
			"count":435,
			"max":[
				4.2778544425964355,
				1.8760634660720825,
				4.330753803253174
			],
			"min":[
				-4.30474853515625,
				-5.989185333251953,
				-4.25184965133667
			],
			"type":"VEC3"
		},
		{
			"bufferView":9,
			"componentType":5126,
			"count":435,
			"type":"VEC3"
		},
		{
			"bufferView":10,
			"componentType":5126,
			"count":435,
			"type":"VEC2"
		},
		{
			"bufferView":11,
			"componentType":5123,
			"count":1242,
			"type":"SCALAR"
		},
		{
			"bufferView":12,
			"componentType":5126,
			"count":186,
			"max":[
				4.2778544425964355,
				1.2895417213439941,
				4.330753803253174
			],
			"min":[
				-4.30474853515625,
				-5.989185333251953,
				-4.25184965133667
			],
			"type":"VEC3"
		},
		{
			"bufferView":13,
			"componentType":5126,
			"count":186,
			"type":"VEC3"
		},
		{
			"bufferView":14,
			"componentType":5126,
			"count":186,
			"type":"VEC2"
		},
		{
			"bufferView":15,
			"componentType":5123,
			"count":522,
			"type":"SCALAR"
		}
	],
	"bufferViews":[
		{
			"buffer":0,
			"byteLength":92400,
			"byteOffset":0,
			"target":34962
		},
		{
			"buffer":0,
			"byteLength":92400,
			"byteOffset":92400,
			"target":34962
		},
		{
			"buffer":0,
			"byteLength":61600,
			"byteOffset":184800,
			"target":34962
		},
		{
			"buffer":0,
			"byteLength":60480,
			"byteOffset":246400,
			"target":34963
		},
		{
			"buffer":0,
			"byteLength":135408,
			"byteOffset":306880,
			"target":34962
		},
		{
			"buffer":0,
			"byteLength":135408,
			"byteOffset":442288,
			"target":34962
		},
		{
			"buffer":0,
			"byteLength":90272,
			"byteOffset":577696,
			"target":34962
		},
		{
			"buffer":0,
			"byteLength":100800,
			"byteOffset":667968,
			"target":34963
		},
		{
			"buffer":0,
			"byteLength":5220,
			"byteOffset":768768,
			"target":34962
		},
		{
			"buffer":0,
			"byteLength":5220,
			"byteOffset":773988,
			"target":34962
		},
		{
			"buffer":0,
			"byteLength":3480,
			"byteOffset":779208,
			"target":34962
		},
		{
			"buffer":0,
			"byteLength":2484,
			"byteOffset":782688,
			"target":34963
		},
		{
			"buffer":0,
			"byteLength":2232,
			"byteOffset":785172,
			"target":34962
		},
		{
			"buffer":0,
			"byteLength":2232,
			"byteOffset":787404,
			"target":34962
		},
		{
			"buffer":0,
			"byteLength":1488,
			"byteOffset":789636,
			"target":34962
		},
		{
			"buffer":0,
			"byteLength":1044,
			"byteOffset":791124,
			"target":34963
		}
	],
	"buffers":[
		{
			"byteLength":792168,
			"uri":"Cake02-41c08337f4cb6980d46e03453cfcf8bd.bin"
		}
	]
}
