{
	"asset":{
		"generator":"Khronos glTF Blender I/O v4.3.47",
		"version":"2.0"
	},
	"scene":0,
	"scenes":[
		{
			"name":"Scene",
			"nodes":[
				0
			]
		}
	],
	"nodes":[
		{
			"mesh":0,
			"name":"SlicedCheese01"
		}
	],
	"materials":[
		{
			"doubleSided":true,
			"name":"Yellow_SlicedCheese01",
			"pbrMetallicRoughness":{
				"baseColorFactor":[
					0.6583747863769531,
					0.6104958057403564,
					0.14412856101989746,
					1
				],
				"metallicFactor":0,
				"roughnessFactor":0.5
			}
		}
	],
	"meshes":[
		{
			"name":"Cube.001",
			"primitives":[
				{
					"attributes":{
						"POSITION":0,
						"NORMAL":1,
						"TEXCOORD_0":2,
						"TANGENT":3
					},
					"indices":4,
					"material":0
				}
			]
		}
	],
	"accessors":[
		{
			"bufferView":0,
			"componentType":5126,
			"count":143,
			"max":[
				1.3796987533569336,
				1,
				2.0805883407592773
			],
			"min":[
				-1.3796987533569336,
				-1,
				-2.0805881023406982
			],
			"type":"VEC3"
		},
		{
			"bufferView":1,
			"componentType":5126,
			"count":143,
			"type":"VEC3"
		},
		{
			"bufferView":2,
			"componentType":5126,
			"count":143,
			"type":"VEC2"
		},
		{
			"bufferView":3,
			"componentType":5126,
			"count":143,
			"type":"VEC4"
		},
		{
			"bufferView":4,
			"componentType":5123,
			"count":564,
			"type":"SCALAR"
		}
	],
	"bufferViews":[
		{
			"buffer":0,
			"byteLength":1716,
			"byteOffset":0,
			"target":34962
		},
		{
			"buffer":0,
			"byteLength":1716,
			"byteOffset":1716,
			"target":34962
		},
		{
			"buffer":0,
			"byteLength":1144,
			"byteOffset":3432,
			"target":34962
		},
		{
			"buffer":0,
			"byteLength":2288,
			"byteOffset":4576,
			"target":34962
		},
		{
			"buffer":0,
			"byteLength":1128,
			"byteOffset":6864,
			"target":34963
		}
	],
	"buffers":[
		{
			"byteLength":7992,
			"uri":"Cheese01-1c7be418bdd8fefd5b57d0bc116b08c2.bin"
		}
	]
}
