{
	"asset":{
		"generator":"Khronos glTF Blender I/O v4.3.47",
		"version":"2.0"
	},
	"scene":0,
	"scenes":[
		{
			"name":"Scene",
			"nodes":[
				0
			]
		}
	],
	"nodes":[
		{
			"mesh":0,
			"name":"Chemicaltoilet"
		}
	],
	"materials":[
		{
			"doubleSided":true,
			"name":"White_Chemical toilet",
			"pbrMetallicRoughness":{
				"baseColorFactor":[
					0.913098931312561,
					0.913098931312561,
					0.913098931312561,
					1
				],
				"metallicFactor":0,
				"roughnessFactor":0.5
			}
		},
		{
			"doubleSided":true,
			"name":"Blue_Chemical toilet",
			"pbrMetallicRoughness":{
				"baseColorFactor":[
					0.09113149344921112,
					0.21476562321186066,
					0.45753154158592224,
					1
				],
				"metallicFactor":0,
				"roughnessFactor":0.5
			}
		}
	],
	"meshes":[
		{
			"name":"Cube.014",
			"primitives":[
				{
					"attributes":{
						"POSITION":0,
						"NORMAL":1,
						"TEXCOORD_0":2
					},
					"indices":3,
					"material":0
				},
				{
					"attributes":{
						"POSITION":4,
						"NORMAL":5,
						"TEXCOORD_0":6
					},
					"indices":7,
					"material":1
				}
			]
		}
	],
	"accessors":[
		{
			"bufferView":0,
			"componentType":5126,
			"count":228,
			"max":[
				3.7259631156921387,
				5.215443134307861,
				6.176210403442383
			],
			"min":[
				-3.9101662635803223,
				-4.76814603805542,
				-6.66450309753418
			],
			"type":"VEC3"
		},
		{
			"bufferView":1,
			"componentType":5126,
			"count":228,
			"type":"VEC3"
		},
		{
			"bufferView":2,
			"componentType":5126,
			"count":228,
			"type":"VEC2"
		},
		{
			"bufferView":3,
			"componentType":5123,
			"count":360,
			"type":"SCALAR"
		},
		{
			"bufferView":4,
			"componentType":5126,
			"count":210,
			"max":[
				3.16021466255188,
				4.340071678161621,
				5.920928001403809
			],
			"min":[
				-3.3444182872772217,
				-5.737080097198486,
				-6.591586589813232
			],
			"type":"VEC3"
		},
		{
			"bufferView":5,
			"componentType":5126,
			"count":210,
			"type":"VEC3"
		},
		{
			"bufferView":6,
			"componentType":5126,
			"count":210,
			"type":"VEC2"
		},
		{
			"bufferView":7,
			"componentType":5123,
			"count":456,
			"type":"SCALAR"
		}
	],
	"bufferViews":[
		{
			"buffer":0,
			"byteLength":2736,
			"byteOffset":0,
			"target":34962
		},
		{
			"buffer":0,
			"byteLength":2736,
			"byteOffset":2736,
			"target":34962
		},
		{
			"buffer":0,
			"byteLength":1824,
			"byteOffset":5472,
			"target":34962
		},
		{
			"buffer":0,
			"byteLength":720,
			"byteOffset":7296,
			"target":34963
		},
		{
			"buffer":0,
			"byteLength":2520,
			"byteOffset":8016,
			"target":34962
		},
		{
			"buffer":0,
			"byteLength":2520,
			"byteOffset":10536,
			"target":34962
		},
		{
			"buffer":0,
			"byteLength":1680,
			"byteOffset":13056,
			"target":34962
		},
		{
			"buffer":0,
			"byteLength":912,
			"byteOffset":14736,
			"target":34963
		}
	],
	"buffers":[
		{
			"byteLength":15648,
			"uri":"Chemicaltoilet-a15ed7579ab081501d1569f9f09f863c.bin"
		}
	]
}
