{
	"asset":{
		"generator":"Khronos glTF Blender I/O v4.3.47",
		"version":"2.0"
	},
	"scene":0,
	"scenes":[
		{
			"name":"Scene",
			"nodes":[
				0
			]
		}
	],
	"nodes":[
		{
			"mesh":0,
			"name":"Cone_02"
		}
	],
	"materials":[
		{
			"doubleSided":true,
			"name":"WhiteCone.001",
			"pbrMetallicRoughness":{
				"baseColorFactor":[
					0.913098931312561,
					0.913098931312561,
					0.913098931312561,
					1
				],
				"metallicFactor":0,
				"roughnessFactor":0.5
			}
		},
		{
			"doubleSided":true,
			"name":"RedCone.001",
			"pbrMetallicRoughness":{
				"baseColorFactor":[
					0.7156935930252075,
					0.10224173218011856,
					0.0423114150762558,
					1
				],
				"metallicFactor":0,
				"roughnessFactor":0.5
			}
		}
	],
	"meshes":[
		{
			"name":"Cylinder.001",
			"primitives":[
				{
					"attributes":{
						"POSITION":0,
						"NORMAL":1,
						"TEXCOORD_0":2
					},
					"indices":3,
					"material":0
				},
				{
					"attributes":{
						"POSITION":4,
						"NORMAL":5,
						"TEXCOORD_0":6
					},
					"indices":7,
					"material":1
				}
			]
		}
	],
	"accessors":[
		{
			"bufferView":0,
			"componentType":5126,
			"count":64,
			"max":[
				0.4080268442630768,
				1.1091623306274414,
				0.40802690386772156
			],
			"min":[
				-0.40802690386772156,
				-0.9709805846214294,
				-0.40802690386772156
			],
			"type":"VEC3"
		},
		{
			"bufferView":1,
			"componentType":5126,
			"count":64,
			"type":"VEC3"
		},
		{
			"bufferView":2,
			"componentType":5126,
			"count":64,
			"type":"VEC2"
		},
		{
			"bufferView":3,
			"componentType":5123,
			"count":96,
			"type":"SCALAR"
		},
		{
			"bufferView":4,
			"componentType":5126,
			"count":128,
			"max":[
				1.2917770147323608,
				1.80254328250885,
				1.2917768955230713
			],
			"min":[
				-1.2917767763137817,
				-1.1079260110855103,
				-1.2917768955230713
			],
			"type":"VEC3"
		},
		{
			"bufferView":5,
			"componentType":5126,
			"count":128,
			"type":"VEC3"
		},
		{
			"bufferView":6,
			"componentType":5126,
			"count":128,
			"type":"VEC2"
		},
		{
			"bufferView":7,
			"componentType":5123,
			"count":228,
			"type":"SCALAR"
		}
	],
	"bufferViews":[
		{
			"buffer":0,
			"byteLength":768,
			"byteOffset":0,
			"target":34962
		},
		{
			"buffer":0,
			"byteLength":768,
			"byteOffset":768,
			"target":34962
		},
		{
			"buffer":0,
			"byteLength":512,
			"byteOffset":1536,
			"target":34962
		},
		{
			"buffer":0,
			"byteLength":192,
			"byteOffset":2048,
			"target":34963
		},
		{
			"buffer":0,
			"byteLength":1536,
			"byteOffset":2240,
			"target":34962
		},
		{
			"buffer":0,
			"byteLength":1536,
			"byteOffset":3776,
			"target":34962
		},
		{
			"buffer":0,
			"byteLength":1024,
			"byteOffset":5312,
			"target":34962
		},
		{
			"buffer":0,
			"byteLength":456,
			"byteOffset":6336,
			"target":34963
		}
	],
	"buffers":[
		{
			"byteLength":6792,
			"uri":"Cone_02-ff78f7f4105f231b6975fe7c3a53d67d.bin"
		}
	]
}
