{
	"asset":{
		"generator":"Khronos glTF Blender I/O v4.3.47",
		"version":"2.0"
	},
	"scene":0,
	"scenes":[
		{
			"name":"Scene",
			"nodes":[
				0
			]
		}
	],
	"nodes":[
		{
			"mesh":0,
			"name":"Cone_01"
		}
	],
	"materials":[
		{
			"doubleSided":true,
			"name":"RedCone",
			"pbrMetallicRoughness":{
				"baseColorFactor":[
					0.7156935930252075,
					0.10224173218011856,
					0.0423114150762558,
					1
				],
				"metallicFactor":0,
				"roughnessFactor":0.5
			}
		},
		{
			"doubleSided":true,
			"name":"WhiteCone",
			"pbrMetallicRoughness":{
				"baseColorFactor":[
					0.913098931312561,
					0.913098931312561,
					0.913098931312561,
					1
				],
				"metallicFactor":0,
				"roughnessFactor":0.5
			}
		}
	],
	"meshes":[
		{
			"name":"Cylinder",
			"primitives":[
				{
					"attributes":{
						"POSITION":0,
						"NORMAL":1,
						"TEXCOORD_0":2
					},
					"indices":3,
					"material":0
				},
				{
					"attributes":{
						"POSITION":4,
						"NORMAL":5,
						"TEXCOORD_0":6
					},
					"indices":7,
					"material":1
				}
			]
		}
	],
	"accessors":[
		{
			"bufferView":0,
			"componentType":5126,
			"count":136,
			"max":[
				1.2981208562850952,
				0.7966587543487549,
				1.2981208562850952
			],
			"min":[
				-1.2981208562850952,
				-0.7724815607070923,
				-1.2981208562850952
			],
			"type":"VEC3"
		},
		{
			"bufferView":1,
			"componentType":5126,
			"count":136,
			"type":"VEC3"
		},
		{
			"bufferView":2,
			"componentType":5126,
			"count":136,
			"type":"VEC2"
		},
		{
			"bufferView":3,
			"componentType":5123,
			"count":210,
			"type":"SCALAR"
		},
		{
			"bufferView":4,
			"componentType":5126,
			"count":72,
			"max":[
				0.5123964548110962,
				1.2966587543487549,
				0.5123964548110962
			],
			"min":[
				-0.5123964548110962,
				-0.2033412754535675,
				-0.5123964548110962
			],
			"type":"VEC3"
		},
		{
			"bufferView":5,
			"componentType":5126,
			"count":72,
			"type":"VEC3"
		},
		{
			"bufferView":6,
			"componentType":5126,
			"count":72,
			"type":"VEC2"
		},
		{
			"bufferView":7,
			"componentType":5123,
			"count":114,
			"type":"SCALAR"
		}
	],
	"bufferViews":[
		{
			"buffer":0,
			"byteLength":1632,
			"byteOffset":0,
			"target":34962
		},
		{
			"buffer":0,
			"byteLength":1632,
			"byteOffset":1632,
			"target":34962
		},
		{
			"buffer":0,
			"byteLength":1088,
			"byteOffset":3264,
			"target":34962
		},
		{
			"buffer":0,
			"byteLength":420,
			"byteOffset":4352,
			"target":34963
		},
		{
			"buffer":0,
			"byteLength":864,
			"byteOffset":4772,
			"target":34962
		},
		{
			"buffer":0,
			"byteLength":864,
			"byteOffset":5636,
			"target":34962
		},
		{
			"buffer":0,
			"byteLength":576,
			"byteOffset":6500,
			"target":34962
		},
		{
			"buffer":0,
			"byteLength":228,
			"byteOffset":7076,
			"target":34963
		}
	],
	"buffers":[
		{
			"byteLength":7304,
			"uri":"Cone_01-512a5bbb4fab30b3cf065ebde5f4383b.bin"
		}
	]
}
