{
	"asset":{
		"generator":"Khronos glTF Blender I/O v4.3.47",
		"version":"2.0"
	},
	"extensionsUsed":[
		"KHR_lights_punctual"
	],
	"extensionsRequired":[
		"KHR_lights_punctual"
	],
	"extensions":{
		"KHR_lights_punctual":{
			"lights":[
				{
					"color":[
						1,
						1,
						1
					],
					"intensity":54351.41306588226,
					"type":"point",
					"name":"Light"
				}
			]
		}
	},
	"scene":0,
	"scenes":[
		{
			"name":"Scene",
			"nodes":[
				0,
				1,
				2
			]
		}
	],
	"nodes":[
		{
			"extensions":{
				"KHR_lights_punctual":{
					"light":0
				}
			},
			"name":"Light",
			"rotation":[
				-0.28416627645492554,
				0.7269423007965088,
				0.34203392267227173,
				0.5232754945755005
			],
			"translation":[
				4.076245307922363,
				5.903861999511719,
				-1.0054539442062378
			]
		},
		{
			"camera":0,
			"name":"Camera",
			"rotation":[
				-0.20997299253940582,
				0.3857799470424652,
				0.09062844514846802,
				0.8937962055206299
			],
			"translation":[
				7.358891487121582,
				4.958309173583984,
				6.925790786743164
			]
		},
		{
			"mesh":0,
			"name":"Door01_house04"
		}
	],
	"cameras":[
		{
			"name":"Camera",
			"perspective":{
				"aspectRatio":1.7777777777777777,
				"yfov":0.39959652046304894,
				"zfar":100,
				"znear":0.10000000149011612
			},
			"type":"perspective"
		}
	],
	"materials":[
		{
			"doubleSided":true,
			"name":"Wood_house04",
			"pbrMetallicRoughness":{
				"baseColorFactor":[
					0.6938718557357788,
					0.5583405494689941,
					0.29177066683769226,
					1
				],
				"metallicFactor":0,
				"roughnessFactor":0.5
			}
		},
		{
			"doubleSided":true,
			"name":"Cream_house04",
			"pbrMetallicRoughness":{
				"baseColorFactor":[
					0.8796226382255554,
					0.8713672757148743,
					0.8307698369026184,
					1
				],
				"metallicFactor":0,
				"roughnessFactor":0.5
			}
		},
		{
			"doubleSided":true,
			"name":"Window_house04",
			"pbrMetallicRoughness":{
				"baseColorFactor":[
					0.31398868560791016,
					0.40724021196365356,
					0.6724432706832886,
					1
				],
				"metallicFactor":0,
				"roughnessFactor":0.5
			}
		},
		{
			"doubleSided":true,
			"name":"Gray_house04",
			"pbrMetallicRoughness":{
				"baseColorFactor":[
					0.6795427203178406,
					0.6239604353904724,
					0.6104956865310669,
					1
				],
				"metallicFactor":0,
				"roughnessFactor":0.5
			}
		}
	],
	"meshes":[
		{
			"name":"Cube.002",
			"primitives":[
				{
					"attributes":{
						"POSITION":0,
						"NORMAL":1,
						"TEXCOORD_0":2
					},
					"indices":3,
					"material":0
				},
				{
					"attributes":{
						"POSITION":4,
						"NORMAL":5,
						"TEXCOORD_0":6
					},
					"indices":7,
					"material":1
				},
				{
					"attributes":{
						"POSITION":8,
						"NORMAL":9,
						"TEXCOORD_0":10
					},
					"indices":11,
					"material":2
				},
				{
					"attributes":{
						"POSITION":12,
						"NORMAL":13,
						"TEXCOORD_0":14
					},
					"indices":15,
					"material":3
				}
			]
		}
	],
	"accessors":[
		{
			"bufferView":0,
			"componentType":5126,
			"count":508,
			"max":[
				2.675525426864624,
				1.4596881866455078,
				0.197836771607399
			],
			"min":[
				-2.7900583744049072,
				-1.8452744483947754,
				-0.197836771607399
			],
			"type":"VEC3"
		},
		{
			"bufferView":1,
			"componentType":5126,
			"count":508,
			"type":"VEC3"
		},
		{
			"bufferView":2,
			"componentType":5126,
			"count":508,
			"type":"VEC2"
		},
		{
			"bufferView":3,
			"componentType":5123,
			"count":1008,
			"type":"SCALAR"
		},
		{
			"bufferView":4,
			"componentType":5126,
			"count":1562,
			"max":[
				1.7234632968902588,
				1.3037340641021729,
				0.5303897857666016
			],
			"min":[
				-1.837996482849121,
				-1.8510397672653198,
				-0.5303898453712463
			],
			"type":"VEC3"
		},
		{
			"bufferView":5,
			"componentType":5126,
			"count":1562,
			"type":"VEC3"
		},
		{
			"bufferView":6,
			"componentType":5126,
			"count":1562,
			"type":"VEC2"
		},
		{
			"bufferView":7,
			"componentType":5123,
			"count":3672,
			"type":"SCALAR"
		},
		{
			"bufferView":8,
			"componentType":5126,
			"count":128,
			"max":[
				1.3091111183166504,
				1.1076245307922363,
				0.08095843344926834
			],
			"min":[
				-1.4236443042755127,
				-0.8455483913421631,
				-0.08095841854810715
			],
			"type":"VEC3"
		},
		{
			"bufferView":9,
			"componentType":5126,
			"count":128,
			"type":"VEC3"
		},
		{
			"bufferView":10,
			"componentType":5126,
			"count":128,
			"type":"VEC2"
		},
		{
			"bufferView":11,
			"componentType":5123,
			"count":192,
			"type":"SCALAR"
		},
		{
			"bufferView":12,
			"componentType":5126,
			"count":292,
			"max":[
				0.5614190697669983,
				0.03203807771205902,
				0.25402215123176575
			],
			"min":[
				0.37492379546165466,
				-0.45252418518066406,
				-0.25402218103408813
			],
			"type":"VEC3"
		},
		{
			"bufferView":13,
			"componentType":5126,
			"count":292,
			"type":"VEC3"
		},
		{
			"bufferView":14,
			"componentType":5126,
			"count":292,
			"type":"VEC2"
		},
		{
			"bufferView":15,
			"componentType":5123,
			"count":480,
			"type":"SCALAR"
		}
	],
	"bufferViews":[
		{
			"buffer":0,
			"byteLength":6096,
			"byteOffset":0,
			"target":34962
		},
		{
			"buffer":0,
			"byteLength":6096,
			"byteOffset":6096,
			"target":34962
		},
		{
			"buffer":0,
			"byteLength":4064,
			"byteOffset":12192,
			"target":34962
		},
		{
			"buffer":0,
			"byteLength":2016,
			"byteOffset":16256,
			"target":34963
		},
		{
			"buffer":0,
			"byteLength":18744,
			"byteOffset":18272,
			"target":34962
		},
		{
			"buffer":0,
			"byteLength":18744,
			"byteOffset":37016,
			"target":34962
		},
		{
			"buffer":0,
			"byteLength":12496,
			"byteOffset":55760,
			"target":34962
		},
		{
			"buffer":0,
			"byteLength":7344,
			"byteOffset":68256,
			"target":34963
		},
		{
			"buffer":0,
			"byteLength":1536,
			"byteOffset":75600,
			"target":34962
		},
		{
			"buffer":0,
			"byteLength":1536,
			"byteOffset":77136,
			"target":34962
		},
		{
			"buffer":0,
			"byteLength":1024,
			"byteOffset":78672,
			"target":34962
		},
		{
			"buffer":0,
			"byteLength":384,
			"byteOffset":79696,
			"target":34963
		},
		{
			"buffer":0,
			"byteLength":3504,
			"byteOffset":80080,
			"target":34962
		},
		{
			"buffer":0,
			"byteLength":3504,
			"byteOffset":83584,
			"target":34962
		},
		{
			"buffer":0,
			"byteLength":2336,
			"byteOffset":87088,
			"target":34962
		},
		{
			"buffer":0,
			"byteLength":960,
			"byteOffset":89424,
			"target":34963
		}
	],
	"buffers":[
		{
			"byteLength":90384,
			"uri":"Door01_house4-ab57a5b3a89fe7b9368836885c500ce1.bin"
		}
	]
}
