{
	"asset":{
		"generator":"Khronos glTF Blender I/O v4.3.47",
		"version":"2.0"
	},
	"scene":0,
	"scenes":[
		{
			"name":"Scene",
			"nodes":[
				0,
				1
			]
		}
	],
	"nodes":[
		{
			"mesh":0,
			"name":"Door01_house05"
		},
		{
			"mesh":1,
			"name":"Cube.002",
			"scale":[
				0.08091606199741364,
				0.11149756610393524,
				0.00873591285198927
			],
			"translation":[
				-0.5630929470062256,
				-0.5879649519920349,
				0.0577491819858551
			]
		}
	],
	"materials":[
		{
			"doubleSided":true,
			"name":"Brown_house05",
			"pbrMetallicRoughness":{
				"baseColorFactor":[
					0.34191441535949707,
					0.2015562802553177,
					0.1247718334197998,
					1
				],
				"metallicFactor":0,
				"roughnessFactor":0.5
			}
		},
		{
			"doubleSided":true,
			"name":"Wood_house05",
			"pbrMetallicRoughness":{
				"baseColorFactor":[
					0.7011020183563232,
					0.42869052290916443,
					0.11697068810462952,
					1
				],
				"metallicFactor":0,
				"roughnessFactor":0.5
			}
		},
		{
			"doubleSided":true,
			"name":"Green_house06",
			"pbrMetallicRoughness":{
				"baseColorFactor":[
					0.3762621283531189,
					0.35153263807296753,
					0.2541521489620209,
					1
				],
				"metallicFactor":0,
				"roughnessFactor":0.5
			}
		},
		{
			"doubleSided":true,
			"name":"Window_house05",
			"pbrMetallicRoughness":{
				"baseColorFactor":[
					0.07558076083660126,
					0.20353354513645172,
					0.7011020183563232,
					1
				],
				"metallicFactor":0,
				"roughnessFactor":0.5
			}
		},
		{
			"doubleSided":true,
			"name":"Black_house05",
			"pbrMetallicRoughness":{
				"baseColorFactor":[
					0.19901080429553986,
					0.20190146565437317,
					0.19614510238170624,
					1
				],
				"metallicFactor":0,
				"roughnessFactor":0.5
			}
		}
	],
	"meshes":[
		{
			"name":"Cube.004",
			"primitives":[
				{
					"attributes":{
						"POSITION":0,
						"NORMAL":1,
						"TEXCOORD_0":2
					},
					"indices":3,
					"material":0
				},
				{
					"attributes":{
						"POSITION":4,
						"NORMAL":5,
						"TEXCOORD_0":6
					},
					"indices":7,
					"material":1
				},
				{
					"attributes":{
						"POSITION":8,
						"NORMAL":9,
						"TEXCOORD_0":10
					},
					"indices":11,
					"material":2
				},
				{
					"attributes":{
						"POSITION":12,
						"NORMAL":13,
						"TEXCOORD_0":14
					},
					"indices":15,
					"material":3
				}
			]
		},
		{
			"name":"Cube.007",
			"primitives":[
				{
					"attributes":{
						"POSITION":16,
						"NORMAL":17,
						"TEXCOORD_0":18,
						"TANGENT":19
					},
					"indices":20,
					"material":4
				}
			]
		}
	],
	"accessors":[
		{
			"bufferView":0,
			"componentType":5126,
			"count":336,
			"max":[
				0.7896934151649475,
				0.8158111572265625,
				0.0577491857111454
			],
			"min":[
				-0.6180389523506165,
				-1.502982258796692,
				-0.0577491857111454
			],
			"type":"VEC3"
		},
		{
			"bufferView":1,
			"componentType":5126,
			"count":336,
			"type":"VEC3"
		},
		{
			"bufferView":2,
			"componentType":5126,
			"count":336,
			"type":"VEC2"
		},
		{
			"bufferView":3,
			"componentType":5123,
			"count":960,
			"type":"SCALAR"
		},
		{
			"bufferView":4,
			"componentType":5126,
			"count":352,
			"max":[
				1.6783628463745117,
				1.5094150304794312,
				0.13000009953975677
			],
			"min":[
				-1.5067085027694702,
				-1.49509596824646,
				-0.13000009953975677
			],
			"type":"VEC3"
		},
		{
			"bufferView":5,
			"componentType":5126,
			"count":352,
			"type":"VEC3"
		},
		{
			"bufferView":6,
			"componentType":5126,
			"count":352,
			"type":"VEC2"
		},
		{
			"bufferView":7,
			"componentType":5123,
			"count":612,
			"type":"SCALAR"
		},
		{
			"bufferView":8,
			"componentType":5126,
			"count":168,
			"max":[
				-0.4467582702636719,
				-0.13592872023582458,
				0.14644818007946014
			],
			"min":[
				-0.5077731013298035,
				-0.4414573013782501,
				-0.14644818007946014
			],
			"type":"VEC3"
		},
		{
			"bufferView":9,
			"componentType":5126,
			"count":168,
			"type":"VEC3"
		},
		{
			"bufferView":10,
			"componentType":5126,
			"count":168,
			"type":"VEC2"
		},
		{
			"bufferView":11,
			"componentType":5123,
			"count":264,
			"type":"SCALAR"
		},
		{
			"bufferView":12,
			"componentType":5126,
			"count":24,
			"max":[
				0.526292622089386,
				0.7734394073486328,
				0.012464452534914017
			],
			"min":[
				-0.36709728837013245,
				-0.11995041370391846,
				-0.012464454397559166
			],
			"type":"VEC3"
		},
		{
			"bufferView":13,
			"componentType":5126,
			"count":24,
			"type":"VEC3"
		},
		{
			"bufferView":14,
			"componentType":5126,
			"count":24,
			"type":"VEC2"
		},
		{
			"bufferView":15,
			"componentType":5123,
			"count":36,
			"type":"SCALAR"
		},
		{
			"bufferView":16,
			"componentType":5126,
			"count":68,
			"max":[
				1,
				1,
				1
			],
			"min":[
				-1,
				-1.6567398309707642,
				-14.221099853515625
			],
			"type":"VEC3"
		},
		{
			"bufferView":17,
			"componentType":5126,
			"count":68,
			"type":"VEC3"
		},
		{
			"bufferView":18,
			"componentType":5126,
			"count":68,
			"type":"VEC2"
		},
		{
			"bufferView":19,
			"componentType":5126,
			"count":68,
			"type":"VEC4"
		},
		{
			"bufferView":20,
			"componentType":5123,
			"count":120,
			"type":"SCALAR"
		}
	],
	"bufferViews":[
		{
			"buffer":0,
			"byteLength":4032,
			"byteOffset":0,
			"target":34962
		},
		{
			"buffer":0,
			"byteLength":4032,
			"byteOffset":4032,
			"target":34962
		},
		{
			"buffer":0,
			"byteLength":2688,
			"byteOffset":8064,
			"target":34962
		},
		{
			"buffer":0,
			"byteLength":1920,
			"byteOffset":10752,
			"target":34963
		},
		{
			"buffer":0,
			"byteLength":4224,
			"byteOffset":12672,
			"target":34962
		},
		{
			"buffer":0,
			"byteLength":4224,
			"byteOffset":16896,
			"target":34962
		},
		{
			"buffer":0,
			"byteLength":2816,
			"byteOffset":21120,
			"target":34962
		},
		{
			"buffer":0,
			"byteLength":1224,
			"byteOffset":23936,
			"target":34963
		},
		{
			"buffer":0,
			"byteLength":2016,
			"byteOffset":25160,
			"target":34962
		},
		{
			"buffer":0,
			"byteLength":2016,
			"byteOffset":27176,
			"target":34962
		},
		{
			"buffer":0,
			"byteLength":1344,
			"byteOffset":29192,
			"target":34962
		},
		{
			"buffer":0,
			"byteLength":528,
			"byteOffset":30536,
			"target":34963
		},
		{
			"buffer":0,
			"byteLength":288,
			"byteOffset":31064,
			"target":34962
		},
		{
			"buffer":0,
			"byteLength":288,
			"byteOffset":31352,
			"target":34962
		},
		{
			"buffer":0,
			"byteLength":192,
			"byteOffset":31640,
			"target":34962
		},
		{
			"buffer":0,
			"byteLength":72,
			"byteOffset":31832,
			"target":34963
		},
		{
			"buffer":0,
			"byteLength":816,
			"byteOffset":31904,
			"target":34962
		},
		{
			"buffer":0,
			"byteLength":816,
			"byteOffset":32720,
			"target":34962
		},
		{
			"buffer":0,
			"byteLength":544,
			"byteOffset":33536,
			"target":34962
		},
		{
			"buffer":0,
			"byteLength":1088,
			"byteOffset":34080,
			"target":34962
		},
		{
			"buffer":0,
			"byteLength":240,
			"byteOffset":35168,
			"target":34963
		}
	],
	"buffers":[
		{
			"byteLength":35408,
			"uri":"Door01_house5-5ee5852527a4c5531211ced8b98efcad.bin"
		}
	]
}
