{
	"asset":{
		"generator":"Khronos glTF Blender I/O v4.3.47",
		"version":"2.0"
	},
	"extensionsUsed":[
		"KHR_lights_punctual"
	],
	"extensionsRequired":[
		"KHR_lights_punctual"
	],
	"extensions":{
		"KHR_lights_punctual":{
			"lights":[
				{
					"color":[
						1,
						1,
						1
					],
					"intensity":54351.41306588226,
					"type":"point",
					"name":"Light"
				}
			]
		}
	},
	"scene":0,
	"scenes":[
		{
			"name":"Scene",
			"nodes":[
				0,
				1,
				2
			]
		}
	],
	"nodes":[
		{
			"extensions":{
				"KHR_lights_punctual":{
					"light":0
				}
			},
			"name":"Light",
			"rotation":[
				-0.28416627645492554,
				0.7269423007965088,
				0.34203392267227173,
				0.5232754945755005
			],
			"translation":[
				4.076245307922363,
				5.903861999511719,
				-1.0054539442062378
			]
		},
		{
			"camera":0,
			"name":"Camera",
			"rotation":[
				-0.20997299253940582,
				0.3857799470424652,
				0.09062844514846802,
				0.8937962055206299
			],
			"translation":[
				7.358891487121582,
				4.958309173583984,
				6.925790786743164
			]
		},
		{
			"mesh":0,
			"name":"Door02_house5"
		}
	],
	"cameras":[
		{
			"name":"Camera",
			"perspective":{
				"aspectRatio":1.7777777777777777,
				"yfov":0.39959652046304894,
				"zfar":100,
				"znear":0.10000000149011612
			},
			"type":"perspective"
		}
	],
	"materials":[
		{
			"doubleSided":true,
			"name":"Wood_house05",
			"pbrMetallicRoughness":{
				"baseColorFactor":[
					0.7011020183563232,
					0.42869052290916443,
					0.11697068810462952,
					1
				],
				"metallicFactor":0,
				"roughnessFactor":0.5
			}
		},
		{
			"doubleSided":true,
			"name":"Cream_house05",
			"pbrMetallicRoughness":{
				"baseColorFactor":[
					0.8713672757148743,
					0.6172067523002625,
					0.35153263807296753,
					1
				],
				"metallicFactor":0,
				"roughnessFactor":0.5
			}
		},
		{
			"doubleSided":true,
			"name":"Window_house05",
			"pbrMetallicRoughness":{
				"baseColorFactor":[
					0.07558076083660126,
					0.20353354513645172,
					0.7011020183563232,
					1
				],
				"metallicFactor":0,
				"roughnessFactor":0.5
			}
		},
		{
			"doubleSided":true,
			"name":"Green_house05",
			"pbrMetallicRoughness":{
				"baseColorFactor":[
					0.3762621283531189,
					0.35153263807296753,
					0.2541521489620209,
					1
				],
				"metallicFactor":0,
				"roughnessFactor":0.5
			}
		},
		{
			"doubleSided":true,
			"name":"Iron_house05",
			"pbrMetallicRoughness":{
				"baseColorFactor":[
					0.16794881224632263,
					0.16204825043678284,
					0.1574471890926361,
					1
				],
				"metallicFactor":0,
				"roughnessFactor":0.5
			}
		},
		{
			"doubleSided":true,
			"name":"WallTile_house05",
			"pbrMetallicRoughness":{
				"baseColorFactor":[
					0.24619503319263458,
					0.08552613854408264,
					0.02514219656586647,
					1
				],
				"metallicFactor":0,
				"roughnessFactor":0.5
			}
		},
		{
			"doubleSided":true,
			"name":"Tiles_house05",
			"pbrMetallicRoughness":{
				"baseColorFactor":[
					0.19598864018917084,
					0.04342792183160782,
					0.007737726904451847,
					1
				],
				"metallicFactor":0,
				"roughnessFactor":0.5
			}
		}
	],
	"meshes":[
		{
			"name":"Cube.008",
			"primitives":[
				{
					"attributes":{
						"POSITION":0,
						"NORMAL":1,
						"TEXCOORD_0":2
					},
					"indices":3,
					"material":0
				},
				{
					"attributes":{
						"POSITION":4,
						"NORMAL":5,
						"TEXCOORD_0":6
					},
					"indices":7,
					"material":1
				},
				{
					"attributes":{
						"POSITION":8,
						"NORMAL":9,
						"TEXCOORD_0":10
					},
					"indices":11,
					"material":2
				},
				{
					"attributes":{
						"POSITION":12,
						"NORMAL":13,
						"TEXCOORD_0":14
					},
					"indices":15,
					"material":3
				},
				{
					"attributes":{
						"POSITION":16,
						"NORMAL":17,
						"TEXCOORD_0":18
					},
					"indices":19,
					"material":4
				},
				{
					"attributes":{
						"POSITION":20,
						"NORMAL":21,
						"TEXCOORD_0":22
					},
					"indices":23,
					"material":5
				},
				{
					"attributes":{
						"POSITION":24,
						"NORMAL":25,
						"TEXCOORD_0":26
					},
					"indices":27,
					"material":6
				}
			]
		}
	],
	"accessors":[
		{
			"bufferView":0,
			"componentType":5126,
			"count":416,
			"max":[
				1.4711601734161377,
				1.0010135173797607,
				-0.15287746489048004
			],
			"min":[
				-1.6377942562103271,
				-1.9316959381103516,
				-0.4066642224788666
			],
			"type":"VEC3"
		},
		{
			"bufferView":1,
			"componentType":5126,
			"count":416,
			"type":"VEC3"
		},
		{
			"bufferView":2,
			"componentType":5126,
			"count":416,
			"type":"VEC2"
		},
		{
			"bufferView":3,
			"componentType":5123,
			"count":756,
			"type":"SCALAR"
		},
		{
			"bufferView":4,
			"componentType":5126,
			"count":160,
			"max":[
				0.6468293070793152,
				0.6433826088905334,
				-0.31736841797828674
			],
			"min":[
				-0.8134632110595703,
				-1.8632879257202148,
				-0.3908005952835083
			],
			"type":"VEC3"
		},
		{
			"bufferView":5,
			"componentType":5126,
			"count":160,
			"type":"VEC3"
		},
		{
			"bufferView":6,
			"componentType":5126,
			"count":160,
			"type":"VEC2"
		},
		{
			"bufferView":7,
			"componentType":5123,
			"count":456,
			"type":"SCALAR"
		},
		{
			"bufferView":8,
			"componentType":5126,
			"count":24,
			"max":[
				0.41508951783180237,
				0.2863321006298065,
				-0.3466431498527527
			],
			"min":[
				-0.5817235112190247,
				-0.14826130867004395,
				-0.36152583360671997
			],
			"type":"VEC3"
		},
		{
			"bufferView":9,
			"componentType":5126,
			"count":24,
			"type":"VEC3"
		},
		{
			"bufferView":10,
			"componentType":5126,
			"count":24,
			"type":"VEC2"
		},
		{
			"bufferView":11,
			"componentType":5123,
			"count":36,
			"type":"SCALAR"
		},
		{
			"bufferView":12,
			"componentType":5126,
			"count":144,
			"max":[
				-0.5546654462814331,
				-0.3004809617996216,
				-0.17377924919128418
			],
			"min":[
				-0.7465716004371643,
				-0.504273533821106,
				-0.5272995829582214
			],
			"type":"VEC3"
		},
		{
			"bufferView":13,
			"componentType":5126,
			"count":144,
			"type":"VEC3"
		},
		{
			"bufferView":14,
			"componentType":5126,
			"count":144,
			"type":"VEC2"
		},
		{
			"bufferView":15,
			"componentType":5123,
			"count":264,
			"type":"SCALAR"
		},
		{
			"bufferView":16,
			"componentType":5126,
			"count":68,
			"max":[
				-0.5293222069740295,
				-0.5307831764221191,
				-0.28987160325050354
			],
			"min":[
				-0.7719147205352783,
				-0.8343517780303955,
				-0.41120731830596924
			],
			"type":"VEC3"
		},
		{
			"bufferView":17,
			"componentType":5126,
			"count":68,
			"type":"VEC3"
		},
		{
			"bufferView":18,
			"componentType":5126,
			"count":68,
			"type":"VEC2"
		},
		{
			"bufferView":19,
			"componentType":5123,
			"count":120,
			"type":"SCALAR"
		},
		{
			"bufferView":20,
			"componentType":5126,
			"count":72,
			"max":[
				2.362286329269409,
				1.495629906654358,
				0.49762141704559326
			],
			"min":[
				-2.5289206504821777,
				-1.9614944458007812,
				-0.44011127948760986
			],
			"type":"VEC3"
		},
		{
			"bufferView":21,
			"componentType":5126,
			"count":72,
			"type":"VEC3"
		},
		{
			"bufferView":22,
			"componentType":5126,
			"count":72,
			"type":"VEC2"
		},
		{
			"bufferView":23,
			"componentType":5123,
			"count":156,
			"type":"SCALAR"
		},
		{
			"bufferView":24,
			"componentType":5126,
			"count":2016,
			"max":[
				2.348879337310791,
				1.4933593273162842,
				0.5682529807090759
			],
			"min":[
				-2.475593090057373,
				-1.51081120967865,
				-0.482416033744812
			],
			"type":"VEC3"
		},
		{
			"bufferView":25,
			"componentType":5126,
			"count":2016,
			"type":"VEC3"
		},
		{
			"bufferView":26,
			"componentType":5126,
			"count":2016,
			"type":"VEC2"
		},
		{
			"bufferView":27,
			"componentType":5123,
			"count":2772,
			"type":"SCALAR"
		}
	],
	"bufferViews":[
		{
			"buffer":0,
			"byteLength":4992,
			"byteOffset":0,
			"target":34962
		},
		{
			"buffer":0,
			"byteLength":4992,
			"byteOffset":4992,
			"target":34962
		},
		{
			"buffer":0,
			"byteLength":3328,
			"byteOffset":9984,
			"target":34962
		},
		{
			"buffer":0,
			"byteLength":1512,
			"byteOffset":13312,
			"target":34963
		},
		{
			"buffer":0,
			"byteLength":1920,
			"byteOffset":14824,
			"target":34962
		},
		{
			"buffer":0,
			"byteLength":1920,
			"byteOffset":16744,
			"target":34962
		},
		{
			"buffer":0,
			"byteLength":1280,
			"byteOffset":18664,
			"target":34962
		},
		{
			"buffer":0,
			"byteLength":912,
			"byteOffset":19944,
			"target":34963
		},
		{
			"buffer":0,
			"byteLength":288,
			"byteOffset":20856,
			"target":34962
		},
		{
			"buffer":0,
			"byteLength":288,
			"byteOffset":21144,
			"target":34962
		},
		{
			"buffer":0,
			"byteLength":192,
			"byteOffset":21432,
			"target":34962
		},
		{
			"buffer":0,
			"byteLength":72,
			"byteOffset":21624,
			"target":34963
		},
		{
			"buffer":0,
			"byteLength":1728,
			"byteOffset":21696,
			"target":34962
		},
		{
			"buffer":0,
			"byteLength":1728,
			"byteOffset":23424,
			"target":34962
		},
		{
			"buffer":0,
			"byteLength":1152,
			"byteOffset":25152,
			"target":34962
		},
		{
			"buffer":0,
			"byteLength":528,
			"byteOffset":26304,
			"target":34963
		},
		{
			"buffer":0,
			"byteLength":816,
			"byteOffset":26832,
			"target":34962
		},
		{
			"buffer":0,
			"byteLength":816,
			"byteOffset":27648,
			"target":34962
		},
		{
			"buffer":0,
			"byteLength":544,
			"byteOffset":28464,
			"target":34962
		},
		{
			"buffer":0,
			"byteLength":240,
			"byteOffset":29008,
			"target":34963
		},
		{
			"buffer":0,
			"byteLength":864,
			"byteOffset":29248,
			"target":34962
		},
		{
			"buffer":0,
			"byteLength":864,
			"byteOffset":30112,
			"target":34962
		},
		{
			"buffer":0,
			"byteLength":576,
			"byteOffset":30976,
			"target":34962
		},
		{
			"buffer":0,
			"byteLength":312,
			"byteOffset":31552,
			"target":34963
		},
		{
			"buffer":0,
			"byteLength":24192,
			"byteOffset":31864,
			"target":34962
		},
		{
			"buffer":0,
			"byteLength":24192,
			"byteOffset":56056,
			"target":34962
		},
		{
			"buffer":0,
			"byteLength":16128,
			"byteOffset":80248,
			"target":34962
		},
		{
			"buffer":0,
			"byteLength":5544,
			"byteOffset":96376,
			"target":34963
		}
	],
	"buffers":[
		{
			"byteLength":101920,
			"uri":"Door02_house5-e029f09d2daf21665af4cde1358e47f8.bin"
		}
	]
}
