{
	"asset":{
		"generator":"Khronos glTF Blender I/O v4.3.47",
		"version":"2.0"
	},
	"scene":0,
	"scenes":[
		{
			"name":"Scene",
			"nodes":[
				0
			]
		}
	],
	"nodes":[
		{
			"mesh":0,
			"name":"Door_house01.001"
		}
	],
	"materials":[
		{
			"doubleSided":true,
			"name":"WoodDoor01_house1",
			"pbrMetallicRoughness":{
				"baseColorFactor":[
					0.6375972032546997,
					0.38132601976394653,
					0.30946898460388184,
					1
				],
				"metallicFactor":0,
				"roughnessFactor":0.5
			}
		},
		{
			"doubleSided":true,
			"name":"Iron_house1",
			"pbrMetallicRoughness":{
				"baseColorFactor":[
					0.3931145668029785,
					0.380910724401474,
					0.345636785030365,
					1
				],
				"metallicFactor":0,
				"roughnessFactor":0.5
			}
		},
		{
			"doubleSided":true,
			"name":"Cream_House01",
			"pbrMetallicRoughness":{
				"baseColorFactor":[
					0.8713672757148743,
					0.8631572127342224,
					0.84687340259552,
					1
				],
				"metallicFactor":0,
				"roughnessFactor":0.4000000059604645
			}
		}
	],
	"meshes":[
		{
			"name":"Cube.003",
			"primitives":[
				{
					"attributes":{
						"POSITION":0,
						"NORMAL":1,
						"TEXCOORD_0":2
					},
					"indices":3,
					"material":0
				},
				{
					"attributes":{
						"POSITION":4,
						"NORMAL":5,
						"TEXCOORD_0":6
					},
					"indices":7,
					"material":1
				},
				{
					"attributes":{
						"POSITION":8,
						"NORMAL":9,
						"TEXCOORD_0":10
					},
					"indices":11,
					"material":2
				}
			]
		}
	],
	"accessors":[
		{
			"bufferView":0,
			"componentType":5126,
			"count":540,
			"max":[
				0.15950331091880798,
				1.4327635765075684,
				1.0216087102890015
			],
			"min":[
				-0.15958184003829956,
				-1.3147797584533691,
				-0.7115663290023804
			],
			"type":"VEC3"
		},
		{
			"bufferView":1,
			"componentType":5126,
			"count":540,
			"type":"VEC3"
		},
		{
			"bufferView":2,
			"componentType":5126,
			"count":540,
			"type":"VEC2"
		},
		{
			"bufferView":3,
			"componentType":5123,
			"count":936,
			"type":"SCALAR"
		},
		{
			"bufferView":4,
			"componentType":5126,
			"count":220,
			"max":[
				0.14962667226791382,
				0.18092413246631622,
				-0.17033341526985168
			],
			"min":[
				-0.149705171585083,
				-0.22843068838119507,
				-0.46754077076911926
			],
			"type":"VEC3"
		},
		{
			"bufferView":5,
			"componentType":5126,
			"count":220,
			"type":"VEC3"
		},
		{
			"bufferView":6,
			"componentType":5126,
			"count":220,
			"type":"VEC2"
		},
		{
			"bufferView":7,
			"componentType":5123,
			"count":408,
			"type":"SCALAR"
		},
		{
			"bufferView":8,
			"componentType":5126,
			"count":48,
			"max":[
				0.1299607753753662,
				1.6963729858398438,
				1.2475569248199463
			],
			"min":[
				-0.13003931939601898,
				-1.308138370513916,
				-0.9375147223472595
			],
			"type":"VEC3"
		},
		{
			"bufferView":9,
			"componentType":5126,
			"count":48,
			"type":"VEC3"
		},
		{
			"bufferView":10,
			"componentType":5126,
			"count":48,
			"type":"VEC2"
		},
		{
			"bufferView":11,
			"componentType":5123,
			"count":84,
			"type":"SCALAR"
		}
	],
	"bufferViews":[
		{
			"buffer":0,
			"byteLength":6480,
			"byteOffset":0,
			"target":34962
		},
		{
			"buffer":0,
			"byteLength":6480,
			"byteOffset":6480,
			"target":34962
		},
		{
			"buffer":0,
			"byteLength":4320,
			"byteOffset":12960,
			"target":34962
		},
		{
			"buffer":0,
			"byteLength":1872,
			"byteOffset":17280,
			"target":34963
		},
		{
			"buffer":0,
			"byteLength":2640,
			"byteOffset":19152,
			"target":34962
		},
		{
			"buffer":0,
			"byteLength":2640,
			"byteOffset":21792,
			"target":34962
		},
		{
			"buffer":0,
			"byteLength":1760,
			"byteOffset":24432,
			"target":34962
		},
		{
			"buffer":0,
			"byteLength":816,
			"byteOffset":26192,
			"target":34963
		},
		{
			"buffer":0,
			"byteLength":576,
			"byteOffset":27008,
			"target":34962
		},
		{
			"buffer":0,
			"byteLength":576,
			"byteOffset":27584,
			"target":34962
		},
		{
			"buffer":0,
			"byteLength":384,
			"byteOffset":28160,
			"target":34962
		},
		{
			"buffer":0,
			"byteLength":168,
			"byteOffset":28544,
			"target":34963
		}
	],
	"buffers":[
		{
			"byteLength":28712,
			"uri":"Door_house01-a73df2711eef4bff2ddb90608ade4b24.bin"
		}
	]
}
