{
	"asset":{
		"generator":"Khronos glTF Blender I/O v4.3.47",
		"version":"2.0"
	},
	"scene":0,
	"scenes":[
		{
			"name":"Scene",
			"nodes":[
				0
			]
		}
	],
	"nodes":[
		{
			"mesh":0,
			"name":"Door1_House2"
		}
	],
	"materials":[
		{
			"doubleSided":true,
			"name":"Brown_House02",
			"pbrMetallicRoughness":{
				"baseColorFactor":[
					0.47353148460388184,
					0.28744083642959595,
					0.17788845300674438,
					1
				],
				"metallicFactor":0,
				"roughnessFactor":0.5
			}
		},
		{
			"doubleSided":true,
			"name":"Gray_House02",
			"pbrMetallicRoughness":{
				"baseColorFactor":[
					0.5840784907341003,
					0.5775806307792664,
					0.5520114898681641,
					1
				],
				"metallicFactor":0,
				"roughnessFactor":0.5
			}
		},
		{
			"doubleSided":true,
			"name":"Iron_House02",
			"pbrMetallicRoughness":{
				"baseColorFactor":[
					0.3108133375644684,
					0.3108133375644684,
					0.3108133375644684,
					1
				],
				"metallicFactor":0,
				"roughnessFactor":0.5
			}
		},
		{
			"doubleSided":true,
			"name":"Cream_House02",
			"pbrMetallicRoughness":{
				"baseColorFactor":[
					0.8796226382255554,
					0.854992687702179,
					0.7379105091094971,
					1
				],
				"metallicFactor":0,
				"roughnessFactor":0.5
			}
		},
		{
			"doubleSided":true,
			"name":"Gold_House02",
			"pbrMetallicRoughness":{
				"baseColorFactor":[
					0.710554301738739,
					0.6892626285552979,
					0.1168026551604271,
					1
				],
				"metallicFactor":0,
				"roughnessFactor":0.5
			}
		}
	],
	"meshes":[
		{
			"name":"Cube",
			"primitives":[
				{
					"attributes":{
						"POSITION":0,
						"NORMAL":1,
						"TEXCOORD_0":2
					},
					"indices":3,
					"material":0
				},
				{
					"attributes":{
						"POSITION":4,
						"NORMAL":5,
						"TEXCOORD_0":6
					},
					"indices":7,
					"material":1
				},
				{
					"attributes":{
						"POSITION":8,
						"NORMAL":9,
						"TEXCOORD_0":10
					},
					"indices":11,
					"material":2
				},
				{
					"attributes":{
						"POSITION":12,
						"NORMAL":13,
						"TEXCOORD_0":14
					},
					"indices":15,
					"material":3
				},
				{
					"attributes":{
						"POSITION":16,
						"NORMAL":17,
						"TEXCOORD_0":18
					},
					"indices":19,
					"material":4
				}
			]
		}
	],
	"accessors":[
		{
			"bufferView":0,
			"componentType":5126,
			"count":666,
			"max":[
				0.08947808295488358,
				1.0577781200408936,
				1.4098032712936401
			],
			"min":[
				-0.08947811275720596,
				-1.323296070098877,
				-1.4163788557052612
			],
			"type":"VEC3"
		},
		{
			"bufferView":1,
			"componentType":5126,
			"count":666,
			"type":"VEC3"
		},
		{
			"bufferView":2,
			"componentType":5126,
			"count":666,
			"type":"VEC2"
		},
		{
			"bufferView":3,
			"componentType":5123,
			"count":1704,
			"type":"SCALAR"
		},
		{
			"bufferView":4,
			"componentType":5126,
			"count":90,
			"max":[
				0.1708519458770752,
				2.3529555797576904,
				2.401629686355591
			],
			"min":[
				-0.17085200548171997,
				-1.3265653848648071,
				-2.408205509185791
			],
			"type":"VEC3"
		},
		{
			"bufferView":5,
			"componentType":5126,
			"count":90,
			"type":"VEC3"
		},
		{
			"bufferView":6,
			"componentType":5126,
			"count":90,
			"type":"VEC2"
		},
		{
			"bufferView":7,
			"componentType":5123,
			"count":204,
			"type":"SCALAR"
		},
		{
			"bufferView":8,
			"componentType":5126,
			"count":72,
			"max":[
				0.09677024185657501,
				0.17667794227600098,
				0.1259177029132843
			],
			"min":[
				-0.096770279109478,
				-0.025295676663517952,
				0.011074833571910858
			],
			"type":"VEC3"
		},
		{
			"bufferView":9,
			"componentType":5126,
			"count":72,
			"type":"VEC3"
		},
		{
			"bufferView":10,
			"componentType":5126,
			"count":72,
			"type":"VEC2"
		},
		{
			"bufferView":11,
			"componentType":5123,
			"count":120,
			"type":"SCALAR"
		},
		{
			"bufferView":12,
			"componentType":5126,
			"count":48,
			"max":[
				0.1300000250339508,
				2.0090577602386475,
				2.0463056564331055
			],
			"min":[
				-0.1300000548362732,
				-1.3197824954986572,
				-2.0528814792633057
			],
			"type":"VEC3"
		},
		{
			"bufferView":13,
			"componentType":5126,
			"count":48,
			"type":"VEC3"
		},
		{
			"bufferView":14,
			"componentType":5126,
			"count":48,
			"type":"VEC2"
		},
		{
			"bufferView":15,
			"componentType":5123,
			"count":84,
			"type":"SCALAR"
		},
		{
			"bufferView":16,
			"componentType":5126,
			"count":464,
			"max":[
				0.182999849319458,
				0.3633883595466614,
				0.21273307502269745
			],
			"min":[
				-0.18299983441829681,
				-0.36369752883911133,
				-0.21930868923664093
			],
			"type":"VEC3"
		},
		{
			"bufferView":17,
			"componentType":5126,
			"count":464,
			"type":"VEC3"
		},
		{
			"bufferView":18,
			"componentType":5126,
			"count":464,
			"type":"VEC2"
		},
		{
			"bufferView":19,
			"componentType":5123,
			"count":936,
			"type":"SCALAR"
		}
	],
	"bufferViews":[
		{
			"buffer":0,
			"byteLength":7992,
			"byteOffset":0,
			"target":34962
		},
		{
			"buffer":0,
			"byteLength":7992,
			"byteOffset":7992,
			"target":34962
		},
		{
			"buffer":0,
			"byteLength":5328,
			"byteOffset":15984,
			"target":34962
		},
		{
			"buffer":0,
			"byteLength":3408,
			"byteOffset":21312,
			"target":34963
		},
		{
			"buffer":0,
			"byteLength":1080,
			"byteOffset":24720,
			"target":34962
		},
		{
			"buffer":0,
			"byteLength":1080,
			"byteOffset":25800,
			"target":34962
		},
		{
			"buffer":0,
			"byteLength":720,
			"byteOffset":26880,
			"target":34962
		},
		{
			"buffer":0,
			"byteLength":408,
			"byteOffset":27600,
			"target":34963
		},
		{
			"buffer":0,
			"byteLength":864,
			"byteOffset":28008,
			"target":34962
		},
		{
			"buffer":0,
			"byteLength":864,
			"byteOffset":28872,
			"target":34962
		},
		{
			"buffer":0,
			"byteLength":576,
			"byteOffset":29736,
			"target":34962
		},
		{
			"buffer":0,
			"byteLength":240,
			"byteOffset":30312,
			"target":34963
		},
		{
			"buffer":0,
			"byteLength":576,
			"byteOffset":30552,
			"target":34962
		},
		{
			"buffer":0,
			"byteLength":576,
			"byteOffset":31128,
			"target":34962
		},
		{
			"buffer":0,
			"byteLength":384,
			"byteOffset":31704,
			"target":34962
		},
		{
			"buffer":0,
			"byteLength":168,
			"byteOffset":32088,
			"target":34963
		},
		{
			"buffer":0,
			"byteLength":5568,
			"byteOffset":32256,
			"target":34962
		},
		{
			"buffer":0,
			"byteLength":5568,
			"byteOffset":37824,
			"target":34962
		},
		{
			"buffer":0,
			"byteLength":3712,
			"byteOffset":43392,
			"target":34962
		},
		{
			"buffer":0,
			"byteLength":1872,
			"byteOffset":47104,
			"target":34963
		}
	],
	"buffers":[
		{
			"byteLength":48976,
			"uri":"Door01_house2-16b13d805865ba46bb7315533c6f654d.bin"
		}
	]
}
