{
	"asset":{
		"generator":"Khronos glTF Blender I/O v4.3.47",
		"version":"2.0"
	},
	"scene":0,
	"scenes":[
		{
			"name":"Scene",
			"nodes":[
				0
			]
		}
	],
	"nodes":[
		{
			"mesh":0,
			"name":"Door01_house03"
		}
	],
	"materials":[
		{
			"doubleSided":true,
			"name":"Green_house03.001",
			"pbrMetallicRoughness":{
				"baseColorFactor":[
					0.5088812708854675,
					0.7304609417915344,
					0.597201943397522,
					1
				],
				"metallicFactor":0,
				"roughnessFactor":0.4000000059604645
			}
		},
		{
			"doubleSided":true,
			"name":"Cream_house03.001",
			"pbrMetallicRoughness":{
				"baseColorFactor":[
					0.8962693810462952,
					0.8796226382255554,
					0.760524570941925,
					1
				],
				"metallicFactor":0,
				"roughnessFactor":0.5
			}
		},
		{
			"doubleSided":true,
			"name":"Wood_house03.001",
			"pbrMetallicRoughness":{
				"baseColorFactor":[
					0.7304609417915344,
					0.5840784907341003,
					0.4125426411628723,
					1
				],
				"metallicFactor":0,
				"roughnessFactor":0.5
			}
		},
		{
			"doubleSided":true,
			"name":"Window_house03.002",
			"pbrMetallicRoughness":{
				"baseColorFactor":[
					0.5149176716804504,
					0.6514057517051697,
					0.7912980914115906,
					1
				],
				"metallicFactor":0,
				"roughnessFactor":0.5
			}
		},
		{
			"doubleSided":true,
			"name":"Black_house03.001",
			"pbrMetallicRoughness":{
				"baseColorFactor":[
					0.06372076272964478,
					0.06372076272964478,
					0.06372076272964478,
					1
				],
				"metallicFactor":0,
				"roughnessFactor":0.5
			}
		},
		{
			"doubleSided":true,
			"name":"DarkGreen_house3.001",
			"pbrMetallicRoughness":{
				"baseColorFactor":[
					0.13013650476932526,
					0.2788942754268646,
					0.21223078668117523,
					1
				],
				"metallicFactor":0,
				"roughnessFactor":0.5
			}
		}
	],
	"meshes":[
		{
			"name":"Cube.004",
			"primitives":[
				{
					"attributes":{
						"POSITION":0,
						"NORMAL":1,
						"TEXCOORD_0":2
					},
					"indices":3,
					"material":0
				},
				{
					"attributes":{
						"POSITION":4,
						"NORMAL":5,
						"TEXCOORD_0":6
					},
					"indices":7,
					"material":1
				},
				{
					"attributes":{
						"POSITION":8,
						"NORMAL":9,
						"TEXCOORD_0":10
					},
					"indices":11,
					"material":2
				},
				{
					"attributes":{
						"POSITION":12,
						"NORMAL":13,
						"TEXCOORD_0":14
					},
					"indices":15,
					"material":3
				},
				{
					"attributes":{
						"POSITION":16,
						"NORMAL":17,
						"TEXCOORD_0":18
					},
					"indices":19,
					"material":4
				},
				{
					"attributes":{
						"POSITION":20,
						"NORMAL":21,
						"TEXCOORD_0":22
					},
					"indices":23,
					"material":5
				}
			]
		}
	],
	"accessors":[
		{
			"bufferView":0,
			"componentType":5126,
			"count":613,
			"max":[
				0.20298615097999573,
				1.7688558101654053,
				2.0728235244750977
			],
			"min":[
				-0.20298609137535095,
				-1.5361065864562988,
				-2.403489589691162
			],
			"type":"VEC3"
		},
		{
			"bufferView":1,
			"componentType":5126,
			"count":613,
			"type":"VEC3"
		},
		{
			"bufferView":2,
			"componentType":5126,
			"count":613,
			"type":"VEC2"
		},
		{
			"bufferView":3,
			"componentType":5123,
			"count":1260,
			"type":"SCALAR"
		},
		{
			"bufferView":4,
			"componentType":5126,
			"count":480,
			"max":[
				0.2660197615623474,
				0.8721466660499573,
				1.156779408454895
			],
			"min":[
				-0.266019731760025,
				-0.9866887927055359,
				-0.09836666285991669
			],
			"type":"VEC3"
		},
		{
			"bufferView":5,
			"componentType":5126,
			"count":480,
			"type":"VEC3"
		},
		{
			"bufferView":6,
			"componentType":5126,
			"count":480,
			"type":"VEC2"
		},
		{
			"bufferView":7,
			"componentType":5123,
			"count":1392,
			"type":"SCALAR"
		},
		{
			"bufferView":8,
			"componentType":5126,
			"count":136,
			"max":[
				0.09235282242298126,
				1.1899380683898926,
				-0.0660848468542099
			],
			"min":[
				-0.09235282242298126,
				-1.5501046180725098,
				-1.788290023803711
			],
			"type":"VEC3"
		},
		{
			"bufferView":9,
			"componentType":5126,
			"count":136,
			"type":"VEC3"
		},
		{
			"bufferView":10,
			"componentType":5126,
			"count":136,
			"type":"VEC2"
		},
		{
			"bufferView":11,
			"componentType":5123,
			"count":336,
			"type":"SCALAR"
		},
		{
			"bufferView":12,
			"componentType":5126,
			"count":42,
			"max":[
				0.25178295373916626,
				0.9707347750663757,
				1.0752770900726318
			],
			"min":[
				-0.25178295373916626,
				-0.7654852271080017,
				-1.4955151081085205
			],
			"type":"VEC3"
		},
		{
			"bufferView":13,
			"componentType":5126,
			"count":42,
			"type":"VEC3"
		},
		{
			"bufferView":14,
			"componentType":5126,
			"count":42,
			"type":"VEC2"
		},
		{
			"bufferView":15,
			"componentType":5123,
			"count":84,
			"type":"SCALAR"
		},
		{
			"bufferView":16,
			"componentType":5126,
			"count":180,
			"max":[
				0.25132933259010315,
				-0.019298270344734192,
				-0.11136986315250397
			],
			"min":[
				-0.25132930278778076,
				-0.431879460811615,
				-0.4683397710323334
			],
			"type":"VEC3"
		},
		{
			"bufferView":17,
			"componentType":5126,
			"count":180,
			"type":"VEC3"
		},
		{
			"bufferView":18,
			"componentType":5126,
			"count":180,
			"type":"VEC2"
		},
		{
			"bufferView":19,
			"componentType":5123,
			"count":312,
			"type":"SCALAR"
		},
		{
			"bufferView":20,
			"componentType":5126,
			"count":48,
			"max":[
				0.20996393263339996,
				1.7726542949676514,
				2.413249969482422
			],
			"min":[
				-0.20996393263339996,
				-1.5707933902740479,
				-2.7439162731170654
			],
			"type":"VEC3"
		},
		{
			"bufferView":21,
			"componentType":5126,
			"count":48,
			"type":"VEC3"
		},
		{
			"bufferView":22,
			"componentType":5126,
			"count":48,
			"type":"VEC2"
		},
		{
			"bufferView":23,
			"componentType":5123,
			"count":72,
			"type":"SCALAR"
		}
	],
	"bufferViews":[
		{
			"buffer":0,
			"byteLength":7356,
			"byteOffset":0,
			"target":34962
		},
		{
			"buffer":0,
			"byteLength":7356,
			"byteOffset":7356,
			"target":34962
		},
		{
			"buffer":0,
			"byteLength":4904,
			"byteOffset":14712,
			"target":34962
		},
		{
			"buffer":0,
			"byteLength":2520,
			"byteOffset":19616,
			"target":34963
		},
		{
			"buffer":0,
			"byteLength":5760,
			"byteOffset":22136,
			"target":34962
		},
		{
			"buffer":0,
			"byteLength":5760,
			"byteOffset":27896,
			"target":34962
		},
		{
			"buffer":0,
			"byteLength":3840,
			"byteOffset":33656,
			"target":34962
		},
		{
			"buffer":0,
			"byteLength":2784,
			"byteOffset":37496,
			"target":34963
		},
		{
			"buffer":0,
			"byteLength":1632,
			"byteOffset":40280,
			"target":34962
		},
		{
			"buffer":0,
			"byteLength":1632,
			"byteOffset":41912,
			"target":34962
		},
		{
			"buffer":0,
			"byteLength":1088,
			"byteOffset":43544,
			"target":34962
		},
		{
			"buffer":0,
			"byteLength":672,
			"byteOffset":44632,
			"target":34963
		},
		{
			"buffer":0,
			"byteLength":504,
			"byteOffset":45304,
			"target":34962
		},
		{
			"buffer":0,
			"byteLength":504,
			"byteOffset":45808,
			"target":34962
		},
		{
			"buffer":0,
			"byteLength":336,
			"byteOffset":46312,
			"target":34962
		},
		{
			"buffer":0,
			"byteLength":168,
			"byteOffset":46648,
			"target":34963
		},
		{
			"buffer":0,
			"byteLength":2160,
			"byteOffset":46816,
			"target":34962
		},
		{
			"buffer":0,
			"byteLength":2160,
			"byteOffset":48976,
			"target":34962
		},
		{
			"buffer":0,
			"byteLength":1440,
			"byteOffset":51136,
			"target":34962
		},
		{
			"buffer":0,
			"byteLength":624,
			"byteOffset":52576,
			"target":34963
		},
		{
			"buffer":0,
			"byteLength":576,
			"byteOffset":53200,
			"target":34962
		},
		{
			"buffer":0,
			"byteLength":576,
			"byteOffset":53776,
			"target":34962
		},
		{
			"buffer":0,
			"byteLength":384,
			"byteOffset":54352,
			"target":34962
		},
		{
			"buffer":0,
			"byteLength":144,
			"byteOffset":54736,
			"target":34963
		}
	],
	"buffers":[
		{
			"byteLength":54880,
			"uri":"Door01_house3-98bc1a0e21bea7037e5ebf40136d7aa4.bin"
		}
	]
}
