{
	"asset":{
		"generator":"Khronos glTF Blender I/O v4.3.47",
		"version":"2.0"
	},
	"scene":0,
	"scenes":[
		{
			"name":"Scene",
			"nodes":[
				0
			]
		}
	],
	"nodes":[
		{
			"mesh":0,
			"name":"Egg01"
		}
	],
	"materials":[
		{
			"doubleSided":true,
			"name":"Brown_Egg01",
			"pbrMetallicRoughness":{
				"baseColorFactor":[
					0.517333984375,
					0.3129899501800537,
					0.11493656784296036,
					1
				],
				"metallicFactor":0,
				"roughnessFactor":0.5
			}
		}
	],
	"meshes":[
		{
			"name":"Cube.001",
			"primitives":[
				{
					"attributes":{
						"POSITION":0,
						"NORMAL":1,
						"TEXCOORD_0":2,
						"TANGENT":3
					},
					"indices":4,
					"material":0
				}
			]
		}
	],
	"accessors":[
		{
			"bufferView":0,
			"componentType":5126,
			"count":1748,
			"max":[
				0.7290581464767456,
				1.046119213104248,
				0.7290582060813904
			],
			"min":[
				-0.7290581464767456,
				-1.046119213104248,
				-0.7290580868721008
			],
			"type":"VEC3"
		},
		{
			"bufferView":1,
			"componentType":5126,
			"count":1748,
			"type":"VEC3"
		},
		{
			"bufferView":2,
			"componentType":5126,
			"count":1748,
			"type":"VEC2"
		},
		{
			"bufferView":3,
			"componentType":5126,
			"count":1748,
			"type":"VEC4"
		},
		{
			"bufferView":4,
			"componentType":5123,
			"count":9216,
			"type":"SCALAR"
		}
	],
	"bufferViews":[
		{
			"buffer":0,
			"byteLength":20976,
			"byteOffset":0,
			"target":34962
		},
		{
			"buffer":0,
			"byteLength":20976,
			"byteOffset":20976,
			"target":34962
		},
		{
			"buffer":0,
			"byteLength":13984,
			"byteOffset":41952,
			"target":34962
		},
		{
			"buffer":0,
			"byteLength":27968,
			"byteOffset":55936,
			"target":34962
		},
		{
			"buffer":0,
			"byteLength":18432,
			"byteOffset":83904,
			"target":34963
		}
	],
	"buffers":[
		{
			"byteLength":102336,
			"uri":"Egg01-90e8b2c675e1a9442fec6b5b63665608.bin"
		}
	]
}
