{
	"asset":{
		"generator":"Khronos glTF Blender I/O v4.3.47",
		"version":"2.0"
	},
	"scene":0,
	"scenes":[
		{
			"name":"Scene",
			"nodes":[
				0
			]
		}
	],
	"nodes":[
		{
			"mesh":0,
			"name":"Fish01"
		}
	],
	"materials":[
		{
			"doubleSided":true,
			"name":"DarkBrown_Fish01",
			"pbrMetallicRoughness":{
				"baseColorFactor":[
					0.2521507441997528,
					0.07502007484436035,
					0.008367867209017277,
					1
				],
				"metallicFactor":0,
				"roughnessFactor":0.5
			}
		}
	],
	"meshes":[
		{
			"name":"Cube.001",
			"primitives":[
				{
					"attributes":{
						"POSITION":0,
						"NORMAL":1,
						"TEXCOORD_0":2,
						"TANGENT":3
					},
					"indices":4,
					"material":0
				}
			]
		}
	],
	"accessors":[
		{
			"bufferView":0,
			"componentType":5126,
			"count":7210,
			"max":[
				2.3942792415618896,
				0.3631402552127838,
				1.1578418016433716
			],
			"min":[
				-2.1867799758911133,
				-0.3624221086502075,
				-1.0875482559204102
			],
			"type":"VEC3"
		},
		{
			"bufferView":1,
			"componentType":5126,
			"count":7210,
			"type":"VEC3"
		},
		{
			"bufferView":2,
			"componentType":5126,
			"count":7210,
			"type":"VEC2"
		},
		{
			"bufferView":3,
			"componentType":5126,
			"count":7210,
			"type":"VEC4"
		},
		{
			"bufferView":4,
			"componentType":5123,
			"count":29232,
			"type":"SCALAR"
		}
	],
	"bufferViews":[
		{
			"buffer":0,
			"byteLength":86520,
			"byteOffset":0,
			"target":34962
		},
		{
			"buffer":0,
			"byteLength":86520,
			"byteOffset":86520,
			"target":34962
		},
		{
			"buffer":0,
			"byteLength":57680,
			"byteOffset":173040,
			"target":34962
		},
		{
			"buffer":0,
			"byteLength":115360,
			"byteOffset":230720,
			"target":34962
		},
		{
			"buffer":0,
			"byteLength":58464,
			"byteOffset":346080,
			"target":34963
		}
	],
	"buffers":[
		{
			"byteLength":404544,
			"uri":"Fish01-912cb4dbd2e1b24757a019d06761ceed.bin"
		}
	]
}
