{
	"asset":{
		"generator":"Khronos glTF Blender I/O v4.3.47",
		"version":"2.0"
	},
	"extensionsUsed":[
		"KHR_lights_punctual"
	],
	"extensionsRequired":[
		"KHR_lights_punctual"
	],
	"extensions":{
		"KHR_lights_punctual":{
			"lights":[
				{
					"color":[
						1,
						1,
						1
					],
					"intensity":54351.41306588226,
					"type":"point",
					"name":"Light"
				}
			]
		}
	},
	"scene":0,
	"scenes":[
		{
			"name":"Scene",
			"nodes":[
				0,
				1,
				2
			]
		}
	],
	"nodes":[
		{
			"extensions":{
				"KHR_lights_punctual":{
					"light":0
				}
			},
			"name":"Light",
			"rotation":[
				-0.28416627645492554,
				0.7269423007965088,
				0.34203392267227173,
				0.5232754945755005
			],
			"translation":[
				4.076245307922363,
				5.903861999511719,
				-1.0054539442062378
			]
		},
		{
			"camera":0,
			"name":"Camera",
			"rotation":[
				-0.20997299253940582,
				0.3857799470424652,
				0.09062844514846802,
				0.8937962055206299
			],
			"translation":[
				7.358891487121582,
				4.958309173583984,
				6.925790786743164
			]
		},
		{
			"mesh":0,
			"name":"GarageDoor01"
		}
	],
	"cameras":[
		{
			"name":"Camera",
			"perspective":{
				"aspectRatio":1.7777777777777777,
				"yfov":0.39959652046304894,
				"zfar":100,
				"znear":0.10000000149011612
			},
			"type":"perspective"
		}
	],
	"materials":[
		{
			"doubleSided":true,
			"name":"Wood_house04",
			"pbrMetallicRoughness":{
				"baseColorFactor":[
					0.6938718557357788,
					0.5583405494689941,
					0.29177066683769226,
					1
				],
				"metallicFactor":0,
				"roughnessFactor":0.5
			}
		},
		{
			"doubleSided":true,
			"name":"Cream_house04",
			"pbrMetallicRoughness":{
				"baseColorFactor":[
					0.8796226382255554,
					0.8713672757148743,
					0.8307698369026184,
					1
				],
				"metallicFactor":0,
				"roughnessFactor":0.5
			}
		},
		{
			"doubleSided":true,
			"name":"Gray_house04",
			"pbrMetallicRoughness":{
				"baseColorFactor":[
					0.6795427203178406,
					0.6239604353904724,
					0.6104956865310669,
					1
				],
				"metallicFactor":0,
				"roughnessFactor":0.5
			}
		},
		{
			"doubleSided":true,
			"name":"Window_house04",
			"pbrMetallicRoughness":{
				"baseColorFactor":[
					0.31398868560791016,
					0.40724021196365356,
					0.6724432706832886,
					1
				],
				"metallicFactor":0,
				"roughnessFactor":0.5
			}
		}
	],
	"meshes":[
		{
			"name":"Cube.003",
			"primitives":[
				{
					"attributes":{
						"POSITION":0,
						"NORMAL":1,
						"TEXCOORD_0":2
					},
					"indices":3,
					"material":0
				},
				{
					"attributes":{
						"POSITION":4,
						"NORMAL":5,
						"TEXCOORD_0":6
					},
					"indices":7,
					"material":1
				},
				{
					"attributes":{
						"POSITION":8,
						"NORMAL":9,
						"TEXCOORD_0":10
					},
					"indices":11,
					"material":2
				},
				{
					"attributes":{
						"POSITION":12,
						"NORMAL":13,
						"TEXCOORD_0":14
					},
					"indices":15,
					"material":3
				}
			]
		}
	],
	"accessors":[
		{
			"bufferView":0,
			"componentType":5126,
			"count":518,
			"max":[
				3.587664842605591,
				1.7100971937179565,
				0.197836771607399
			],
			"min":[
				-3.587664842605591,
				-1.5948654413223267,
				-0.197836771607399
			],
			"type":"VEC3"
		},
		{
			"bufferView":1,
			"componentType":5126,
			"count":518,
			"type":"VEC3"
		},
		{
			"bufferView":2,
			"componentType":5126,
			"count":518,
			"type":"VEC2"
		},
		{
			"bufferView":3,
			"componentType":5123,
			"count":1020,
			"type":"SCALAR"
		},
		{
			"bufferView":4,
			"componentType":5126,
			"count":40,
			"max":[
				2.407163619995117,
				1.4739092588424683,
				0.3606218099594116
			],
			"min":[
				-2.407163619995117,
				-1.574754238128662,
				-0.3606218099594116
			],
			"type":"VEC3"
		},
		{
			"bufferView":5,
			"componentType":5126,
			"count":40,
			"type":"VEC3"
		},
		{
			"bufferView":6,
			"componentType":5126,
			"count":40,
			"type":"VEC2"
		},
		{
			"bufferView":7,
			"componentType":5123,
			"count":72,
			"type":"SCALAR"
		},
		{
			"bufferView":8,
			"componentType":5126,
			"count":136,
			"max":[
				2.128918170928955,
				1.2778712511062622,
				0.12204013019800186
			],
			"min":[
				-2.128918170928955,
				-1.558903694152832,
				-0.12204017490148544
			],
			"type":"VEC3"
		},
		{
			"bufferView":9,
			"componentType":5126,
			"count":136,
			"type":"VEC3"
		},
		{
			"bufferView":10,
			"componentType":5126,
			"count":136,
			"type":"VEC2"
		},
		{
			"bufferView":11,
			"componentType":5123,
			"count":384,
			"type":"SCALAR"
		},
		{
			"bufferView":12,
			"componentType":5126,
			"count":24,
			"max":[
				1.873037576675415,
				0.9498719573020935,
				0.00579420430585742
			],
			"min":[
				-1.873037576675415,
				-0.0120099987834692,
				-0.005794229917228222
			],
			"type":"VEC3"
		},
		{
			"bufferView":13,
			"componentType":5126,
			"count":24,
			"type":"VEC3"
		},
		{
			"bufferView":14,
			"componentType":5126,
			"count":24,
			"type":"VEC2"
		},
		{
			"bufferView":15,
			"componentType":5123,
			"count":36,
			"type":"SCALAR"
		}
	],
	"bufferViews":[
		{
			"buffer":0,
			"byteLength":6216,
			"byteOffset":0,
			"target":34962
		},
		{
			"buffer":0,
			"byteLength":6216,
			"byteOffset":6216,
			"target":34962
		},
		{
			"buffer":0,
			"byteLength":4144,
			"byteOffset":12432,
			"target":34962
		},
		{
			"buffer":0,
			"byteLength":2040,
			"byteOffset":16576,
			"target":34963
		},
		{
			"buffer":0,
			"byteLength":480,
			"byteOffset":18616,
			"target":34962
		},
		{
			"buffer":0,
			"byteLength":480,
			"byteOffset":19096,
			"target":34962
		},
		{
			"buffer":0,
			"byteLength":320,
			"byteOffset":19576,
			"target":34962
		},
		{
			"buffer":0,
			"byteLength":144,
			"byteOffset":19896,
			"target":34963
		},
		{
			"buffer":0,
			"byteLength":1632,
			"byteOffset":20040,
			"target":34962
		},
		{
			"buffer":0,
			"byteLength":1632,
			"byteOffset":21672,
			"target":34962
		},
		{
			"buffer":0,
			"byteLength":1088,
			"byteOffset":23304,
			"target":34962
		},
		{
			"buffer":0,
			"byteLength":768,
			"byteOffset":24392,
			"target":34963
		},
		{
			"buffer":0,
			"byteLength":288,
			"byteOffset":25160,
			"target":34962
		},
		{
			"buffer":0,
			"byteLength":288,
			"byteOffset":25448,
			"target":34962
		},
		{
			"buffer":0,
			"byteLength":192,
			"byteOffset":25736,
			"target":34962
		},
		{
			"buffer":0,
			"byteLength":72,
			"byteOffset":25928,
			"target":34963
		}
	],
	"buffers":[
		{
			"byteLength":26000,
			"uri":"GarageDoor01_house4-305e6ef6754d4afdb70c15973c564bf2.bin"
		}
	]
}
