{
	"asset":{
		"generator":"Khronos glTF Blender I/O v4.3.47",
		"version":"2.0"
	},
	"extensionsUsed":[
		"KHR_lights_punctual"
	],
	"extensionsRequired":[
		"KHR_lights_punctual"
	],
	"extensions":{
		"KHR_lights_punctual":{
			"lights":[
				{
					"color":[
						1,
						1,
						1
					],
					"intensity":54351.41306588226,
					"type":"point",
					"name":"Light"
				}
			]
		}
	},
	"scene":0,
	"scenes":[
		{
			"name":"Scene",
			"nodes":[
				0,
				1,
				2
			]
		}
	],
	"nodes":[
		{
			"extensions":{
				"KHR_lights_punctual":{
					"light":0
				}
			},
			"name":"Light",
			"rotation":[
				-0.28416627645492554,
				0.7269423007965088,
				0.34203392267227173,
				0.5232754945755005
			],
			"translation":[
				4.076245307922363,
				5.903861999511719,
				-1.0054539442062378
			]
		},
		{
			"camera":0,
			"name":"Camera",
			"rotation":[
				-0.20997299253940582,
				0.3857799470424652,
				0.09062844514846802,
				0.8937962055206299
			],
			"translation":[
				7.358891487121582,
				4.958309173583984,
				6.925790786743164
			]
		},
		{
			"mesh":0,
			"name":"GarageRoof01_house4"
		}
	],
	"cameras":[
		{
			"name":"Camera",
			"perspective":{
				"aspectRatio":1.7777777777777777,
				"yfov":0.39959652046304894,
				"zfar":100,
				"znear":0.10000000149011612
			},
			"type":"perspective"
		}
	],
	"materials":[
		{
			"doubleSided":true,
			"name":"Roof_house04",
			"pbrMetallicRoughness":{
				"baseColorFactor":[
					0.7011020183563232,
					0.3049873113632202,
					0.21223078668117523,
					1
				],
				"metallicFactor":0,
				"roughnessFactor":0.5
			}
		},
		{
			"doubleSided":true,
			"name":"Cream_house04",
			"pbrMetallicRoughness":{
				"baseColorFactor":[
					0.8796226382255554,
					0.8713672757148743,
					0.8307698369026184,
					1
				],
				"metallicFactor":0,
				"roughnessFactor":0.5
			}
		}
	],
	"meshes":[
		{
			"name":"Cube.004",
			"primitives":[
				{
					"attributes":{
						"POSITION":0,
						"NORMAL":1,
						"TEXCOORD_0":2,
						"TANGENT":3
					},
					"indices":4,
					"material":0
				},
				{
					"attributes":{
						"POSITION":5,
						"NORMAL":6,
						"TEXCOORD_0":7,
						"TANGENT":8
					},
					"indices":9,
					"material":1
				}
			]
		}
	],
	"accessors":[
		{
			"bufferView":0,
			"componentType":5126,
			"count":1032,
			"max":[
				2.218658924102783,
				1.083760142326355,
				1.2625375986099243
			],
			"min":[
				-1.7813434600830078,
				-1.3102829456329346,
				-1.2615009546279907
			],
			"type":"VEC3"
		},
		{
			"bufferView":1,
			"componentType":5126,
			"count":1032,
			"type":"VEC3"
		},
		{
			"bufferView":2,
			"componentType":5126,
			"count":1032,
			"type":"VEC2"
		},
		{
			"bufferView":3,
			"componentType":5126,
			"count":1032,
			"type":"VEC4"
		},
		{
			"bufferView":4,
			"componentType":5123,
			"count":1944,
			"type":"SCALAR"
		},
		{
			"bufferView":5,
			"componentType":5126,
			"count":50,
			"max":[
				2.1254196166992188,
				0.887911856174469,
				1.2657928466796875
			],
			"min":[
				-1.7813435792922974,
				-1.6913795471191406,
				-1.2624486684799194
			],
			"type":"VEC3"
		},
		{
			"bufferView":6,
			"componentType":5126,
			"count":50,
			"type":"VEC3"
		},
		{
			"bufferView":7,
			"componentType":5126,
			"count":50,
			"type":"VEC2"
		},
		{
			"bufferView":8,
			"componentType":5126,
			"count":50,
			"type":"VEC4"
		},
		{
			"bufferView":9,
			"componentType":5123,
			"count":84,
			"type":"SCALAR"
		}
	],
	"bufferViews":[
		{
			"buffer":0,
			"byteLength":12384,
			"byteOffset":0,
			"target":34962
		},
		{
			"buffer":0,
			"byteLength":12384,
			"byteOffset":12384,
			"target":34962
		},
		{
			"buffer":0,
			"byteLength":8256,
			"byteOffset":24768,
			"target":34962
		},
		{
			"buffer":0,
			"byteLength":16512,
			"byteOffset":33024,
			"target":34962
		},
		{
			"buffer":0,
			"byteLength":3888,
			"byteOffset":49536,
			"target":34963
		},
		{
			"buffer":0,
			"byteLength":600,
			"byteOffset":53424,
			"target":34962
		},
		{
			"buffer":0,
			"byteLength":600,
			"byteOffset":54024,
			"target":34962
		},
		{
			"buffer":0,
			"byteLength":400,
			"byteOffset":54624,
			"target":34962
		},
		{
			"buffer":0,
			"byteLength":800,
			"byteOffset":55024,
			"target":34962
		},
		{
			"buffer":0,
			"byteLength":168,
			"byteOffset":55824,
			"target":34963
		}
	],
	"buffers":[
		{
			"byteLength":55992,
			"uri":"GarageRoof01_house4-f0ab98e463584ef6e721b81cab9d6de2.bin"
		}
	]
}
