{
	"asset":{
		"generator":"Khronos glTF Blender I/O v4.3.47",
		"version":"2.0"
	},
	"extensionsUsed":[
		"KHR_lights_punctual"
	],
	"extensionsRequired":[
		"KHR_lights_punctual"
	],
	"extensions":{
		"KHR_lights_punctual":{
			"lights":[
				{
					"color":[
						1,
						1,
						1
					],
					"intensity":54351.41306588226,
					"type":"point",
					"name":"Light"
				}
			]
		}
	},
	"scene":0,
	"scenes":[
		{
			"name":"Scene",
			"nodes":[
				0,
				1,
				2,
				3
			]
		}
	],
	"nodes":[
		{
			"extensions":{
				"KHR_lights_punctual":{
					"light":0
				}
			},
			"name":"Light",
			"rotation":[
				-0.28416627645492554,
				0.7269423007965088,
				0.34203392267227173,
				0.5232754945755005
			],
			"translation":[
				4.076245307922363,
				5.903861999511719,
				-1.0054539442062378
			]
		},
		{
			"camera":0,
			"name":"Camera",
			"rotation":[
				-0.20997299253940582,
				0.3857799470424652,
				0.09062844514846802,
				0.8937962055206299
			],
			"translation":[
				7.358891487121582,
				4.958309173583984,
				6.925790786743164
			]
		},
		{
			"mesh":0,
			"name":"Garage01_house03"
		},
		{
			"mesh":1,
			"name":"Cube.002",
			"scale":[
				0.31480836868286133,
				0.31480836868286133,
				0.31480836868286133
			],
			"translation":[
				0,
				0.05355983227491379,
				1.7491371631622314
			]
		}
	],
	"cameras":[
		{
			"name":"Camera",
			"perspective":{
				"aspectRatio":1.7777777777777777,
				"yfov":0.39959652046304894,
				"zfar":100,
				"znear":0.10000000149011612
			},
			"type":"perspective"
		}
	],
	"materials":[
		{
			"doubleSided":true,
			"name":"DarkGreen_house3",
			"pbrMetallicRoughness":{
				"baseColorFactor":[
					0.13013650476932526,
					0.2788942754268646,
					0.21223078668117523,
					1
				],
				"metallicFactor":0,
				"roughnessFactor":0.5
			}
		},
		{
			"doubleSided":true,
			"name":"Green_house03",
			"pbrMetallicRoughness":{
				"baseColorFactor":[
					0.5088812708854675,
					0.7304609417915344,
					0.597201943397522,
					1
				],
				"metallicFactor":0,
				"roughnessFactor":0.4000000059604645
			}
		},
		{
			"doubleSided":true,
			"name":"Wood_house03",
			"pbrMetallicRoughness":{
				"baseColorFactor":[
					0.7304609417915344,
					0.5840784907341003,
					0.4125426411628723,
					1
				],
				"metallicFactor":0,
				"roughnessFactor":0.5
			}
		}
	],
	"meshes":[
		{
			"name":"Cube.004",
			"primitives":[
				{
					"attributes":{
						"POSITION":0,
						"NORMAL":1,
						"TEXCOORD_0":2
					},
					"indices":3,
					"material":0
				},
				{
					"attributes":{
						"POSITION":4,
						"NORMAL":5,
						"TEXCOORD_0":6
					},
					"indices":7,
					"material":1
				},
				{
					"attributes":{
						"POSITION":8,
						"NORMAL":9,
						"TEXCOORD_0":10
					},
					"indices":11,
					"material":2
				}
			]
		},
		{
			"name":"Cube.002",
			"primitives":[
				{
					"attributes":{
						"POSITION":12,
						"NORMAL":13,
						"TEXCOORD_0":14,
						"TANGENT":15
					},
					"indices":16
				}
			]
		}
	],
	"accessors":[
		{
			"bufferView":0,
			"componentType":5126,
			"count":48,
			"max":[
				0.2879374027252197,
				1.7864793539047241,
				2.720043659210205
			],
			"min":[
				-0.28896278142929077,
				-1.5491729974746704,
				-2.7200441360473633
			],
			"type":"VEC3"
		},
		{
			"bufferView":1,
			"componentType":5126,
			"count":48,
			"type":"VEC3"
		},
		{
			"bufferView":2,
			"componentType":5126,
			"count":48,
			"type":"VEC2"
		},
		{
			"bufferView":3,
			"componentType":5123,
			"count":72,
			"type":"SCALAR"
		},
		{
			"bufferView":4,
			"componentType":5126,
			"count":541,
			"max":[
				0.2024734616279602,
				1.7717841863632202,
				2.4103221893310547
			],
			"min":[
				-0.20349881052970886,
				-1.5331782102584839,
				-2.4103221893310547
			],
			"type":"VEC3"
		},
		{
			"bufferView":5,
			"componentType":5126,
			"count":541,
			"type":"VEC3"
		},
		{
			"bufferView":6,
			"componentType":5126,
			"count":541,
			"type":"VEC2"
		},
		{
			"bufferView":7,
			"componentType":5123,
			"count":1068,
			"type":"SCALAR"
		},
		{
			"bufferView":8,
			"componentType":5126,
			"count":512,
			"max":[
				0.11971956491470337,
				1.152066707611084,
				1.6356085538864136
			],
			"min":[
				-0.12074491381645203,
				-1.5598738193511963,
				-1.6356085538864136
			],
			"type":"VEC3"
		},
		{
			"bufferView":9,
			"componentType":5126,
			"count":512,
			"type":"VEC3"
		},
		{
			"bufferView":10,
			"componentType":5126,
			"count":512,
			"type":"VEC2"
		},
		{
			"bufferView":11,
			"componentType":5123,
			"count":1128,
			"type":"SCALAR"
		},
		{
			"bufferView":12,
			"componentType":5126,
			"count":24,
			"max":[
				1,
				1,
				1
			],
			"min":[
				-1,
				-1,
				-1
			],
			"type":"VEC3"
		},
		{
			"bufferView":13,
			"componentType":5126,
			"count":24,
			"type":"VEC3"
		},
		{
			"bufferView":14,
			"componentType":5126,
			"count":24,
			"type":"VEC2"
		},
		{
			"bufferView":15,
			"componentType":5126,
			"count":24,
			"type":"VEC4"
		},
		{
			"bufferView":16,
			"componentType":5123,
			"count":36,
			"type":"SCALAR"
		}
	],
	"bufferViews":[
		{
			"buffer":0,
			"byteLength":576,
			"byteOffset":0,
			"target":34962
		},
		{
			"buffer":0,
			"byteLength":576,
			"byteOffset":576,
			"target":34962
		},
		{
			"buffer":0,
			"byteLength":384,
			"byteOffset":1152,
			"target":34962
		},
		{
			"buffer":0,
			"byteLength":144,
			"byteOffset":1536,
			"target":34963
		},
		{
			"buffer":0,
			"byteLength":6492,
			"byteOffset":1680,
			"target":34962
		},
		{
			"buffer":0,
			"byteLength":6492,
			"byteOffset":8172,
			"target":34962
		},
		{
			"buffer":0,
			"byteLength":4328,
			"byteOffset":14664,
			"target":34962
		},
		{
			"buffer":0,
			"byteLength":2136,
			"byteOffset":18992,
			"target":34963
		},
		{
			"buffer":0,
			"byteLength":6144,
			"byteOffset":21128,
			"target":34962
		},
		{
			"buffer":0,
			"byteLength":6144,
			"byteOffset":27272,
			"target":34962
		},
		{
			"buffer":0,
			"byteLength":4096,
			"byteOffset":33416,
			"target":34962
		},
		{
			"buffer":0,
			"byteLength":2256,
			"byteOffset":37512,
			"target":34963
		},
		{
			"buffer":0,
			"byteLength":288,
			"byteOffset":39768,
			"target":34962
		},
		{
			"buffer":0,
			"byteLength":288,
			"byteOffset":40056,
			"target":34962
		},
		{
			"buffer":0,
			"byteLength":192,
			"byteOffset":40344,
			"target":34962
		},
		{
			"buffer":0,
			"byteLength":384,
			"byteOffset":40536,
			"target":34962
		},
		{
			"buffer":0,
			"byteLength":72,
			"byteOffset":40920,
			"target":34963
		}
	],
	"buffers":[
		{
			"byteLength":40992,
			"uri":"Garage01_house3-618fdf28e4f41ea5b069545fd58ad838.bin"
		}
	]
}
