{
	"asset":{
		"generator":"Khronos glTF Blender I/O v4.3.47",
		"version":"2.0"
	},
	"scene":0,
	"scenes":[
		{
			"name":"Scene",
			"nodes":[
				0
			]
		}
	],
	"nodes":[
		{
			"mesh":0,
			"name":"Hidrant_01"
		}
	],
	"materials":[
		{
			"doubleSided":true,
			"name":"Hidrant_01",
			"pbrMetallicRoughness":{
				"baseColorFactor":[
					0.40724021196365356,
					0.0423114150762558,
					0.012286489829421043,
					1
				],
				"metallicFactor":0,
				"roughnessFactor":0.5
			}
		},
		{
			"doubleSided":true,
			"name":"YellowPartHidrant_01",
			"pbrMetallicRoughness":{
				"baseColorFactor":[
					0.42869052290916443,
					0.2788942754268646,
					0,
					1
				],
				"metallicFactor":0,
				"roughnessFactor":0.5
			}
		}
	],
	"meshes":[
		{
			"name":"Cylinder.010",
			"primitives":[
				{
					"attributes":{
						"POSITION":0,
						"NORMAL":1,
						"TEXCOORD_0":2
					},
					"indices":3,
					"material":0
				},
				{
					"attributes":{
						"POSITION":4,
						"NORMAL":5,
						"TEXCOORD_0":6
					},
					"indices":7,
					"material":1
				}
			]
		}
	],
	"accessors":[
		{
			"bufferView":0,
			"componentType":5126,
			"count":1044,
			"max":[
				1.4214253425598145,
				3.0312814712524414,
				1.5837750434875488
			],
			"min":[
				-1.4214240312576294,
				-1.1286265850067139,
				-0.9542233943939209
			],
			"type":"VEC3"
		},
		{
			"bufferView":1,
			"componentType":5126,
			"count":1044,
			"type":"VEC3"
		},
		{
			"bufferView":2,
			"componentType":5126,
			"count":1044,
			"type":"VEC2"
		},
		{
			"bufferView":3,
			"componentType":5123,
			"count":1848,
			"type":"SCALAR"
		},
		{
			"bufferView":4,
			"componentType":5126,
			"count":96,
			"max":[
				0.7012527585029602,
				2.8059980869293213,
				0.7012537121772766
			],
			"min":[
				-0.7012534737586975,
				2.780735969543457,
				-0.7012534737586975
			],
			"type":"VEC3"
		},
		{
			"bufferView":5,
			"componentType":5126,
			"count":96,
			"type":"VEC3"
		},
		{
			"bufferView":6,
			"componentType":5126,
			"count":96,
			"type":"VEC2"
		},
		{
			"bufferView":7,
			"componentType":5123,
			"count":144,
			"type":"SCALAR"
		}
	],
	"bufferViews":[
		{
			"buffer":0,
			"byteLength":12528,
			"byteOffset":0,
			"target":34962
		},
		{
			"buffer":0,
			"byteLength":12528,
			"byteOffset":12528,
			"target":34962
		},
		{
			"buffer":0,
			"byteLength":8352,
			"byteOffset":25056,
			"target":34962
		},
		{
			"buffer":0,
			"byteLength":3696,
			"byteOffset":33408,
			"target":34963
		},
		{
			"buffer":0,
			"byteLength":1152,
			"byteOffset":37104,
			"target":34962
		},
		{
			"buffer":0,
			"byteLength":1152,
			"byteOffset":38256,
			"target":34962
		},
		{
			"buffer":0,
			"byteLength":768,
			"byteOffset":39408,
			"target":34962
		},
		{
			"buffer":0,
			"byteLength":288,
			"byteOffset":40176,
			"target":34963
		}
	],
	"buffers":[
		{
			"byteLength":40464,
			"uri":"Hidrant_01-25af52e7412b9c0ecd5ee010903768b3.bin"
		}
	]
}
