{
	"asset":{
		"generator":"Khronos glTF Blender I/O v4.3.47",
		"version":"2.0"
	},
	"extensionsUsed":[
		"KHR_lights_punctual"
	],
	"extensionsRequired":[
		"KHR_lights_punctual"
	],
	"extensions":{
		"KHR_lights_punctual":{
			"lights":[
				{
					"color":[
						1,
						0.9576398134231567,
						0.8369218111038208
					],
					"intensity":928.8800097703934,
					"type":"directional",
					"name":"Sun"
				},
				{
					"color":[
						1,
						0.9576398134231567,
						0.8369218111038208
					],
					"intensity":355.1600276827812,
					"type":"directional",
					"name":"Sun.001"
				}
			]
		}
	},
	"scene":0,
	"scenes":[
		{
			"name":"Scene",
			"nodes":[
				0,
				1,
				2
			]
		}
	],
	"nodes":[
		{
			"mesh":0,
			"name":"House_03"
		},
		{
			"extensions":{
				"KHR_lights_punctual":{
					"light":0
				}
			},
			"name":"Sun",
			"rotation":[
				-0.5396110415458679,
				0.45696818828582764,
				-0.4569682478904724,
				0.5396110415458679
			],
			"translation":[
				9.160565376281738,
				0,
				0
			]
		},
		{
			"extensions":{
				"KHR_lights_punctual":{
					"light":1
				}
			},
			"name":"Sun.001",
			"rotation":[
				-0.22078120708465576,
				-0.21524235606193542,
				0.05002468079328537,
				0.9499599933624268
			],
			"translation":[
				9.160565376281738,
				0,
				0
			]
		}
	],
	"materials":[
		{
			"doubleSided":true,
			"name":"Green_house03.001",
			"pbrMetallicRoughness":{
				"baseColorFactor":[
					0.5088812708854675,
					0.7304609417915344,
					0.597201943397522,
					1
				],
				"metallicFactor":0,
				"roughnessFactor":0.4000000059604645
			}
		},
		{
			"doubleSided":true,
			"name":"Cream_house03.001",
			"pbrMetallicRoughness":{
				"baseColorFactor":[
					0.8962693810462952,
					0.8796226382255554,
					0.760524570941925,
					1
				],
				"metallicFactor":0,
				"roughnessFactor":0.5
			}
		},
		{
			"doubleSided":true,
			"name":"Wood_house03.001",
			"pbrMetallicRoughness":{
				"baseColorFactor":[
					0.7304609417915344,
					0.5840784907341003,
					0.4125426411628723,
					1
				],
				"metallicFactor":0,
				"roughnessFactor":0.5
			}
		},
		{
			"doubleSided":true,
			"name":"Window_house03.002",
			"pbrMetallicRoughness":{
				"baseColorFactor":[
					0.5149176716804504,
					0.6514057517051697,
					0.7912980914115906,
					1
				],
				"metallicFactor":0,
				"roughnessFactor":0.5
			}
		},
		{
			"doubleSided":true,
			"name":"Black_house03.001",
			"pbrMetallicRoughness":{
				"baseColorFactor":[
					0.06372076272964478,
					0.06372076272964478,
					0.06372076272964478,
					1
				],
				"metallicFactor":0,
				"roughnessFactor":0.5
			}
		},
		{
			"doubleSided":true,
			"name":"DarkGreen_house3.001",
			"pbrMetallicRoughness":{
				"baseColorFactor":[
					0.13013650476932526,
					0.2788942754268646,
					0.21223078668117523,
					1
				],
				"metallicFactor":0,
				"roughnessFactor":0.5
			}
		},
		{
			"doubleSided":true,
			"name":"DarkGreen_house3",
			"pbrMetallicRoughness":{
				"baseColorFactor":[
					0.13013650476932526,
					0.2788942754268646,
					0.21223078668117523,
					1
				],
				"metallicFactor":0,
				"roughnessFactor":0.5
			}
		},
		{
			"doubleSided":true,
			"name":"Green_house03",
			"pbrMetallicRoughness":{
				"baseColorFactor":[
					0.5088812708854675,
					0.7304609417915344,
					0.597201943397522,
					1
				],
				"metallicFactor":0,
				"roughnessFactor":0.4000000059604645
			}
		},
		{
			"doubleSided":true,
			"name":"Wood_house03",
			"pbrMetallicRoughness":{
				"baseColorFactor":[
					0.7304609417915344,
					0.5840784907341003,
					0.4125426411628723,
					1
				],
				"metallicFactor":0,
				"roughnessFactor":0.5
			}
		},
		{
			"doubleSided":true,
			"name":"Green_house03.003",
			"pbrMetallicRoughness":{
				"baseColorFactor":[
					0.5088812708854675,
					0.7304609417915344,
					0.597201943397522,
					1
				],
				"metallicFactor":0,
				"roughnessFactor":0.4000000059604645
			}
		},
		{
			"doubleSided":true,
			"name":"Green_house03.005",
			"pbrMetallicRoughness":{
				"baseColorFactor":[
					0.5088812708854675,
					0.7304609417915344,
					0.597201943397522,
					1
				],
				"metallicFactor":0,
				"roughnessFactor":0.4000000059604645
			}
		},
		{
			"doubleSided":true,
			"name":"Cream_house03.003",
			"pbrMetallicRoughness":{
				"baseColorFactor":[
					0.8962693810462952,
					0.8796226382255554,
					0.760524570941925,
					1
				],
				"metallicFactor":0,
				"roughnessFactor":0.5
			}
		},
		{
			"doubleSided":true,
			"name":"Wood_house03.003",
			"pbrMetallicRoughness":{
				"baseColorFactor":[
					0.7304609417915344,
					0.5840784907341003,
					0.4125426411628723,
					1
				],
				"metallicFactor":0,
				"roughnessFactor":0.5
			}
		},
		{
			"doubleSided":true,
			"name":"Window_house03.003",
			"pbrMetallicRoughness":{
				"baseColorFactor":[
					0.5149176716804504,
					0.6514057517051697,
					0.7912980914115906,
					1
				],
				"metallicFactor":0,
				"roughnessFactor":0.5
			}
		},
		{
			"doubleSided":true,
			"name":"Wood_house03.004",
			"pbrMetallicRoughness":{
				"baseColorFactor":[
					0.7304609417915344,
					0.5840784907341003,
					0.4125426411628723,
					1
				],
				"metallicFactor":0,
				"roughnessFactor":0.5
			}
		},
		{
			"doubleSided":true,
			"name":"Window_house03.004",
			"pbrMetallicRoughness":{
				"baseColorFactor":[
					0.5149176716804504,
					0.6514057517051697,
					0.7912980914115906,
					1
				],
				"metallicFactor":0,
				"roughnessFactor":0.5
			}
		},
		{
			"doubleSided":true,
			"name":"Cream_house03.004",
			"pbrMetallicRoughness":{
				"baseColorFactor":[
					0.8962693810462952,
					0.8796226382255554,
					0.760524570941925,
					1
				],
				"metallicFactor":0,
				"roughnessFactor":0.5
			}
		},
		{
			"doubleSided":true,
			"name":"Green_house03.006",
			"pbrMetallicRoughness":{
				"baseColorFactor":[
					0.5088812708854675,
					0.7304609417915344,
					0.597201943397522,
					1
				],
				"metallicFactor":0,
				"roughnessFactor":0.4000000059604645
			}
		},
		{
			"doubleSided":true,
			"name":"Green_house03.004",
			"pbrMetallicRoughness":{
				"baseColorFactor":[
					0.5088812708854675,
					0.7304609417915344,
					0.597201943397522,
					1
				],
				"metallicFactor":0,
				"roughnessFactor":0.4000000059604645
			}
		},
		{
			"doubleSided":true,
			"name":"Cream_house03.002",
			"pbrMetallicRoughness":{
				"baseColorFactor":[
					0.8962693810462952,
					0.8796226382255554,
					0.760524570941925,
					1
				],
				"metallicFactor":0,
				"roughnessFactor":0.5
			}
		},
		{
			"doubleSided":true,
			"name":"DarkGreen_house3.002",
			"pbrMetallicRoughness":{
				"baseColorFactor":[
					0.13013650476932526,
					0.2788942754268646,
					0.21223078668117523,
					1
				],
				"metallicFactor":0,
				"roughnessFactor":0.5
			}
		}
	],
	"meshes":[
		{
			"name":"Cube.004",
			"primitives":[
				{
					"attributes":{
						"POSITION":0,
						"NORMAL":1,
						"TEXCOORD_0":2
					},
					"indices":3,
					"material":0
				},
				{
					"attributes":{
						"POSITION":4,
						"NORMAL":5,
						"TEXCOORD_0":6
					},
					"indices":7,
					"material":1
				},
				{
					"attributes":{
						"POSITION":8,
						"NORMAL":9,
						"TEXCOORD_0":10
					},
					"indices":11,
					"material":2
				},
				{
					"attributes":{
						"POSITION":12,
						"NORMAL":13,
						"TEXCOORD_0":14
					},
					"indices":15,
					"material":3
				},
				{
					"attributes":{
						"POSITION":16,
						"NORMAL":17,
						"TEXCOORD_0":18
					},
					"indices":19,
					"material":4
				},
				{
					"attributes":{
						"POSITION":20,
						"NORMAL":21,
						"TEXCOORD_0":22
					},
					"indices":23,
					"material":5
				},
				{
					"attributes":{
						"POSITION":24,
						"NORMAL":25,
						"TEXCOORD_0":26
					},
					"indices":27,
					"material":6
				},
				{
					"attributes":{
						"POSITION":28,
						"NORMAL":29,
						"TEXCOORD_0":30
					},
					"indices":31,
					"material":7
				},
				{
					"attributes":{
						"POSITION":32,
						"NORMAL":33,
						"TEXCOORD_0":34
					},
					"indices":35,
					"material":8
				},
				{
					"attributes":{
						"POSITION":36,
						"NORMAL":37,
						"TEXCOORD_0":38
					},
					"indices":39,
					"material":9
				},
				{
					"attributes":{
						"POSITION":40,
						"NORMAL":41,
						"TEXCOORD_0":42
					},
					"indices":43,
					"material":10
				},
				{
					"attributes":{
						"POSITION":44,
						"NORMAL":45,
						"TEXCOORD_0":46
					},
					"indices":47,
					"material":11
				},
				{
					"attributes":{
						"POSITION":48,
						"NORMAL":49,
						"TEXCOORD_0":50
					},
					"indices":51,
					"material":12
				},
				{
					"attributes":{
						"POSITION":52,
						"NORMAL":53,
						"TEXCOORD_0":54
					},
					"indices":55,
					"material":13
				},
				{
					"attributes":{
						"POSITION":56,
						"NORMAL":57,
						"TEXCOORD_0":58
					},
					"indices":59,
					"material":14
				},
				{
					"attributes":{
						"POSITION":60,
						"NORMAL":61,
						"TEXCOORD_0":62
					},
					"indices":63,
					"material":15
				},
				{
					"attributes":{
						"POSITION":64,
						"NORMAL":65,
						"TEXCOORD_0":66
					},
					"indices":67,
					"material":16
				},
				{
					"attributes":{
						"POSITION":68,
						"NORMAL":69,
						"TEXCOORD_0":70
					},
					"indices":71,
					"material":17
				},
				{
					"attributes":{
						"POSITION":72,
						"NORMAL":73,
						"TEXCOORD_0":74
					},
					"indices":75,
					"material":18
				},
				{
					"attributes":{
						"POSITION":76,
						"NORMAL":77,
						"TEXCOORD_0":78
					},
					"indices":79,
					"material":19
				},
				{
					"attributes":{
						"POSITION":80,
						"NORMAL":81,
						"TEXCOORD_0":82
					},
					"indices":83,
					"material":20
				}
			]
		}
	],
	"accessors":[
		{
			"bufferView":0,
			"componentType":5126,
			"count":1226,
			"max":[
				2.262580156326294,
				-0.13082535564899445,
				5.281365394592285
			],
			"min":[
				-5.039708614349365,
				-3.44854736328125,
				-4.241119384765625
			],
			"type":"VEC3"
		},
		{
			"bufferView":1,
			"componentType":5126,
			"count":1226,
			"type":"VEC3"
		},
		{
			"bufferView":2,
			"componentType":5126,
			"count":1226,
			"type":"VEC2"
		},
		{
			"bufferView":3,
			"componentType":5123,
			"count":2520,
			"type":"SCALAR"
		},
		{
			"bufferView":4,
			"componentType":5126,
			"count":960,
			"max":[
				2.3256137371063232,
				-1.0275346040725708,
				4.365321159362793
			],
			"min":[
				-5.1027421951293945,
				-2.8991293907165527,
				-1.935996174812317
			],
			"type":"VEC3"
		},
		{
			"bufferView":5,
			"componentType":5126,
			"count":960,
			"type":"VEC3"
		},
		{
			"bufferView":6,
			"componentType":5126,
			"count":960,
			"type":"VEC2"
		},
		{
			"bufferView":7,
			"componentType":5123,
			"count":2784,
			"type":"SCALAR"
		},
		{
			"bufferView":8,
			"componentType":5126,
			"count":272,
			"max":[
				2.151946783065796,
				-0.7097434401512146,
				3.1424570083618164
			],
			"min":[
				-4.929075241088867,
				-3.462545394897461,
				-3.625919818878174
			],
			"type":"VEC3"
		},
		{
			"bufferView":9,
			"componentType":5126,
			"count":272,
			"type":"VEC3"
		},
		{
			"bufferView":10,
			"componentType":5126,
			"count":272,
			"type":"VEC2"
		},
		{
			"bufferView":11,
			"componentType":5123,
			"count":672,
			"type":"SCALAR"
		},
		{
			"bufferView":12,
			"componentType":5126,
			"count":84,
			"max":[
				2.3113768100738525,
				-0.9289467334747314,
				4.283819198608398
			],
			"min":[
				-5.088505268096924,
				-2.6779258251190186,
				-3.333144426345825
			],
			"type":"VEC3"
		},
		{
			"bufferView":13,
			"componentType":5126,
			"count":84,
			"type":"VEC3"
		},
		{
			"bufferView":14,
			"componentType":5126,
			"count":84,
			"type":"VEC2"
		},
		{
			"bufferView":15,
			"componentType":5123,
			"count":168,
			"type":"SCALAR"
		},
		{
			"bufferView":16,
			"componentType":5126,
			"count":360,
			"max":[
				2.3109233379364014,
				-1.9189797639846802,
				3.0971720218658447
			],
			"min":[
				-5.088051795959473,
				-2.344320058822632,
				-2.305969476699829
			],
			"type":"VEC3"
		},
		{
			"bufferView":17,
			"componentType":5126,
			"count":360,
			"type":"VEC3"
		},
		{
			"bufferView":18,
			"componentType":5126,
			"count":360,
			"type":"VEC2"
		},
		{
			"bufferView":19,
			"componentType":5123,
			"count":624,
			"type":"SCALAR"
		},
		{
			"bufferView":20,
			"componentType":5126,
			"count":96,
			"max":[
				2.2695579528808594,
				-0.12702682614326477,
				5.621791839599609
			],
			"min":[
				-5.046686172485352,
				-3.4832346439361572,
				-4.581546306610107
			],
			"type":"VEC3"
		},
		{
			"bufferView":21,
			"componentType":5126,
			"count":96,
			"type":"VEC3"
		},
		{
			"bufferView":22,
			"componentType":5126,
			"count":96,
			"type":"VEC2"
		},
		{
			"bufferView":23,
			"componentType":5123,
			"count":144,
			"type":"SCALAR"
		},
		{
			"bufferView":24,
			"componentType":5126,
			"count":48,
			"max":[
				6.2827982902526855,
				-0.15714918076992035,
				0.8050515055656433
			],
			"min":[
				5.705897808074951,
				-3.492802619934082,
				-4.635036945343018
			],
			"type":"VEC3"
		},
		{
			"bufferView":25,
			"componentType":5126,
			"count":48,
			"type":"VEC3"
		},
		{
			"bufferView":26,
			"componentType":5126,
			"count":48,
			"type":"VEC2"
		},
		{
			"bufferView":27,
			"componentType":5123,
			"count":72,
			"type":"SCALAR"
		},
		{
			"bufferView":28,
			"componentType":5126,
			"count":541,
			"max":[
				6.197334289550781,
				-0.17184440791606903,
				0.4953300356864929
			],
			"min":[
				5.7913618087768555,
				-3.4768075942993164,
				-4.325314998626709
			],
			"type":"VEC3"
		},
		{
			"bufferView":29,
			"componentType":5126,
			"count":541,
			"type":"VEC3"
		},
		{
			"bufferView":30,
			"componentType":5126,
			"count":541,
			"type":"VEC2"
		},
		{
			"bufferView":31,
			"componentType":5123,
			"count":1068,
			"type":"SCALAR"
		},
		{
			"bufferView":32,
			"componentType":5126,
			"count":512,
			"max":[
				6.114580154418945,
				-0.7915621995925903,
				-0.27938348054885864
			],
			"min":[
				5.874115943908691,
				-3.5035030841827393,
				-3.5506012439727783
			],
			"type":"VEC3"
		},
		{
			"bufferView":33,
			"componentType":5126,
			"count":512,
			"type":"VEC3"
		},
		{
			"bufferView":34,
			"componentType":5126,
			"count":512,
			"type":"VEC2"
		},
		{
			"bufferView":35,
			"componentType":5123,
			"count":1128,
			"type":"SCALAR"
		},
		{
			"bufferView":36,
			"componentType":5126,
			"count":1712,
			"max":[
				5.705897808074951,
				-0.12526625394821167,
				5.638389587402344
			],
			"min":[
				-5.050381183624268,
				-3.50350284576416,
				-4.581546783447266
			],
			"type":"VEC3"
		},
		{
			"bufferView":37,
			"componentType":5126,
			"count":1712,
			"type":"VEC3"
		},
		{
			"bufferView":38,
			"componentType":5126,
			"count":1712,
			"type":"VEC2"
		},
		{
			"bufferView":39,
			"componentType":5123,
			"count":3240,
			"type":"SCALAR"
		},
		{
			"bufferView":40,
			"componentType":5126,
			"count":1884,
			"max":[
				5.702075958251953,
				3.1796963214874268,
				5.59552526473999
			],
			"min":[
				-5.0503830909729,
				-3.4319894313812256,
				-4.583287715911865
			],
			"type":"VEC3"
		},
		{
			"bufferView":41,
			"componentType":5126,
			"count":1884,
			"type":"VEC3"
		},
		{
			"bufferView":42,
			"componentType":5126,
			"count":1884,
			"type":"VEC2"
		},
		{
			"bufferView":43,
			"componentType":5123,
			"count":3744,
			"type":"SCALAR"
		},
		{
			"bufferView":44,
			"componentType":5126,
			"count":416,
			"max":[
				4.997325897216797,
				2.8108999729156494,
				5.6383891105651855
			],
			"min":[
				-5.093246936798096,
				-2.5580062866210938,
				-4.675058364868164
			],
			"type":"VEC3"
		},
		{
			"bufferView":45,
			"componentType":5126,
			"count":416,
			"type":"VEC3"
		},
		{
			"bufferView":46,
			"componentType":5126,
			"count":416,
			"type":"VEC2"
		},
		{
			"bufferView":47,
			"componentType":5123,
			"count":1008,
			"type":"SCALAR"
		},
		{
			"bufferView":48,
			"componentType":5126,
			"count":2128,
			"max":[
				4.778930187225342,
				2.5934512615203857,
				5.48240852355957
			],
			"min":[
				-4.937265396118164,
				-2.361513614654541,
				-4.470170974731445
			],
			"type":"VEC3"
		},
		{
			"bufferView":49,
			"componentType":5126,
			"count":2128,
			"type":"VEC3"
		},
		{
			"bufferView":50,
			"componentType":5126,
			"count":2128,
			"type":"VEC2"
		},
		{
			"bufferView":51,
			"componentType":5123,
			"count":6456,
			"type":"SCALAR"
		},
		{
			"bufferView":52,
			"componentType":5126,
			"count":96,
			"max":[
				4.707322120666504,
				2.5650908946990967,
				5.3952860832214355
			],
			"min":[
				-4.8501434326171875,
				-2.3596229553222656,
				-4.3830485343933105
			],
			"type":"VEC3"
		},
		{
			"bufferView":53,
			"componentType":5126,
			"count":96,
			"type":"VEC3"
		},
		{
			"bufferView":54,
			"componentType":5126,
			"count":96,
			"type":"VEC2"
		},
		{
			"bufferView":55,
			"componentType":5123,
			"count":144,
			"type":"SCALAR"
		},
		{
			"bufferView":56,
			"componentType":5126,
			"count":1184,
			"max":[
				6.033825874328613,
				4.605547904968262,
				4.360159873962402
			],
			"min":[
				-4.7022271156311035,
				1.2530194520950317,
				-3.3568079471588135
			],
			"type":"VEC3"
		},
		{
			"bufferView":57,
			"componentType":5126,
			"count":1184,
			"type":"VEC3"
		},
		{
			"bufferView":58,
			"componentType":5126,
			"count":1184,
			"type":"VEC2"
		},
		{
			"bufferView":59,
			"componentType":5123,
			"count":2544,
			"type":"SCALAR"
		},
		{
			"bufferView":60,
			"componentType":5126,
			"count":192,
			"max":[
				5.949742317199707,
				4.535548210144043,
				4.269481182098389
			],
			"min":[
				-4.6181440353393555,
				1.3130192756652832,
				-3.2661290168762207
			],
			"type":"VEC3"
		},
		{
			"bufferView":61,
			"componentType":5126,
			"count":192,
			"type":"VEC3"
		},
		{
			"bufferView":62,
			"componentType":5126,
			"count":192,
			"type":"VEC2"
		},
		{
			"bufferView":63,
			"componentType":5123,
			"count":288,
			"type":"SCALAR"
		},
		{
			"bufferView":64,
			"componentType":5126,
			"count":352,
			"max":[
				6.19813346862793,
				6.186713218688965,
				5.568892002105713
			],
			"min":[
				-4.914188861846924,
				-0.14490368962287903,
				-4.565539836883545
			],
			"type":"VEC3"
		},
		{
			"bufferView":65,
			"componentType":5126,
			"count":352,
			"type":"VEC3"
		},
		{
			"bufferView":66,
			"componentType":5126,
			"count":352,
			"type":"VEC2"
		},
		{
			"bufferView":67,
			"componentType":5123,
			"count":768,
			"type":"SCALAR"
		},
		{
			"bufferView":68,
			"componentType":5126,
			"count":192,
			"max":[
				6.2827982902526855,
				3.198960542678833,
				5.6383891105651855
			],
			"min":[
				-4.99885368347168,
				-0.15714983642101288,
				-4.635036945343018
			],
			"type":"VEC3"
		},
		{
			"bufferView":69,
			"componentType":5126,
			"count":192,
			"type":"VEC3"
		},
		{
			"bufferView":70,
			"componentType":5126,
			"count":192,
			"type":"VEC2"
		},
		{
			"bufferView":71,
			"componentType":5123,
			"count":288,
			"type":"SCALAR"
		},
		{
			"bufferView":72,
			"componentType":5126,
			"count":1712,
			"max":[
				5.702075004577637,
				3.1247408390045166,
				5.59552526473999
			],
			"min":[
				-4.627877235412598,
				-0.19984129071235657,
				-4.5103020668029785
			],
			"type":"VEC3"
		},
		{
			"bufferView":73,
			"componentType":5126,
			"count":1712,
			"type":"VEC3"
		},
		{
			"bufferView":74,
			"componentType":5126,
			"count":1712,
			"type":"VEC2"
		},
		{
			"bufferView":75,
			"componentType":5123,
			"count":2640,
			"type":"SCALAR"
		},
		{
			"bufferView":76,
			"componentType":5126,
			"count":1726,
			"max":[
				5.702075004577637,
				3.1247408390045166,
				5.59552526473999
			],
			"min":[
				-4.627877235412598,
				-0.19984129071235657,
				-4.480525016784668
			],
			"type":"VEC3"
		},
		{
			"bufferView":77,
			"componentType":5126,
			"count":1726,
			"type":"VEC3"
		},
		{
			"bufferView":78,
			"componentType":5126,
			"count":1726,
			"type":"VEC2"
		},
		{
			"bufferView":79,
			"componentType":5123,
			"count":3240,
			"type":"SCALAR"
		},
		{
			"bufferView":80,
			"componentType":5126,
			"count":256,
			"max":[
				6.853381633758545,
				6.411014556884766,
				5.84690523147583
			],
			"min":[
				-5.8781609535217285,
				2.599031925201416,
				-5.000861167907715
			],
			"type":"VEC3"
		},
		{
			"bufferView":81,
			"componentType":5126,
			"count":256,
			"type":"VEC3"
		},
		{
			"bufferView":82,
			"componentType":5126,
			"count":256,
			"type":"VEC2"
		},
		{
			"bufferView":83,
			"componentType":5123,
			"count":468,
			"type":"SCALAR"
		}
	],
	"bufferViews":[
		{
			"buffer":0,
			"byteLength":14712,
			"byteOffset":0,
			"target":34962
		},
		{
			"buffer":0,
			"byteLength":14712,
			"byteOffset":14712,
			"target":34962
		},
		{
			"buffer":0,
			"byteLength":9808,
			"byteOffset":29424,
			"target":34962
		},
		{
			"buffer":0,
			"byteLength":5040,
			"byteOffset":39232,
			"target":34963
		},
		{
			"buffer":0,
			"byteLength":11520,
			"byteOffset":44272,
			"target":34962
		},
		{
			"buffer":0,
			"byteLength":11520,
			"byteOffset":55792,
			"target":34962
		},
		{
			"buffer":0,
			"byteLength":7680,
			"byteOffset":67312,
			"target":34962
		},
		{
			"buffer":0,
			"byteLength":5568,
			"byteOffset":74992,
			"target":34963
		},
		{
			"buffer":0,
			"byteLength":3264,
			"byteOffset":80560,
			"target":34962
		},
		{
			"buffer":0,
			"byteLength":3264,
			"byteOffset":83824,
			"target":34962
		},
		{
			"buffer":0,
			"byteLength":2176,
			"byteOffset":87088,
			"target":34962
		},
		{
			"buffer":0,
			"byteLength":1344,
			"byteOffset":89264,
			"target":34963
		},
		{
			"buffer":0,
			"byteLength":1008,
			"byteOffset":90608,
			"target":34962
		},
		{
			"buffer":0,
			"byteLength":1008,
			"byteOffset":91616,
			"target":34962
		},
		{
			"buffer":0,
			"byteLength":672,
			"byteOffset":92624,
			"target":34962
		},
		{
			"buffer":0,
			"byteLength":336,
			"byteOffset":93296,
			"target":34963
		},
		{
			"buffer":0,
			"byteLength":4320,
			"byteOffset":93632,
			"target":34962
		},
		{
			"buffer":0,
			"byteLength":4320,
			"byteOffset":97952,
			"target":34962
		},
		{
			"buffer":0,
			"byteLength":2880,
			"byteOffset":102272,
			"target":34962
		},
		{
			"buffer":0,
			"byteLength":1248,
			"byteOffset":105152,
			"target":34963
		},
		{
			"buffer":0,
			"byteLength":1152,
			"byteOffset":106400,
			"target":34962
		},
		{
			"buffer":0,
			"byteLength":1152,
			"byteOffset":107552,
			"target":34962
		},
		{
			"buffer":0,
			"byteLength":768,
			"byteOffset":108704,
			"target":34962
		},
		{
			"buffer":0,
			"byteLength":288,
			"byteOffset":109472,
			"target":34963
		},
		{
			"buffer":0,
			"byteLength":576,
			"byteOffset":109760,
			"target":34962
		},
		{
			"buffer":0,
			"byteLength":576,
			"byteOffset":110336,
			"target":34962
		},
		{
			"buffer":0,
			"byteLength":384,
			"byteOffset":110912,
			"target":34962
		},
		{
			"buffer":0,
			"byteLength":144,
			"byteOffset":111296,
			"target":34963
		},
		{
			"buffer":0,
			"byteLength":6492,
			"byteOffset":111440,
			"target":34962
		},
		{
			"buffer":0,
			"byteLength":6492,
			"byteOffset":117932,
			"target":34962
		},
		{
			"buffer":0,
			"byteLength":4328,
			"byteOffset":124424,
			"target":34962
		},
		{
			"buffer":0,
			"byteLength":2136,
			"byteOffset":128752,
			"target":34963
		},
		{
			"buffer":0,
			"byteLength":6144,
			"byteOffset":130888,
			"target":34962
		},
		{
			"buffer":0,
			"byteLength":6144,
			"byteOffset":137032,
			"target":34962
		},
		{
			"buffer":0,
			"byteLength":4096,
			"byteOffset":143176,
			"target":34962
		},
		{
			"buffer":0,
			"byteLength":2256,
			"byteOffset":147272,
			"target":34963
		},
		{
			"buffer":0,
			"byteLength":20544,
			"byteOffset":149528,
			"target":34962
		},
		{
			"buffer":0,
			"byteLength":20544,
			"byteOffset":170072,
			"target":34962
		},
		{
			"buffer":0,
			"byteLength":13696,
			"byteOffset":190616,
			"target":34962
		},
		{
			"buffer":0,
			"byteLength":6480,
			"byteOffset":204312,
			"target":34963
		},
		{
			"buffer":0,
			"byteLength":22608,
			"byteOffset":210792,
			"target":34962
		},
		{
			"buffer":0,
			"byteLength":22608,
			"byteOffset":233400,
			"target":34962
		},
		{
			"buffer":0,
			"byteLength":15072,
			"byteOffset":256008,
			"target":34962
		},
		{
			"buffer":0,
			"byteLength":7488,
			"byteOffset":271080,
			"target":34963
		},
		{
			"buffer":0,
			"byteLength":4992,
			"byteOffset":278568,
			"target":34962
		},
		{
			"buffer":0,
			"byteLength":4992,
			"byteOffset":283560,
			"target":34962
		},
		{
			"buffer":0,
			"byteLength":3328,
			"byteOffset":288552,
			"target":34962
		},
		{
			"buffer":0,
			"byteLength":2016,
			"byteOffset":291880,
			"target":34963
		},
		{
			"buffer":0,
			"byteLength":25536,
			"byteOffset":293896,
			"target":34962
		},
		{
			"buffer":0,
			"byteLength":25536,
			"byteOffset":319432,
			"target":34962
		},
		{
			"buffer":0,
			"byteLength":17024,
			"byteOffset":344968,
			"target":34962
		},
		{
			"buffer":0,
			"byteLength":12912,
			"byteOffset":361992,
			"target":34963
		},
		{
			"buffer":0,
			"byteLength":1152,
			"byteOffset":374904,
			"target":34962
		},
		{
			"buffer":0,
			"byteLength":1152,
			"byteOffset":376056,
			"target":34962
		},
		{
			"buffer":0,
			"byteLength":768,
			"byteOffset":377208,
			"target":34962
		},
		{
			"buffer":0,
			"byteLength":288,
			"byteOffset":377976,
			"target":34963
		},
		{
			"buffer":0,
			"byteLength":14208,
			"byteOffset":378264,
			"target":34962
		},
		{
			"buffer":0,
			"byteLength":14208,
			"byteOffset":392472,
			"target":34962
		},
		{
			"buffer":0,
			"byteLength":9472,
			"byteOffset":406680,
			"target":34962
		},
		{
			"buffer":0,
			"byteLength":5088,
			"byteOffset":416152,
			"target":34963
		},
		{
			"buffer":0,
			"byteLength":2304,
			"byteOffset":421240,
			"target":34962
		},
		{
			"buffer":0,
			"byteLength":2304,
			"byteOffset":423544,
			"target":34962
		},
		{
			"buffer":0,
			"byteLength":1536,
			"byteOffset":425848,
			"target":34962
		},
		{
			"buffer":0,
			"byteLength":576,
			"byteOffset":427384,
			"target":34963
		},
		{
			"buffer":0,
			"byteLength":4224,
			"byteOffset":427960,
			"target":34962
		},
		{
			"buffer":0,
			"byteLength":4224,
			"byteOffset":432184,
			"target":34962
		},
		{
			"buffer":0,
			"byteLength":2816,
			"byteOffset":436408,
			"target":34962
		},
		{
			"buffer":0,
			"byteLength":1536,
			"byteOffset":439224,
			"target":34963
		},
		{
			"buffer":0,
			"byteLength":2304,
			"byteOffset":440760,
			"target":34962
		},
		{
			"buffer":0,
			"byteLength":2304,
			"byteOffset":443064,
			"target":34962
		},
		{
			"buffer":0,
			"byteLength":1536,
			"byteOffset":445368,
			"target":34962
		},
		{
			"buffer":0,
			"byteLength":576,
			"byteOffset":446904,
			"target":34963
		},
		{
			"buffer":0,
			"byteLength":20544,
			"byteOffset":447480,
			"target":34962
		},
		{
			"buffer":0,
			"byteLength":20544,
			"byteOffset":468024,
			"target":34962
		},
		{
			"buffer":0,
			"byteLength":13696,
			"byteOffset":488568,
			"target":34962
		},
		{
			"buffer":0,
			"byteLength":5280,
			"byteOffset":502264,
			"target":34963
		},
		{
			"buffer":0,
			"byteLength":20712,
			"byteOffset":507544,
			"target":34962
		},
		{
			"buffer":0,
			"byteLength":20712,
			"byteOffset":528256,
			"target":34962
		},
		{
			"buffer":0,
			"byteLength":13808,
			"byteOffset":548968,
			"target":34962
		},
		{
			"buffer":0,
			"byteLength":6480,
			"byteOffset":562776,
			"target":34963
		},
		{
			"buffer":0,
			"byteLength":3072,
			"byteOffset":569256,
			"target":34962
		},
		{
			"buffer":0,
			"byteLength":3072,
			"byteOffset":572328,
			"target":34962
		},
		{
			"buffer":0,
			"byteLength":2048,
			"byteOffset":575400,
			"target":34962
		},
		{
			"buffer":0,
			"byteLength":936,
			"byteOffset":577448,
			"target":34963
		}
	],
	"buffers":[
		{
			"byteLength":578384,
			"uri":"House_03-3babecf3e9e2ffaf7255ccd2dd7372d0.bin"
		}
	]
}
