{
	"asset":{
		"generator":"Khronos glTF Blender I/O v4.3.47",
		"version":"2.0"
	},
	"extensionsUsed":[
		"KHR_lights_punctual"
	],
	"extensionsRequired":[
		"KHR_lights_punctual"
	],
	"extensions":{
		"KHR_lights_punctual":{
			"lights":[
				{
					"color":[
						1,
						1,
						1
					],
					"intensity":683,
					"type":"directional",
					"name":"Sun"
				},
				{
					"color":[
						1,
						1,
						1
					],
					"intensity":683,
					"type":"directional",
					"name":"Sun.001"
				}
			]
		}
	},
	"scene":0,
	"scenes":[
		{
			"name":"Scene",
			"nodes":[
				0,
				1,
				2,
				3,
				4,
				5,
				6,
				7,
				8,
				9,
				10,
				11,
				12,
				13,
				14,
				15,
				16,
				17,
				18,
				19,
				20,
				21,
				22,
				23,
				24
			]
		}
	],
	"nodes":[
		{
			"mesh":0,
			"name":"ArcWall01"
		},
		{
			"mesh":1,
			"name":"Arc02Wall01"
		},
		{
			"mesh":2,
			"name":"Door_house01.001"
		},
		{
			"mesh":3,
			"name":"Roof"
		},
		{
			"mesh":4,
			"name":"UpperWall01_house01"
		},
		{
			"mesh":5,
			"name":"Wall02_house01"
		},
		{
			"mesh":6,
			"name":"wall03_house01"
		},
		{
			"mesh":7,
			"name":"Wall01_House01"
		},
		{
			"mesh":8,
			"name":"Window02_House01"
		},
		{
			"mesh":9,
			"name":"Window03"
		},
		{
			"mesh":10,
			"name":"Window_house01"
		},
		{
			"mesh":11,
			"name":"ArcWall01.001"
		},
		{
			"mesh":12,
			"name":"Arc02Wall01.001"
		},
		{
			"mesh":13,
			"name":"Door_house01.002"
		},
		{
			"mesh":14,
			"name":"Roof.001"
		},
		{
			"mesh":15,
			"name":"UpperWall01_house01.001"
		},
		{
			"mesh":16,
			"name":"Wall02_house01.001"
		},
		{
			"mesh":17,
			"name":"wall03_house01.001"
		},
		{
			"mesh":18,
			"name":"Wall01_House01.001"
		},
		{
			"mesh":19,
			"name":"Window02_House01.001"
		},
		{
			"mesh":20,
			"name":"Window03.001"
		},
		{
			"mesh":21,
			"name":"Window_house01.001"
		},
		{
			"extensions":{
				"KHR_lights_punctual":{
					"light":0
				}
			},
			"name":"Sun",
			"rotation":[
				-0.21009689569473267,
				0,
				0,
				0.9776805639266968
			],
			"translation":[
				-75.48641967773438,
				0,
				0
			]
		},
		{
			"extensions":{
				"KHR_lights_punctual":{
					"light":1
				}
			},
			"name":"Sun.001",
			"rotation":[
				-0.14372964203357697,
				0.7130984663963318,
				0.15323999524116516,
				0.6688421964645386
			],
			"translation":[
				-26.195667266845703,
				0,
				0
			]
		},
		{
			"mesh":22,
			"name":"House_01"
		}
	],
	"materials":[
		{
			"doubleSided":true,
			"name":"LightBrown_House01",
			"pbrMetallicRoughness":{
				"baseColorFactor":[
					0.6724432706832886,
					0.5906189680099487,
					0.5149176716804504,
					1
				],
				"metallicFactor":0,
				"roughnessFactor":0.5
			}
		},
		{
			"doubleSided":true,
			"name":"Cream_House01",
			"pbrMetallicRoughness":{
				"baseColorFactor":[
					0.8713672757148743,
					0.8631572127342224,
					0.84687340259552,
					1
				],
				"metallicFactor":0,
				"roughnessFactor":0.4000000059604645
			}
		},
		{
			"doubleSided":true,
			"name":"LightBrown_House01.001",
			"pbrMetallicRoughness":{
				"baseColorFactor":[
					0.6724432706832886,
					0.5906189680099487,
					0.5149176716804504,
					1
				],
				"metallicFactor":0,
				"roughnessFactor":0.5
			}
		},
		{
			"doubleSided":true,
			"name":"Cream_House01.001",
			"pbrMetallicRoughness":{
				"baseColorFactor":[
					0.8713672757148743,
					0.8631572127342224,
					0.84687340259552,
					1
				],
				"metallicFactor":0,
				"roughnessFactor":0.4000000059604645
			}
		},
		{
			"doubleSided":true,
			"name":"WoodDoor01_house1",
			"pbrMetallicRoughness":{
				"baseColorFactor":[
					0.6375972032546997,
					0.38132601976394653,
					0.30946898460388184,
					1
				],
				"metallicFactor":0,
				"roughnessFactor":0.5
			}
		},
		{
			"doubleSided":true,
			"name":"Iron_house1",
			"pbrMetallicRoughness":{
				"baseColorFactor":[
					0.3931145668029785,
					0.380910724401474,
					0.345636785030365,
					1
				],
				"metallicFactor":0,
				"roughnessFactor":0.5
			}
		},
		{
			"doubleSided":true,
			"name":"Cream_House01.002",
			"pbrMetallicRoughness":{
				"baseColorFactor":[
					0.8713672757148743,
					0.8631572127342224,
					0.84687340259552,
					1
				],
				"metallicFactor":0,
				"roughnessFactor":0.4000000059604645
			}
		},
		{
			"doubleSided":true,
			"name":"GreenRoof_house1",
			"pbrMetallicRoughness":{
				"baseColorFactor":[
					0.21141326427459717,
					0.42922651767730713,
					0.18649345636367798,
					1
				],
				"metallicFactor":0,
				"roughnessFactor":0.5
			}
		},
		{
			"doubleSided":true,
			"name":"LightBrown_House01.002",
			"pbrMetallicRoughness":{
				"baseColorFactor":[
					0.6724432706832886,
					0.5906189680099487,
					0.5149176716804504,
					1
				],
				"metallicFactor":0,
				"roughnessFactor":0.5
			}
		},
		{
			"doubleSided":true,
			"name":"Cream_House01.003",
			"pbrMetallicRoughness":{
				"baseColorFactor":[
					0.8713672757148743,
					0.8631572127342224,
					0.84687340259552,
					1
				],
				"metallicFactor":0,
				"roughnessFactor":0.4000000059604645
			}
		},
		{
			"doubleSided":true,
			"name":"LightBrown_House01.003",
			"pbrMetallicRoughness":{
				"baseColorFactor":[
					0.6724432706832886,
					0.5906189680099487,
					0.5149176716804504,
					1
				],
				"metallicFactor":0,
				"roughnessFactor":0.5
			}
		},
		{
			"doubleSided":true,
			"name":"Cream_House01.004",
			"pbrMetallicRoughness":{
				"baseColorFactor":[
					0.8713672757148743,
					0.8631572127342224,
					0.84687340259552,
					1
				],
				"metallicFactor":0,
				"roughnessFactor":0.4000000059604645
			}
		},
		{
			"doubleSided":true,
			"name":"Cream_House01.005",
			"pbrMetallicRoughness":{
				"baseColorFactor":[
					0.8713672757148743,
					0.8631572127342224,
					0.84687340259552,
					1
				],
				"metallicFactor":0,
				"roughnessFactor":0.4000000059604645
			}
		},
		{
			"doubleSided":true,
			"name":"LightBrown_House01.004",
			"pbrMetallicRoughness":{
				"baseColorFactor":[
					0.6724432706832886,
					0.5906189680099487,
					0.5149176716804504,
					1
				],
				"metallicFactor":0,
				"roughnessFactor":0.5
			}
		},
		{
			"doubleSided":true,
			"name":"Cream_House01.006",
			"pbrMetallicRoughness":{
				"baseColorFactor":[
					0.8713672757148743,
					0.8631572127342224,
					0.84687340259552,
					1
				],
				"metallicFactor":0,
				"roughnessFactor":0.4000000059604645
			}
		},
		{
			"doubleSided":true,
			"name":"Window_House01",
			"pbrMetallicRoughness":{
				"baseColorFactor":[
					0.20863690972328186,
					0.3277781009674072,
					0.6653873324394226,
					1
				],
				"metallicFactor":0,
				"roughnessFactor":0.5
			}
		},
		{
			"doubleSided":true,
			"name":"LightBrown_House01.005",
			"pbrMetallicRoughness":{
				"baseColorFactor":[
					0.6724432706832886,
					0.5906189680099487,
					0.5149176716804504,
					1
				],
				"metallicFactor":0,
				"roughnessFactor":0.5
			}
		},
		{
			"doubleSided":true,
			"name":"Cream_House01.007",
			"pbrMetallicRoughness":{
				"baseColorFactor":[
					0.8713672757148743,
					0.8631572127342224,
					0.84687340259552,
					1
				],
				"metallicFactor":0,
				"roughnessFactor":0.4000000059604645
			}
		},
		{
			"doubleSided":true,
			"name":"LightBrown_House01.006",
			"pbrMetallicRoughness":{
				"baseColorFactor":[
					0.6724432706832886,
					0.5906189680099487,
					0.5149176716804504,
					1
				],
				"metallicFactor":0,
				"roughnessFactor":0.5
			}
		},
		{
			"doubleSided":true,
			"name":"Window_House01.001",
			"pbrMetallicRoughness":{
				"baseColorFactor":[
					0.20863690972328186,
					0.3277781009674072,
					0.6653873324394226,
					1
				],
				"metallicFactor":0,
				"roughnessFactor":0.5
			}
		},
		{
			"doubleSided":true,
			"name":"LightBrown_House01.007",
			"pbrMetallicRoughness":{
				"baseColorFactor":[
					0.6724432706832886,
					0.5906189680099487,
					0.5149176716804504,
					1
				],
				"metallicFactor":0,
				"roughnessFactor":0.5
			}
		},
		{
			"doubleSided":true,
			"name":"Cream_House01.008",
			"pbrMetallicRoughness":{
				"baseColorFactor":[
					0.8713672757148743,
					0.8631572127342224,
					0.84687340259552,
					1
				],
				"metallicFactor":0,
				"roughnessFactor":0.4000000059604645
			}
		},
		{
			"doubleSided":true,
			"name":"Window_House01.002",
			"pbrMetallicRoughness":{
				"baseColorFactor":[
					0.20863690972328186,
					0.3277781009674072,
					0.6653873324394226,
					1
				],
				"metallicFactor":0,
				"roughnessFactor":0.5
			}
		},
		{
			"doubleSided":true,
			"name":"LightBrown_House01.012",
			"pbrMetallicRoughness":{
				"baseColorFactor":[
					0.6724432706832886,
					0.5906189680099487,
					0.5149176716804504,
					1
				],
				"metallicFactor":0,
				"roughnessFactor":0.5
			}
		},
		{
			"doubleSided":true,
			"name":"Cream_House01.013",
			"pbrMetallicRoughness":{
				"baseColorFactor":[
					0.8713672757148743,
					0.8631572127342224,
					0.84687340259552,
					1
				],
				"metallicFactor":0,
				"roughnessFactor":0.4000000059604645
			}
		},
		{
			"doubleSided":true,
			"name":"WoodDoor01_house1.001",
			"pbrMetallicRoughness":{
				"baseColorFactor":[
					0.6375972032546997,
					0.38132601976394653,
					0.30946898460388184,
					1
				],
				"metallicFactor":0,
				"roughnessFactor":0.5
			}
		},
		{
			"doubleSided":true,
			"name":"Iron_house1.001",
			"pbrMetallicRoughness":{
				"baseColorFactor":[
					0.3931145668029785,
					0.380910724401474,
					0.345636785030365,
					1
				],
				"metallicFactor":0,
				"roughnessFactor":0.5
			}
		},
		{
			"doubleSided":true,
			"name":"Cream_House01.015",
			"pbrMetallicRoughness":{
				"baseColorFactor":[
					0.8713672757148743,
					0.8631572127342224,
					0.84687340259552,
					1
				],
				"metallicFactor":0,
				"roughnessFactor":0.4000000059604645
			}
		},
		{
			"doubleSided":true,
			"name":"GreenRoof_house1.001",
			"pbrMetallicRoughness":{
				"baseColorFactor":[
					0.21141326427459717,
					0.42922651767730713,
					0.18649345636367798,
					1
				],
				"metallicFactor":0,
				"roughnessFactor":0.5
			}
		},
		{
			"doubleSided":true,
			"name":"Cream_House01.012",
			"pbrMetallicRoughness":{
				"baseColorFactor":[
					0.8713672757148743,
					0.8631572127342224,
					0.84687340259552,
					1
				],
				"metallicFactor":0,
				"roughnessFactor":0.4000000059604645
			}
		},
		{
			"doubleSided":true,
			"name":"LightBrown_House01.011",
			"pbrMetallicRoughness":{
				"baseColorFactor":[
					0.6724432706832886,
					0.5906189680099487,
					0.5149176716804504,
					1
				],
				"metallicFactor":0,
				"roughnessFactor":0.5
			}
		},
		{
			"doubleSided":true,
			"name":"Cream_House01.011",
			"pbrMetallicRoughness":{
				"baseColorFactor":[
					0.8713672757148743,
					0.8631572127342224,
					0.84687340259552,
					1
				],
				"metallicFactor":0,
				"roughnessFactor":0.4000000059604645
			}
		},
		{
			"doubleSided":true,
			"name":"Window_House01.005",
			"pbrMetallicRoughness":{
				"baseColorFactor":[
					0.20863690972328186,
					0.3277781009674072,
					0.6653873324394226,
					1
				],
				"metallicFactor":0,
				"roughnessFactor":0.5
			}
		},
		{
			"doubleSided":true,
			"name":"LightBrown_House01.010",
			"pbrMetallicRoughness":{
				"baseColorFactor":[
					0.6724432706832886,
					0.5906189680099487,
					0.5149176716804504,
					1
				],
				"metallicFactor":0,
				"roughnessFactor":0.5
			}
		},
		{
			"doubleSided":true,
			"name":"Cream_House01.010",
			"pbrMetallicRoughness":{
				"baseColorFactor":[
					0.8713672757148743,
					0.8631572127342224,
					0.84687340259552,
					1
				],
				"metallicFactor":0,
				"roughnessFactor":0.4000000059604645
			}
		},
		{
			"doubleSided":true,
			"name":"LightBrown_House01.009",
			"pbrMetallicRoughness":{
				"baseColorFactor":[
					0.6724432706832886,
					0.5906189680099487,
					0.5149176716804504,
					1
				],
				"metallicFactor":0,
				"roughnessFactor":0.5
			}
		},
		{
			"doubleSided":true,
			"name":"Window_House01.004",
			"pbrMetallicRoughness":{
				"baseColorFactor":[
					0.20863690972328186,
					0.3277781009674072,
					0.6653873324394226,
					1
				],
				"metallicFactor":0,
				"roughnessFactor":0.5
			}
		},
		{
			"doubleSided":true,
			"name":"LightBrown_House01.008",
			"pbrMetallicRoughness":{
				"baseColorFactor":[
					0.6724432706832886,
					0.5906189680099487,
					0.5149176716804504,
					1
				],
				"metallicFactor":0,
				"roughnessFactor":0.5
			}
		},
		{
			"doubleSided":true,
			"name":"Cream_House01.009",
			"pbrMetallicRoughness":{
				"baseColorFactor":[
					0.8713672757148743,
					0.8631572127342224,
					0.84687340259552,
					1
				],
				"metallicFactor":0,
				"roughnessFactor":0.4000000059604645
			}
		},
		{
			"doubleSided":true,
			"name":"Window_House01.003",
			"pbrMetallicRoughness":{
				"baseColorFactor":[
					0.20863690972328186,
					0.3277781009674072,
					0.6653873324394226,
					1
				],
				"metallicFactor":0,
				"roughnessFactor":0.5
			}
		},
		{
			"doubleSided":true,
			"name":"LightBrown_House01.013",
			"pbrMetallicRoughness":{
				"baseColorFactor":[
					0.6724432706832886,
					0.5906189680099487,
					0.5149176716804504,
					1
				],
				"metallicFactor":0,
				"roughnessFactor":0.5
			}
		},
		{
			"doubleSided":true,
			"name":"Cream_House01.019",
			"pbrMetallicRoughness":{
				"baseColorFactor":[
					0.8713672757148743,
					0.8631572127342224,
					0.84687340259552,
					1
				],
				"metallicFactor":0,
				"roughnessFactor":0.4000000059604645
			}
		},
		{
			"doubleSided":true,
			"name":"LightBrown_House01.015",
			"pbrMetallicRoughness":{
				"baseColorFactor":[
					0.6724432706832886,
					0.5906189680099487,
					0.5149176716804504,
					1
				],
				"metallicFactor":0,
				"roughnessFactor":0.5
			}
		},
		{
			"doubleSided":true,
			"name":"Cream_House01.017",
			"pbrMetallicRoughness":{
				"baseColorFactor":[
					0.8713672757148743,
					0.8631572127342224,
					0.84687340259552,
					1
				],
				"metallicFactor":0,
				"roughnessFactor":0.4000000059604645
			}
		},
		{
			"doubleSided":true,
			"name":"LightBrown_House01.014",
			"pbrMetallicRoughness":{
				"baseColorFactor":[
					0.6724432706832886,
					0.5906189680099487,
					0.5149176716804504,
					1
				],
				"metallicFactor":0,
				"roughnessFactor":0.5
			}
		},
		{
			"doubleSided":true,
			"name":"Cream_House01.016",
			"pbrMetallicRoughness":{
				"baseColorFactor":[
					0.8713672757148743,
					0.8631572127342224,
					0.84687340259552,
					1
				],
				"metallicFactor":0,
				"roughnessFactor":0.4000000059604645
			}
		}
	],
	"meshes":[
		{
			"name":"Cube.001",
			"primitives":[
				{
					"attributes":{
						"POSITION":0,
						"NORMAL":1,
						"TEXCOORD_0":2
					},
					"indices":3,
					"material":0
				},
				{
					"attributes":{
						"POSITION":4,
						"NORMAL":5,
						"TEXCOORD_0":6
					},
					"indices":7,
					"material":1
				}
			]
		},
		{
			"name":"Cube.002",
			"primitives":[
				{
					"attributes":{
						"POSITION":8,
						"NORMAL":9,
						"TEXCOORD_0":10
					},
					"indices":11,
					"material":2
				},
				{
					"attributes":{
						"POSITION":12,
						"NORMAL":13,
						"TEXCOORD_0":14
					},
					"indices":15,
					"material":3
				}
			]
		},
		{
			"name":"Cube.003",
			"primitives":[
				{
					"attributes":{
						"POSITION":16,
						"NORMAL":17,
						"TEXCOORD_0":18
					},
					"indices":19,
					"material":4
				},
				{
					"attributes":{
						"POSITION":20,
						"NORMAL":21,
						"TEXCOORD_0":22
					},
					"indices":23,
					"material":5
				},
				{
					"attributes":{
						"POSITION":24,
						"NORMAL":25,
						"TEXCOORD_0":26
					},
					"indices":27,
					"material":6
				}
			]
		},
		{
			"name":"Cube.006",
			"primitives":[
				{
					"attributes":{
						"POSITION":28,
						"NORMAL":29,
						"TEXCOORD_0":30,
						"TANGENT":31
					},
					"indices":32,
					"material":7
				}
			]
		},
		{
			"name":"Cube.004",
			"primitives":[
				{
					"attributes":{
						"POSITION":33,
						"NORMAL":34,
						"TEXCOORD_0":35
					},
					"indices":36,
					"material":8
				}
			]
		},
		{
			"name":"Cube.005",
			"primitives":[
				{
					"attributes":{
						"POSITION":37,
						"NORMAL":38,
						"TEXCOORD_0":39,
						"TANGENT":40
					},
					"indices":41,
					"material":9
				}
			]
		},
		{
			"name":"Cube.018",
			"primitives":[
				{
					"attributes":{
						"POSITION":42,
						"NORMAL":43,
						"TEXCOORD_0":44
					},
					"indices":45,
					"material":10
				},
				{
					"attributes":{
						"POSITION":46,
						"NORMAL":47,
						"TEXCOORD_0":48
					},
					"indices":49,
					"material":11
				}
			]
		},
		{
			"name":"Cube.007",
			"primitives":[
				{
					"attributes":{
						"POSITION":50,
						"NORMAL":51,
						"TEXCOORD_0":52,
						"TANGENT":53
					},
					"indices":54,
					"material":12
				},
				{
					"attributes":{
						"POSITION":55,
						"NORMAL":56,
						"TEXCOORD_0":57,
						"TANGENT":58
					},
					"indices":59,
					"material":13
				}
			]
		},
		{
			"name":"Cube.008",
			"primitives":[
				{
					"attributes":{
						"POSITION":60,
						"NORMAL":61,
						"TEXCOORD_0":62
					},
					"indices":63,
					"material":14
				},
				{
					"attributes":{
						"POSITION":64,
						"NORMAL":65,
						"TEXCOORD_0":66
					},
					"indices":41,
					"material":15
				},
				{
					"attributes":{
						"POSITION":67,
						"NORMAL":68,
						"TEXCOORD_0":69
					},
					"indices":70,
					"material":16
				}
			]
		},
		{
			"name":"Cube.016",
			"primitives":[
				{
					"attributes":{
						"POSITION":71,
						"NORMAL":72,
						"TEXCOORD_0":73
					},
					"indices":74,
					"material":17
				},
				{
					"attributes":{
						"POSITION":75,
						"NORMAL":76,
						"TEXCOORD_0":77
					},
					"indices":78,
					"material":18
				},
				{
					"attributes":{
						"POSITION":79,
						"NORMAL":80,
						"TEXCOORD_0":81
					},
					"indices":41,
					"material":19
				}
			]
		},
		{
			"name":"Cube.009",
			"primitives":[
				{
					"attributes":{
						"POSITION":82,
						"NORMAL":83,
						"TEXCOORD_0":84
					},
					"indices":85,
					"material":20
				},
				{
					"attributes":{
						"POSITION":86,
						"NORMAL":87,
						"TEXCOORD_0":88
					},
					"indices":89,
					"material":21
				},
				{
					"attributes":{
						"POSITION":90,
						"NORMAL":91,
						"TEXCOORD_0":92
					},
					"indices":93,
					"material":22
				}
			]
		},
		{
			"name":"Cube.012",
			"primitives":[
				{
					"attributes":{
						"POSITION":94,
						"NORMAL":95,
						"TEXCOORD_0":96
					},
					"indices":3,
					"material":0
				},
				{
					"attributes":{
						"POSITION":97,
						"NORMAL":98,
						"TEXCOORD_0":99
					},
					"indices":7,
					"material":1
				}
			]
		},
		{
			"name":"Cube.013",
			"primitives":[
				{
					"attributes":{
						"POSITION":100,
						"NORMAL":101,
						"TEXCOORD_0":102
					},
					"indices":11,
					"material":2
				},
				{
					"attributes":{
						"POSITION":103,
						"NORMAL":104,
						"TEXCOORD_0":105
					},
					"indices":15,
					"material":3
				}
			]
		},
		{
			"name":"Cube.014",
			"primitives":[
				{
					"attributes":{
						"POSITION":106,
						"NORMAL":107,
						"TEXCOORD_0":108
					},
					"indices":19,
					"material":4
				},
				{
					"attributes":{
						"POSITION":109,
						"NORMAL":110,
						"TEXCOORD_0":111
					},
					"indices":23,
					"material":5
				},
				{
					"attributes":{
						"POSITION":112,
						"NORMAL":113,
						"TEXCOORD_0":114
					},
					"indices":27,
					"material":6
				}
			]
		},
		{
			"name":"Cube.015",
			"primitives":[
				{
					"attributes":{
						"POSITION":115,
						"NORMAL":116,
						"TEXCOORD_0":117,
						"TANGENT":118
					},
					"indices":32,
					"material":7
				}
			]
		},
		{
			"name":"Cube.017",
			"primitives":[
				{
					"attributes":{
						"POSITION":119,
						"NORMAL":120,
						"TEXCOORD_0":121
					},
					"indices":36,
					"material":8
				}
			]
		},
		{
			"name":"Cube.019",
			"primitives":[
				{
					"attributes":{
						"POSITION":122,
						"NORMAL":123,
						"TEXCOORD_0":124,
						"TANGENT":125
					},
					"indices":41,
					"material":9
				}
			]
		},
		{
			"name":"Cube.020",
			"primitives":[
				{
					"attributes":{
						"POSITION":126,
						"NORMAL":127,
						"TEXCOORD_0":128
					},
					"indices":45,
					"material":10
				},
				{
					"attributes":{
						"POSITION":129,
						"NORMAL":130,
						"TEXCOORD_0":131
					},
					"indices":49,
					"material":11
				}
			]
		},
		{
			"name":"Cube.021",
			"primitives":[
				{
					"attributes":{
						"POSITION":132,
						"NORMAL":133,
						"TEXCOORD_0":134,
						"TANGENT":135
					},
					"indices":54,
					"material":12
				},
				{
					"attributes":{
						"POSITION":136,
						"NORMAL":137,
						"TEXCOORD_0":138,
						"TANGENT":139
					},
					"indices":59,
					"material":13
				}
			]
		},
		{
			"name":"Cube.022",
			"primitives":[
				{
					"attributes":{
						"POSITION":140,
						"NORMAL":141,
						"TEXCOORD_0":142
					},
					"indices":63,
					"material":14
				},
				{
					"attributes":{
						"POSITION":143,
						"NORMAL":144,
						"TEXCOORD_0":145
					},
					"indices":41,
					"material":15
				},
				{
					"attributes":{
						"POSITION":146,
						"NORMAL":147,
						"TEXCOORD_0":148
					},
					"indices":70,
					"material":16
				}
			]
		},
		{
			"name":"Cube.023",
			"primitives":[
				{
					"attributes":{
						"POSITION":149,
						"NORMAL":150,
						"TEXCOORD_0":151
					},
					"indices":74,
					"material":17
				},
				{
					"attributes":{
						"POSITION":152,
						"NORMAL":153,
						"TEXCOORD_0":154
					},
					"indices":78,
					"material":18
				},
				{
					"attributes":{
						"POSITION":155,
						"NORMAL":156,
						"TEXCOORD_0":157
					},
					"indices":41,
					"material":19
				}
			]
		},
		{
			"name":"Cube.024",
			"primitives":[
				{
					"attributes":{
						"POSITION":158,
						"NORMAL":159,
						"TEXCOORD_0":160
					},
					"indices":85,
					"material":20
				},
				{
					"attributes":{
						"POSITION":161,
						"NORMAL":162,
						"TEXCOORD_0":163
					},
					"indices":89,
					"material":21
				},
				{
					"attributes":{
						"POSITION":164,
						"NORMAL":165,
						"TEXCOORD_0":166
					},
					"indices":93,
					"material":22
				}
			]
		},
		{
			"name":"Cube.062",
			"primitives":[
				{
					"attributes":{
						"POSITION":167,
						"NORMAL":168,
						"TEXCOORD_0":169
					},
					"indices":170,
					"material":23
				},
				{
					"attributes":{
						"POSITION":171,
						"NORMAL":172,
						"TEXCOORD_0":173
					},
					"indices":174,
					"material":24
				},
				{
					"attributes":{
						"POSITION":175,
						"NORMAL":176,
						"TEXCOORD_0":177
					},
					"indices":178,
					"material":25
				},
				{
					"attributes":{
						"POSITION":179,
						"NORMAL":180,
						"TEXCOORD_0":181
					},
					"indices":182,
					"material":26
				},
				{
					"attributes":{
						"POSITION":183,
						"NORMAL":184,
						"TEXCOORD_0":185
					},
					"indices":186,
					"material":27
				},
				{
					"attributes":{
						"POSITION":187,
						"NORMAL":188,
						"TEXCOORD_0":189
					},
					"indices":190,
					"material":28
				},
				{
					"attributes":{
						"POSITION":191,
						"NORMAL":192,
						"TEXCOORD_0":193
					},
					"indices":194,
					"material":29
				},
				{
					"attributes":{
						"POSITION":195,
						"NORMAL":196,
						"TEXCOORD_0":197
					},
					"indices":198,
					"material":30
				},
				{
					"attributes":{
						"POSITION":199,
						"NORMAL":200,
						"TEXCOORD_0":201
					},
					"indices":202,
					"material":31
				},
				{
					"attributes":{
						"POSITION":203,
						"NORMAL":204,
						"TEXCOORD_0":205
					},
					"indices":206,
					"material":32
				},
				{
					"attributes":{
						"POSITION":207,
						"NORMAL":208,
						"TEXCOORD_0":209
					},
					"indices":210,
					"material":33
				},
				{
					"attributes":{
						"POSITION":211,
						"NORMAL":212,
						"TEXCOORD_0":213
					},
					"indices":214,
					"material":34
				},
				{
					"attributes":{
						"POSITION":215,
						"NORMAL":216,
						"TEXCOORD_0":217
					},
					"indices":218,
					"material":35
				},
				{
					"attributes":{
						"POSITION":219,
						"NORMAL":220,
						"TEXCOORD_0":221
					},
					"indices":222,
					"material":36
				},
				{
					"attributes":{
						"POSITION":223,
						"NORMAL":224,
						"TEXCOORD_0":225
					},
					"indices":226,
					"material":37
				},
				{
					"attributes":{
						"POSITION":227,
						"NORMAL":228,
						"TEXCOORD_0":229
					},
					"indices":230,
					"material":38
				},
				{
					"attributes":{
						"POSITION":231,
						"NORMAL":232,
						"TEXCOORD_0":233
					},
					"indices":234,
					"material":39
				},
				{
					"attributes":{
						"POSITION":235,
						"NORMAL":236,
						"TEXCOORD_0":237
					},
					"indices":238,
					"material":40
				},
				{
					"attributes":{
						"POSITION":239,
						"NORMAL":240,
						"TEXCOORD_0":241
					},
					"indices":242,
					"material":41
				},
				{
					"attributes":{
						"POSITION":243,
						"NORMAL":244,
						"TEXCOORD_0":245
					},
					"indices":246,
					"material":42
				},
				{
					"attributes":{
						"POSITION":247,
						"NORMAL":248,
						"TEXCOORD_0":249
					},
					"indices":250,
					"material":43
				},
				{
					"attributes":{
						"POSITION":251,
						"NORMAL":252,
						"TEXCOORD_0":253
					},
					"indices":254,
					"material":44
				},
				{
					"attributes":{
						"POSITION":255,
						"NORMAL":256,
						"TEXCOORD_0":257
					},
					"indices":258,
					"material":45
				}
			]
		}
	],
	"accessors":[
		{
			"bufferView":0,
			"componentType":5126,
			"count":74,
			"max":[
				0.23406356573104858,
				1.0908457040786743,
				2.472808599472046
			],
			"min":[
				-0.23406356573104858,
				-0.2704960107803345,
				-2.472808599472046
			],
			"type":"VEC3"
		},
		{
			"bufferView":1,
			"componentType":5126,
			"count":74,
			"type":"VEC3"
		},
		{
			"bufferView":2,
			"componentType":5126,
			"count":74,
			"type":"VEC2"
		},
		{
			"bufferView":3,
			"componentType":5123,
			"count":156,
			"type":"SCALAR"
		},
		{
			"bufferView":4,
			"componentType":5126,
			"count":260,
			"max":[
				0.4186774492263794,
				0.2737470865249634,
				2.472808599472046
			],
			"min":[
				-0.4186774492263794,
				-0.6347478628158569,
				-2.472808599472046
			],
			"type":"VEC3"
		},
		{
			"bufferView":5,
			"componentType":5126,
			"count":260,
			"type":"VEC3"
		},
		{
			"bufferView":6,
			"componentType":5126,
			"count":260,
			"type":"VEC2"
		},
		{
			"bufferView":7,
			"componentType":5123,
			"count":498,
			"type":"SCALAR"
		},
		{
			"bufferView":8,
			"componentType":5126,
			"count":32,
			"max":[
				0.4186774492263794,
				1.2714965343475342,
				0.5591011047363281
			],
			"min":[
				-0.4186774492263794,
				-0.45409712195396423,
				-0.5591011047363281
			],
			"type":"VEC3"
		},
		{
			"bufferView":9,
			"componentType":5126,
			"count":32,
			"type":"VEC3"
		},
		{
			"bufferView":10,
			"componentType":5126,
			"count":32,
			"type":"VEC2"
		},
		{
			"bufferView":11,
			"componentType":5123,
			"count":60,
			"type":"SCALAR"
		},
		{
			"bufferView":12,
			"componentType":5126,
			"count":24,
			"max":[
				0.4186774492263794,
				-0.08984528481960297,
				0.5591011047363281
			],
			"min":[
				-0.4186774492263794,
				-0.45409712195396423,
				-0.5591011047363281
			],
			"type":"VEC3"
		},
		{
			"bufferView":13,
			"componentType":5126,
			"count":24,
			"type":"VEC3"
		},
		{
			"bufferView":14,
			"componentType":5126,
			"count":24,
			"type":"VEC2"
		},
		{
			"bufferView":15,
			"componentType":5123,
			"count":42,
			"type":"SCALAR"
		},
		{
			"bufferView":16,
			"componentType":5126,
			"count":484,
			"max":[
				0.15950331091880798,
				1.4327635765075684,
				1.0216087102890015
			],
			"min":[
				-0.15958184003829956,
				-1.3147797584533691,
				-0.7115663290023804
			],
			"type":"VEC3"
		},
		{
			"bufferView":17,
			"componentType":5126,
			"count":484,
			"type":"VEC3"
		},
		{
			"bufferView":18,
			"componentType":5126,
			"count":484,
			"type":"VEC2"
		},
		{
			"bufferView":19,
			"componentType":5123,
			"count":936,
			"type":"SCALAR"
		},
		{
			"bufferView":20,
			"componentType":5126,
			"count":220,
			"max":[
				0.14962667226791382,
				0.18092413246631622,
				-0.17033341526985168
			],
			"min":[
				-0.149705171585083,
				-0.22843068838119507,
				-0.46754077076911926
			],
			"type":"VEC3"
		},
		{
			"bufferView":21,
			"componentType":5126,
			"count":220,
			"type":"VEC3"
		},
		{
			"bufferView":22,
			"componentType":5126,
			"count":220,
			"type":"VEC2"
		},
		{
			"bufferView":23,
			"componentType":5123,
			"count":408,
			"type":"SCALAR"
		},
		{
			"bufferView":24,
			"componentType":5126,
			"count":48,
			"max":[
				0.1299607753753662,
				1.6963729858398438,
				1.2475569248199463
			],
			"min":[
				-0.13003931939601898,
				-1.308138370513916,
				-0.9375147223472595
			],
			"type":"VEC3"
		},
		{
			"bufferView":25,
			"componentType":5126,
			"count":48,
			"type":"VEC3"
		},
		{
			"bufferView":26,
			"componentType":5126,
			"count":48,
			"type":"VEC2"
		},
		{
			"bufferView":27,
			"componentType":5123,
			"count":84,
			"type":"SCALAR"
		},
		{
			"bufferView":28,
			"componentType":5126,
			"count":766,
			"max":[
				2.9105496406555176,
				1.7157049179077148,
				1.769934892654419
			],
			"min":[
				-3.0614099502563477,
				-1.6826003789901733,
				-1.7354676723480225
			],
			"type":"VEC3"
		},
		{
			"bufferView":29,
			"componentType":5126,
			"count":766,
			"type":"VEC3"
		},
		{
			"bufferView":30,
			"componentType":5126,
			"count":766,
			"type":"VEC2"
		},
		{
			"bufferView":31,
			"componentType":5126,
			"count":766,
			"type":"VEC4"
		},
		{
			"bufferView":32,
			"componentType":5123,
			"count":1344,
			"type":"SCALAR"
		},
		{
			"bufferView":33,
			"componentType":5126,
			"count":292,
			"max":[
				0.287253737449646,
				1.4478825330734253,
				1.2649136781692505
			],
			"min":[
				-0.2603054344654083,
				-1.5521172285079956,
				-3.699939012527466
			],
			"type":"VEC3"
		},
		{
			"bufferView":34,
			"componentType":5126,
			"count":292,
			"type":"VEC3"
		},
		{
			"bufferView":35,
			"componentType":5126,
			"count":292,
			"type":"VEC2"
		},
		{
			"bufferView":36,
			"componentType":5123,
			"count":588,
			"type":"SCALAR"
		},
		{
			"bufferView":37,
			"componentType":5126,
			"count":24,
			"max":[
				0.130000039935112,
				1.5022556781768799,
				1.5925358533859253
			],
			"min":[
				-0.130000039935112,
				-1.5022556781768799,
				-1.5925358533859253
			],
			"type":"VEC3"
		},
		{
			"bufferView":38,
			"componentType":5126,
			"count":24,
			"type":"VEC3"
		},
		{
			"bufferView":39,
			"componentType":5126,
			"count":24,
			"type":"VEC2"
		},
		{
			"bufferView":40,
			"componentType":5126,
			"count":24,
			"type":"VEC4"
		},
		{
			"bufferView":41,
			"componentType":5123,
			"count":36,
			"type":"SCALAR"
		},
		{
			"bufferView":42,
			"componentType":5126,
			"count":222,
			"max":[
				0.1977480798959732,
				2.992743968963623,
				2.482426643371582
			],
			"min":[
				-0.21650123596191406,
				-0.9625839591026306,
				-2.482426166534424
			],
			"type":"VEC3"
		},
		{
			"bufferView":43,
			"componentType":5126,
			"count":222,
			"type":"VEC3"
		},
		{
			"bufferView":44,
			"componentType":5126,
			"count":222,
			"type":"VEC2"
		},
		{
			"bufferView":45,
			"componentType":5123,
			"count":366,
			"type":"SCALAR"
		},
		{
			"bufferView":46,
			"componentType":5126,
			"count":12,
			"max":[
				0.1286967694759369,
				2.991764545440674,
				2.1839993000030518
			],
			"min":[
				-0.1313031166791916,
				0.1331358253955841,
				-2.1839993000030518
			],
			"type":"VEC3"
		},
		{
			"bufferView":47,
			"componentType":5126,
			"count":12,
			"type":"VEC3"
		},
		{
			"bufferView":48,
			"componentType":5126,
			"count":12,
			"type":"VEC2"
		},
		{
			"bufferView":49,
			"componentType":5123,
			"count":18,
			"type":"SCALAR"
		},
		{
			"bufferView":50,
			"componentType":5126,
			"count":24,
			"max":[
				0.130000039935112,
				0.9420720934867859,
				1.0506784915924072
			],
			"min":[
				-0.130000039935112,
				-2.062439441680908,
				-1.0506782531738281
			],
			"type":"VEC3"
		},
		{
			"bufferView":51,
			"componentType":5126,
			"count":24,
			"type":"VEC3"
		},
		{
			"bufferView":52,
			"componentType":5126,
			"count":24,
			"type":"VEC2"
		},
		{
			"bufferView":53,
			"componentType":5126,
			"count":24,
			"type":"VEC4"
		},
		{
			"bufferView":54,
			"componentType":5123,
			"count":36,
			"type":"SCALAR"
		},
		{
			"bufferView":55,
			"componentType":5126,
			"count":64,
			"max":[
				0.23400747776031494,
				1.2183858156204224,
				1.2879917621612549
			],
			"min":[
				-0.23400747776031494,
				-2.089560031890869,
				-1.2879918813705444
			],
			"type":"VEC3"
		},
		{
			"bufferView":56,
			"componentType":5126,
			"count":64,
			"type":"VEC3"
		},
		{
			"bufferView":57,
			"componentType":5126,
			"count":64,
			"type":"VEC2"
		},
		{
			"bufferView":58,
			"componentType":5126,
			"count":64,
			"type":"VEC4"
		},
		{
			"bufferView":59,
			"componentType":5123,
			"count":144,
			"type":"SCALAR"
		},
		{
			"bufferView":60,
			"componentType":5126,
			"count":96,
			"max":[
				0.15013320744037628,
				1.4242643117904663,
				1.5925359725952148
			],
			"min":[
				-0.10986688733100891,
				-1.580247163772583,
				-1.5925359725952148
			],
			"type":"VEC3"
		},
		{
			"bufferView":61,
			"componentType":5126,
			"count":96,
			"type":"VEC3"
		},
		{
			"bufferView":62,
			"componentType":5126,
			"count":96,
			"type":"VEC2"
		},
		{
			"bufferView":63,
			"componentType":5123,
			"count":168,
			"type":"SCALAR"
		},
		{
			"bufferView":64,
			"componentType":5126,
			"count":24,
			"max":[
				-0.003995474893599749,
				0.6916252970695496,
				0.7273063063621521
			],
			"min":[
				-0.006071113515645266,
				-0.6742938756942749,
				-0.7273063063621521
			],
			"type":"VEC3"
		},
		{
			"bufferView":65,
			"componentType":5126,
			"count":24,
			"type":"VEC3"
		},
		{
			"bufferView":66,
			"componentType":5126,
			"count":24,
			"type":"VEC2"
		},
		{
			"bufferView":67,
			"componentType":5126,
			"count":148,
			"max":[
				0.26890575885772705,
				0.8696437478065491,
				1.0413225889205933
			],
			"min":[
				-0.278972327709198,
				-0.8523122072219849,
				-1.0413225889205933
			],
			"type":"VEC3"
		},
		{
			"bufferView":68,
			"componentType":5126,
			"count":148,
			"type":"VEC3"
		},
		{
			"bufferView":69,
			"componentType":5126,
			"count":148,
			"type":"VEC2"
		},
		{
			"bufferView":70,
			"componentType":5123,
			"count":240,
			"type":"SCALAR"
		},
		{
			"bufferView":71,
			"componentType":5126,
			"count":204,
			"max":[
				0.18313559889793396,
				1.829607367515564,
				2.212583541870117
			],
			"min":[
				-0.1831229031085968,
				-2.074902296066284,
				-2.1554148197174072
			],
			"type":"VEC3"
		},
		{
			"bufferView":72,
			"componentType":5126,
			"count":204,
			"type":"VEC3"
		},
		{
			"bufferView":73,
			"componentType":5126,
			"count":204,
			"type":"VEC2"
		},
		{
			"bufferView":74,
			"componentType":5123,
			"count":480,
			"type":"SCALAR"
		},
		{
			"bufferView":75,
			"componentType":5126,
			"count":746,
			"max":[
				0.38822221755981445,
				1.8458623886108398,
				2.482426881790161
			],
			"min":[
				-0.3882094621658325,
				-2.1094658374786377,
				-2.482426166534424
			],
			"type":"VEC3"
		},
		{
			"bufferView":76,
			"componentType":5126,
			"count":746,
			"type":"VEC3"
		},
		{
			"bufferView":77,
			"componentType":5126,
			"count":746,
			"type":"VEC2"
		},
		{
			"bufferView":78,
			"componentType":5123,
			"count":1362,
			"type":"SCALAR"
		},
		{
			"bufferView":79,
			"componentType":5126,
			"count":24,
			"max":[
				0.012725300155580044,
				1.4025884866714478,
				1.134537935256958
			],
			"min":[
				-0.009566393680870533,
				-0.5553238391876221,
				-1.0773690938949585
			],
			"type":"VEC3"
		},
		{
			"bufferView":80,
			"componentType":5126,
			"count":24,
			"type":"VEC3"
		},
		{
			"bufferView":81,
			"componentType":5126,
			"count":24,
			"type":"VEC2"
		},
		{
			"bufferView":82,
			"componentType":5126,
			"count":245,
			"max":[
				0.30887481570243835,
				1.4507933855056763,
				1.2879916429519653
			],
			"min":[
				-0.34553268551826477,
				-1.8571523427963257,
				-1.2879918813705444
			],
			"type":"VEC3"
		},
		{
			"bufferView":83,
			"componentType":5126,
			"count":245,
			"type":"VEC3"
		},
		{
			"bufferView":84,
			"componentType":5126,
			"count":245,
			"type":"VEC2"
		},
		{
			"bufferView":85,
			"componentType":5123,
			"count":432,
			"type":"SCALAR"
		},
		{
			"bufferView":86,
			"componentType":5126,
			"count":48,
			"max":[
				0.11204693466424942,
				1.174479603767395,
				1.0506783723831177
			],
			"min":[
				-0.1479531079530716,
				-1.8300318717956543,
				-1.0506782531738281
			],
			"type":"VEC3"
		},
		{
			"bufferView":87,
			"componentType":5126,
			"count":48,
			"type":"VEC3"
		},
		{
			"bufferView":88,
			"componentType":5126,
			"count":48,
			"type":"VEC2"
		},
		{
			"bufferView":89,
			"componentType":5123,
			"count":96,
			"type":"SCALAR"
		},
		{
			"bufferView":90,
			"componentType":5126,
			"count":32,
			"max":[
				0.016651365906000137,
				0.5683858394622803,
				0.5336288213729858
			],
			"min":[
				-0.05330924689769745,
				-0.8007933497428894,
				-0.5336287021636963
			],
			"type":"VEC3"
		},
		{
			"bufferView":91,
			"componentType":5126,
			"count":32,
			"type":"VEC3"
		},
		{
			"bufferView":92,
			"componentType":5126,
			"count":32,
			"type":"VEC2"
		},
		{
			"bufferView":93,
			"componentType":5123,
			"count":60,
			"type":"SCALAR"
		},
		{
			"bufferView":94,
			"componentType":5126,
			"count":74,
			"max":[
				0.23406356573104858,
				1.0908457040786743,
				2.472808599472046
			],
			"min":[
				-0.23406356573104858,
				-0.2704960107803345,
				-2.472808599472046
			],
			"type":"VEC3"
		},
		{
			"bufferView":95,
			"componentType":5126,
			"count":74,
			"type":"VEC3"
		},
		{
			"bufferView":96,
			"componentType":5126,
			"count":74,
			"type":"VEC2"
		},
		{
			"bufferView":97,
			"componentType":5126,
			"count":260,
			"max":[
				0.4186774492263794,
				0.2737470865249634,
				2.472808599472046
			],
			"min":[
				-0.4186774492263794,
				-0.6347478628158569,
				-2.472808599472046
			],
			"type":"VEC3"
		},
		{
			"bufferView":98,
			"componentType":5126,
			"count":260,
			"type":"VEC3"
		},
		{
			"bufferView":99,
			"componentType":5126,
			"count":260,
			"type":"VEC2"
		},
		{
			"bufferView":100,
			"componentType":5126,
			"count":32,
			"max":[
				0.4186774492263794,
				1.2714965343475342,
				0.5591011047363281
			],
			"min":[
				-0.4186774492263794,
				-0.45409712195396423,
				-0.5591011047363281
			],
			"type":"VEC3"
		},
		{
			"bufferView":101,
			"componentType":5126,
			"count":32,
			"type":"VEC3"
		},
		{
			"bufferView":102,
			"componentType":5126,
			"count":32,
			"type":"VEC2"
		},
		{
			"bufferView":103,
			"componentType":5126,
			"count":24,
			"max":[
				0.4186774492263794,
				-0.08984528481960297,
				0.5591011047363281
			],
			"min":[
				-0.4186774492263794,
				-0.45409712195396423,
				-0.5591011047363281
			],
			"type":"VEC3"
		},
		{
			"bufferView":104,
			"componentType":5126,
			"count":24,
			"type":"VEC3"
		},
		{
			"bufferView":105,
			"componentType":5126,
			"count":24,
			"type":"VEC2"
		},
		{
			"bufferView":106,
			"componentType":5126,
			"count":484,
			"max":[
				0.15950331091880798,
				1.4327635765075684,
				1.0216087102890015
			],
			"min":[
				-0.15958184003829956,
				-1.3147797584533691,
				-0.7115663290023804
			],
			"type":"VEC3"
		},
		{
			"bufferView":107,
			"componentType":5126,
			"count":484,
			"type":"VEC3"
		},
		{
			"bufferView":108,
			"componentType":5126,
			"count":484,
			"type":"VEC2"
		},
		{
			"bufferView":109,
			"componentType":5126,
			"count":220,
			"max":[
				0.14962667226791382,
				0.18092413246631622,
				-0.17033341526985168
			],
			"min":[
				-0.149705171585083,
				-0.22843068838119507,
				-0.46754077076911926
			],
			"type":"VEC3"
		},
		{
			"bufferView":110,
			"componentType":5126,
			"count":220,
			"type":"VEC3"
		},
		{
			"bufferView":111,
			"componentType":5126,
			"count":220,
			"type":"VEC2"
		},
		{
			"bufferView":112,
			"componentType":5126,
			"count":48,
			"max":[
				0.1299607753753662,
				1.6963729858398438,
				1.2475569248199463
			],
			"min":[
				-0.13003931939601898,
				-1.308138370513916,
				-0.9375147223472595
			],
			"type":"VEC3"
		},
		{
			"bufferView":113,
			"componentType":5126,
			"count":48,
			"type":"VEC3"
		},
		{
			"bufferView":114,
			"componentType":5126,
			"count":48,
			"type":"VEC2"
		},
		{
			"bufferView":115,
			"componentType":5126,
			"count":766,
			"max":[
				2.9105496406555176,
				1.7157049179077148,
				1.769934892654419
			],
			"min":[
				-3.0614099502563477,
				-1.6826003789901733,
				-1.7354676723480225
			],
			"type":"VEC3"
		},
		{
			"bufferView":116,
			"componentType":5126,
			"count":766,
			"type":"VEC3"
		},
		{
			"bufferView":117,
			"componentType":5126,
			"count":766,
			"type":"VEC2"
		},
		{
			"bufferView":118,
			"componentType":5126,
			"count":766,
			"type":"VEC4"
		},
		{
			"bufferView":119,
			"componentType":5126,
			"count":292,
			"max":[
				0.287253737449646,
				1.4478825330734253,
				1.2649136781692505
			],
			"min":[
				-0.2603054344654083,
				-1.5521172285079956,
				-3.699939012527466
			],
			"type":"VEC3"
		},
		{
			"bufferView":120,
			"componentType":5126,
			"count":292,
			"type":"VEC3"
		},
		{
			"bufferView":121,
			"componentType":5126,
			"count":292,
			"type":"VEC2"
		},
		{
			"bufferView":122,
			"componentType":5126,
			"count":24,
			"max":[
				0.130000039935112,
				1.5022556781768799,
				1.5925358533859253
			],
			"min":[
				-0.130000039935112,
				-1.5022556781768799,
				-1.5925358533859253
			],
			"type":"VEC3"
		},
		{
			"bufferView":123,
			"componentType":5126,
			"count":24,
			"type":"VEC3"
		},
		{
			"bufferView":124,
			"componentType":5126,
			"count":24,
			"type":"VEC2"
		},
		{
			"bufferView":125,
			"componentType":5126,
			"count":24,
			"type":"VEC4"
		},
		{
			"bufferView":126,
			"componentType":5126,
			"count":222,
			"max":[
				0.1977480798959732,
				2.992743968963623,
				2.482426643371582
			],
			"min":[
				-0.21650123596191406,
				-0.9625839591026306,
				-2.482426166534424
			],
			"type":"VEC3"
		},
		{
			"bufferView":127,
			"componentType":5126,
			"count":222,
			"type":"VEC3"
		},
		{
			"bufferView":128,
			"componentType":5126,
			"count":222,
			"type":"VEC2"
		},
		{
			"bufferView":129,
			"componentType":5126,
			"count":12,
			"max":[
				0.1286967694759369,
				2.991764545440674,
				2.1839993000030518
			],
			"min":[
				-0.1313031166791916,
				0.1331358253955841,
				-2.1839993000030518
			],
			"type":"VEC3"
		},
		{
			"bufferView":130,
			"componentType":5126,
			"count":12,
			"type":"VEC3"
		},
		{
			"bufferView":131,
			"componentType":5126,
			"count":12,
			"type":"VEC2"
		},
		{
			"bufferView":132,
			"componentType":5126,
			"count":24,
			"max":[
				0.130000039935112,
				0.9420720934867859,
				1.0506784915924072
			],
			"min":[
				-0.130000039935112,
				-2.062439441680908,
				-1.0506782531738281
			],
			"type":"VEC3"
		},
		{
			"bufferView":133,
			"componentType":5126,
			"count":24,
			"type":"VEC3"
		},
		{
			"bufferView":134,
			"componentType":5126,
			"count":24,
			"type":"VEC2"
		},
		{
			"bufferView":135,
			"componentType":5126,
			"count":24,
			"type":"VEC4"
		},
		{
			"bufferView":136,
			"componentType":5126,
			"count":64,
			"max":[
				0.23400747776031494,
				1.2183858156204224,
				1.2879917621612549
			],
			"min":[
				-0.23400747776031494,
				-2.089560031890869,
				-1.2879918813705444
			],
			"type":"VEC3"
		},
		{
			"bufferView":137,
			"componentType":5126,
			"count":64,
			"type":"VEC3"
		},
		{
			"bufferView":138,
			"componentType":5126,
			"count":64,
			"type":"VEC2"
		},
		{
			"bufferView":139,
			"componentType":5126,
			"count":64,
			"type":"VEC4"
		},
		{
			"bufferView":140,
			"componentType":5126,
			"count":96,
			"max":[
				0.15013320744037628,
				1.4242643117904663,
				1.5925359725952148
			],
			"min":[
				-0.10986688733100891,
				-1.580247163772583,
				-1.5925359725952148
			],
			"type":"VEC3"
		},
		{
			"bufferView":141,
			"componentType":5126,
			"count":96,
			"type":"VEC3"
		},
		{
			"bufferView":142,
			"componentType":5126,
			"count":96,
			"type":"VEC2"
		},
		{
			"bufferView":143,
			"componentType":5126,
			"count":24,
			"max":[
				-0.003995474893599749,
				0.6916252970695496,
				0.7273063063621521
			],
			"min":[
				-0.006071113515645266,
				-0.6742938756942749,
				-0.7273063063621521
			],
			"type":"VEC3"
		},
		{
			"bufferView":144,
			"componentType":5126,
			"count":24,
			"type":"VEC3"
		},
		{
			"bufferView":145,
			"componentType":5126,
			"count":24,
			"type":"VEC2"
		},
		{
			"bufferView":146,
			"componentType":5126,
			"count":148,
			"max":[
				0.26890575885772705,
				0.8696437478065491,
				1.0413225889205933
			],
			"min":[
				-0.278972327709198,
				-0.8523122072219849,
				-1.0413225889205933
			],
			"type":"VEC3"
		},
		{
			"bufferView":147,
			"componentType":5126,
			"count":148,
			"type":"VEC3"
		},
		{
			"bufferView":148,
			"componentType":5126,
			"count":148,
			"type":"VEC2"
		},
		{
			"bufferView":149,
			"componentType":5126,
			"count":204,
			"max":[
				0.18313559889793396,
				1.829607367515564,
				2.212583541870117
			],
			"min":[
				-0.1831229031085968,
				-2.074902296066284,
				-2.1554148197174072
			],
			"type":"VEC3"
		},
		{
			"bufferView":150,
			"componentType":5126,
			"count":204,
			"type":"VEC3"
		},
		{
			"bufferView":151,
			"componentType":5126,
			"count":204,
			"type":"VEC2"
		},
		{
			"bufferView":152,
			"componentType":5126,
			"count":746,
			"max":[
				0.38822221755981445,
				1.8458623886108398,
				2.482426881790161
			],
			"min":[
				-0.3882094621658325,
				-2.1094658374786377,
				-2.482426166534424
			],
			"type":"VEC3"
		},
		{
			"bufferView":153,
			"componentType":5126,
			"count":746,
			"type":"VEC3"
		},
		{
			"bufferView":154,
			"componentType":5126,
			"count":746,
			"type":"VEC2"
		},
		{
			"bufferView":155,
			"componentType":5126,
			"count":24,
			"max":[
				0.012725300155580044,
				1.4025884866714478,
				1.134537935256958
			],
			"min":[
				-0.009566393680870533,
				-0.5553238391876221,
				-1.0773690938949585
			],
			"type":"VEC3"
		},
		{
			"bufferView":156,
			"componentType":5126,
			"count":24,
			"type":"VEC3"
		},
		{
			"bufferView":157,
			"componentType":5126,
			"count":24,
			"type":"VEC2"
		},
		{
			"bufferView":158,
			"componentType":5126,
			"count":245,
			"max":[
				0.30887481570243835,
				1.4507933855056763,
				1.2879916429519653
			],
			"min":[
				-0.34553268551826477,
				-1.8571523427963257,
				-1.2879918813705444
			],
			"type":"VEC3"
		},
		{
			"bufferView":159,
			"componentType":5126,
			"count":245,
			"type":"VEC3"
		},
		{
			"bufferView":160,
			"componentType":5126,
			"count":245,
			"type":"VEC2"
		},
		{
			"bufferView":161,
			"componentType":5126,
			"count":48,
			"max":[
				0.11204693466424942,
				1.174479603767395,
				1.0506783723831177
			],
			"min":[
				-0.1479531079530716,
				-1.8300318717956543,
				-1.0506782531738281
			],
			"type":"VEC3"
		},
		{
			"bufferView":162,
			"componentType":5126,
			"count":48,
			"type":"VEC3"
		},
		{
			"bufferView":163,
			"componentType":5126,
			"count":48,
			"type":"VEC2"
		},
		{
			"bufferView":164,
			"componentType":5126,
			"count":32,
			"max":[
				0.016651365906000137,
				0.5683858394622803,
				0.5336288213729858
			],
			"min":[
				-0.05330924689769745,
				-0.8007933497428894,
				-0.5336287021636963
			],
			"type":"VEC3"
		},
		{
			"bufferView":165,
			"componentType":5126,
			"count":32,
			"type":"VEC3"
		},
		{
			"bufferView":166,
			"componentType":5126,
			"count":32,
			"type":"VEC2"
		},
		{
			"bufferView":167,
			"componentType":5126,
			"count":1986,
			"max":[
				4.632766246795654,
				2.766463041305542,
				9.539420127868652
			],
			"min":[
				-1.1727246046066284,
				-5.504689693450928,
				-10.263757705688477
			],
			"type":"VEC3"
		},
		{
			"bufferView":168,
			"componentType":5126,
			"count":1986,
			"type":"VEC3"
		},
		{
			"bufferView":169,
			"componentType":5126,
			"count":1986,
			"type":"VEC2"
		},
		{
			"bufferView":170,
			"componentType":5123,
			"count":3276,
			"type":"SCALAR"
		},
		{
			"bufferView":171,
			"componentType":5126,
			"count":108,
			"max":[
				4.551213264465332,
				2.766463041305542,
				9.479846954345703
			],
			"min":[
				-1.1049268245697021,
				-4.408969402313232,
				-10.174447059631348
			],
			"type":"VEC3"
		},
		{
			"bufferView":172,
			"componentType":5126,
			"count":108,
			"type":"VEC3"
		},
		{
			"bufferView":173,
			"componentType":5126,
			"count":108,
			"type":"VEC2"
		},
		{
			"bufferView":174,
			"componentType":5123,
			"count":162,
			"type":"SCALAR"
		},
		{
			"bufferView":175,
			"componentType":5126,
			"count":968,
			"max":[
				-1.3865351676940918,
				-2.7491049766540527,
				4.864108562469482
			],
			"min":[
				-6.304783821105957,
				-5.50329065322876,
				-5.3284101486206055
			],
			"type":"VEC3"
		},
		{
			"bufferView":176,
			"componentType":5126,
			"count":968,
			"type":"VEC3"
		},
		{
			"bufferView":177,
			"componentType":5126,
			"count":968,
			"type":"VEC2"
		},
		{
			"bufferView":178,
			"componentType":5123,
			"count":1872,
			"type":"SCALAR"
		},
		{
			"bufferView":179,
			"componentType":5126,
			"count":440,
			"max":[
				-2.578477382659912,
				-4.0009446144104,
				4.854232311248779
			],
			"min":[
				-6.060758113861084,
				-4.416941165924072,
				-5.318532943725586
			],
			"type":"VEC3"
		},
		{
			"bufferView":180,
			"componentType":5126,
			"count":440,
			"type":"VEC3"
		},
		{
			"bufferView":181,
			"componentType":5126,
			"count":440,
			"type":"VEC2"
		},
		{
			"bufferView":182,
			"componentType":5123,
			"count":816,
			"type":"SCALAR"
		},
		{
			"bufferView":183,
			"componentType":5126,
			"count":96,
			"max":[
				-1.1605868339538574,
				-2.4854955673217773,
				4.834566116333008
			],
			"min":[
				-6.530732154846191,
				-5.496649265289307,
				-5.298867702484131
			],
			"type":"VEC3"
		},
		{
			"bufferView":184,
			"componentType":5126,
			"count":96,
			"type":"VEC3"
		},
		{
			"bufferView":185,
			"componentType":5126,
			"count":96,
			"type":"VEC2"
		},
		{
			"bufferView":186,
			"componentType":5123,
			"count":168,
			"type":"SCALAR"
		},
		{
			"bufferView":187,
			"componentType":5126,
			"count":11362,
			"max":[
				6.923612117767334,
				5.3847575187683105,
				9.654784202575684
			],
			"min":[
				-8.239447593688965,
				-2.500927448272705,
				-11.132953643798828
			],
			"type":"VEC3"
		},
		{
			"bufferView":188,
			"componentType":5126,
			"count":11362,
			"type":"VEC3"
		},
		{
			"bufferView":189,
			"componentType":5126,
			"count":11362,
			"type":"VEC2"
		},
		{
			"bufferView":190,
			"componentType":5123,
			"count":19908,
			"type":"SCALAR"
		},
		{
			"bufferView":191,
			"componentType":5126,
			"count":216,
			"max":[
				4.545440196990967,
				1.9742600917816162,
				9.259201049804688
			],
			"min":[
				-6.894739627838135,
				-5.469529151916504,
				-9.979429244995117
			],
			"type":"VEC3"
		},
		{
			"bufferView":192,
			"componentType":5126,
			"count":216,
			"type":"VEC3"
		},
		{
			"bufferView":193,
			"componentType":5126,
			"count":216,
			"type":"VEC2"
		},
		{
			"bufferView":194,
			"componentType":5123,
			"count":324,
			"type":"SCALAR"
		},
		{
			"bufferView":195,
			"componentType":5126,
			"count":600,
			"max":[
				4.61216926574707,
				2.3005270957946777,
				9.539417266845703
			],
			"min":[
				-6.998746871948242,
				-5.496649742126465,
				-10.259645462036133
			],
			"type":"VEC3"
		},
		{
			"bufferView":196,
			"componentType":5126,
			"count":600,
			"type":"VEC3"
		},
		{
			"bufferView":197,
			"componentType":5126,
			"count":600,
			"type":"VEC2"
		},
		{
			"bufferView":198,
			"componentType":5123,
			"count":1284,
			"type":"SCALAR"
		},
		{
			"bufferView":199,
			"componentType":5126,
			"count":192,
			"max":[
				-1.1605883836746216,
				-2.4854953289031982,
				4.833940505981445
			],
			"min":[
				-6.530730724334717,
				-5.496649742126465,
				-5.298388481140137
			],
			"type":"VEC3"
		},
		{
			"bufferView":200,
			"componentType":5126,
			"count":192,
			"type":"VEC3"
		},
		{
			"bufferView":201,
			"componentType":5126,
			"count":192,
			"type":"VEC2"
		},
		{
			"bufferView":202,
			"componentType":5123,
			"count":336,
			"type":"SCALAR"
		},
		{
			"bufferView":203,
			"componentType":5126,
			"count":48,
			"max":[
				-2.025818109512329,
				-3.2181344032287598,
				4.730144500732422
			],
			"min":[
				-5.665501117706299,
				-4.590696334838867,
				-5.144259929656982
			],
			"type":"VEC3"
		},
		{
			"bufferView":204,
			"componentType":5126,
			"count":48,
			"type":"VEC3"
		},
		{
			"bufferView":205,
			"componentType":5126,
			"count":48,
			"type":"VEC2"
		},
		{
			"bufferView":206,
			"componentType":5123,
			"count":72,
			"type":"SCALAR"
		},
		{
			"bufferView":207,
			"componentType":5126,
			"count":296,
			"max":[
				-1.7118020057678223,
				-3.0401158332824707,
				5.003045558929443
			],
			"min":[
				-5.979517459869385,
				-4.768714904785156,
				-5.417160987854004
			],
			"type":"VEC3"
		},
		{
			"bufferView":208,
			"componentType":5126,
			"count":296,
			"type":"VEC3"
		},
		{
			"bufferView":209,
			"componentType":5126,
			"count":296,
			"type":"VEC2"
		},
		{
			"bufferView":210,
			"componentType":5123,
			"count":480,
			"type":"SCALAR"
		},
		{
			"bufferView":211,
			"componentType":5126,
			"count":606,
			"max":[
				4.600942611694336,
				-1.5575745105743408,
				9.507190704345703
			],
			"min":[
				-0.48899638652801514,
				-5.4620866775512695,
				-10.231529235839844
			],
			"type":"VEC3"
		},
		{
			"bufferView":212,
			"componentType":5126,
			"count":606,
			"type":"VEC3"
		},
		{
			"bufferView":213,
			"componentType":5126,
			"count":606,
			"type":"VEC2"
		},
		{
			"bufferView":214,
			"componentType":5123,
			"count":1422,
			"type":"SCALAR"
		},
		{
			"bufferView":215,
			"componentType":5126,
			"count":2226,
			"max":[
				4.806028366088867,
				-1.5413192510604858,
				9.712278366088867
			],
			"min":[
				-0.7588397264480591,
				-5.496649742126465,
				-10.436615943908691
			],
			"type":"VEC3"
		},
		{
			"bufferView":216,
			"componentType":5126,
			"count":2226,
			"type":"VEC3"
		},
		{
			"bufferView":217,
			"componentType":5126,
			"count":2226,
			"type":"VEC2"
		},
		{
			"bufferView":218,
			"componentType":5123,
			"count":4068,
			"type":"SCALAR"
		},
		{
			"bufferView":219,
			"componentType":5126,
			"count":72,
			"max":[
				4.427385330200195,
				-1.9845935106277466,
				9.333634376525879
			],
			"min":[
				0.5890493988990784,
				-3.94250750541687,
				-10.05797290802002
			],
			"type":"VEC3"
		},
		{
			"bufferView":220,
			"componentType":5126,
			"count":72,
			"type":"VEC3"
		},
		{
			"bufferView":221,
			"componentType":5126,
			"count":72,
			"type":"VEC2"
		},
		{
			"bufferView":222,
			"componentType":5123,
			"count":108,
			"type":"SCALAR"
		},
		{
			"bufferView":223,
			"componentType":5126,
			"count":484,
			"max":[
				-6.437158107757568,
				-2.1887035369873047,
				4.837186813354492
			],
			"min":[
				-7.091566562652588,
				-5.496649742126465,
				-2.89076566696167
			],
			"type":"VEC3"
		},
		{
			"bufferView":224,
			"componentType":5126,
			"count":484,
			"type":"VEC3"
		},
		{
			"bufferView":225,
			"componentType":5126,
			"count":484,
			"type":"VEC2"
		},
		{
			"bufferView":226,
			"componentType":5123,
			"count":852,
			"type":"SCALAR"
		},
		{
			"bufferView":227,
			"componentType":5126,
			"count":96,
			"max":[
				-6.634737968444824,
				-2.465017318725586,
				4.5998735427856445
			],
			"min":[
				-6.894738674163818,
				-5.469529628753662,
				-2.653451442718506
			],
			"type":"VEC3"
		},
		{
			"bufferView":228,
			"componentType":5126,
			"count":96,
			"type":"VEC3"
		},
		{
			"bufferView":229,
			"componentType":5126,
			"count":96,
			"type":"VEC2"
		},
		{
			"bufferView":230,
			"componentType":5123,
			"count":192,
			"type":"SCALAR"
		},
		{
			"bufferView":231,
			"componentType":5126,
			"count":64,
			"max":[
				-6.729381561279297,
				-3.0711112022399902,
				4.082823753356934
			],
			"min":[
				-6.799342632293701,
				-4.440290451049805,
				-2.136401414871216
			],
			"type":"VEC3"
		},
		{
			"bufferView":232,
			"componentType":5126,
			"count":64,
			"type":"VEC3"
		},
		{
			"bufferView":233,
			"componentType":5126,
			"count":64,
			"type":"VEC2"
		},
		{
			"bufferView":234,
			"componentType":5123,
			"count":120,
			"type":"SCALAR"
		},
		{
			"bufferView":235,
			"componentType":5126,
			"count":532,
			"max":[
				-0.7895809412002563,
				2.4837327003479004,
				4.820540904998779
			],
			"min":[
				-4.8447465896606445,
				0.033408407121896744,
				-5.322762966156006
			],
			"type":"VEC3"
		},
		{
			"bufferView":236,
			"componentType":5126,
			"count":532,
			"type":"VEC3"
		},
		{
			"bufferView":237,
			"componentType":5126,
			"count":532,
			"type":"VEC2"
		},
		{
			"bufferView":238,
			"componentType":5123,
			"count":1056,
			"type":"SCALAR"
		},
		{
			"bufferView":239,
			"componentType":5126,
			"count":184,
			"max":[
				4.573647499084473,
				5.0354509353637695,
				9.52721118927002
			],
			"min":[
				-6.94490909576416,
				-2.4921376705169678,
				-10.25777816772461
			],
			"type":"VEC3"
		},
		{
			"bufferView":240,
			"componentType":5126,
			"count":184,
			"type":"VEC3"
		},
		{
			"bufferView":241,
			"componentType":5126,
			"count":184,
			"type":"VEC2"
		},
		{
			"bufferView":242,
			"componentType":5123,
			"count":300,
			"type":"SCALAR"
		},
		{
			"bufferView":243,
			"componentType":5126,
			"count":148,
			"max":[
				-1.6469286680221558,
				-1.5122315883636475,
				9.383790969848633
			],
			"min":[
				-6.524636268615723,
				-2.4541850090026855,
				4.751857757568359
			],
			"type":"VEC3"
		},
		{
			"bufferView":244,
			"componentType":5126,
			"count":148,
			"type":"VEC3"
		},
		{
			"bufferView":245,
			"componentType":5126,
			"count":148,
			"type":"VEC2"
		},
		{
			"bufferView":246,
			"componentType":5123,
			"count":312,
			"type":"SCALAR"
		},
		{
			"bufferView":247,
			"componentType":5126,
			"count":520,
			"max":[
				-1.6469286680221558,
				-1.97376549243927,
				9.536686897277832
			],
			"min":[
				-6.652298927307129,
				-2.726173162460327,
				4.751857757568359
			],
			"type":"VEC3"
		},
		{
			"bufferView":248,
			"componentType":5126,
			"count":520,
			"type":"VEC3"
		},
		{
			"bufferView":249,
			"componentType":5126,
			"count":520,
			"type":"VEC2"
		},
		{
			"bufferView":250,
			"componentType":5123,
			"count":996,
			"type":"SCALAR"
		},
		{
			"bufferView":251,
			"componentType":5126,
			"count":96,
			"max":[
				-1.0401878356933594,
				-1.5122321844100952,
				9.53664779663086
			],
			"min":[
				-6.653789520263672,
				-2.726173162460327,
				8.171807289123535
			],
			"type":"VEC3"
		},
		{
			"bufferView":252,
			"componentType":5126,
			"count":96,
			"type":"VEC3"
		},
		{
			"bufferView":253,
			"componentType":5126,
			"count":96,
			"type":"VEC2"
		},
		{
			"bufferView":254,
			"componentType":5123,
			"count":180,
			"type":"SCALAR"
		},
		{
			"bufferView":255,
			"componentType":5126,
			"count":72,
			"max":[
				-1.0401878356933594,
				-2.4245028495788574,
				9.536685943603516
			],
			"min":[
				-6.653789520263672,
				-2.726173162460327,
				8.171807289123535
			],
			"type":"VEC3"
		},
		{
			"bufferView":256,
			"componentType":5126,
			"count":72,
			"type":"VEC3"
		},
		{
			"bufferView":257,
			"componentType":5126,
			"count":72,
			"type":"VEC2"
		},
		{
			"bufferView":258,
			"componentType":5123,
			"count":126,
			"type":"SCALAR"
		}
	],
	"bufferViews":[
		{
			"buffer":0,
			"byteLength":888,
			"byteOffset":0,
			"target":34962
		},
		{
			"buffer":0,
			"byteLength":888,
			"byteOffset":888,
			"target":34962
		},
		{
			"buffer":0,
			"byteLength":592,
			"byteOffset":1776,
			"target":34962
		},
		{
			"buffer":0,
			"byteLength":312,
			"byteOffset":2368,
			"target":34963
		},
		{
			"buffer":0,
			"byteLength":3120,
			"byteOffset":2680,
			"target":34962
		},
		{
			"buffer":0,
			"byteLength":3120,
			"byteOffset":5800,
			"target":34962
		},
		{
			"buffer":0,
			"byteLength":2080,
			"byteOffset":8920,
			"target":34962
		},
		{
			"buffer":0,
			"byteLength":996,
			"byteOffset":11000,
			"target":34963
		},
		{
			"buffer":0,
			"byteLength":384,
			"byteOffset":11996,
			"target":34962
		},
		{
			"buffer":0,
			"byteLength":384,
			"byteOffset":12380,
			"target":34962
		},
		{
			"buffer":0,
			"byteLength":256,
			"byteOffset":12764,
			"target":34962
		},
		{
			"buffer":0,
			"byteLength":120,
			"byteOffset":13020,
			"target":34963
		},
		{
			"buffer":0,
			"byteLength":288,
			"byteOffset":13140,
			"target":34962
		},
		{
			"buffer":0,
			"byteLength":288,
			"byteOffset":13428,
			"target":34962
		},
		{
			"buffer":0,
			"byteLength":192,
			"byteOffset":13716,
			"target":34962
		},
		{
			"buffer":0,
			"byteLength":84,
			"byteOffset":13908,
			"target":34963
		},
		{
			"buffer":0,
			"byteLength":5808,
			"byteOffset":13992,
			"target":34962
		},
		{
			"buffer":0,
			"byteLength":5808,
			"byteOffset":19800,
			"target":34962
		},
		{
			"buffer":0,
			"byteLength":3872,
			"byteOffset":25608,
			"target":34962
		},
		{
			"buffer":0,
			"byteLength":1872,
			"byteOffset":29480,
			"target":34963
		},
		{
			"buffer":0,
			"byteLength":2640,
			"byteOffset":31352,
			"target":34962
		},
		{
			"buffer":0,
			"byteLength":2640,
			"byteOffset":33992,
			"target":34962
		},
		{
			"buffer":0,
			"byteLength":1760,
			"byteOffset":36632,
			"target":34962
		},
		{
			"buffer":0,
			"byteLength":816,
			"byteOffset":38392,
			"target":34963
		},
		{
			"buffer":0,
			"byteLength":576,
			"byteOffset":39208,
			"target":34962
		},
		{
			"buffer":0,
			"byteLength":576,
			"byteOffset":39784,
			"target":34962
		},
		{
			"buffer":0,
			"byteLength":384,
			"byteOffset":40360,
			"target":34962
		},
		{
			"buffer":0,
			"byteLength":168,
			"byteOffset":40744,
			"target":34963
		},
		{
			"buffer":0,
			"byteLength":9192,
			"byteOffset":40912,
			"target":34962
		},
		{
			"buffer":0,
			"byteLength":9192,
			"byteOffset":50104,
			"target":34962
		},
		{
			"buffer":0,
			"byteLength":6128,
			"byteOffset":59296,
			"target":34962
		},
		{
			"buffer":0,
			"byteLength":12256,
			"byteOffset":65424,
			"target":34962
		},
		{
			"buffer":0,
			"byteLength":2688,
			"byteOffset":77680,
			"target":34963
		},
		{
			"buffer":0,
			"byteLength":3504,
			"byteOffset":80368,
			"target":34962
		},
		{
			"buffer":0,
			"byteLength":3504,
			"byteOffset":83872,
			"target":34962
		},
		{
			"buffer":0,
			"byteLength":2336,
			"byteOffset":87376,
			"target":34962
		},
		{
			"buffer":0,
			"byteLength":1176,
			"byteOffset":89712,
			"target":34963
		},
		{
			"buffer":0,
			"byteLength":288,
			"byteOffset":90888,
			"target":34962
		},
		{
			"buffer":0,
			"byteLength":288,
			"byteOffset":91176,
			"target":34962
		},
		{
			"buffer":0,
			"byteLength":192,
			"byteOffset":91464,
			"target":34962
		},
		{
			"buffer":0,
			"byteLength":384,
			"byteOffset":91656,
			"target":34962
		},
		{
			"buffer":0,
			"byteLength":72,
			"byteOffset":92040,
			"target":34963
		},
		{
			"buffer":0,
			"byteLength":2664,
			"byteOffset":92112,
			"target":34962
		},
		{
			"buffer":0,
			"byteLength":2664,
			"byteOffset":94776,
			"target":34962
		},
		{
			"buffer":0,
			"byteLength":1776,
			"byteOffset":97440,
			"target":34962
		},
		{
			"buffer":0,
			"byteLength":732,
			"byteOffset":99216,
			"target":34963
		},
		{
			"buffer":0,
			"byteLength":144,
			"byteOffset":99948,
			"target":34962
		},
		{
			"buffer":0,
			"byteLength":144,
			"byteOffset":100092,
			"target":34962
		},
		{
			"buffer":0,
			"byteLength":96,
			"byteOffset":100236,
			"target":34962
		},
		{
			"buffer":0,
			"byteLength":36,
			"byteOffset":100332,
			"target":34963
		},
		{
			"buffer":0,
			"byteLength":288,
			"byteOffset":100368,
			"target":34962
		},
		{
			"buffer":0,
			"byteLength":288,
			"byteOffset":100656,
			"target":34962
		},
		{
			"buffer":0,
			"byteLength":192,
			"byteOffset":100944,
			"target":34962
		},
		{
			"buffer":0,
			"byteLength":384,
			"byteOffset":101136,
			"target":34962
		},
		{
			"buffer":0,
			"byteLength":72,
			"byteOffset":101520,
			"target":34963
		},
		{
			"buffer":0,
			"byteLength":768,
			"byteOffset":101592,
			"target":34962
		},
		{
			"buffer":0,
			"byteLength":768,
			"byteOffset":102360,
			"target":34962
		},
		{
			"buffer":0,
			"byteLength":512,
			"byteOffset":103128,
			"target":34962
		},
		{
			"buffer":0,
			"byteLength":1024,
			"byteOffset":103640,
			"target":34962
		},
		{
			"buffer":0,
			"byteLength":288,
			"byteOffset":104664,
			"target":34963
		},
		{
			"buffer":0,
			"byteLength":1152,
			"byteOffset":104952,
			"target":34962
		},
		{
			"buffer":0,
			"byteLength":1152,
			"byteOffset":106104,
			"target":34962
		},
		{
			"buffer":0,
			"byteLength":768,
			"byteOffset":107256,
			"target":34962
		},
		{
			"buffer":0,
			"byteLength":336,
			"byteOffset":108024,
			"target":34963
		},
		{
			"buffer":0,
			"byteLength":288,
			"byteOffset":108360,
			"target":34962
		},
		{
			"buffer":0,
			"byteLength":288,
			"byteOffset":108648,
			"target":34962
		},
		{
			"buffer":0,
			"byteLength":192,
			"byteOffset":108936,
			"target":34962
		},
		{
			"buffer":0,
			"byteLength":1776,
			"byteOffset":109128,
			"target":34962
		},
		{
			"buffer":0,
			"byteLength":1776,
			"byteOffset":110904,
			"target":34962
		},
		{
			"buffer":0,
			"byteLength":1184,
			"byteOffset":112680,
			"target":34962
		},
		{
			"buffer":0,
			"byteLength":480,
			"byteOffset":113864,
			"target":34963
		},
		{
			"buffer":0,
			"byteLength":2448,
			"byteOffset":114344,
			"target":34962
		},
		{
			"buffer":0,
			"byteLength":2448,
			"byteOffset":116792,
			"target":34962
		},
		{
			"buffer":0,
			"byteLength":1632,
			"byteOffset":119240,
			"target":34962
		},
		{
			"buffer":0,
			"byteLength":960,
			"byteOffset":120872,
			"target":34963
		},
		{
			"buffer":0,
			"byteLength":8952,
			"byteOffset":121832,
			"target":34962
		},
		{
			"buffer":0,
			"byteLength":8952,
			"byteOffset":130784,
			"target":34962
		},
		{
			"buffer":0,
			"byteLength":5968,
			"byteOffset":139736,
			"target":34962
		},
		{
			"buffer":0,
			"byteLength":2724,
			"byteOffset":145704,
			"target":34963
		},
		{
			"buffer":0,
			"byteLength":288,
			"byteOffset":148428,
			"target":34962
		},
		{
			"buffer":0,
			"byteLength":288,
			"byteOffset":148716,
			"target":34962
		},
		{
			"buffer":0,
			"byteLength":192,
			"byteOffset":149004,
			"target":34962
		},
		{
			"buffer":0,
			"byteLength":2940,
			"byteOffset":149196,
			"target":34962
		},
		{
			"buffer":0,
			"byteLength":2940,
			"byteOffset":152136,
			"target":34962
		},
		{
			"buffer":0,
			"byteLength":1960,
			"byteOffset":155076,
			"target":34962
		},
		{
			"buffer":0,
			"byteLength":864,
			"byteOffset":157036,
			"target":34963
		},
		{
			"buffer":0,
			"byteLength":576,
			"byteOffset":157900,
			"target":34962
		},
		{
			"buffer":0,
			"byteLength":576,
			"byteOffset":158476,
			"target":34962
		},
		{
			"buffer":0,
			"byteLength":384,
			"byteOffset":159052,
			"target":34962
		},
		{
			"buffer":0,
			"byteLength":192,
			"byteOffset":159436,
			"target":34963
		},
		{
			"buffer":0,
			"byteLength":384,
			"byteOffset":159628,
			"target":34962
		},
		{
			"buffer":0,
			"byteLength":384,
			"byteOffset":160012,
			"target":34962
		},
		{
			"buffer":0,
			"byteLength":256,
			"byteOffset":160396,
			"target":34962
		},
		{
			"buffer":0,
			"byteLength":120,
			"byteOffset":160652,
			"target":34963
		},
		{
			"buffer":0,
			"byteLength":888,
			"byteOffset":160772,
			"target":34962
		},
		{
			"buffer":0,
			"byteLength":888,
			"byteOffset":161660,
			"target":34962
		},
		{
			"buffer":0,
			"byteLength":592,
			"byteOffset":162548,
			"target":34962
		},
		{
			"buffer":0,
			"byteLength":3120,
			"byteOffset":163140,
			"target":34962
		},
		{
			"buffer":0,
			"byteLength":3120,
			"byteOffset":166260,
			"target":34962
		},
		{
			"buffer":0,
			"byteLength":2080,
			"byteOffset":169380,
			"target":34962
		},
		{
			"buffer":0,
			"byteLength":384,
			"byteOffset":171460,
			"target":34962
		},
		{
			"buffer":0,
			"byteLength":384,
			"byteOffset":171844,
			"target":34962
		},
		{
			"buffer":0,
			"byteLength":256,
			"byteOffset":172228,
			"target":34962
		},
		{
			"buffer":0,
			"byteLength":288,
			"byteOffset":172484,
			"target":34962
		},
		{
			"buffer":0,
			"byteLength":288,
			"byteOffset":172772,
			"target":34962
		},
		{
			"buffer":0,
			"byteLength":192,
			"byteOffset":173060,
			"target":34962
		},
		{
			"buffer":0,
			"byteLength":5808,
			"byteOffset":173252,
			"target":34962
		},
		{
			"buffer":0,
			"byteLength":5808,
			"byteOffset":179060,
			"target":34962
		},
		{
			"buffer":0,
			"byteLength":3872,
			"byteOffset":184868,
			"target":34962
		},
		{
			"buffer":0,
			"byteLength":2640,
			"byteOffset":188740,
			"target":34962
		},
		{
			"buffer":0,
			"byteLength":2640,
			"byteOffset":191380,
			"target":34962
		},
		{
			"buffer":0,
			"byteLength":1760,
			"byteOffset":194020,
			"target":34962
		},
		{
			"buffer":0,
			"byteLength":576,
			"byteOffset":195780,
			"target":34962
		},
		{
			"buffer":0,
			"byteLength":576,
			"byteOffset":196356,
			"target":34962
		},
		{
			"buffer":0,
			"byteLength":384,
			"byteOffset":196932,
			"target":34962
		},
		{
			"buffer":0,
			"byteLength":9192,
			"byteOffset":197316,
			"target":34962
		},
		{
			"buffer":0,
			"byteLength":9192,
			"byteOffset":206508,
			"target":34962
		},
		{
			"buffer":0,
			"byteLength":6128,
			"byteOffset":215700,
			"target":34962
		},
		{
			"buffer":0,
			"byteLength":12256,
			"byteOffset":221828,
			"target":34962
		},
		{
			"buffer":0,
			"byteLength":3504,
			"byteOffset":234084,
			"target":34962
		},
		{
			"buffer":0,
			"byteLength":3504,
			"byteOffset":237588,
			"target":34962
		},
		{
			"buffer":0,
			"byteLength":2336,
			"byteOffset":241092,
			"target":34962
		},
		{
			"buffer":0,
			"byteLength":288,
			"byteOffset":243428,
			"target":34962
		},
		{
			"buffer":0,
			"byteLength":288,
			"byteOffset":243716,
			"target":34962
		},
		{
			"buffer":0,
			"byteLength":192,
			"byteOffset":244004,
			"target":34962
		},
		{
			"buffer":0,
			"byteLength":384,
			"byteOffset":244196,
			"target":34962
		},
		{
			"buffer":0,
			"byteLength":2664,
			"byteOffset":244580,
			"target":34962
		},
		{
			"buffer":0,
			"byteLength":2664,
			"byteOffset":247244,
			"target":34962
		},
		{
			"buffer":0,
			"byteLength":1776,
			"byteOffset":249908,
			"target":34962
		},
		{
			"buffer":0,
			"byteLength":144,
			"byteOffset":251684,
			"target":34962
		},
		{
			"buffer":0,
			"byteLength":144,
			"byteOffset":251828,
			"target":34962
		},
		{
			"buffer":0,
			"byteLength":96,
			"byteOffset":251972,
			"target":34962
		},
		{
			"buffer":0,
			"byteLength":288,
			"byteOffset":252068,
			"target":34962
		},
		{
			"buffer":0,
			"byteLength":288,
			"byteOffset":252356,
			"target":34962
		},
		{
			"buffer":0,
			"byteLength":192,
			"byteOffset":252644,
			"target":34962
		},
		{
			"buffer":0,
			"byteLength":384,
			"byteOffset":252836,
			"target":34962
		},
		{
			"buffer":0,
			"byteLength":768,
			"byteOffset":253220,
			"target":34962
		},
		{
			"buffer":0,
			"byteLength":768,
			"byteOffset":253988,
			"target":34962
		},
		{
			"buffer":0,
			"byteLength":512,
			"byteOffset":254756,
			"target":34962
		},
		{
			"buffer":0,
			"byteLength":1024,
			"byteOffset":255268,
			"target":34962
		},
		{
			"buffer":0,
			"byteLength":1152,
			"byteOffset":256292,
			"target":34962
		},
		{
			"buffer":0,
			"byteLength":1152,
			"byteOffset":257444,
			"target":34962
		},
		{
			"buffer":0,
			"byteLength":768,
			"byteOffset":258596,
			"target":34962
		},
		{
			"buffer":0,
			"byteLength":288,
			"byteOffset":259364,
			"target":34962
		},
		{
			"buffer":0,
			"byteLength":288,
			"byteOffset":259652,
			"target":34962
		},
		{
			"buffer":0,
			"byteLength":192,
			"byteOffset":259940,
			"target":34962
		},
		{
			"buffer":0,
			"byteLength":1776,
			"byteOffset":260132,
			"target":34962
		},
		{
			"buffer":0,
			"byteLength":1776,
			"byteOffset":261908,
			"target":34962
		},
		{
			"buffer":0,
			"byteLength":1184,
			"byteOffset":263684,
			"target":34962
		},
		{
			"buffer":0,
			"byteLength":2448,
			"byteOffset":264868,
			"target":34962
		},
		{
			"buffer":0,
			"byteLength":2448,
			"byteOffset":267316,
			"target":34962
		},
		{
			"buffer":0,
			"byteLength":1632,
			"byteOffset":269764,
			"target":34962
		},
		{
			"buffer":0,
			"byteLength":8952,
			"byteOffset":271396,
			"target":34962
		},
		{
			"buffer":0,
			"byteLength":8952,
			"byteOffset":280348,
			"target":34962
		},
		{
			"buffer":0,
			"byteLength":5968,
			"byteOffset":289300,
			"target":34962
		},
		{
			"buffer":0,
			"byteLength":288,
			"byteOffset":295268,
			"target":34962
		},
		{
			"buffer":0,
			"byteLength":288,
			"byteOffset":295556,
			"target":34962
		},
		{
			"buffer":0,
			"byteLength":192,
			"byteOffset":295844,
			"target":34962
		},
		{
			"buffer":0,
			"byteLength":2940,
			"byteOffset":296036,
			"target":34962
		},
		{
			"buffer":0,
			"byteLength":2940,
			"byteOffset":298976,
			"target":34962
		},
		{
			"buffer":0,
			"byteLength":1960,
			"byteOffset":301916,
			"target":34962
		},
		{
			"buffer":0,
			"byteLength":576,
			"byteOffset":303876,
			"target":34962
		},
		{
			"buffer":0,
			"byteLength":576,
			"byteOffset":304452,
			"target":34962
		},
		{
			"buffer":0,
			"byteLength":384,
			"byteOffset":305028,
			"target":34962
		},
		{
			"buffer":0,
			"byteLength":384,
			"byteOffset":305412,
			"target":34962
		},
		{
			"buffer":0,
			"byteLength":384,
			"byteOffset":305796,
			"target":34962
		},
		{
			"buffer":0,
			"byteLength":256,
			"byteOffset":306180,
			"target":34962
		},
		{
			"buffer":0,
			"byteLength":23832,
			"byteOffset":306436,
			"target":34962
		},
		{
			"buffer":0,
			"byteLength":23832,
			"byteOffset":330268,
			"target":34962
		},
		{
			"buffer":0,
			"byteLength":15888,
			"byteOffset":354100,
			"target":34962
		},
		{
			"buffer":0,
			"byteLength":6552,
			"byteOffset":369988,
			"target":34963
		},
		{
			"buffer":0,
			"byteLength":1296,
			"byteOffset":376540,
			"target":34962
		},
		{
			"buffer":0,
			"byteLength":1296,
			"byteOffset":377836,
			"target":34962
		},
		{
			"buffer":0,
			"byteLength":864,
			"byteOffset":379132,
			"target":34962
		},
		{
			"buffer":0,
			"byteLength":324,
			"byteOffset":379996,
			"target":34963
		},
		{
			"buffer":0,
			"byteLength":11616,
			"byteOffset":380320,
			"target":34962
		},
		{
			"buffer":0,
			"byteLength":11616,
			"byteOffset":391936,
			"target":34962
		},
		{
			"buffer":0,
			"byteLength":7744,
			"byteOffset":403552,
			"target":34962
		},
		{
			"buffer":0,
			"byteLength":3744,
			"byteOffset":411296,
			"target":34963
		},
		{
			"buffer":0,
			"byteLength":5280,
			"byteOffset":415040,
			"target":34962
		},
		{
			"buffer":0,
			"byteLength":5280,
			"byteOffset":420320,
			"target":34962
		},
		{
			"buffer":0,
			"byteLength":3520,
			"byteOffset":425600,
			"target":34962
		},
		{
			"buffer":0,
			"byteLength":1632,
			"byteOffset":429120,
			"target":34963
		},
		{
			"buffer":0,
			"byteLength":1152,
			"byteOffset":430752,
			"target":34962
		},
		{
			"buffer":0,
			"byteLength":1152,
			"byteOffset":431904,
			"target":34962
		},
		{
			"buffer":0,
			"byteLength":768,
			"byteOffset":433056,
			"target":34962
		},
		{
			"buffer":0,
			"byteLength":336,
			"byteOffset":433824,
			"target":34963
		},
		{
			"buffer":0,
			"byteLength":136344,
			"byteOffset":434160,
			"target":34962
		},
		{
			"buffer":0,
			"byteLength":136344,
			"byteOffset":570504,
			"target":34962
		},
		{
			"buffer":0,
			"byteLength":90896,
			"byteOffset":706848,
			"target":34962
		},
		{
			"buffer":0,
			"byteLength":39816,
			"byteOffset":797744,
			"target":34963
		},
		{
			"buffer":0,
			"byteLength":2592,
			"byteOffset":837560,
			"target":34962
		},
		{
			"buffer":0,
			"byteLength":2592,
			"byteOffset":840152,
			"target":34962
		},
		{
			"buffer":0,
			"byteLength":1728,
			"byteOffset":842744,
			"target":34962
		},
		{
			"buffer":0,
			"byteLength":648,
			"byteOffset":844472,
			"target":34963
		},
		{
			"buffer":0,
			"byteLength":7200,
			"byteOffset":845120,
			"target":34962
		},
		{
			"buffer":0,
			"byteLength":7200,
			"byteOffset":852320,
			"target":34962
		},
		{
			"buffer":0,
			"byteLength":4800,
			"byteOffset":859520,
			"target":34962
		},
		{
			"buffer":0,
			"byteLength":2568,
			"byteOffset":864320,
			"target":34963
		},
		{
			"buffer":0,
			"byteLength":2304,
			"byteOffset":866888,
			"target":34962
		},
		{
			"buffer":0,
			"byteLength":2304,
			"byteOffset":869192,
			"target":34962
		},
		{
			"buffer":0,
			"byteLength":1536,
			"byteOffset":871496,
			"target":34962
		},
		{
			"buffer":0,
			"byteLength":672,
			"byteOffset":873032,
			"target":34963
		},
		{
			"buffer":0,
			"byteLength":576,
			"byteOffset":873704,
			"target":34962
		},
		{
			"buffer":0,
			"byteLength":576,
			"byteOffset":874280,
			"target":34962
		},
		{
			"buffer":0,
			"byteLength":384,
			"byteOffset":874856,
			"target":34962
		},
		{
			"buffer":0,
			"byteLength":144,
			"byteOffset":875240,
			"target":34963
		},
		{
			"buffer":0,
			"byteLength":3552,
			"byteOffset":875384,
			"target":34962
		},
		{
			"buffer":0,
			"byteLength":3552,
			"byteOffset":878936,
			"target":34962
		},
		{
			"buffer":0,
			"byteLength":2368,
			"byteOffset":882488,
			"target":34962
		},
		{
			"buffer":0,
			"byteLength":960,
			"byteOffset":884856,
			"target":34963
		},
		{
			"buffer":0,
			"byteLength":7272,
			"byteOffset":885816,
			"target":34962
		},
		{
			"buffer":0,
			"byteLength":7272,
			"byteOffset":893088,
			"target":34962
		},
		{
			"buffer":0,
			"byteLength":4848,
			"byteOffset":900360,
			"target":34962
		},
		{
			"buffer":0,
			"byteLength":2844,
			"byteOffset":905208,
			"target":34963
		},
		{
			"buffer":0,
			"byteLength":26712,
			"byteOffset":908052,
			"target":34962
		},
		{
			"buffer":0,
			"byteLength":26712,
			"byteOffset":934764,
			"target":34962
		},
		{
			"buffer":0,
			"byteLength":17808,
			"byteOffset":961476,
			"target":34962
		},
		{
			"buffer":0,
			"byteLength":8136,
			"byteOffset":979284,
			"target":34963
		},
		{
			"buffer":0,
			"byteLength":864,
			"byteOffset":987420,
			"target":34962
		},
		{
			"buffer":0,
			"byteLength":864,
			"byteOffset":988284,
			"target":34962
		},
		{
			"buffer":0,
			"byteLength":576,
			"byteOffset":989148,
			"target":34962
		},
		{
			"buffer":0,
			"byteLength":216,
			"byteOffset":989724,
			"target":34963
		},
		{
			"buffer":0,
			"byteLength":5808,
			"byteOffset":989940,
			"target":34962
		},
		{
			"buffer":0,
			"byteLength":5808,
			"byteOffset":995748,
			"target":34962
		},
		{
			"buffer":0,
			"byteLength":3872,
			"byteOffset":1001556,
			"target":34962
		},
		{
			"buffer":0,
			"byteLength":1704,
			"byteOffset":1005428,
			"target":34963
		},
		{
			"buffer":0,
			"byteLength":1152,
			"byteOffset":1007132,
			"target":34962
		},
		{
			"buffer":0,
			"byteLength":1152,
			"byteOffset":1008284,
			"target":34962
		},
		{
			"buffer":0,
			"byteLength":768,
			"byteOffset":1009436,
			"target":34962
		},
		{
			"buffer":0,
			"byteLength":384,
			"byteOffset":1010204,
			"target":34963
		},
		{
			"buffer":0,
			"byteLength":768,
			"byteOffset":1010588,
			"target":34962
		},
		{
			"buffer":0,
			"byteLength":768,
			"byteOffset":1011356,
			"target":34962
		},
		{
			"buffer":0,
			"byteLength":512,
			"byteOffset":1012124,
			"target":34962
		},
		{
			"buffer":0,
			"byteLength":240,
			"byteOffset":1012636,
			"target":34963
		},
		{
			"buffer":0,
			"byteLength":6384,
			"byteOffset":1012876,
			"target":34962
		},
		{
			"buffer":0,
			"byteLength":6384,
			"byteOffset":1019260,
			"target":34962
		},
		{
			"buffer":0,
			"byteLength":4256,
			"byteOffset":1025644,
			"target":34962
		},
		{
			"buffer":0,
			"byteLength":2112,
			"byteOffset":1029900,
			"target":34963
		},
		{
			"buffer":0,
			"byteLength":2208,
			"byteOffset":1032012,
			"target":34962
		},
		{
			"buffer":0,
			"byteLength":2208,
			"byteOffset":1034220,
			"target":34962
		},
		{
			"buffer":0,
			"byteLength":1472,
			"byteOffset":1036428,
			"target":34962
		},
		{
			"buffer":0,
			"byteLength":600,
			"byteOffset":1037900,
			"target":34963
		},
		{
			"buffer":0,
			"byteLength":1776,
			"byteOffset":1038500,
			"target":34962
		},
		{
			"buffer":0,
			"byteLength":1776,
			"byteOffset":1040276,
			"target":34962
		},
		{
			"buffer":0,
			"byteLength":1184,
			"byteOffset":1042052,
			"target":34962
		},
		{
			"buffer":0,
			"byteLength":624,
			"byteOffset":1043236,
			"target":34963
		},
		{
			"buffer":0,
			"byteLength":6240,
			"byteOffset":1043860,
			"target":34962
		},
		{
			"buffer":0,
			"byteLength":6240,
			"byteOffset":1050100,
			"target":34962
		},
		{
			"buffer":0,
			"byteLength":4160,
			"byteOffset":1056340,
			"target":34962
		},
		{
			"buffer":0,
			"byteLength":1992,
			"byteOffset":1060500,
			"target":34963
		},
		{
			"buffer":0,
			"byteLength":1152,
			"byteOffset":1062492,
			"target":34962
		},
		{
			"buffer":0,
			"byteLength":1152,
			"byteOffset":1063644,
			"target":34962
		},
		{
			"buffer":0,
			"byteLength":768,
			"byteOffset":1064796,
			"target":34962
		},
		{
			"buffer":0,
			"byteLength":360,
			"byteOffset":1065564,
			"target":34963
		},
		{
			"buffer":0,
			"byteLength":864,
			"byteOffset":1065924,
			"target":34962
		},
		{
			"buffer":0,
			"byteLength":864,
			"byteOffset":1066788,
			"target":34962
		},
		{
			"buffer":0,
			"byteLength":576,
			"byteOffset":1067652,
			"target":34962
		},
		{
			"buffer":0,
			"byteLength":252,
			"byteOffset":1068228,
			"target":34963
		}
	],
	"buffers":[
		{
			"byteLength":1068480,
			"uri":"House_01-7d25e0d25436b7840beb29c725f9075d.bin"
		}
	]
}
