{
	"asset":{
		"generator":"Khronos glTF Blender I/O v4.3.47",
		"version":"2.0"
	},
	"scene":0,
	"scenes":[
		{
			"name":"Scene",
			"nodes":[
				0
			]
		}
	],
	"nodes":[
		{
			"mesh":0,
			"name":"House_02"
		}
	],
	"materials":[
		{
			"doubleSided":true,
			"name":"Brown_House02",
			"pbrMetallicRoughness":{
				"baseColorFactor":[
					0.47353148460388184,
					0.28744083642959595,
					0.17788845300674438,
					1
				],
				"metallicFactor":0,
				"roughnessFactor":0.5
			}
		},
		{
			"doubleSided":true,
			"name":"Gray_House02",
			"pbrMetallicRoughness":{
				"baseColorFactor":[
					0.5840784907341003,
					0.5775806307792664,
					0.5520114898681641,
					1
				],
				"metallicFactor":0,
				"roughnessFactor":0.5
			}
		},
		{
			"doubleSided":true,
			"name":"Iron_House02",
			"pbrMetallicRoughness":{
				"baseColorFactor":[
					0.3108133375644684,
					0.3108133375644684,
					0.3108133375644684,
					1
				],
				"metallicFactor":0,
				"roughnessFactor":0.5
			}
		},
		{
			"doubleSided":true,
			"name":"Cream_House02",
			"pbrMetallicRoughness":{
				"baseColorFactor":[
					0.8796226382255554,
					0.854992687702179,
					0.7379105091094971,
					1
				],
				"metallicFactor":0,
				"roughnessFactor":0.5
			}
		},
		{
			"doubleSided":true,
			"name":"Gold_House02",
			"pbrMetallicRoughness":{
				"baseColorFactor":[
					0.710554301738739,
					0.6892626285552979,
					0.1168026551604271,
					1
				],
				"metallicFactor":0,
				"roughnessFactor":0.5
			}
		},
		{
			"doubleSided":true,
			"name":"Cream_House02.001",
			"pbrMetallicRoughness":{
				"baseColorFactor":[
					0.8796226382255554,
					0.854992687702179,
					0.7379105091094971,
					1
				],
				"metallicFactor":0,
				"roughnessFactor":0.5
			}
		},
		{
			"doubleSided":true,
			"name":"Cream_House02.002",
			"pbrMetallicRoughness":{
				"baseColorFactor":[
					0.8796226382255554,
					0.854992687702179,
					0.7379105091094971,
					1
				],
				"metallicFactor":0,
				"roughnessFactor":0.5
			}
		},
		{
			"doubleSided":true,
			"name":"Gray_House02.001",
			"pbrMetallicRoughness":{
				"baseColorFactor":[
					0.5840784907341003,
					0.5775806307792664,
					0.5520114898681641,
					1
				],
				"metallicFactor":0,
				"roughnessFactor":0.5
			}
		},
		{
			"doubleSided":true,
			"name":"Gray_House02.003",
			"pbrMetallicRoughness":{
				"baseColorFactor":[
					0.5840784907341003,
					0.5775806307792664,
					0.5520114898681641,
					1
				],
				"metallicFactor":0,
				"roughnessFactor":0.5
			}
		},
		{
			"doubleSided":true,
			"name":"Brown_House02.001",
			"pbrMetallicRoughness":{
				"baseColorFactor":[
					0.47353148460388184,
					0.28744083642959595,
					0.17788845300674438,
					1
				],
				"metallicFactor":0,
				"roughnessFactor":0.5
			}
		},
		{
			"doubleSided":true,
			"name":"Cream_House02.004",
			"pbrMetallicRoughness":{
				"baseColorFactor":[
					0.8796226382255554,
					0.854992687702179,
					0.7379105091094971,
					1
				],
				"metallicFactor":0,
				"roughnessFactor":0.5
			}
		},
		{
			"doubleSided":true,
			"name":"Window_House02",
			"pbrMetallicRoughness":{
				"baseColorFactor":[
					0.2614840865135193,
					0.33923548460006714,
					0.597201943397522,
					1
				],
				"metallicFactor":0,
				"roughnessFactor":0.5
			}
		},
		{
			"doubleSided":true,
			"name":"Cream_House02.005",
			"pbrMetallicRoughness":{
				"baseColorFactor":[
					0.8796226382255554,
					0.854992687702179,
					0.7379105091094971,
					1
				],
				"metallicFactor":0,
				"roughnessFactor":0.5
			}
		},
		{
			"doubleSided":true,
			"name":"Gray_House02.004",
			"pbrMetallicRoughness":{
				"baseColorFactor":[
					0.5840784907341003,
					0.5775806307792664,
					0.5520114898681641,
					1
				],
				"metallicFactor":0,
				"roughnessFactor":0.5
			}
		},
		{
			"doubleSided":true,
			"name":"Brown_House02.002",
			"pbrMetallicRoughness":{
				"baseColorFactor":[
					0.47353148460388184,
					0.28744083642959595,
					0.17788845300674438,
					1
				],
				"metallicFactor":0,
				"roughnessFactor":0.5
			}
		},
		{
			"doubleSided":true,
			"name":"Window_House02.001",
			"pbrMetallicRoughness":{
				"baseColorFactor":[
					0.2614840865135193,
					0.33923548460006714,
					0.597201943397522,
					1
				],
				"metallicFactor":0,
				"roughnessFactor":0.5
			}
		},
		{
			"doubleSided":true,
			"name":"BlueRoof_House02",
			"pbrMetallicRoughness":{
				"baseColorFactor":[
					0.2541521489620209,
					0.48514997959136963,
					0.597201943397522,
					1
				],
				"metallicFactor":0,
				"roughnessFactor":0.5
			}
		},
		{
			"doubleSided":true,
			"name":"White_House02",
			"pbrMetallicRoughness":{
				"baseColorFactor":[
					0.9822508096694946,
					0.9473068714141846,
					0.921582043170929,
					1
				],
				"metallicFactor":0,
				"roughnessFactor":0.5
			}
		}
	],
	"meshes":[
		{
			"name":"Cube.001",
			"primitives":[
				{
					"attributes":{
						"POSITION":0,
						"NORMAL":1,
						"TEXCOORD_0":2
					},
					"indices":3,
					"material":0
				},
				{
					"attributes":{
						"POSITION":4,
						"NORMAL":5,
						"TEXCOORD_0":6
					},
					"indices":7,
					"material":1
				},
				{
					"attributes":{
						"POSITION":8,
						"NORMAL":9,
						"TEXCOORD_0":10
					},
					"indices":11,
					"material":2
				},
				{
					"attributes":{
						"POSITION":12,
						"NORMAL":13,
						"TEXCOORD_0":14
					},
					"indices":15,
					"material":3
				},
				{
					"attributes":{
						"POSITION":16,
						"NORMAL":17,
						"TEXCOORD_0":18
					},
					"indices":19,
					"material":4
				},
				{
					"attributes":{
						"POSITION":20,
						"NORMAL":21,
						"TEXCOORD_0":22
					},
					"indices":23,
					"material":5
				},
				{
					"attributes":{
						"POSITION":24,
						"NORMAL":25,
						"TEXCOORD_0":26
					},
					"indices":27,
					"material":6
				},
				{
					"attributes":{
						"POSITION":28,
						"NORMAL":29,
						"TEXCOORD_0":30
					},
					"indices":31,
					"material":7
				},
				{
					"attributes":{
						"POSITION":32,
						"NORMAL":33,
						"TEXCOORD_0":34
					},
					"indices":35,
					"material":8
				},
				{
					"attributes":{
						"POSITION":36,
						"NORMAL":37,
						"TEXCOORD_0":38
					},
					"indices":39,
					"material":9
				},
				{
					"attributes":{
						"POSITION":40,
						"NORMAL":41,
						"TEXCOORD_0":42
					},
					"indices":43,
					"material":10
				},
				{
					"attributes":{
						"POSITION":44,
						"NORMAL":45,
						"TEXCOORD_0":46
					},
					"indices":47,
					"material":11
				},
				{
					"attributes":{
						"POSITION":48,
						"NORMAL":49,
						"TEXCOORD_0":50
					},
					"indices":51,
					"material":12
				},
				{
					"attributes":{
						"POSITION":52,
						"NORMAL":53,
						"TEXCOORD_0":54
					},
					"indices":55,
					"material":13
				},
				{
					"attributes":{
						"POSITION":56,
						"NORMAL":57,
						"TEXCOORD_0":58
					},
					"indices":59,
					"material":14
				},
				{
					"attributes":{
						"POSITION":60,
						"NORMAL":61,
						"TEXCOORD_0":62
					},
					"indices":63,
					"material":15
				},
				{
					"attributes":{
						"POSITION":64,
						"NORMAL":65,
						"TEXCOORD_0":66
					},
					"indices":67,
					"material":16
				},
				{
					"attributes":{
						"POSITION":68,
						"NORMAL":69,
						"TEXCOORD_0":70
					},
					"indices":71,
					"material":17
				}
			]
		}
	],
	"accessors":[
		{
			"bufferView":0,
			"componentType":5126,
			"count":666,
			"max":[
				4.619450569152832,
				-2.0771162509918213,
				3.730579376220703
			],
			"min":[
				4.440494537353516,
				-4.458191394805908,
				0.9043970108032227
			],
			"type":"VEC3"
		},
		{
			"bufferView":1,
			"componentType":5126,
			"count":666,
			"type":"VEC3"
		},
		{
			"bufferView":2,
			"componentType":5126,
			"count":666,
			"type":"VEC2"
		},
		{
			"bufferView":3,
			"componentType":5123,
			"count":1704,
			"type":"SCALAR"
		},
		{
			"bufferView":4,
			"componentType":5126,
			"count":90,
			"max":[
				4.70082426071167,
				-0.7819387316703796,
				4.722405910491943
			],
			"min":[
				4.3591203689575195,
				-4.461460590362549,
				-0.08743054419755936
			],
			"type":"VEC3"
		},
		{
			"bufferView":5,
			"componentType":5126,
			"count":90,
			"type":"VEC3"
		},
		{
			"bufferView":6,
			"componentType":5126,
			"count":90,
			"type":"VEC2"
		},
		{
			"bufferView":7,
			"componentType":5123,
			"count":204,
			"type":"SCALAR"
		},
		{
			"bufferView":8,
			"componentType":5126,
			"count":72,
			"max":[
				4.626742839813232,
				-2.958216667175293,
				2.4466936588287354
			],
			"min":[
				4.433202266693115,
				-3.1601903438568115,
				2.33185076713562
			],
			"type":"VEC3"
		},
		{
			"bufferView":9,
			"componentType":5126,
			"count":72,
			"type":"VEC3"
		},
		{
			"bufferView":10,
			"componentType":5126,
			"count":72,
			"type":"VEC2"
		},
		{
			"bufferView":11,
			"componentType":5123,
			"count":120,
			"type":"SCALAR"
		},
		{
			"bufferView":12,
			"componentType":5126,
			"count":48,
			"max":[
				4.659972667694092,
				-1.1258366107940674,
				4.367081642150879
			],
			"min":[
				4.399972438812256,
				-4.454678058624268,
				0.2678942084312439
			],
			"type":"VEC3"
		},
		{
			"bufferView":13,
			"componentType":5126,
			"count":48,
			"type":"VEC3"
		},
		{
			"bufferView":14,
			"componentType":5126,
			"count":48,
			"type":"VEC2"
		},
		{
			"bufferView":15,
			"componentType":5123,
			"count":84,
			"type":"SCALAR"
		},
		{
			"bufferView":16,
			"componentType":5126,
			"count":464,
			"max":[
				4.712972164154053,
				-2.7715063095092773,
				2.5335090160369873
			],
			"min":[
				4.346972942352295,
				-3.4985921382904053,
				2.1014673709869385
			],
			"type":"VEC3"
		},
		{
			"bufferView":17,
			"componentType":5126,
			"count":464,
			"type":"VEC3"
		},
		{
			"bufferView":18,
			"componentType":5126,
			"count":464,
			"type":"VEC2"
		},
		{
			"bufferView":19,
			"componentType":5123,
			"count":936,
			"type":"SCALAR"
		},
		{
			"bufferView":20,
			"componentType":5126,
			"count":1452,
			"max":[
				4.700824737548828,
				2.8180618286132812,
				9.659104347229004
			],
			"min":[
				-5.279587268829346,
				-0.7862681150436401,
				-10.090017318725586
			],
			"type":"VEC3"
		},
		{
			"bufferView":21,
			"componentType":5126,
			"count":1452,
			"type":"VEC3"
		},
		{
			"bufferView":22,
			"componentType":5126,
			"count":1452,
			"type":"VEC2"
		},
		{
			"bufferView":23,
			"componentType":5123,
			"count":2880,
			"type":"SCALAR"
		},
		{
			"bufferView":24,
			"componentType":5126,
			"count":120,
			"max":[
				4.003795146942139,
				-1.12583589553833,
				9.491081237792969
			],
			"min":[
				-5.220006465911865,
				-4.134677410125732,
				-9.693788528442383
			],
			"type":"VEC3"
		},
		{
			"bufferView":25,
			"componentType":5126,
			"count":120,
			"type":"VEC3"
		},
		{
			"bufferView":26,
			"componentType":5126,
			"count":120,
			"type":"VEC2"
		},
		{
			"bufferView":27,
			"componentType":5123,
			"count":180,
			"type":"SCALAR"
		},
		{
			"bufferView":28,
			"componentType":5126,
			"count":464,
			"max":[
				4.359118938446045,
				-0.7819380760192871,
				9.531932830810547
			],
			"min":[
				-5.260858058929443,
				-4.458846092224121,
				-10.049113273620605
			],
			"type":"VEC3"
		},
		{
			"bufferView":29,
			"componentType":5126,
			"count":464,
			"type":"VEC3"
		},
		{
			"bufferView":30,
			"componentType":5126,
			"count":464,
			"type":"VEC2"
		},
		{
			"bufferView":31,
			"componentType":5123,
			"count":1188,
			"type":"SCALAR"
		},
		{
			"bufferView":32,
			"componentType":5126,
			"count":196,
			"max":[
				-0.10931248962879181,
				-0.7862672805786133,
				9.531932830810547
			],
			"min":[
				-5.260854244232178,
				-4.458845615386963,
				-0.42944133281707764
			],
			"type":"VEC3"
		},
		{
			"bufferView":33,
			"componentType":5126,
			"count":196,
			"type":"VEC3"
		},
		{
			"bufferView":34,
			"componentType":5126,
			"count":196,
			"type":"VEC2"
		},
		{
			"bufferView":35,
			"componentType":5123,
			"count":480,
			"type":"SCALAR"
		},
		{
			"bufferView":36,
			"componentType":5126,
			"count":1320,
			"max":[
				-0.20856328308582306,
				-1.3984614610671997,
				8.616399765014648
			],
			"min":[
				-5.160525798797607,
				-2.9201748371124268,
				0.5314961671829224
			],
			"type":"VEC3"
		},
		{
			"bufferView":37,
			"componentType":5126,
			"count":1320,
			"type":"VEC3"
		},
		{
			"bufferView":38,
			"componentType":5126,
			"count":1320,
			"type":"VEC2"
		},
		{
			"bufferView":39,
			"componentType":5123,
			"count":2844,
			"type":"SCALAR"
		},
		{
			"bufferView":40,
			"componentType":5126,
			"count":104,
			"max":[
				-0.15016408264636993,
				-1.1301651000976562,
				9.17660903930664
			],
			"min":[
				-5.2200026512146,
				-4.134677410125732,
				-0.0741172581911087
			],
			"type":"VEC3"
		},
		{
			"bufferView":41,
			"componentType":5126,
			"count":104,
			"type":"VEC3"
		},
		{
			"bufferView":42,
			"componentType":5126,
			"count":104,
			"type":"VEC2"
		},
		{
			"bufferView":43,
			"componentType":5123,
			"count":216,
			"type":"SCALAR"
		},
		{
			"bufferView":44,
			"componentType":5126,
			"count":144,
			"max":[
				-0.2522096037864685,
				-1.497528314590454,
				8.47120475769043
			],
			"min":[
				-5.116879940032959,
				-2.821108102798462,
				0.6077919006347656
			],
			"type":"VEC3"
		},
		{
			"bufferView":45,
			"componentType":5126,
			"count":144,
			"type":"VEC3"
		},
		{
			"bufferView":46,
			"componentType":5126,
			"count":144,
			"type":"VEC2"
		},
		{
			"bufferView":47,
			"componentType":5123,
			"count":216,
			"type":"SCALAR"
		},
		{
			"bufferView":48,
			"componentType":5126,
			"count":200,
			"max":[
				4.659972667694092,
				-1.125834584236145,
				5.023257255554199
			],
			"min":[
				-4.563525676727295,
				-4.1303486824035645,
				-10.007950782775879
			],
			"type":"VEC3"
		},
		{
			"bufferView":49,
			"componentType":5126,
			"count":200,
			"type":"VEC3"
		},
		{
			"bufferView":50,
			"componentType":5126,
			"count":200,
			"type":"VEC2"
		},
		{
			"bufferView":51,
			"componentType":5123,
			"count":408,
			"type":"SCALAR"
		},
		{
			"bufferView":52,
			"componentType":5126,
			"count":396,
			"max":[
				4.700825214385986,
				-0.781936764717102,
				5.0641093254089355
			],
			"min":[
				-4.918849468231201,
				-4.454517841339111,
				-10.048802375793457
			],
			"type":"VEC3"
		},
		{
			"bufferView":53,
			"componentType":5126,
			"count":396,
			"type":"VEC3"
		},
		{
			"bufferView":54,
			"componentType":5126,
			"count":396,
			"type":"VEC2"
		},
		{
			"bufferView":55,
			"componentType":5123,
			"count":972,
			"type":"SCALAR"
		},
		{
			"bufferView":56,
			"componentType":5126,
			"count":1696,
			"max":[
				4.558877468109131,
				-1.3599525690078735,
				4.9221625328063965
			],
			"min":[
				-3.7491841316223145,
				-3.8080577850341797,
				-9.906855583190918
			],
			"type":"VEC3"
		},
		{
			"bufferView":57,
			"componentType":5126,
			"count":1696,
			"type":"VEC3"
		},
		{
			"bufferView":58,
			"componentType":5126,
			"count":1696,
			"type":"VEC2"
		},
		{
			"bufferView":59,
			"componentType":5123,
			"count":4608,
			"type":"SCALAR"
		},
		{
			"bufferView":60,
			"componentType":5126,
			"count":288,
			"max":[
				4.53156852722168,
				-1.4270039796829224,
				4.8948540687561035
			],
			"min":[
				-3.686826229095459,
				-3.741006374359131,
				-9.879547119140625
			],
			"type":"VEC3"
		},
		{
			"bufferView":61,
			"componentType":5126,
			"count":288,
			"type":"VEC3"
		},
		{
			"bufferView":62,
			"componentType":5126,
			"count":288,
			"type":"VEC2"
		},
		{
			"bufferView":63,
			"componentType":5123,
			"count":432,
			"type":"SCALAR"
		},
		{
			"bufferView":64,
			"componentType":5126,
			"count":19712,
			"max":[
				7.013323783874512,
				2.6729183197021484,
				10.090033531188965
			],
			"min":[
				-5.543948650360107,
				-1.0970202684402466,
				-10.510382652282715
			],
			"type":"VEC3"
		},
		{
			"bufferView":65,
			"componentType":5126,
			"count":19712,
			"type":"VEC3"
		},
		{
			"bufferView":66,
			"componentType":5126,
			"count":19712,
			"type":"VEC2"
		},
		{
			"bufferView":67,
			"componentType":5123,
			"count":34656,
			"type":"SCALAR"
		},
		{
			"bufferView":68,
			"componentType":5126,
			"count":1024,
			"max":[
				7.054571628570557,
				2.939065933227539,
				10.102518081665039
			],
			"min":[
				-5.419592380523682,
				-1.1619170904159546,
				-10.544756889343262
			],
			"type":"VEC3"
		},
		{
			"bufferView":69,
			"componentType":5126,
			"count":1024,
			"type":"VEC3"
		},
		{
			"bufferView":70,
			"componentType":5126,
			"count":1024,
			"type":"VEC2"
		},
		{
			"bufferView":71,
			"componentType":5123,
			"count":1728,
			"type":"SCALAR"
		}
	],
	"bufferViews":[
		{
			"buffer":0,
			"byteLength":7992,
			"byteOffset":0,
			"target":34962
		},
		{
			"buffer":0,
			"byteLength":7992,
			"byteOffset":7992,
			"target":34962
		},
		{
			"buffer":0,
			"byteLength":5328,
			"byteOffset":15984,
			"target":34962
		},
		{
			"buffer":0,
			"byteLength":3408,
			"byteOffset":21312,
			"target":34963
		},
		{
			"buffer":0,
			"byteLength":1080,
			"byteOffset":24720,
			"target":34962
		},
		{
			"buffer":0,
			"byteLength":1080,
			"byteOffset":25800,
			"target":34962
		},
		{
			"buffer":0,
			"byteLength":720,
			"byteOffset":26880,
			"target":34962
		},
		{
			"buffer":0,
			"byteLength":408,
			"byteOffset":27600,
			"target":34963
		},
		{
			"buffer":0,
			"byteLength":864,
			"byteOffset":28008,
			"target":34962
		},
		{
			"buffer":0,
			"byteLength":864,
			"byteOffset":28872,
			"target":34962
		},
		{
			"buffer":0,
			"byteLength":576,
			"byteOffset":29736,
			"target":34962
		},
		{
			"buffer":0,
			"byteLength":240,
			"byteOffset":30312,
			"target":34963
		},
		{
			"buffer":0,
			"byteLength":576,
			"byteOffset":30552,
			"target":34962
		},
		{
			"buffer":0,
			"byteLength":576,
			"byteOffset":31128,
			"target":34962
		},
		{
			"buffer":0,
			"byteLength":384,
			"byteOffset":31704,
			"target":34962
		},
		{
			"buffer":0,
			"byteLength":168,
			"byteOffset":32088,
			"target":34963
		},
		{
			"buffer":0,
			"byteLength":5568,
			"byteOffset":32256,
			"target":34962
		},
		{
			"buffer":0,
			"byteLength":5568,
			"byteOffset":37824,
			"target":34962
		},
		{
			"buffer":0,
			"byteLength":3712,
			"byteOffset":43392,
			"target":34962
		},
		{
			"buffer":0,
			"byteLength":1872,
			"byteOffset":47104,
			"target":34963
		},
		{
			"buffer":0,
			"byteLength":17424,
			"byteOffset":48976,
			"target":34962
		},
		{
			"buffer":0,
			"byteLength":17424,
			"byteOffset":66400,
			"target":34962
		},
		{
			"buffer":0,
			"byteLength":11616,
			"byteOffset":83824,
			"target":34962
		},
		{
			"buffer":0,
			"byteLength":5760,
			"byteOffset":95440,
			"target":34963
		},
		{
			"buffer":0,
			"byteLength":1440,
			"byteOffset":101200,
			"target":34962
		},
		{
			"buffer":0,
			"byteLength":1440,
			"byteOffset":102640,
			"target":34962
		},
		{
			"buffer":0,
			"byteLength":960,
			"byteOffset":104080,
			"target":34962
		},
		{
			"buffer":0,
			"byteLength":360,
			"byteOffset":105040,
			"target":34963
		},
		{
			"buffer":0,
			"byteLength":5568,
			"byteOffset":105400,
			"target":34962
		},
		{
			"buffer":0,
			"byteLength":5568,
			"byteOffset":110968,
			"target":34962
		},
		{
			"buffer":0,
			"byteLength":3712,
			"byteOffset":116536,
			"target":34962
		},
		{
			"buffer":0,
			"byteLength":2376,
			"byteOffset":120248,
			"target":34963
		},
		{
			"buffer":0,
			"byteLength":2352,
			"byteOffset":122624,
			"target":34962
		},
		{
			"buffer":0,
			"byteLength":2352,
			"byteOffset":124976,
			"target":34962
		},
		{
			"buffer":0,
			"byteLength":1568,
			"byteOffset":127328,
			"target":34962
		},
		{
			"buffer":0,
			"byteLength":960,
			"byteOffset":128896,
			"target":34963
		},
		{
			"buffer":0,
			"byteLength":15840,
			"byteOffset":129856,
			"target":34962
		},
		{
			"buffer":0,
			"byteLength":15840,
			"byteOffset":145696,
			"target":34962
		},
		{
			"buffer":0,
			"byteLength":10560,
			"byteOffset":161536,
			"target":34962
		},
		{
			"buffer":0,
			"byteLength":5688,
			"byteOffset":172096,
			"target":34963
		},
		{
			"buffer":0,
			"byteLength":1248,
			"byteOffset":177784,
			"target":34962
		},
		{
			"buffer":0,
			"byteLength":1248,
			"byteOffset":179032,
			"target":34962
		},
		{
			"buffer":0,
			"byteLength":832,
			"byteOffset":180280,
			"target":34962
		},
		{
			"buffer":0,
			"byteLength":432,
			"byteOffset":181112,
			"target":34963
		},
		{
			"buffer":0,
			"byteLength":1728,
			"byteOffset":181544,
			"target":34962
		},
		{
			"buffer":0,
			"byteLength":1728,
			"byteOffset":183272,
			"target":34962
		},
		{
			"buffer":0,
			"byteLength":1152,
			"byteOffset":185000,
			"target":34962
		},
		{
			"buffer":0,
			"byteLength":432,
			"byteOffset":186152,
			"target":34963
		},
		{
			"buffer":0,
			"byteLength":2400,
			"byteOffset":186584,
			"target":34962
		},
		{
			"buffer":0,
			"byteLength":2400,
			"byteOffset":188984,
			"target":34962
		},
		{
			"buffer":0,
			"byteLength":1600,
			"byteOffset":191384,
			"target":34962
		},
		{
			"buffer":0,
			"byteLength":816,
			"byteOffset":192984,
			"target":34963
		},
		{
			"buffer":0,
			"byteLength":4752,
			"byteOffset":193800,
			"target":34962
		},
		{
			"buffer":0,
			"byteLength":4752,
			"byteOffset":198552,
			"target":34962
		},
		{
			"buffer":0,
			"byteLength":3168,
			"byteOffset":203304,
			"target":34962
		},
		{
			"buffer":0,
			"byteLength":1944,
			"byteOffset":206472,
			"target":34963
		},
		{
			"buffer":0,
			"byteLength":20352,
			"byteOffset":208416,
			"target":34962
		},
		{
			"buffer":0,
			"byteLength":20352,
			"byteOffset":228768,
			"target":34962
		},
		{
			"buffer":0,
			"byteLength":13568,
			"byteOffset":249120,
			"target":34962
		},
		{
			"buffer":0,
			"byteLength":9216,
			"byteOffset":262688,
			"target":34963
		},
		{
			"buffer":0,
			"byteLength":3456,
			"byteOffset":271904,
			"target":34962
		},
		{
			"buffer":0,
			"byteLength":3456,
			"byteOffset":275360,
			"target":34962
		},
		{
			"buffer":0,
			"byteLength":2304,
			"byteOffset":278816,
			"target":34962
		},
		{
			"buffer":0,
			"byteLength":864,
			"byteOffset":281120,
			"target":34963
		},
		{
			"buffer":0,
			"byteLength":236544,
			"byteOffset":281984,
			"target":34962
		},
		{
			"buffer":0,
			"byteLength":236544,
			"byteOffset":518528,
			"target":34962
		},
		{
			"buffer":0,
			"byteLength":157696,
			"byteOffset":755072,
			"target":34962
		},
		{
			"buffer":0,
			"byteLength":69312,
			"byteOffset":912768,
			"target":34963
		},
		{
			"buffer":0,
			"byteLength":12288,
			"byteOffset":982080,
			"target":34962
		},
		{
			"buffer":0,
			"byteLength":12288,
			"byteOffset":994368,
			"target":34962
		},
		{
			"buffer":0,
			"byteLength":8192,
			"byteOffset":1006656,
			"target":34962
		},
		{
			"buffer":0,
			"byteLength":3456,
			"byteOffset":1014848,
			"target":34963
		}
	],
	"buffers":[
		{
			"byteLength":1018304,
			"uri":"House_02-1eb7f4ca2005726260fb84e2aacb1900.bin"
		}
	]
}
