{
	"asset":{
		"generator":"Khronos glTF Blender I/O v4.3.47",
		"version":"2.0"
	},
	"extensionsUsed":[
		"KHR_lights_punctual"
	],
	"extensionsRequired":[
		"KHR_lights_punctual"
	],
	"extensions":{
		"KHR_lights_punctual":{
			"lights":[
				{
					"color":[
						1,
						0.9119594693183899,
						0.7428030967712402
					],
					"intensity":894.7299609184265,
					"type":"directional",
					"name":"Sun"
				},
				{
					"color":[
						1,
						0.9119594693183899,
						0.7428030967712402
					],
					"intensity":894.7299609184265,
					"type":"directional",
					"name":"Sun.001"
				}
			]
		}
	},
	"scene":0,
	"scenes":[
		{
			"name":"Scene",
			"nodes":[
				0,
				1,
				2
			]
		}
	],
	"nodes":[
		{
			"mesh":0,
			"name":"House_04"
		},
		{
			"extensions":{
				"KHR_lights_punctual":{
					"light":0
				}
			},
			"name":"Sun",
			"rotation":[
				-0.22421669960021973,
				0.08203262835741043,
				0.2406080663204193,
				0.9408003687858582
			],
			"translation":[
				-26.676538467407227,
				-7.317510604858398,
				32.92578887939453
			]
		},
		{
			"extensions":{
				"KHR_lights_punctual":{
					"light":1
				}
			},
			"name":"Sun.001",
			"rotation":[
				-0.885979413986206,
				0.1348104476928711,
				-0.21663980185985565,
				0.38721296191215515
			],
			"translation":[
				-26.676538467407227,
				-7.317510604858398,
				32.92578887939453
			]
		}
	],
	"materials":[
		{
			"doubleSided":true,
			"name":"Wood_house04",
			"pbrMetallicRoughness":{
				"baseColorFactor":[
					0.6938718557357788,
					0.5583405494689941,
					0.29177066683769226,
					1
				],
				"metallicFactor":0,
				"roughnessFactor":0.5
			}
		},
		{
			"doubleSided":true,
			"name":"Cream_house04",
			"pbrMetallicRoughness":{
				"baseColorFactor":[
					0.8796226382255554,
					0.8713672757148743,
					0.8307698369026184,
					1
				],
				"metallicFactor":0,
				"roughnessFactor":0.5
			}
		},
		{
			"doubleSided":true,
			"name":"Window_house04",
			"pbrMetallicRoughness":{
				"baseColorFactor":[
					0.31398868560791016,
					0.40724021196365356,
					0.6724432706832886,
					1
				],
				"metallicFactor":0,
				"roughnessFactor":0.5
			}
		},
		{
			"doubleSided":true,
			"name":"Gray_house04",
			"pbrMetallicRoughness":{
				"baseColorFactor":[
					0.6795427203178406,
					0.6239604353904724,
					0.6104956865310669,
					1
				],
				"metallicFactor":0,
				"roughnessFactor":0.5
			}
		},
		{
			"doubleSided":true,
			"name":"Wood_house04.001",
			"pbrMetallicRoughness":{
				"baseColorFactor":[
					0.6938718557357788,
					0.5583405494689941,
					0.29177066683769226,
					1
				],
				"metallicFactor":0,
				"roughnessFactor":0.5
			}
		},
		{
			"doubleSided":true,
			"name":"Cream_house04.001",
			"pbrMetallicRoughness":{
				"baseColorFactor":[
					0.8796226382255554,
					0.8713672757148743,
					0.8307698369026184,
					1
				],
				"metallicFactor":0,
				"roughnessFactor":0.5
			}
		},
		{
			"doubleSided":true,
			"name":"Gray_house04.001",
			"pbrMetallicRoughness":{
				"baseColorFactor":[
					0.6795427203178406,
					0.6239604353904724,
					0.6104956865310669,
					1
				],
				"metallicFactor":0,
				"roughnessFactor":0.5
			}
		},
		{
			"doubleSided":true,
			"name":"Window_house04.001",
			"pbrMetallicRoughness":{
				"baseColorFactor":[
					0.31398868560791016,
					0.40724021196365356,
					0.6724432706832886,
					1
				],
				"metallicFactor":0,
				"roughnessFactor":0.5
			}
		},
		{
			"doubleSided":true,
			"name":"Gray_house04.002",
			"pbrMetallicRoughness":{
				"baseColorFactor":[
					0.6795427203178406,
					0.6239604353904724,
					0.6104956865310669,
					1
				],
				"metallicFactor":0,
				"roughnessFactor":0.5
			}
		},
		{
			"doubleSided":true,
			"name":"Wood_house04.005",
			"pbrMetallicRoughness":{
				"baseColorFactor":[
					0.6938718557357788,
					0.5583405494689941,
					0.29177066683769226,
					1
				],
				"metallicFactor":0,
				"roughnessFactor":0.5
			}
		},
		{
			"doubleSided":true,
			"name":"Cream_house04.004",
			"pbrMetallicRoughness":{
				"baseColorFactor":[
					0.8796226382255554,
					0.8713672757148743,
					0.8307698369026184,
					1
				],
				"metallicFactor":0,
				"roughnessFactor":0.5
			}
		},
		{
			"doubleSided":true,
			"name":"Window_house04.002",
			"pbrMetallicRoughness":{
				"baseColorFactor":[
					0.31398868560791016,
					0.40724021196365356,
					0.6724432706832886,
					1
				],
				"metallicFactor":0,
				"roughnessFactor":0.5
			}
		},
		{
			"doubleSided":true,
			"name":"Wood_house04.006",
			"pbrMetallicRoughness":{
				"baseColorFactor":[
					0.6938718557357788,
					0.5583405494689941,
					0.29177066683769226,
					1
				],
				"metallicFactor":0,
				"roughnessFactor":0.5
			}
		},
		{
			"doubleSided":true,
			"name":"Gray_house04.003",
			"pbrMetallicRoughness":{
				"baseColorFactor":[
					0.6795427203178406,
					0.6239604353904724,
					0.6104956865310669,
					1
				],
				"metallicFactor":0,
				"roughnessFactor":0.5
			}
		},
		{
			"doubleSided":true,
			"name":"Gray_house04.004",
			"pbrMetallicRoughness":{
				"baseColorFactor":[
					0.6795427203178406,
					0.6239604353904724,
					0.6104956865310669,
					1
				],
				"metallicFactor":0,
				"roughnessFactor":0.5
			}
		},
		{
			"doubleSided":true,
			"name":"Window_house04.003",
			"pbrMetallicRoughness":{
				"baseColorFactor":[
					0.31398868560791016,
					0.40724021196365356,
					0.6724432706832886,
					1
				],
				"metallicFactor":0,
				"roughnessFactor":0.5
			}
		},
		{
			"doubleSided":true,
			"name":"Wood_house04.007",
			"pbrMetallicRoughness":{
				"baseColorFactor":[
					0.6938718557357788,
					0.5583405494689941,
					0.29177066683769226,
					1
				],
				"metallicFactor":0,
				"roughnessFactor":0.5
			}
		},
		{
			"doubleSided":true,
			"name":"Wood_house04.008",
			"pbrMetallicRoughness":{
				"baseColorFactor":[
					0.6938718557357788,
					0.5583405494689941,
					0.29177066683769226,
					1
				],
				"metallicFactor":0,
				"roughnessFactor":0.5
			}
		},
		{
			"doubleSided":true,
			"name":"Cream_house04.005",
			"pbrMetallicRoughness":{
				"baseColorFactor":[
					0.8796226382255554,
					0.8713672757148743,
					0.8307698369026184,
					1
				],
				"metallicFactor":0,
				"roughnessFactor":0.5
			}
		},
		{
			"doubleSided":true,
			"name":"Window_house04.004",
			"pbrMetallicRoughness":{
				"baseColorFactor":[
					0.31398868560791016,
					0.40724021196365356,
					0.6724432706832886,
					1
				],
				"metallicFactor":0,
				"roughnessFactor":0.5
			}
		},
		{
			"doubleSided":true,
			"name":"Roof_house04",
			"pbrMetallicRoughness":{
				"baseColorFactor":[
					0.7011020183563232,
					0.3049873113632202,
					0.21223078668117523,
					1
				],
				"metallicFactor":0,
				"roughnessFactor":0.5
			}
		},
		{
			"doubleSided":true,
			"name":"Cream_house04.002",
			"pbrMetallicRoughness":{
				"baseColorFactor":[
					0.8796226382255554,
					0.8713672757148743,
					0.8307698369026184,
					1
				],
				"metallicFactor":0,
				"roughnessFactor":0.5
			}
		},
		{
			"doubleSided":true,
			"name":"Cream_house04.003",
			"pbrMetallicRoughness":{
				"baseColorFactor":[
					0.8796226382255554,
					0.8713672757148743,
					0.8307698369026184,
					1
				],
				"metallicFactor":0,
				"roughnessFactor":0.5
			}
		},
		{
			"doubleSided":true,
			"name":"Roof_house04.001",
			"pbrMetallicRoughness":{
				"baseColorFactor":[
					0.7011020183563232,
					0.3049873113632202,
					0.21223078668117523,
					1
				],
				"metallicFactor":0,
				"roughnessFactor":0.5
			}
		},
		{
			"doubleSided":true,
			"name":"Wood_house04.003",
			"pbrMetallicRoughness":{
				"baseColorFactor":[
					0.6938718557357788,
					0.5583405494689941,
					0.29177066683769226,
					1
				],
				"metallicFactor":0,
				"roughnessFactor":0.5
			}
		},
		{
			"doubleSided":true,
			"name":"Wood_house04.002",
			"pbrMetallicRoughness":{
				"baseColorFactor":[
					0.6938718557357788,
					0.5583405494689941,
					0.29177066683769226,
					1
				],
				"metallicFactor":0,
				"roughnessFactor":0.5
			}
		}
	],
	"meshes":[
		{
			"name":"Cube.019",
			"primitives":[
				{
					"attributes":{
						"POSITION":0,
						"NORMAL":1,
						"TEXCOORD_0":2
					},
					"indices":3,
					"material":0
				},
				{
					"attributes":{
						"POSITION":4,
						"NORMAL":5,
						"TEXCOORD_0":6
					},
					"indices":7,
					"material":1
				},
				{
					"attributes":{
						"POSITION":8,
						"NORMAL":9,
						"TEXCOORD_0":10
					},
					"indices":11,
					"material":2
				},
				{
					"attributes":{
						"POSITION":12,
						"NORMAL":13,
						"TEXCOORD_0":14
					},
					"indices":15,
					"material":3
				},
				{
					"attributes":{
						"POSITION":16,
						"NORMAL":17,
						"TEXCOORD_0":18
					},
					"indices":19,
					"material":4
				},
				{
					"attributes":{
						"POSITION":20,
						"NORMAL":21,
						"TEXCOORD_0":22
					},
					"indices":23,
					"material":5
				},
				{
					"attributes":{
						"POSITION":24,
						"NORMAL":25,
						"TEXCOORD_0":26
					},
					"indices":27,
					"material":6
				},
				{
					"attributes":{
						"POSITION":28,
						"NORMAL":29,
						"TEXCOORD_0":30
					},
					"indices":31,
					"material":7
				},
				{
					"attributes":{
						"POSITION":32,
						"NORMAL":33,
						"TEXCOORD_0":34
					},
					"indices":35,
					"material":8
				},
				{
					"attributes":{
						"POSITION":36,
						"NORMAL":37,
						"TEXCOORD_0":38
					},
					"indices":39,
					"material":9
				},
				{
					"attributes":{
						"POSITION":40,
						"NORMAL":41,
						"TEXCOORD_0":42
					},
					"indices":43,
					"material":10
				},
				{
					"attributes":{
						"POSITION":44,
						"NORMAL":45,
						"TEXCOORD_0":46
					},
					"indices":47,
					"material":11
				},
				{
					"attributes":{
						"POSITION":48,
						"NORMAL":49,
						"TEXCOORD_0":50
					},
					"indices":51,
					"material":12
				},
				{
					"attributes":{
						"POSITION":52,
						"NORMAL":53,
						"TEXCOORD_0":54
					},
					"indices":55,
					"material":13
				},
				{
					"attributes":{
						"POSITION":56,
						"NORMAL":57,
						"TEXCOORD_0":58
					},
					"indices":59,
					"material":14
				},
				{
					"attributes":{
						"POSITION":60,
						"NORMAL":61,
						"TEXCOORD_0":62
					},
					"indices":63,
					"material":15
				},
				{
					"attributes":{
						"POSITION":64,
						"NORMAL":65,
						"TEXCOORD_0":66
					},
					"indices":67,
					"material":16
				},
				{
					"attributes":{
						"POSITION":68,
						"NORMAL":69,
						"TEXCOORD_0":70
					},
					"indices":71,
					"material":17
				},
				{
					"attributes":{
						"POSITION":72,
						"NORMAL":73,
						"TEXCOORD_0":74
					},
					"indices":75,
					"material":18
				},
				{
					"attributes":{
						"POSITION":76,
						"NORMAL":77,
						"TEXCOORD_0":78
					},
					"indices":79,
					"material":19
				},
				{
					"attributes":{
						"POSITION":80,
						"NORMAL":81,
						"TEXCOORD_0":82
					},
					"indices":83,
					"material":20
				},
				{
					"attributes":{
						"POSITION":84,
						"NORMAL":85,
						"TEXCOORD_0":86
					},
					"indices":87,
					"material":21
				},
				{
					"attributes":{
						"POSITION":88,
						"NORMAL":89,
						"TEXCOORD_0":90
					},
					"indices":91,
					"material":22
				},
				{
					"attributes":{
						"POSITION":92,
						"NORMAL":93,
						"TEXCOORD_0":94
					},
					"indices":95,
					"material":23
				},
				{
					"attributes":{
						"POSITION":96,
						"NORMAL":97,
						"TEXCOORD_0":98
					},
					"indices":99,
					"material":24
				},
				{
					"attributes":{
						"POSITION":100,
						"NORMAL":101,
						"TEXCOORD_0":102
					},
					"indices":103,
					"material":25
				}
			]
		}
	],
	"accessors":[
		{
			"bufferView":0,
			"componentType":5126,
			"count":985,
			"max":[
				3.5721888542175293,
				-2.798095464706421,
				5.213428974151611
			],
			"min":[
				-1.9457948207855225,
				-6.103058338165283,
				-5.419685363769531
			],
			"type":"VEC3"
		},
		{
			"bufferView":1,
			"componentType":5126,
			"count":985,
			"type":"VEC3"
		},
		{
			"bufferView":2,
			"componentType":5126,
			"count":985,
			"type":"VEC2"
		},
		{
			"bufferView":3,
			"componentType":5123,
			"count":1926,
			"type":"SCALAR"
		},
		{
			"bufferView":4,
			"componentType":5126,
			"count":3124,
			"max":[
				2.620126724243164,
				-2.954049587249756,
				5.545926570892334
			],
			"min":[
				-0.9937329888343811,
				-6.1088714599609375,
				-5.752237796783447
			],
			"type":"VEC3"
		},
		{
			"bufferView":5,
			"componentType":5126,
			"count":3124,
			"type":"VEC3"
		},
		{
			"bufferView":6,
			"componentType":5126,
			"count":3124,
			"type":"VEC2"
		},
		{
			"bufferView":7,
			"componentType":5123,
			"count":7344,
			"type":"SCALAR"
		},
		{
			"bufferView":8,
			"componentType":5126,
			"count":256,
			"max":[
				2.2057745456695557,
				-3.1501593589782715,
				5.096495151519775
			],
			"min":[
				-0.5793808102607727,
				-5.10338020324707,
				-5.302806854248047
			],
			"type":"VEC3"
		},
		{
			"bufferView":9,
			"componentType":5126,
			"count":256,
			"type":"VEC3"
		},
		{
			"bufferView":10,
			"componentType":5126,
			"count":256,
			"type":"VEC2"
		},
		{
			"bufferView":11,
			"componentType":5123,
			"count":384,
			"type":"SCALAR"
		},
		{
			"bufferView":12,
			"componentType":5126,
			"count":584,
			"max":[
				1.4580824375152588,
				-4.225745677947998,
				5.269558906555176
			],
			"min":[
				1.2191872596740723,
				-4.710355758666992,
				-5.475870609283447
			],
			"type":"VEC3"
		},
		{
			"bufferView":13,
			"componentType":5126,
			"count":584,
			"type":"VEC3"
		},
		{
			"bufferView":14,
			"componentType":5126,
			"count":584,
			"type":"VEC2"
		},
		{
			"bufferView":15,
			"componentType":5123,
			"count":960,
			"type":"SCALAR"
		},
		{
			"bufferView":16,
			"componentType":5126,
			"count":518,
			"max":[
				-5.577305316925049,
				-2.7774102687835693,
				4.239461421966553
			],
			"min":[
				-12.75263500213623,
				-6.082373142242432,
				3.84378719329834
			],
			"type":"VEC3"
		},
		{
			"bufferView":17,
			"componentType":5126,
			"count":518,
			"type":"VEC3"
		},
		{
			"bufferView":18,
			"componentType":5126,
			"count":518,
			"type":"VEC2"
		},
		{
			"bufferView":19,
			"componentType":5123,
			"count":1020,
			"type":"SCALAR"
		},
		{
			"bufferView":20,
			"componentType":5126,
			"count":40,
			"max":[
				-6.757806301116943,
				-3.0135982036590576,
				4.402245998382568
			],
			"min":[
				-11.572134017944336,
				-6.062262058258057,
				3.681002616882324
			],
			"type":"VEC3"
		},
		{
			"bufferView":21,
			"componentType":5126,
			"count":40,
			"type":"VEC3"
		},
		{
			"bufferView":22,
			"componentType":5126,
			"count":40,
			"type":"VEC2"
		},
		{
			"bufferView":23,
			"componentType":5123,
			"count":72,
			"type":"SCALAR"
		},
		{
			"bufferView":24,
			"componentType":5126,
			"count":136,
			"max":[
				-7.0360517501831055,
				-3.2096364498138428,
				4.1636643409729
			],
			"min":[
				-11.293888092041016,
				-6.046411514282227,
				3.919584274291992
			],
			"type":"VEC3"
		},
		{
			"bufferView":25,
			"componentType":5126,
			"count":136,
			"type":"VEC3"
		},
		{
			"bufferView":26,
			"componentType":5126,
			"count":136,
			"type":"VEC2"
		},
		{
			"bufferView":27,
			"componentType":5123,
			"count":384,
			"type":"SCALAR"
		},
		{
			"bufferView":28,
			"componentType":5126,
			"count":24,
			"max":[
				-7.291932582855225,
				-3.537635564804077,
				4.04741907119751
			],
			"min":[
				-11.038007736206055,
				-4.499517917633057,
				4.035829544067383
			],
			"type":"VEC3"
		},
		{
			"bufferView":29,
			"componentType":5126,
			"count":24,
			"type":"VEC3"
		},
		{
			"bufferView":30,
			"componentType":5126,
			"count":24,
			"type":"VEC2"
		},
		{
			"bufferView":31,
			"componentType":5123,
			"count":36,
			"type":"SCALAR"
		},
		{
			"bufferView":32,
			"componentType":5126,
			"count":384,
			"max":[
				-5.73244047164917,
				-2.775402784347534,
				5.0867743492126465
			],
			"min":[
				-13.143729209899902,
				-6.082373142242432,
				-3.830335855484009
			],
			"type":"VEC3"
		},
		{
			"bufferView":33,
			"componentType":5126,
			"count":384,
			"type":"VEC3"
		},
		{
			"bufferView":34,
			"componentType":5126,
			"count":384,
			"type":"VEC2"
		},
		{
			"bufferView":35,
			"componentType":5123,
			"count":846,
			"type":"SCALAR"
		},
		{
			"bufferView":36,
			"componentType":5126,
			"count":1876,
			"max":[
				7.270287990570068,
				0.5278034806251526,
				5.186602592468262
			],
			"min":[
				-5.727906703948975,
				-6.103058338165283,
				-5.420217037200928
			],
			"type":"VEC3"
		},
		{
			"bufferView":37,
			"componentType":5126,
			"count":1876,
			"type":"VEC3"
		},
		{
			"bufferView":38,
			"componentType":5126,
			"count":1876,
			"type":"VEC2"
		},
		{
			"bufferView":39,
			"componentType":5123,
			"count":3612,
			"type":"SCALAR"
		},
		{
			"bufferView":40,
			"componentType":5126,
			"count":2800,
			"max":[
				7.449051856994629,
				0.21006986498832703,
				5.391879558563232
			],
			"min":[
				-5.905498027801514,
				-5.480583667755127,
				-5.600245952606201
			],
			"type":"VEC3"
		},
		{
			"bufferView":41,
			"componentType":5126,
			"count":2800,
			"type":"VEC3"
		},
		{
			"bufferView":42,
			"componentType":5126,
			"count":2800,
			"type":"VEC2"
		},
		{
			"bufferView":43,
			"componentType":5123,
			"count":5544,
			"type":"SCALAR"
		},
		{
			"bufferView":44,
			"componentType":5126,
			"count":168,
			"max":[
				7.074810981750488,
				0.0733066275715828,
				5.017638683319092
			],
			"min":[
				-5.531257629394531,
				-5.648332595825195,
				-5.226005554199219
			],
			"type":"VEC3"
		},
		{
			"bufferView":45,
			"componentType":5126,
			"count":168,
			"type":"VEC3"
		},
		{
			"bufferView":46,
			"componentType":5126,
			"count":168,
			"type":"VEC2"
		},
		{
			"bufferView":47,
			"componentType":5123,
			"count":252,
			"type":"SCALAR"
		},
		{
			"bufferView":48,
			"componentType":5126,
			"count":3255,
			"max":[
				7.270601272583008,
				0.5280324816703796,
				5.213428974151611
			],
			"min":[
				-5.727047443389893,
				-6.103058338165283,
				-5.421795845031738
			],
			"type":"VEC3"
		},
		{
			"bufferView":49,
			"componentType":5126,
			"count":3255,
			"type":"VEC3"
		},
		{
			"bufferView":50,
			"componentType":5126,
			"count":3255,
			"type":"VEC2"
		},
		{
			"bufferView":51,
			"componentType":5123,
			"count":6390,
			"type":"SCALAR"
		},
		{
			"bufferView":52,
			"componentType":5126,
			"count":808,
			"max":[
				7.419042110443115,
				0.3682466447353363,
				6.480946063995361
			],
			"min":[
				-5.759665489196777,
				-6.103058338165283,
				-6.600246429443359
			],
			"type":"VEC3"
		},
		{
			"bufferView":53,
			"componentType":5126,
			"count":808,
			"type":"VEC3"
		},
		{
			"bufferView":54,
			"componentType":5126,
			"count":808,
			"type":"VEC2"
		},
		{
			"bufferView":55,
			"componentType":5123,
			"count":1728,
			"type":"SCALAR"
		},
		{
			"bufferView":56,
			"componentType":5126,
			"count":2448,
			"max":[
				7.493321895599365,
				0.27736690640449524,
				5.476841926574707
			],
			"min":[
				-5.988361358642578,
				-2.344883680343628,
				-5.698297500610352
			],
			"type":"VEC3"
		},
		{
			"bufferView":57,
			"componentType":5126,
			"count":2448,
			"type":"VEC3"
		},
		{
			"bufferView":58,
			"componentType":5126,
			"count":2448,
			"type":"VEC2"
		},
		{
			"bufferView":59,
			"componentType":5123,
			"count":4752,
			"type":"SCALAR"
		},
		{
			"bufferView":60,
			"componentType":5126,
			"count":144,
			"max":[
				7.043069362640381,
				-0.06834632158279419,
				5.026589393615723
			],
			"min":[
				-5.538109302520752,
				-2.121715545654297,
				-5.248044967651367
			],
			"type":"VEC3"
		},
		{
			"bufferView":61,
			"componentType":5126,
			"count":144,
			"type":"VEC3"
		},
		{
			"bufferView":62,
			"componentType":5126,
			"count":144,
			"type":"VEC2"
		},
		{
			"bufferView":63,
			"componentType":5123,
			"count":216,
			"type":"SCALAR"
		},
		{
			"bufferView":64,
			"componentType":5126,
			"count":3084,
			"max":[
				7.232761383056641,
				2.44642972946167,
				5.216280937194824
			],
			"min":[
				-5.7278008460998535,
				-2.8340675830841064,
				-5.437736988067627
			],
			"type":"VEC3"
		},
		{
			"bufferView":65,
			"componentType":5126,
			"count":3084,
			"type":"VEC3"
		},
		{
			"bufferView":66,
			"componentType":5126,
			"count":3084,
			"type":"VEC2"
		},
		{
			"bufferView":67,
			"componentType":5123,
			"count":6192,
			"type":"SCALAR"
		},
		{
			"bufferView":68,
			"componentType":5126,
			"count":864,
			"max":[
				3.5380074977874756,
				0.487479567527771,
				5.198225021362305
			],
			"min":[
				-1.9470572471618652,
				-2.8355650901794434,
				-5.418702125549316
			],
			"type":"VEC3"
		},
		{
			"bufferView":69,
			"componentType":5126,
			"count":864,
			"type":"VEC3"
		},
		{
			"bufferView":70,
			"componentType":5126,
			"count":864,
			"type":"VEC2"
		},
		{
			"bufferView":71,
			"componentType":5123,
			"count":1584,
			"type":"SCALAR"
		},
		{
			"bufferView":72,
			"componentType":5126,
			"count":1344,
			"max":[
				2.335176706314087,
				0.33409205079078674,
				5.255184173583984
			],
			"min":[
				-0.7442266345024109,
				-2.670349597930908,
				-5.475660800933838
			],
			"type":"VEC3"
		},
		{
			"bufferView":73,
			"componentType":5126,
			"count":1344,
			"type":"VEC3"
		},
		{
			"bufferView":74,
			"componentType":5126,
			"count":1344,
			"type":"VEC2"
		},
		{
			"bufferView":75,
			"componentType":5123,
			"count":2400,
			"type":"SCALAR"
		},
		{
			"bufferView":76,
			"componentType":5126,
			"count":96,
			"max":[
				2.2458693981170654,
				0.2696288526058197,
				5.026888847351074
			],
			"min":[
				-0.6549192070960999,
				-2.605886459350586,
				-5.247365474700928
			],
			"type":"VEC3"
		},
		{
			"bufferView":77,
			"componentType":5126,
			"count":96,
			"type":"VEC3"
		},
		{
			"bufferView":78,
			"componentType":5126,
			"count":96,
			"type":"VEC2"
		},
		{
			"bufferView":79,
			"componentType":5123,
			"count":144,
			"type":"SCALAR"
		},
		{
			"bufferView":80,
			"componentType":5126,
			"count":11712,
			"max":[
				3.9096665382385254,
				-0.20406761765480042,
				8.130115509033203
			],
			"min":[
				-13.105416297912598,
				-2.5981132984161377,
				-8.350593566894531
			],
			"type":"VEC3"
		},
		{
			"bufferView":81,
			"componentType":5126,
			"count":11712,
			"type":"VEC3"
		},
		{
			"bufferView":82,
			"componentType":5126,
			"count":11712,
			"type":"VEC2"
		},
		{
			"bufferView":83,
			"componentType":5123,
			"count":22320,
			"type":"SCALAR"
		},
		{
			"bufferView":84,
			"componentType":5126,
			"count":522,
			"max":[
				3.9104366302490234,
				-0.3999159038066864,
				8.093328475952148
			],
			"min":[
				-13.108671188354492,
				-2.9792096614837646,
				-8.31380558013916
			],
			"type":"VEC3"
		},
		{
			"bufferView":85,
			"componentType":5126,
			"count":522,
			"type":"VEC3"
		},
		{
			"bufferView":86,
			"componentType":5126,
			"count":522,
			"type":"VEC2"
		},
		{
			"bufferView":87,
			"componentType":5123,
			"count":960,
			"type":"SCALAR"
		},
		{
			"bufferView":88,
			"componentType":5126,
			"count":866,
			"max":[
				8.211824417114258,
				2.6613521575927734,
				6.593737602233887
			],
			"min":[
				-6.489287853240967,
				-0.21154431998729706,
				-6.640778064727783
			],
			"type":"VEC3"
		},
		{
			"bufferView":89,
			"componentType":5126,
			"count":866,
			"type":"VEC3"
		},
		{
			"bufferView":90,
			"componentType":5126,
			"count":866,
			"type":"VEC2"
		},
		{
			"bufferView":91,
			"componentType":5123,
			"count":1368,
			"type":"SCALAR"
		},
		{
			"bufferView":92,
			"componentType":5126,
			"count":60908,
			"max":[
				8.208084106445312,
				2.68678617477417,
				6.5899977684021
			],
			"min":[
				-6.4868950843811035,
				0.013985538855195045,
				-6.6445183753967285
			],
			"type":"VEC3"
		},
		{
			"bufferView":93,
			"componentType":5126,
			"count":60908,
			"type":"VEC3"
		},
		{
			"bufferView":94,
			"componentType":5126,
			"count":60908,
			"type":"VEC2"
		},
		{
			"bufferView":95,
			"componentType":5123,
			"count":116532,
			"type":"SCALAR"
		},
		{
			"bufferView":96,
			"componentType":5126,
			"count":286,
			"max":[
				-12.692970275878906,
				-0.777410089969635,
				4.239461421966553
			],
			"min":[
				-13.088644027709961,
				-6.082373142242432,
				-2.9157559871673584
			],
			"type":"VEC3"
		},
		{
			"bufferView":97,
			"componentType":5126,
			"count":286,
			"type":"VEC3"
		},
		{
			"bufferView":98,
			"componentType":5126,
			"count":286,
			"type":"VEC2"
		},
		{
			"bufferView":99,
			"componentType":5123,
			"count":540,
			"type":"SCALAR"
		},
		{
			"bufferView":100,
			"componentType":5126,
			"count":268,
			"max":[
				-5.641417503356934,
				-2.7774102687835693,
				-2.9157557487487793
			],
			"min":[
				-12.796634674072266,
				-6.082373142242432,
				-3.311429977416992
			],
			"type":"VEC3"
		},
		{
			"bufferView":101,
			"componentType":5126,
			"count":268,
			"type":"VEC3"
		},
		{
			"bufferView":102,
			"componentType":5126,
			"count":268,
			"type":"VEC2"
		},
		{
			"bufferView":103,
			"componentType":5123,
			"count":516,
			"type":"SCALAR"
		}
	],
	"bufferViews":[
		{
			"buffer":0,
			"byteLength":11820,
			"byteOffset":0,
			"target":34962
		},
		{
			"buffer":0,
			"byteLength":11820,
			"byteOffset":11820,
			"target":34962
		},
		{
			"buffer":0,
			"byteLength":7880,
			"byteOffset":23640,
			"target":34962
		},
		{
			"buffer":0,
			"byteLength":3852,
			"byteOffset":31520,
			"target":34963
		},
		{
			"buffer":0,
			"byteLength":37488,
			"byteOffset":35372,
			"target":34962
		},
		{
			"buffer":0,
			"byteLength":37488,
			"byteOffset":72860,
			"target":34962
		},
		{
			"buffer":0,
			"byteLength":24992,
			"byteOffset":110348,
			"target":34962
		},
		{
			"buffer":0,
			"byteLength":14688,
			"byteOffset":135340,
			"target":34963
		},
		{
			"buffer":0,
			"byteLength":3072,
			"byteOffset":150028,
			"target":34962
		},
		{
			"buffer":0,
			"byteLength":3072,
			"byteOffset":153100,
			"target":34962
		},
		{
			"buffer":0,
			"byteLength":2048,
			"byteOffset":156172,
			"target":34962
		},
		{
			"buffer":0,
			"byteLength":768,
			"byteOffset":158220,
			"target":34963
		},
		{
			"buffer":0,
			"byteLength":7008,
			"byteOffset":158988,
			"target":34962
		},
		{
			"buffer":0,
			"byteLength":7008,
			"byteOffset":165996,
			"target":34962
		},
		{
			"buffer":0,
			"byteLength":4672,
			"byteOffset":173004,
			"target":34962
		},
		{
			"buffer":0,
			"byteLength":1920,
			"byteOffset":177676,
			"target":34963
		},
		{
			"buffer":0,
			"byteLength":6216,
			"byteOffset":179596,
			"target":34962
		},
		{
			"buffer":0,
			"byteLength":6216,
			"byteOffset":185812,
			"target":34962
		},
		{
			"buffer":0,
			"byteLength":4144,
			"byteOffset":192028,
			"target":34962
		},
		{
			"buffer":0,
			"byteLength":2040,
			"byteOffset":196172,
			"target":34963
		},
		{
			"buffer":0,
			"byteLength":480,
			"byteOffset":198212,
			"target":34962
		},
		{
			"buffer":0,
			"byteLength":480,
			"byteOffset":198692,
			"target":34962
		},
		{
			"buffer":0,
			"byteLength":320,
			"byteOffset":199172,
			"target":34962
		},
		{
			"buffer":0,
			"byteLength":144,
			"byteOffset":199492,
			"target":34963
		},
		{
			"buffer":0,
			"byteLength":1632,
			"byteOffset":199636,
			"target":34962
		},
		{
			"buffer":0,
			"byteLength":1632,
			"byteOffset":201268,
			"target":34962
		},
		{
			"buffer":0,
			"byteLength":1088,
			"byteOffset":202900,
			"target":34962
		},
		{
			"buffer":0,
			"byteLength":768,
			"byteOffset":203988,
			"target":34963
		},
		{
			"buffer":0,
			"byteLength":288,
			"byteOffset":204756,
			"target":34962
		},
		{
			"buffer":0,
			"byteLength":288,
			"byteOffset":205044,
			"target":34962
		},
		{
			"buffer":0,
			"byteLength":192,
			"byteOffset":205332,
			"target":34962
		},
		{
			"buffer":0,
			"byteLength":72,
			"byteOffset":205524,
			"target":34963
		},
		{
			"buffer":0,
			"byteLength":4608,
			"byteOffset":205596,
			"target":34962
		},
		{
			"buffer":0,
			"byteLength":4608,
			"byteOffset":210204,
			"target":34962
		},
		{
			"buffer":0,
			"byteLength":3072,
			"byteOffset":214812,
			"target":34962
		},
		{
			"buffer":0,
			"byteLength":1692,
			"byteOffset":217884,
			"target":34963
		},
		{
			"buffer":0,
			"byteLength":22512,
			"byteOffset":219576,
			"target":34962
		},
		{
			"buffer":0,
			"byteLength":22512,
			"byteOffset":242088,
			"target":34962
		},
		{
			"buffer":0,
			"byteLength":15008,
			"byteOffset":264600,
			"target":34962
		},
		{
			"buffer":0,
			"byteLength":7224,
			"byteOffset":279608,
			"target":34963
		},
		{
			"buffer":0,
			"byteLength":33600,
			"byteOffset":286832,
			"target":34962
		},
		{
			"buffer":0,
			"byteLength":33600,
			"byteOffset":320432,
			"target":34962
		},
		{
			"buffer":0,
			"byteLength":22400,
			"byteOffset":354032,
			"target":34962
		},
		{
			"buffer":0,
			"byteLength":11088,
			"byteOffset":376432,
			"target":34963
		},
		{
			"buffer":0,
			"byteLength":2016,
			"byteOffset":387520,
			"target":34962
		},
		{
			"buffer":0,
			"byteLength":2016,
			"byteOffset":389536,
			"target":34962
		},
		{
			"buffer":0,
			"byteLength":1344,
			"byteOffset":391552,
			"target":34962
		},
		{
			"buffer":0,
			"byteLength":504,
			"byteOffset":392896,
			"target":34963
		},
		{
			"buffer":0,
			"byteLength":39060,
			"byteOffset":393400,
			"target":34962
		},
		{
			"buffer":0,
			"byteLength":39060,
			"byteOffset":432460,
			"target":34962
		},
		{
			"buffer":0,
			"byteLength":26040,
			"byteOffset":471520,
			"target":34962
		},
		{
			"buffer":0,
			"byteLength":12780,
			"byteOffset":497560,
			"target":34963
		},
		{
			"buffer":0,
			"byteLength":9696,
			"byteOffset":510340,
			"target":34962
		},
		{
			"buffer":0,
			"byteLength":9696,
			"byteOffset":520036,
			"target":34962
		},
		{
			"buffer":0,
			"byteLength":6464,
			"byteOffset":529732,
			"target":34962
		},
		{
			"buffer":0,
			"byteLength":3456,
			"byteOffset":536196,
			"target":34963
		},
		{
			"buffer":0,
			"byteLength":29376,
			"byteOffset":539652,
			"target":34962
		},
		{
			"buffer":0,
			"byteLength":29376,
			"byteOffset":569028,
			"target":34962
		},
		{
			"buffer":0,
			"byteLength":19584,
			"byteOffset":598404,
			"target":34962
		},
		{
			"buffer":0,
			"byteLength":9504,
			"byteOffset":617988,
			"target":34963
		},
		{
			"buffer":0,
			"byteLength":1728,
			"byteOffset":627492,
			"target":34962
		},
		{
			"buffer":0,
			"byteLength":1728,
			"byteOffset":629220,
			"target":34962
		},
		{
			"buffer":0,
			"byteLength":1152,
			"byteOffset":630948,
			"target":34962
		},
		{
			"buffer":0,
			"byteLength":432,
			"byteOffset":632100,
			"target":34963
		},
		{
			"buffer":0,
			"byteLength":37008,
			"byteOffset":632532,
			"target":34962
		},
		{
			"buffer":0,
			"byteLength":37008,
			"byteOffset":669540,
			"target":34962
		},
		{
			"buffer":0,
			"byteLength":24672,
			"byteOffset":706548,
			"target":34962
		},
		{
			"buffer":0,
			"byteLength":12384,
			"byteOffset":731220,
			"target":34963
		},
		{
			"buffer":0,
			"byteLength":10368,
			"byteOffset":743604,
			"target":34962
		},
		{
			"buffer":0,
			"byteLength":10368,
			"byteOffset":753972,
			"target":34962
		},
		{
			"buffer":0,
			"byteLength":6912,
			"byteOffset":764340,
			"target":34962
		},
		{
			"buffer":0,
			"byteLength":3168,
			"byteOffset":771252,
			"target":34963
		},
		{
			"buffer":0,
			"byteLength":16128,
			"byteOffset":774420,
			"target":34962
		},
		{
			"buffer":0,
			"byteLength":16128,
			"byteOffset":790548,
			"target":34962
		},
		{
			"buffer":0,
			"byteLength":10752,
			"byteOffset":806676,
			"target":34962
		},
		{
			"buffer":0,
			"byteLength":4800,
			"byteOffset":817428,
			"target":34963
		},
		{
			"buffer":0,
			"byteLength":1152,
			"byteOffset":822228,
			"target":34962
		},
		{
			"buffer":0,
			"byteLength":1152,
			"byteOffset":823380,
			"target":34962
		},
		{
			"buffer":0,
			"byteLength":768,
			"byteOffset":824532,
			"target":34962
		},
		{
			"buffer":0,
			"byteLength":288,
			"byteOffset":825300,
			"target":34963
		},
		{
			"buffer":0,
			"byteLength":140544,
			"byteOffset":825588,
			"target":34962
		},
		{
			"buffer":0,
			"byteLength":140544,
			"byteOffset":966132,
			"target":34962
		},
		{
			"buffer":0,
			"byteLength":93696,
			"byteOffset":1106676,
			"target":34962
		},
		{
			"buffer":0,
			"byteLength":44640,
			"byteOffset":1200372,
			"target":34963
		},
		{
			"buffer":0,
			"byteLength":6264,
			"byteOffset":1245012,
			"target":34962
		},
		{
			"buffer":0,
			"byteLength":6264,
			"byteOffset":1251276,
			"target":34962
		},
		{
			"buffer":0,
			"byteLength":4176,
			"byteOffset":1257540,
			"target":34962
		},
		{
			"buffer":0,
			"byteLength":1920,
			"byteOffset":1261716,
			"target":34963
		},
		{
			"buffer":0,
			"byteLength":10392,
			"byteOffset":1263636,
			"target":34962
		},
		{
			"buffer":0,
			"byteLength":10392,
			"byteOffset":1274028,
			"target":34962
		},
		{
			"buffer":0,
			"byteLength":6928,
			"byteOffset":1284420,
			"target":34962
		},
		{
			"buffer":0,
			"byteLength":2736,
			"byteOffset":1291348,
			"target":34963
		},
		{
			"buffer":0,
			"byteLength":730896,
			"byteOffset":1294084,
			"target":34962
		},
		{
			"buffer":0,
			"byteLength":730896,
			"byteOffset":2024980,
			"target":34962
		},
		{
			"buffer":0,
			"byteLength":487264,
			"byteOffset":2755876,
			"target":34962
		},
		{
			"buffer":0,
			"byteLength":233064,
			"byteOffset":3243140,
			"target":34963
		},
		{
			"buffer":0,
			"byteLength":3432,
			"byteOffset":3476204,
			"target":34962
		},
		{
			"buffer":0,
			"byteLength":3432,
			"byteOffset":3479636,
			"target":34962
		},
		{
			"buffer":0,
			"byteLength":2288,
			"byteOffset":3483068,
			"target":34962
		},
		{
			"buffer":0,
			"byteLength":1080,
			"byteOffset":3485356,
			"target":34963
		},
		{
			"buffer":0,
			"byteLength":3216,
			"byteOffset":3486436,
			"target":34962
		},
		{
			"buffer":0,
			"byteLength":3216,
			"byteOffset":3489652,
			"target":34962
		},
		{
			"buffer":0,
			"byteLength":2144,
			"byteOffset":3492868,
			"target":34962
		},
		{
			"buffer":0,
			"byteLength":1032,
			"byteOffset":3495012,
			"target":34963
		}
	],
	"buffers":[
		{
			"byteLength":3496044,
			"uri":"House_04-dcba3d3b3cccee28a63c9f880be0d6c9.bin"
		}
	]
}
