{
	"asset":{
		"generator":"Khronos glTF Blender I/O v4.3.47",
		"version":"2.0"
	},
	"extensionsUsed":[
		"KHR_lights_punctual"
	],
	"extensionsRequired":[
		"KHR_lights_punctual"
	],
	"extensions":{
		"KHR_lights_punctual":{
			"lights":[
				{
					"color":[
						1,
						0.8272883892059326,
						0.41927239298820496
					],
					"intensity":1447.9600846767426,
					"type":"directional",
					"name":"Sun"
				},
				{
					"color":[
						1,
						0.8272883892059326,
						0.41927239298820496
					],
					"intensity":566.8901107311249,
					"type":"directional",
					"name":"Sun.001"
				}
			]
		}
	},
	"scene":0,
	"scenes":[
		{
			"name":"Scene",
			"nodes":[
				0,
				1,
				2
			]
		}
	],
	"nodes":[
		{
			"mesh":0,
			"name":"House_05"
		},
		{
			"extensions":{
				"KHR_lights_punctual":{
					"light":0
				}
			},
			"name":"Sun",
			"rotation":[
				-0.469720721244812,
				0,
				0,
				0.8828150629997253
			],
			"translation":[
				-110.15826416015625,
				-34.61405944824219,
				11.023487091064453
			]
		},
		{
			"extensions":{
				"KHR_lights_punctual":{
					"light":1
				}
			},
			"name":"Sun.001",
			"rotation":[
				-0.9147961735725403,
				0,
				0,
				0.40391603112220764
			],
			"translation":[
				-110.15826416015625,
				-34.61405944824219,
				11.023487091064453
			]
		}
	],
	"materials":[
		{
			"doubleSided":true,
			"name":"Wood_house05.003",
			"pbrMetallicRoughness":{
				"baseColorFactor":[
					0.7011020183563232,
					0.42869052290916443,
					0.11697068810462952,
					1
				],
				"metallicFactor":0,
				"roughnessFactor":0.5
			}
		},
		{
			"doubleSided":true,
			"name":"Cream_house05",
			"pbrMetallicRoughness":{
				"baseColorFactor":[
					0.8713672757148743,
					0.6172067523002625,
					0.35153263807296753,
					1
				],
				"metallicFactor":0,
				"roughnessFactor":0.5
			}
		},
		{
			"doubleSided":true,
			"name":"Window_house05.001",
			"pbrMetallicRoughness":{
				"baseColorFactor":[
					0.07558076083660126,
					0.20353354513645172,
					0.7011020183563232,
					1
				],
				"metallicFactor":0,
				"roughnessFactor":0.5
			}
		},
		{
			"doubleSided":true,
			"name":"Green_house05",
			"pbrMetallicRoughness":{
				"baseColorFactor":[
					0.3762621283531189,
					0.35153263807296753,
					0.2541521489620209,
					1
				],
				"metallicFactor":0,
				"roughnessFactor":0.5
			}
		},
		{
			"doubleSided":true,
			"name":"Iron_house05",
			"pbrMetallicRoughness":{
				"baseColorFactor":[
					0.16794881224632263,
					0.16204825043678284,
					0.1574471890926361,
					1
				],
				"metallicFactor":0,
				"roughnessFactor":0.5
			}
		},
		{
			"doubleSided":true,
			"name":"WallTile_house05",
			"pbrMetallicRoughness":{
				"baseColorFactor":[
					0.24619503319263458,
					0.08552613854408264,
					0.02514219656586647,
					1
				],
				"metallicFactor":0,
				"roughnessFactor":0.5
			}
		},
		{
			"doubleSided":true,
			"name":"Tiles_house05",
			"pbrMetallicRoughness":{
				"baseColorFactor":[
					0.19598864018917084,
					0.04342792183160782,
					0.007737726904451847,
					1
				],
				"metallicFactor":0,
				"roughnessFactor":0.5
			}
		},
		{
			"doubleSided":true,
			"name":"Wood_house05.001",
			"pbrMetallicRoughness":{
				"baseColorFactor":[
					0.7011020183563232,
					0.42869052290916443,
					0.11697068810462952,
					1
				],
				"metallicFactor":0,
				"roughnessFactor":0.5
			}
		},
		{
			"doubleSided":true,
			"name":"Black_house05.001",
			"pbrMetallicRoughness":{
				"baseColorFactor":[
					0.02909950166940689,
					0.02909950166940689,
					0.02909950166940689,
					1
				],
				"metallicFactor":0,
				"roughnessFactor":0.5
			}
		},
		{
			"doubleSided":true,
			"name":"Tiles_house05.001",
			"pbrMetallicRoughness":{
				"baseColorFactor":[
					0.19598864018917084,
					0.04342792183160782,
					0.007737726904451847,
					1
				],
				"metallicFactor":0,
				"roughnessFactor":0.5
			}
		},
		{
			"doubleSided":true,
			"name":"WallTile_house05.001",
			"pbrMetallicRoughness":{
				"baseColorFactor":[
					0.24619503319263458,
					0.08552613854408264,
					0.02514219656586647,
					1
				],
				"metallicFactor":0,
				"roughnessFactor":0.5
			}
		},
		{
			"doubleSided":true,
			"name":"Wood_house05.004",
			"pbrMetallicRoughness":{
				"baseColorFactor":[
					0.7011020183563232,
					0.42869052290916443,
					0.11697068810462952,
					1
				],
				"metallicFactor":0,
				"roughnessFactor":0.5
			}
		},
		{
			"doubleSided":true,
			"name":"Brown_house05.001",
			"pbrMetallicRoughness":{
				"baseColorFactor":[
					0.34191441535949707,
					0.2015562802553177,
					0.1247718334197998,
					1
				],
				"metallicFactor":0,
				"roughnessFactor":0.5
			}
		},
		{
			"doubleSided":true,
			"name":"Window_house05.002",
			"pbrMetallicRoughness":{
				"baseColorFactor":[
					0.07558076083660126,
					0.20353354513645172,
					0.7011020183563232,
					1
				],
				"metallicFactor":0,
				"roughnessFactor":0.5
			}
		},
		{
			"doubleSided":true,
			"name":"Cream_house05.003",
			"pbrMetallicRoughness":{
				"baseColorFactor":[
					0.8713672757148743,
					0.6172067523002625,
					0.35153263807296753,
					1
				],
				"metallicFactor":0,
				"roughnessFactor":0.5
			}
		},
		{
			"doubleSided":true,
			"name":"Wood_house05.010",
			"pbrMetallicRoughness":{
				"baseColorFactor":[
					0.7011020183563232,
					0.42869052290916443,
					0.11697068810462952,
					1
				],
				"metallicFactor":0,
				"roughnessFactor":0.5
			}
		},
		{
			"doubleSided":true,
			"name":"Window_house05.006",
			"pbrMetallicRoughness":{
				"baseColorFactor":[
					0.07558076083660126,
					0.20353354513645172,
					0.7011020183563232,
					1
				],
				"metallicFactor":0,
				"roughnessFactor":0.5
			}
		},
		{
			"doubleSided":true,
			"name":"Wood_house05.008",
			"pbrMetallicRoughness":{
				"baseColorFactor":[
					0.7011020183563232,
					0.42869052290916443,
					0.11697068810462952,
					1
				],
				"metallicFactor":0,
				"roughnessFactor":0.5
			}
		},
		{
			"doubleSided":true,
			"name":"Cream_house05.001",
			"pbrMetallicRoughness":{
				"baseColorFactor":[
					0.8713672757148743,
					0.6172067523002625,
					0.35153263807296753,
					1
				],
				"metallicFactor":0,
				"roughnessFactor":0.5
			}
		},
		{
			"doubleSided":true,
			"name":"Window_house05.004",
			"pbrMetallicRoughness":{
				"baseColorFactor":[
					0.07558076083660126,
					0.20353354513645172,
					0.7011020183563232,
					1
				],
				"metallicFactor":0,
				"roughnessFactor":0.5
			}
		},
		{
			"doubleSided":true,
			"name":"Brown_house05.003",
			"pbrMetallicRoughness":{
				"baseColorFactor":[
					0.34191441535949707,
					0.2015562802553177,
					0.1247718334197998,
					1
				],
				"metallicFactor":0,
				"roughnessFactor":0.5
			}
		},
		{
			"doubleSided":true,
			"name":"Green_house06.001",
			"pbrMetallicRoughness":{
				"baseColorFactor":[
					0.3762621283531189,
					0.35153263807296753,
					0.2541521489620209,
					1
				],
				"metallicFactor":0,
				"roughnessFactor":0.5
			}
		},
		{
			"doubleSided":true,
			"name":"Wood_house05.006",
			"pbrMetallicRoughness":{
				"baseColorFactor":[
					0.7011020183563232,
					0.42869052290916443,
					0.11697068810462952,
					1
				],
				"metallicFactor":0,
				"roughnessFactor":0.5
			}
		},
		{
			"doubleSided":true,
			"name":"Wood_house05.009",
			"pbrMetallicRoughness":{
				"baseColorFactor":[
					0.7011020183563232,
					0.42869052290916443,
					0.11697068810462952,
					1
				],
				"metallicFactor":0,
				"roughnessFactor":0.5
			}
		},
		{
			"doubleSided":true,
			"name":"Cream_house05.002",
			"pbrMetallicRoughness":{
				"baseColorFactor":[
					0.8713672757148743,
					0.6172067523002625,
					0.35153263807296753,
					1
				],
				"metallicFactor":0,
				"roughnessFactor":0.5
			}
		},
		{
			"doubleSided":true,
			"name":"Window_house05.005",
			"pbrMetallicRoughness":{
				"baseColorFactor":[
					0.07558076083660126,
					0.20353354513645172,
					0.7011020183563232,
					1
				],
				"metallicFactor":0,
				"roughnessFactor":0.5
			}
		},
		{
			"doubleSided":true,
			"name":"Brown_house05.002",
			"pbrMetallicRoughness":{
				"baseColorFactor":[
					0.34191441535949707,
					0.2015562802553177,
					0.1247718334197998,
					1
				],
				"metallicFactor":0,
				"roughnessFactor":0.5
			}
		},
		{
			"doubleSided":true,
			"name":"Wood_house05.007",
			"pbrMetallicRoughness":{
				"baseColorFactor":[
					0.7011020183563232,
					0.42869052290916443,
					0.11697068810462952,
					1
				],
				"metallicFactor":0,
				"roughnessFactor":0.5
			}
		},
		{
			"doubleSided":true,
			"name":"Window_house05.003",
			"pbrMetallicRoughness":{
				"baseColorFactor":[
					0.07558076083660126,
					0.20353354513645172,
					0.7011020183563232,
					1
				],
				"metallicFactor":0,
				"roughnessFactor":0.5
			}
		},
		{
			"doubleSided":true,
			"name":"Wood_house05.005",
			"pbrMetallicRoughness":{
				"baseColorFactor":[
					0.7011020183563232,
					0.42869052290916443,
					0.11697068810462952,
					1
				],
				"metallicFactor":0,
				"roughnessFactor":0.5
			}
		},
		{
			"doubleSided":true,
			"name":"Brown_house05",
			"pbrMetallicRoughness":{
				"baseColorFactor":[
					0.34191441535949707,
					0.2015562802553177,
					0.1247718334197998,
					1
				],
				"metallicFactor":0,
				"roughnessFactor":0.5
			}
		},
		{
			"doubleSided":true,
			"name":"Wood_house05.002",
			"pbrMetallicRoughness":{
				"baseColorFactor":[
					0.7011020183563232,
					0.42869052290916443,
					0.11697068810462952,
					1
				],
				"metallicFactor":0,
				"roughnessFactor":0.5
			}
		},
		{
			"doubleSided":true,
			"name":"Green_house06",
			"pbrMetallicRoughness":{
				"baseColorFactor":[
					0.3762621283531189,
					0.35153263807296753,
					0.2541521489620209,
					1
				],
				"metallicFactor":0,
				"roughnessFactor":0.5
			}
		},
		{
			"doubleSided":true,
			"name":"Window_house05",
			"pbrMetallicRoughness":{
				"baseColorFactor":[
					0.07558076083660126,
					0.20353354513645172,
					0.7011020183563232,
					1
				],
				"metallicFactor":0,
				"roughnessFactor":0.5
			}
		},
		{
			"doubleSided":true,
			"name":"Wood_house05",
			"pbrMetallicRoughness":{
				"baseColorFactor":[
					0.7011020183563232,
					0.42869052290916443,
					0.11697068810462952,
					1
				],
				"metallicFactor":0,
				"roughnessFactor":0.5
			}
		},
		{
			"doubleSided":true,
			"name":"Black_house05",
			"pbrMetallicRoughness":{
				"baseColorFactor":[
					0.02909950166940689,
					0.02909950166940689,
					0.02909950166940689,
					1
				],
				"metallicFactor":0,
				"roughnessFactor":0.5
			}
		},
		{
			"doubleSided":true,
			"name":"Roof_house05",
			"pbrMetallicRoughness":{
				"baseColorFactor":[
					0.3762621283531189,
					0.35153263807296753,
					0.2541521489620209,
					1
				],
				"metallicFactor":0,
				"roughnessFactor":0.5
			}
		}
	],
	"meshes":[
		{
			"name":"Cube.008",
			"primitives":[
				{
					"attributes":{
						"POSITION":0,
						"NORMAL":1,
						"TEXCOORD_0":2
					},
					"indices":3,
					"material":0
				},
				{
					"attributes":{
						"POSITION":4,
						"NORMAL":5,
						"TEXCOORD_0":6
					},
					"indices":7,
					"material":1
				},
				{
					"attributes":{
						"POSITION":8,
						"NORMAL":9,
						"TEXCOORD_0":10
					},
					"indices":11,
					"material":2
				},
				{
					"attributes":{
						"POSITION":12,
						"NORMAL":13,
						"TEXCOORD_0":14
					},
					"indices":15,
					"material":3
				},
				{
					"attributes":{
						"POSITION":16,
						"NORMAL":17,
						"TEXCOORD_0":18
					},
					"indices":19,
					"material":4
				},
				{
					"attributes":{
						"POSITION":20,
						"NORMAL":21,
						"TEXCOORD_0":22
					},
					"indices":23,
					"material":5
				},
				{
					"attributes":{
						"POSITION":24,
						"NORMAL":25,
						"TEXCOORD_0":26
					},
					"indices":27,
					"material":6
				},
				{
					"attributes":{
						"POSITION":28,
						"NORMAL":29,
						"TEXCOORD_0":30
					},
					"indices":11,
					"material":7
				},
				{
					"attributes":{
						"POSITION":31,
						"NORMAL":32,
						"TEXCOORD_0":33
					},
					"indices":34,
					"material":8
				},
				{
					"attributes":{
						"POSITION":35,
						"NORMAL":36,
						"TEXCOORD_0":37
					},
					"indices":38,
					"material":9
				},
				{
					"attributes":{
						"POSITION":39,
						"NORMAL":40,
						"TEXCOORD_0":41
					},
					"indices":42,
					"material":10
				},
				{
					"attributes":{
						"POSITION":43,
						"NORMAL":44,
						"TEXCOORD_0":45
					},
					"indices":46,
					"material":11
				},
				{
					"attributes":{
						"POSITION":47,
						"NORMAL":48,
						"TEXCOORD_0":49
					},
					"indices":50,
					"material":12
				},
				{
					"attributes":{
						"POSITION":51,
						"NORMAL":52,
						"TEXCOORD_0":53
					},
					"indices":54,
					"material":13
				},
				{
					"attributes":{
						"POSITION":55,
						"NORMAL":56,
						"TEXCOORD_0":57
					},
					"indices":58,
					"material":14
				},
				{
					"attributes":{
						"POSITION":59,
						"NORMAL":60,
						"TEXCOORD_0":61
					},
					"indices":62,
					"material":15
				},
				{
					"attributes":{
						"POSITION":63,
						"NORMAL":64,
						"TEXCOORD_0":65
					},
					"indices":66,
					"material":16
				},
				{
					"attributes":{
						"POSITION":67,
						"NORMAL":68,
						"TEXCOORD_0":69
					},
					"indices":70,
					"material":17
				},
				{
					"attributes":{
						"POSITION":71,
						"NORMAL":72,
						"TEXCOORD_0":73
					},
					"indices":74,
					"material":18
				},
				{
					"attributes":{
						"POSITION":75,
						"NORMAL":76,
						"TEXCOORD_0":77
					},
					"indices":78,
					"material":19
				},
				{
					"attributes":{
						"POSITION":79,
						"NORMAL":80,
						"TEXCOORD_0":81
					},
					"indices":78,
					"material":20
				},
				{
					"attributes":{
						"POSITION":82,
						"NORMAL":83,
						"TEXCOORD_0":84
					},
					"indices":78,
					"material":21
				},
				{
					"attributes":{
						"POSITION":85,
						"NORMAL":86,
						"TEXCOORD_0":87
					},
					"indices":88,
					"material":22
				},
				{
					"attributes":{
						"POSITION":89,
						"NORMAL":90,
						"TEXCOORD_0":91
					},
					"indices":92,
					"material":23
				},
				{
					"attributes":{
						"POSITION":93,
						"NORMAL":94,
						"TEXCOORD_0":95
					},
					"indices":96,
					"material":24
				},
				{
					"attributes":{
						"POSITION":97,
						"NORMAL":98,
						"TEXCOORD_0":99
					},
					"indices":100,
					"material":25
				},
				{
					"attributes":{
						"POSITION":101,
						"NORMAL":102,
						"TEXCOORD_0":103
					},
					"indices":104,
					"material":26
				},
				{
					"attributes":{
						"POSITION":105,
						"NORMAL":106,
						"TEXCOORD_0":107
					},
					"indices":108,
					"material":27
				},
				{
					"attributes":{
						"POSITION":109,
						"NORMAL":110,
						"TEXCOORD_0":111
					},
					"indices":112,
					"material":28
				},
				{
					"attributes":{
						"POSITION":113,
						"NORMAL":114,
						"TEXCOORD_0":115
					},
					"indices":116,
					"material":29
				},
				{
					"attributes":{
						"POSITION":117,
						"NORMAL":118,
						"TEXCOORD_0":119
					},
					"indices":120,
					"material":30
				},
				{
					"attributes":{
						"POSITION":121,
						"NORMAL":122,
						"TEXCOORD_0":123
					},
					"indices":124,
					"material":31
				},
				{
					"attributes":{
						"POSITION":125,
						"NORMAL":126,
						"TEXCOORD_0":127
					},
					"indices":128,
					"material":32
				},
				{
					"attributes":{
						"POSITION":129,
						"NORMAL":130,
						"TEXCOORD_0":131
					},
					"indices":54,
					"material":33
				},
				{
					"attributes":{
						"POSITION":132,
						"NORMAL":133,
						"TEXCOORD_0":134
					},
					"indices":135,
					"material":34
				},
				{
					"attributes":{
						"POSITION":136,
						"NORMAL":137,
						"TEXCOORD_0":138
					},
					"indices":139,
					"material":35
				},
				{
					"attributes":{
						"POSITION":140,
						"NORMAL":141,
						"TEXCOORD_0":142
					},
					"indices":143,
					"material":36
				}
			]
		}
	],
	"accessors":[
		{
			"bufferView":0,
			"componentType":5126,
			"count":832,
			"max":[
				-2.6967084407806396,
				-1.3013094663619995,
				10.35114860534668
			],
			"min":[
				-6.767918109893799,
				-4.248594760894775,
				-9.072096824645996
			],
			"type":"VEC3"
		},
		{
			"bufferView":1,
			"componentType":5126,
			"count":832,
			"type":"VEC3"
		},
		{
			"bufferView":2,
			"componentType":5126,
			"count":832,
			"type":"VEC2"
		},
		{
			"bufferView":3,
			"componentType":5123,
			"count":1512,
			"type":"SCALAR"
		},
		{
			"bufferView":4,
			"componentType":5126,
			"count":320,
			"max":[
				-3.5210394859313965,
				-1.6589404344558716,
				10.186657905578613
			],
			"min":[
				-5.943587303161621,
				-4.180186748504639,
				-9.056233406066895
			],
			"type":"VEC3"
		},
		{
			"bufferView":5,
			"componentType":5126,
			"count":320,
			"type":"VEC3"
		},
		{
			"bufferView":6,
			"componentType":5126,
			"count":320,
			"type":"VEC2"
		},
		{
			"bufferView":7,
			"componentType":5123,
			"count":912,
			"type":"SCALAR"
		},
		{
			"bufferView":8,
			"componentType":5126,
			"count":48,
			"max":[
				-3.752779245376587,
				-2.015990734100342,
				10.157382011413574
			],
			"min":[
				-5.71184778213501,
				-2.4651601314544678,
				-9.026959419250488
			],
			"type":"VEC3"
		},
		{
			"bufferView":9,
			"componentType":5126,
			"count":48,
			"type":"VEC3"
		},
		{
			"bufferView":10,
			"componentType":5126,
			"count":48,
			"type":"VEC2"
		},
		{
			"bufferView":11,
			"componentType":5123,
			"count":72,
			"type":"SCALAR"
		},
		{
			"bufferView":12,
			"componentType":5126,
			"count":288,
			"max":[
				-4.722533702850342,
				-2.602803945541382,
				10.330245971679688
			],
			"min":[
				-5.87669563293457,
				-2.8211722373962402,
				-9.192732810974121
			],
			"type":"VEC3"
		},
		{
			"bufferView":13,
			"componentType":5126,
			"count":288,
			"type":"VEC3"
		},
		{
			"bufferView":14,
			"componentType":5126,
			"count":288,
			"type":"VEC2"
		},
		{
			"bufferView":15,
			"componentType":5123,
			"count":528,
			"type":"SCALAR"
		},
		{
			"bufferView":16,
			"componentType":5126,
			"count":136,
			"max":[
				-4.697190761566162,
				-2.83310604095459,
				10.214155197143555
			],
			"min":[
				-5.902039051055908,
				-3.1512506008148193,
				-9.076640129089355
			],
			"type":"VEC3"
		},
		{
			"bufferView":17,
			"componentType":5126,
			"count":136,
			"type":"VEC3"
		},
		{
			"bufferView":18,
			"componentType":5126,
			"count":136,
			"type":"VEC2"
		},
		{
			"bufferView":19,
			"componentType":5123,
			"count":240,
			"type":"SCALAR"
		},
		{
			"bufferView":20,
			"componentType":5126,
			"count":144,
			"max":[
				-1.8055822849273682,
				-0.8066930174827576,
				11.00164794921875
			],
			"min":[
				-7.6590447425842285,
				-4.278393268585205,
				-9.105544090270996
			],
			"type":"VEC3"
		},
		{
			"bufferView":21,
			"componentType":5126,
			"count":144,
			"type":"VEC3"
		},
		{
			"bufferView":22,
			"componentType":5126,
			"count":144,
			"type":"VEC2"
		},
		{
			"bufferView":23,
			"componentType":5123,
			"count":312,
			"type":"SCALAR"
		},
		{
			"bufferView":24,
			"componentType":5126,
			"count":4032,
			"max":[
				-1.8189895153045654,
				-0.8089635968208313,
				11.072278022766113
			],
			"min":[
				-7.605717182159424,
				-3.8277101516723633,
				-9.147849082946777
			],
			"type":"VEC3"
		},
		{
			"bufferView":25,
			"componentType":5126,
			"count":4032,
			"type":"VEC3"
		},
		{
			"bufferView":26,
			"componentType":5126,
			"count":4032,
			"type":"VEC2"
		},
		{
			"bufferView":27,
			"componentType":5123,
			"count":5544,
			"type":"SCALAR"
		},
		{
			"bufferView":28,
			"componentType":5126,
			"count":48,
			"max":[
				2.106032133102417,
				-0.9107860922813416,
				11.561650276184082
			],
			"min":[
				-3.78916597366333,
				-1.0539566278457642,
				-11.62430477142334
			],
			"type":"VEC3"
		},
		{
			"bufferView":29,
			"componentType":5126,
			"count":48,
			"type":"VEC3"
		},
		{
			"bufferView":30,
			"componentType":5126,
			"count":48,
			"type":"VEC2"
		},
		{
			"bufferView":31,
			"componentType":5126,
			"count":2976,
			"max":[
				2.072410821914673,
				0.7642736434936523,
				11.566773414611816
			],
			"min":[
				-3.7889928817749023,
				-1.0074031352996826,
				-11.629942893981934
			],
			"type":"VEC3"
		},
		{
			"bufferView":32,
			"componentType":5126,
			"count":2976,
			"type":"VEC3"
		},
		{
			"bufferView":33,
			"componentType":5126,
			"count":2976,
			"type":"VEC2"
		},
		{
			"bufferView":34,
			"componentType":5123,
			"count":5136,
			"type":"SCALAR"
		},
		{
			"bufferView":35,
			"componentType":5126,
			"count":54912,
			"max":[
				7.180021286010742,
				-0.8335051536560059,
				14.942573547363281
			],
			"min":[
				-7.667985916137695,
				-4.19228982925415,
				-10.177590370178223
			],
			"type":"VEC3"
		},
		{
			"bufferView":36,
			"componentType":5126,
			"count":54912,
			"type":"VEC3"
		},
		{
			"bufferView":37,
			"componentType":5126,
			"count":54912,
			"type":"VEC2"
		},
		{
			"bufferView":38,
			"componentType":5123,
			"count":75504,
			"type":"SCALAR"
		},
		{
			"bufferView":39,
			"componentType":5126,
			"count":504,
			"max":[
				7.192569732666016,
				-0.7435650825500488,
				14.955121994018555
			],
			"min":[
				-7.625668525695801,
				-4.276107311248779,
				-10.094694137573242
			],
			"type":"VEC3"
		},
		{
			"bufferView":40,
			"componentType":5126,
			"count":504,
			"type":"VEC3"
		},
		{
			"bufferView":41,
			"componentType":5126,
			"count":504,
			"type":"VEC2"
		},
		{
			"bufferView":42,
			"componentType":5123,
			"count":756,
			"type":"SCALAR"
		},
		{
			"bufferView":43,
			"componentType":5126,
			"count":400,
			"max":[
				1.816216230392456,
				-0.8066930174827576,
				10.361873626708984
			],
			"min":[
				-1.8338549137115479,
				-4.249843120574951,
				10.06391429901123
			],
			"type":"VEC3"
		},
		{
			"bufferView":44,
			"componentType":5126,
			"count":400,
			"type":"VEC3"
		},
		{
			"bufferView":45,
			"componentType":5126,
			"count":400,
			"type":"VEC2"
		},
		{
			"bufferView":46,
			"componentType":5123,
			"count":708,
			"type":"SCALAR"
		},
		{
			"bufferView":47,
			"componentType":5126,
			"count":196,
			"max":[
				1.5856373310089111,
				-0.8307084441184998,
				10.275407791137695
			],
			"min":[
				-1.603276014328003,
				-4.249919891357422,
				10.15038013458252
			],
			"type":"VEC3"
		},
		{
			"bufferView":48,
			"componentType":5126,
			"count":196,
			"type":"VEC3"
		},
		{
			"bufferView":49,
			"componentType":5126,
			"count":196,
			"type":"VEC2"
		},
		{
			"bufferView":50,
			"componentType":5123,
			"count":564,
			"type":"SCALAR"
		},
		{
			"bufferView":51,
			"componentType":5126,
			"count":24,
			"max":[
				1.3588569164276123,
				-1.1835095882415771,
				10.239479064941406
			],
			"min":[
				-1.376495361328125,
				-2.0666327476501465,
				10.186307907104492
			],
			"type":"VEC3"
		},
		{
			"bufferView":52,
			"componentType":5126,
			"count":24,
			"type":"VEC3"
		},
		{
			"bufferView":53,
			"componentType":5126,
			"count":24,
			"type":"VEC2"
		},
		{
			"bufferView":54,
			"componentType":5123,
			"count":36,
			"type":"SCALAR"
		},
		{
			"bufferView":55,
			"componentType":5126,
			"count":924,
			"max":[
				-1.4422459602355957,
				1.6245979070663452,
				10.24555778503418
			],
			"min":[
				-6.9290547370910645,
				-0.7744035124778748,
				-7.819674968719482
			],
			"type":"VEC3"
		},
		{
			"bufferView":56,
			"componentType":5126,
			"count":924,
			"type":"VEC3"
		},
		{
			"bufferView":57,
			"componentType":5126,
			"count":924,
			"type":"VEC2"
		},
		{
			"bufferView":58,
			"componentType":5123,
			"count":2556,
			"type":"SCALAR"
		},
		{
			"bufferView":59,
			"componentType":5126,
			"count":1200,
			"max":[
				-0.8912031054496765,
				2.18723201751709,
				10.316634178161621
			],
			"min":[
				-7.000131607055664,
				-0.8182008862495422,
				-7.890751838684082
			],
			"type":"VEC3"
		},
		{
			"bufferView":60,
			"componentType":5126,
			"count":1200,
			"type":"VEC3"
		},
		{
			"bufferView":61,
			"componentType":5126,
			"count":1200,
			"type":"VEC2"
		},
		{
			"bufferView":62,
			"componentType":5123,
			"count":2160,
			"type":"SCALAR"
		},
		{
			"bufferView":63,
			"componentType":5126,
			"count":72,
			"max":[
				-1.5364387035369873,
				1.6477054357528687,
				10.20351505279541
			],
			"min":[
				-6.887011528015137,
				-0.7178377509117126,
				-7.7776312828063965
			],
			"type":"VEC3"
		},
		{
			"bufferView":64,
			"componentType":5126,
			"count":72,
			"type":"VEC3"
		},
		{
			"bufferView":65,
			"componentType":5126,
			"count":72,
			"type":"VEC2"
		},
		{
			"bufferView":66,
			"componentType":5123,
			"count":108,
			"type":"SCALAR"
		},
		{
			"bufferView":67,
			"componentType":5126,
			"count":2400,
			"max":[
				5.47894287109375,
				5.1654181480407715,
				10.315403938293457
			],
			"min":[
				-6.700231075286865,
				2.092860698699951,
				-9.008140563964844
			],
			"type":"VEC3"
		},
		{
			"bufferView":68,
			"componentType":5126,
			"count":2400,
			"type":"VEC3"
		},
		{
			"bufferView":69,
			"componentType":5126,
			"count":2400,
			"type":"VEC2"
		},
		{
			"bufferView":70,
			"componentType":5123,
			"count":4320,
			"type":"SCALAR"
		},
		{
			"bufferView":71,
			"componentType":5126,
			"count":792,
			"max":[
				5.4226837158203125,
				5.132412910461426,
				10.25914478302002
			],
			"min":[
				-5.852595806121826,
				2.1827661991119385,
				-8.951881408691406
			],
			"type":"VEC3"
		},
		{
			"bufferView":72,
			"componentType":5126,
			"count":792,
			"type":"VEC3"
		},
		{
			"bufferView":73,
			"componentType":5126,
			"count":792,
			"type":"VEC2"
		},
		{
			"bufferView":74,
			"componentType":5123,
			"count":2088,
			"type":"SCALAR"
		},
		{
			"bufferView":75,
			"componentType":5126,
			"count":144,
			"max":[
				5.377340316772461,
				5.232490062713623,
				10.213801383972168
			],
			"min":[
				-5.784106254577637,
				2.2650418281555176,
				-8.906538009643555
			],
			"type":"VEC3"
		},
		{
			"bufferView":76,
			"componentType":5126,
			"count":144,
			"type":"VEC3"
		},
		{
			"bufferView":77,
			"componentType":5126,
			"count":144,
			"type":"VEC2"
		},
		{
			"bufferView":78,
			"componentType":5123,
			"count":216,
			"type":"SCALAR"
		},
		{
			"bufferView":79,
			"componentType":5126,
			"count":144,
			"max":[
				5.519383430480957,
				5.4791998863220215,
				10.355844497680664
			],
			"min":[
				-6.700997829437256,
				4.988035202026367,
				-9.048582077026367
			],
			"type":"VEC3"
		},
		{
			"bufferView":80,
			"componentType":5126,
			"count":144,
			"type":"VEC3"
		},
		{
			"bufferView":81,
			"componentType":5126,
			"count":144,
			"type":"VEC2"
		},
		{
			"bufferView":82,
			"componentType":5126,
			"count":144,
			"max":[
				5.501591682434082,
				7.747370719909668,
				10.338052749633789
			],
			"min":[
				-6.682056427001953,
				5.22574520111084,
				-9.030790328979492
			],
			"type":"VEC3"
		},
		{
			"bufferView":83,
			"componentType":5126,
			"count":144,
			"type":"VEC3"
		},
		{
			"bufferView":84,
			"componentType":5126,
			"count":144,
			"type":"VEC2"
		},
		{
			"bufferView":85,
			"componentType":5126,
			"count":136,
			"max":[
				2.0153205394744873,
				5.6269989013671875,
				10.314637184143066
			],
			"min":[
				-6.950363636016846,
				-0.9171263575553894,
				6.809476375579834
			],
			"type":"VEC3"
		},
		{
			"bufferView":86,
			"componentType":5126,
			"count":136,
			"type":"VEC3"
		},
		{
			"bufferView":87,
			"componentType":5126,
			"count":136,
			"type":"VEC2"
		},
		{
			"bufferView":88,
			"componentType":5123,
			"count":204,
			"type":"SCALAR"
		},
		{
			"bufferView":89,
			"componentType":5126,
			"count":1800,
			"max":[
				2.2938687801361084,
				5.247705459594727,
				8.160517692565918
			],
			"min":[
				-6.9497599601745605,
				-0.9171263575553894,
				-7.946804046630859
			],
			"type":"VEC3"
		},
		{
			"bufferView":90,
			"componentType":5126,
			"count":1800,
			"type":"VEC3"
		},
		{
			"bufferView":91,
			"componentType":5126,
			"count":1800,
			"type":"VEC2"
		},
		{
			"bufferView":92,
			"componentType":5123,
			"count":3180,
			"type":"SCALAR"
		},
		{
			"bufferView":93,
			"componentType":5126,
			"count":800,
			"max":[
				1.844653844833374,
				4.44022274017334,
				8.188542366027832
			],
			"min":[
				-6.977785110473633,
				-0.923403799533844,
				-7.974828720092773
			],
			"type":"VEC3"
		},
		{
			"bufferView":94,
			"componentType":5126,
			"count":800,
			"type":"VEC3"
		},
		{
			"bufferView":95,
			"componentType":5126,
			"count":800,
			"type":"VEC2"
		},
		{
			"bufferView":96,
			"componentType":5123,
			"count":2040,
			"type":"SCALAR"
		},
		{
			"bufferView":97,
			"componentType":5126,
			"count":120,
			"max":[
				1.8196914196014404,
				4.418957710266113,
				8.056692123413086
			],
			"min":[
				-6.8459343910217285,
				-0.8978137373924255,
				-7.8429789543151855
			],
			"type":"VEC3"
		},
		{
			"bufferView":98,
			"componentType":5126,
			"count":120,
			"type":"VEC3"
		},
		{
			"bufferView":99,
			"componentType":5126,
			"count":120,
			"type":"VEC2"
		},
		{
			"bufferView":100,
			"componentType":5123,
			"count":180,
			"type":"SCALAR"
		},
		{
			"bufferView":101,
			"componentType":5126,
			"count":2400,
			"max":[
				5.452770233154297,
				5.482457160949707,
				8.170191764831543
			],
			"min":[
				-3.3700804710388184,
				2.304699420928955,
				-7.946800231933594
			],
			"type":"VEC3"
		},
		{
			"bufferView":102,
			"componentType":5126,
			"count":2400,
			"type":"VEC3"
		},
		{
			"bufferView":103,
			"componentType":5126,
			"count":2400,
			"type":"VEC2"
		},
		{
			"bufferView":104,
			"componentType":5123,
			"count":6960,
			"type":"SCALAR"
		},
		{
			"bufferView":105,
			"componentType":5126,
			"count":1140,
			"max":[
				5.447925567626953,
				5.632708549499512,
				8.163044929504395
			],
			"min":[
				-4.076274871826172,
				2.0873847007751465,
				-7.9396514892578125
			],
			"type":"VEC3"
		},
		{
			"bufferView":106,
			"componentType":5126,
			"count":1140,
			"type":"VEC3"
		},
		{
			"bufferView":107,
			"componentType":5126,
			"count":1140,
			"type":"VEC2"
		},
		{
			"bufferView":108,
			"componentType":5123,
			"count":2100,
			"type":"SCALAR"
		},
		{
			"bufferView":109,
			"componentType":5126,
			"count":120,
			"max":[
				5.388843536376953,
				5.2199554443359375,
				8.106266021728516
			],
			"min":[
				-3.0376269817352295,
				2.5672011375427246,
				-7.88287353515625
			],
			"type":"VEC3"
		},
		{
			"bufferView":110,
			"componentType":5126,
			"count":120,
			"type":"VEC3"
		},
		{
			"bufferView":111,
			"componentType":5126,
			"count":120,
			"type":"VEC2"
		},
		{
			"bufferView":112,
			"componentType":5123,
			"count":180,
			"type":"SCALAR"
		},
		{
			"bufferView":113,
			"componentType":5126,
			"count":4804,
			"max":[
				5.478940963745117,
				5.738392353057861,
				8.211014747619629
			],
			"min":[
				-6.952393054962158,
				-0.9116508960723877,
				-9.026701927185059
			],
			"type":"VEC3"
		},
		{
			"bufferView":114,
			"componentType":5126,
			"count":4804,
			"type":"VEC3"
		},
		{
			"bufferView":115,
			"componentType":5126,
			"count":4804,
			"type":"VEC2"
		},
		{
			"bufferView":116,
			"componentType":5123,
			"count":7206,
			"type":"SCALAR"
		},
		{
			"bufferView":117,
			"componentType":5126,
			"count":336,
			"max":[
				4.564101219177246,
				1.5495903491973877,
				1.9977178573608398
			],
			"min":[
				3.1563680171966553,
				-0.7692031860351562,
				1.882219910621643
			],
			"type":"VEC3"
		},
		{
			"bufferView":118,
			"componentType":5126,
			"count":336,
			"type":"VEC3"
		},
		{
			"bufferView":119,
			"componentType":5126,
			"count":336,
			"type":"VEC2"
		},
		{
			"bufferView":120,
			"componentType":5123,
			"count":960,
			"type":"SCALAR"
		},
		{
			"bufferView":121,
			"componentType":5126,
			"count":352,
			"max":[
				5.452770233154297,
				2.243194580078125,
				2.069969415664673
			],
			"min":[
				2.2676985263824463,
				-0.7613168954849243,
				1.8099684715270996
			],
			"type":"VEC3"
		},
		{
			"bufferView":122,
			"componentType":5126,
			"count":352,
			"type":"VEC3"
		},
		{
			"bufferView":123,
			"componentType":5126,
			"count":352,
			"type":"VEC2"
		},
		{
			"bufferView":124,
			"componentType":5123,
			"count":612,
			"type":"SCALAR"
		},
		{
			"bufferView":125,
			"componentType":5126,
			"count":168,
			"max":[
				3.327648878097534,
				0.597850501537323,
				2.0864171981811523
			],
			"min":[
				3.2666337490081787,
				0.2923218309879303,
				1.7935206890106201
			],
			"type":"VEC3"
		},
		{
			"bufferView":126,
			"componentType":5126,
			"count":168,
			"type":"VEC3"
		},
		{
			"bufferView":127,
			"componentType":5126,
			"count":168,
			"type":"VEC2"
		},
		{
			"bufferView":128,
			"componentType":5123,
			"count":264,
			"type":"SCALAR"
		},
		{
			"bufferView":129,
			"componentType":5126,
			"count":24,
			"max":[
				4.3007001876831055,
				1.507218599319458,
				1.9524333477020264
			],
			"min":[
				3.4073102474212646,
				0.6138285398483276,
				1.9275041818618774
			],
			"type":"VEC3"
		},
		{
			"bufferView":130,
			"componentType":5126,
			"count":24,
			"type":"VEC3"
		},
		{
			"bufferView":131,
			"componentType":5126,
			"count":24,
			"type":"VEC2"
		},
		{
			"bufferView":132,
			"componentType":5126,
			"count":72,
			"max":[
				3.83966326713562,
				2.0849692821502686,
				11.847538948059082
			],
			"min":[
				-8.806327819824219,
				1.7437031269073486,
				3.7907817363739014
			],
			"type":"VEC3"
		},
		{
			"bufferView":133,
			"componentType":5126,
			"count":72,
			"type":"VEC3"
		},
		{
			"bufferView":134,
			"componentType":5126,
			"count":72,
			"type":"VEC2"
		},
		{
			"bufferView":135,
			"componentType":5123,
			"count":108,
			"type":"SCALAR"
		},
		{
			"bufferView":136,
			"componentType":5126,
			"count":1800,
			"max":[
				3.8002936840057373,
				3.6257452964782715,
				11.8081693649292
			],
			"min":[
				-8.757822036743164,
				1.7433688640594482,
				3.818028211593628
			],
			"type":"VEC3"
		},
		{
			"bufferView":137,
			"componentType":5126,
			"count":1800,
			"type":"VEC3"
		},
		{
			"bufferView":138,
			"componentType":5126,
			"count":1800,
			"type":"VEC2"
		},
		{
			"bufferView":139,
			"componentType":5123,
			"count":3096,
			"type":"SCALAR"
		},
		{
			"bufferView":140,
			"componentType":5126,
			"count":11871,
			"max":[
				5.9920196533203125,
				7.922706604003906,
				10.716567993164062
			],
			"min":[
				-6.8659162521362305,
				4.100689888000488,
				-9.427326202392578
			],
			"type":"VEC3"
		},
		{
			"bufferView":141,
			"componentType":5126,
			"count":11871,
			"type":"VEC3"
		},
		{
			"bufferView":142,
			"componentType":5126,
			"count":11871,
			"type":"VEC2"
		},
		{
			"bufferView":143,
			"componentType":5123,
			"count":20784,
			"type":"SCALAR"
		}
	],
	"bufferViews":[
		{
			"buffer":0,
			"byteLength":9984,
			"byteOffset":0,
			"target":34962
		},
		{
			"buffer":0,
			"byteLength":9984,
			"byteOffset":9984,
			"target":34962
		},
		{
			"buffer":0,
			"byteLength":6656,
			"byteOffset":19968,
			"target":34962
		},
		{
			"buffer":0,
			"byteLength":3024,
			"byteOffset":26624,
			"target":34963
		},
		{
			"buffer":0,
			"byteLength":3840,
			"byteOffset":29648,
			"target":34962
		},
		{
			"buffer":0,
			"byteLength":3840,
			"byteOffset":33488,
			"target":34962
		},
		{
			"buffer":0,
			"byteLength":2560,
			"byteOffset":37328,
			"target":34962
		},
		{
			"buffer":0,
			"byteLength":1824,
			"byteOffset":39888,
			"target":34963
		},
		{
			"buffer":0,
			"byteLength":576,
			"byteOffset":41712,
			"target":34962
		},
		{
			"buffer":0,
			"byteLength":576,
			"byteOffset":42288,
			"target":34962
		},
		{
			"buffer":0,
			"byteLength":384,
			"byteOffset":42864,
			"target":34962
		},
		{
			"buffer":0,
			"byteLength":144,
			"byteOffset":43248,
			"target":34963
		},
		{
			"buffer":0,
			"byteLength":3456,
			"byteOffset":43392,
			"target":34962
		},
		{
			"buffer":0,
			"byteLength":3456,
			"byteOffset":46848,
			"target":34962
		},
		{
			"buffer":0,
			"byteLength":2304,
			"byteOffset":50304,
			"target":34962
		},
		{
			"buffer":0,
			"byteLength":1056,
			"byteOffset":52608,
			"target":34963
		},
		{
			"buffer":0,
			"byteLength":1632,
			"byteOffset":53664,
			"target":34962
		},
		{
			"buffer":0,
			"byteLength":1632,
			"byteOffset":55296,
			"target":34962
		},
		{
			"buffer":0,
			"byteLength":1088,
			"byteOffset":56928,
			"target":34962
		},
		{
			"buffer":0,
			"byteLength":480,
			"byteOffset":58016,
			"target":34963
		},
		{
			"buffer":0,
			"byteLength":1728,
			"byteOffset":58496,
			"target":34962
		},
		{
			"buffer":0,
			"byteLength":1728,
			"byteOffset":60224,
			"target":34962
		},
		{
			"buffer":0,
			"byteLength":1152,
			"byteOffset":61952,
			"target":34962
		},
		{
			"buffer":0,
			"byteLength":624,
			"byteOffset":63104,
			"target":34963
		},
		{
			"buffer":0,
			"byteLength":48384,
			"byteOffset":63728,
			"target":34962
		},
		{
			"buffer":0,
			"byteLength":48384,
			"byteOffset":112112,
			"target":34962
		},
		{
			"buffer":0,
			"byteLength":32256,
			"byteOffset":160496,
			"target":34962
		},
		{
			"buffer":0,
			"byteLength":11088,
			"byteOffset":192752,
			"target":34963
		},
		{
			"buffer":0,
			"byteLength":576,
			"byteOffset":203840,
			"target":34962
		},
		{
			"buffer":0,
			"byteLength":576,
			"byteOffset":204416,
			"target":34962
		},
		{
			"buffer":0,
			"byteLength":384,
			"byteOffset":204992,
			"target":34962
		},
		{
			"buffer":0,
			"byteLength":35712,
			"byteOffset":205376,
			"target":34962
		},
		{
			"buffer":0,
			"byteLength":35712,
			"byteOffset":241088,
			"target":34962
		},
		{
			"buffer":0,
			"byteLength":23808,
			"byteOffset":276800,
			"target":34962
		},
		{
			"buffer":0,
			"byteLength":10272,
			"byteOffset":300608,
			"target":34963
		},
		{
			"buffer":0,
			"byteLength":658944,
			"byteOffset":310880,
			"target":34962
		},
		{
			"buffer":0,
			"byteLength":658944,
			"byteOffset":969824,
			"target":34962
		},
		{
			"buffer":0,
			"byteLength":439296,
			"byteOffset":1628768,
			"target":34962
		},
		{
			"buffer":0,
			"byteLength":151008,
			"byteOffset":2068064,
			"target":34963
		},
		{
			"buffer":0,
			"byteLength":6048,
			"byteOffset":2219072,
			"target":34962
		},
		{
			"buffer":0,
			"byteLength":6048,
			"byteOffset":2225120,
			"target":34962
		},
		{
			"buffer":0,
			"byteLength":4032,
			"byteOffset":2231168,
			"target":34962
		},
		{
			"buffer":0,
			"byteLength":1512,
			"byteOffset":2235200,
			"target":34963
		},
		{
			"buffer":0,
			"byteLength":4800,
			"byteOffset":2236712,
			"target":34962
		},
		{
			"buffer":0,
			"byteLength":4800,
			"byteOffset":2241512,
			"target":34962
		},
		{
			"buffer":0,
			"byteLength":3200,
			"byteOffset":2246312,
			"target":34962
		},
		{
			"buffer":0,
			"byteLength":1416,
			"byteOffset":2249512,
			"target":34963
		},
		{
			"buffer":0,
			"byteLength":2352,
			"byteOffset":2250928,
			"target":34962
		},
		{
			"buffer":0,
			"byteLength":2352,
			"byteOffset":2253280,
			"target":34962
		},
		{
			"buffer":0,
			"byteLength":1568,
			"byteOffset":2255632,
			"target":34962
		},
		{
			"buffer":0,
			"byteLength":1128,
			"byteOffset":2257200,
			"target":34963
		},
		{
			"buffer":0,
			"byteLength":288,
			"byteOffset":2258328,
			"target":34962
		},
		{
			"buffer":0,
			"byteLength":288,
			"byteOffset":2258616,
			"target":34962
		},
		{
			"buffer":0,
			"byteLength":192,
			"byteOffset":2258904,
			"target":34962
		},
		{
			"buffer":0,
			"byteLength":72,
			"byteOffset":2259096,
			"target":34963
		},
		{
			"buffer":0,
			"byteLength":11088,
			"byteOffset":2259168,
			"target":34962
		},
		{
			"buffer":0,
			"byteLength":11088,
			"byteOffset":2270256,
			"target":34962
		},
		{
			"buffer":0,
			"byteLength":7392,
			"byteOffset":2281344,
			"target":34962
		},
		{
			"buffer":0,
			"byteLength":5112,
			"byteOffset":2288736,
			"target":34963
		},
		{
			"buffer":0,
			"byteLength":14400,
			"byteOffset":2293848,
			"target":34962
		},
		{
			"buffer":0,
			"byteLength":14400,
			"byteOffset":2308248,
			"target":34962
		},
		{
			"buffer":0,
			"byteLength":9600,
			"byteOffset":2322648,
			"target":34962
		},
		{
			"buffer":0,
			"byteLength":4320,
			"byteOffset":2332248,
			"target":34963
		},
		{
			"buffer":0,
			"byteLength":864,
			"byteOffset":2336568,
			"target":34962
		},
		{
			"buffer":0,
			"byteLength":864,
			"byteOffset":2337432,
			"target":34962
		},
		{
			"buffer":0,
			"byteLength":576,
			"byteOffset":2338296,
			"target":34962
		},
		{
			"buffer":0,
			"byteLength":216,
			"byteOffset":2338872,
			"target":34963
		},
		{
			"buffer":0,
			"byteLength":28800,
			"byteOffset":2339088,
			"target":34962
		},
		{
			"buffer":0,
			"byteLength":28800,
			"byteOffset":2367888,
			"target":34962
		},
		{
			"buffer":0,
			"byteLength":19200,
			"byteOffset":2396688,
			"target":34962
		},
		{
			"buffer":0,
			"byteLength":8640,
			"byteOffset":2415888,
			"target":34963
		},
		{
			"buffer":0,
			"byteLength":9504,
			"byteOffset":2424528,
			"target":34962
		},
		{
			"buffer":0,
			"byteLength":9504,
			"byteOffset":2434032,
			"target":34962
		},
		{
			"buffer":0,
			"byteLength":6336,
			"byteOffset":2443536,
			"target":34962
		},
		{
			"buffer":0,
			"byteLength":4176,
			"byteOffset":2449872,
			"target":34963
		},
		{
			"buffer":0,
			"byteLength":1728,
			"byteOffset":2454048,
			"target":34962
		},
		{
			"buffer":0,
			"byteLength":1728,
			"byteOffset":2455776,
			"target":34962
		},
		{
			"buffer":0,
			"byteLength":1152,
			"byteOffset":2457504,
			"target":34962
		},
		{
			"buffer":0,
			"byteLength":432,
			"byteOffset":2458656,
			"target":34963
		},
		{
			"buffer":0,
			"byteLength":1728,
			"byteOffset":2459088,
			"target":34962
		},
		{
			"buffer":0,
			"byteLength":1728,
			"byteOffset":2460816,
			"target":34962
		},
		{
			"buffer":0,
			"byteLength":1152,
			"byteOffset":2462544,
			"target":34962
		},
		{
			"buffer":0,
			"byteLength":1728,
			"byteOffset":2463696,
			"target":34962
		},
		{
			"buffer":0,
			"byteLength":1728,
			"byteOffset":2465424,
			"target":34962
		},
		{
			"buffer":0,
			"byteLength":1152,
			"byteOffset":2467152,
			"target":34962
		},
		{
			"buffer":0,
			"byteLength":1632,
			"byteOffset":2468304,
			"target":34962
		},
		{
			"buffer":0,
			"byteLength":1632,
			"byteOffset":2469936,
			"target":34962
		},
		{
			"buffer":0,
			"byteLength":1088,
			"byteOffset":2471568,
			"target":34962
		},
		{
			"buffer":0,
			"byteLength":408,
			"byteOffset":2472656,
			"target":34963
		},
		{
			"buffer":0,
			"byteLength":21600,
			"byteOffset":2473064,
			"target":34962
		},
		{
			"buffer":0,
			"byteLength":21600,
			"byteOffset":2494664,
			"target":34962
		},
		{
			"buffer":0,
			"byteLength":14400,
			"byteOffset":2516264,
			"target":34962
		},
		{
			"buffer":0,
			"byteLength":6360,
			"byteOffset":2530664,
			"target":34963
		},
		{
			"buffer":0,
			"byteLength":9600,
			"byteOffset":2537024,
			"target":34962
		},
		{
			"buffer":0,
			"byteLength":9600,
			"byteOffset":2546624,
			"target":34962
		},
		{
			"buffer":0,
			"byteLength":6400,
			"byteOffset":2556224,
			"target":34962
		},
		{
			"buffer":0,
			"byteLength":4080,
			"byteOffset":2562624,
			"target":34963
		},
		{
			"buffer":0,
			"byteLength":1440,
			"byteOffset":2566704,
			"target":34962
		},
		{
			"buffer":0,
			"byteLength":1440,
			"byteOffset":2568144,
			"target":34962
		},
		{
			"buffer":0,
			"byteLength":960,
			"byteOffset":2569584,
			"target":34962
		},
		{
			"buffer":0,
			"byteLength":360,
			"byteOffset":2570544,
			"target":34963
		},
		{
			"buffer":0,
			"byteLength":28800,
			"byteOffset":2570904,
			"target":34962
		},
		{
			"buffer":0,
			"byteLength":28800,
			"byteOffset":2599704,
			"target":34962
		},
		{
			"buffer":0,
			"byteLength":19200,
			"byteOffset":2628504,
			"target":34962
		},
		{
			"buffer":0,
			"byteLength":13920,
			"byteOffset":2647704,
			"target":34963
		},
		{
			"buffer":0,
			"byteLength":13680,
			"byteOffset":2661624,
			"target":34962
		},
		{
			"buffer":0,
			"byteLength":13680,
			"byteOffset":2675304,
			"target":34962
		},
		{
			"buffer":0,
			"byteLength":9120,
			"byteOffset":2688984,
			"target":34962
		},
		{
			"buffer":0,
			"byteLength":4200,
			"byteOffset":2698104,
			"target":34963
		},
		{
			"buffer":0,
			"byteLength":1440,
			"byteOffset":2702304,
			"target":34962
		},
		{
			"buffer":0,
			"byteLength":1440,
			"byteOffset":2703744,
			"target":34962
		},
		{
			"buffer":0,
			"byteLength":960,
			"byteOffset":2705184,
			"target":34962
		},
		{
			"buffer":0,
			"byteLength":360,
			"byteOffset":2706144,
			"target":34963
		},
		{
			"buffer":0,
			"byteLength":57648,
			"byteOffset":2706504,
			"target":34962
		},
		{
			"buffer":0,
			"byteLength":57648,
			"byteOffset":2764152,
			"target":34962
		},
		{
			"buffer":0,
			"byteLength":38432,
			"byteOffset":2821800,
			"target":34962
		},
		{
			"buffer":0,
			"byteLength":14412,
			"byteOffset":2860232,
			"target":34963
		},
		{
			"buffer":0,
			"byteLength":4032,
			"byteOffset":2874644,
			"target":34962
		},
		{
			"buffer":0,
			"byteLength":4032,
			"byteOffset":2878676,
			"target":34962
		},
		{
			"buffer":0,
			"byteLength":2688,
			"byteOffset":2882708,
			"target":34962
		},
		{
			"buffer":0,
			"byteLength":1920,
			"byteOffset":2885396,
			"target":34963
		},
		{
			"buffer":0,
			"byteLength":4224,
			"byteOffset":2887316,
			"target":34962
		},
		{
			"buffer":0,
			"byteLength":4224,
			"byteOffset":2891540,
			"target":34962
		},
		{
			"buffer":0,
			"byteLength":2816,
			"byteOffset":2895764,
			"target":34962
		},
		{
			"buffer":0,
			"byteLength":1224,
			"byteOffset":2898580,
			"target":34963
		},
		{
			"buffer":0,
			"byteLength":2016,
			"byteOffset":2899804,
			"target":34962
		},
		{
			"buffer":0,
			"byteLength":2016,
			"byteOffset":2901820,
			"target":34962
		},
		{
			"buffer":0,
			"byteLength":1344,
			"byteOffset":2903836,
			"target":34962
		},
		{
			"buffer":0,
			"byteLength":528,
			"byteOffset":2905180,
			"target":34963
		},
		{
			"buffer":0,
			"byteLength":288,
			"byteOffset":2905708,
			"target":34962
		},
		{
			"buffer":0,
			"byteLength":288,
			"byteOffset":2905996,
			"target":34962
		},
		{
			"buffer":0,
			"byteLength":192,
			"byteOffset":2906284,
			"target":34962
		},
		{
			"buffer":0,
			"byteLength":864,
			"byteOffset":2906476,
			"target":34962
		},
		{
			"buffer":0,
			"byteLength":864,
			"byteOffset":2907340,
			"target":34962
		},
		{
			"buffer":0,
			"byteLength":576,
			"byteOffset":2908204,
			"target":34962
		},
		{
			"buffer":0,
			"byteLength":216,
			"byteOffset":2908780,
			"target":34963
		},
		{
			"buffer":0,
			"byteLength":21600,
			"byteOffset":2908996,
			"target":34962
		},
		{
			"buffer":0,
			"byteLength":21600,
			"byteOffset":2930596,
			"target":34962
		},
		{
			"buffer":0,
			"byteLength":14400,
			"byteOffset":2952196,
			"target":34962
		},
		{
			"buffer":0,
			"byteLength":6192,
			"byteOffset":2966596,
			"target":34963
		},
		{
			"buffer":0,
			"byteLength":142452,
			"byteOffset":2972788,
			"target":34962
		},
		{
			"buffer":0,
			"byteLength":142452,
			"byteOffset":3115240,
			"target":34962
		},
		{
			"buffer":0,
			"byteLength":94968,
			"byteOffset":3257692,
			"target":34962
		},
		{
			"buffer":0,
			"byteLength":41568,
			"byteOffset":3352660,
			"target":34963
		}
	],
	"buffers":[
		{
			"byteLength":3394228,
			"uri":"House_05-afa55d831d6976ac1303a7449fb5beb9.bin"
		}
	]
}
