{
	"asset":{
		"generator":"Khronos glTF Blender I/O v4.3.47",
		"version":"2.0"
	},
	"extensionsUsed":[
		"KHR_materials_specular",
		"KHR_materials_ior"
	],
	"scene":0,
	"scenes":[
		{
			"name":"Scene",
			"nodes":[
				0
			]
		}
	],
	"nodes":[
		{
			"mesh":0,
			"name":"Jelly01"
		}
	],
	"materials":[
		{
			"doubleSided":true,
			"extensions":{
				"KHR_materials_specular":{
					"specularColorFactor":[
						2.0,
						2.0,
						2.0
					]
				},
				"KHR_materials_ior":{
					"ior":1.4500000476837158
				}
			},
			"name":"Green_Jelly01",
			"pbrMetallicRoughness":{
				"baseColorFactor":[
					0.04970649629831314,
					0.37626227736473083,
					0.042311422526836395,
					1
				],
				"metallicFactor":0,
				"roughnessFactor":0.3684210479259491
			}
		}
	],
	"meshes":[
		{
			"name":"Cylinder.010",
			"primitives":[
				{
					"attributes":{
						"POSITION":0,
						"NORMAL":1,
						"TEXCOORD_0":2,
						"TANGENT":3
					},
					"indices":4,
					"material":0
				}
			]
		}
	],
	"accessors":[
		{
			"bufferView":0,
			"componentType":5126,
			"count":2014,
			"max":[
				3.110488176345825,
				1.6716618537902832,
				3.111004590988159
			],
			"min":[
				-3.1120102405548096,
				-1.6997034549713135,
				-3.111494302749634
			],
			"type":"VEC3"
		},
		{
			"bufferView":1,
			"componentType":5126,
			"count":2014,
			"type":"VEC3"
		},
		{
			"bufferView":2,
			"componentType":5126,
			"count":2014,
			"type":"VEC2"
		},
		{
			"bufferView":3,
			"componentType":5126,
			"count":2014,
			"type":"VEC4"
		},
		{
			"bufferView":4,
			"componentType":5123,
			"count":6960,
			"type":"SCALAR"
		}
	],
	"bufferViews":[
		{
			"buffer":0,
			"byteLength":24168,
			"byteOffset":0,
			"target":34962
		},
		{
			"buffer":0,
			"byteLength":24168,
			"byteOffset":24168,
			"target":34962
		},
		{
			"buffer":0,
			"byteLength":16112,
			"byteOffset":48336,
			"target":34962
		},
		{
			"buffer":0,
			"byteLength":32224,
			"byteOffset":64448,
			"target":34962
		},
		{
			"buffer":0,
			"byteLength":13920,
			"byteOffset":96672,
			"target":34963
		}
	],
	"buffers":[
		{
			"byteLength":110592,
			"uri":"Jelly01-61b1311e3f3fbad9927c29cda5b8acf7.bin"
		}
	]
}
