{
	"asset":{
		"generator":"Khronos glTF Blender I/O v4.3.47",
		"version":"2.0"
	},
	"scene":0,
	"scenes":[
		{
			"name":"Scene",
			"nodes":[
				0
			]
		}
	],
	"nodes":[
		{
			"mesh":0,
			"name":"Lemon"
		}
	],
	"materials":[
		{
			"doubleSided":true,
			"name":"Material.001",
			"pbrMetallicRoughness":{
				"baseColorFactor":[
					0.7156938314437866,
					0.6104958057403564,
					0.00121413916349411,
					1
				],
				"metallicFactor":0,
				"roughnessFactor":0.5
			}
		}
	],
	"meshes":[
		{
			"name":"Sphere",
			"primitives":[
				{
					"attributes":{
						"POSITION":0,
						"NORMAL":1,
						"TEXCOORD_0":2,
						"TANGENT":3
					},
					"indices":4,
					"material":0
				}
			]
		}
	],
	"accessors":[
		{
			"bufferView":0,
			"componentType":5126,
			"count":1049,
			"max":[
				0.9360997676849365,
				0.936099648475647,
				1.4011259078979492
			],
			"min":[
				-0.9360997080802917,
				-0.9360997676849365,
				-1.4277373552322388
			],
			"type":"VEC3"
		},
		{
			"bufferView":1,
			"componentType":5126,
			"count":1049,
			"type":"VEC3"
		},
		{
			"bufferView":2,
			"componentType":5126,
			"count":1049,
			"type":"VEC2"
		},
		{
			"bufferView":3,
			"componentType":5126,
			"count":1049,
			"type":"VEC4"
		},
		{
			"bufferView":4,
			"componentType":5123,
			"count":3888,
			"type":"SCALAR"
		}
	],
	"bufferViews":[
		{
			"buffer":0,
			"byteLength":12588,
			"byteOffset":0,
			"target":34962
		},
		{
			"buffer":0,
			"byteLength":12588,
			"byteOffset":12588,
			"target":34962
		},
		{
			"buffer":0,
			"byteLength":8392,
			"byteOffset":25176,
			"target":34962
		},
		{
			"buffer":0,
			"byteLength":16784,
			"byteOffset":33568,
			"target":34962
		},
		{
			"buffer":0,
			"byteLength":7776,
			"byteOffset":50352,
			"target":34963
		}
	],
	"buffers":[
		{
			"byteLength":58128,
			"uri":"Lemon-bcf3fbb95bd938cfe93dce344bb62066.bin"
		}
	]
}
