{
	"asset":{
		"generator":"Khronos glTF Blender I/O v4.3.47",
		"version":"2.0"
	},
	"scene":0,
	"scenes":[
		{
			"name":"Scene",
			"nodes":[
				0
			]
		}
	],
	"nodes":[
		{
			"mesh":0,
			"name":"LightPole_01"
		}
	],
	"materials":[
		{
			"doubleSided":true,
			"name":"Yellow_LightPole",
			"pbrMetallicRoughness":{
				"baseColorFactor":[
					0.9386858344078064,
					0.7681511044502258,
					0.01850022003054619,
					1
				],
				"metallicFactor":0,
				"roughnessFactor":0.5
			}
		},
		{
			"doubleSided":true,
			"name":"Gray_LihgtPole",
			"pbrMetallicRoughness":{
				"baseColorFactor":[
					0.2704978287220001,
					0.2704978287220001,
					0.2704978287220001,
					1
				],
				"metallicFactor":0,
				"roughnessFactor":0.5
			}
		}
	],
	"meshes":[
		{
			"name":"Cube.042",
			"primitives":[
				{
					"attributes":{
						"POSITION":0,
						"NORMAL":1,
						"TEXCOORD_0":2
					},
					"indices":3,
					"material":0
				},
				{
					"attributes":{
						"POSITION":4,
						"NORMAL":5,
						"TEXCOORD_0":6
					},
					"indices":7,
					"material":1
				}
			]
		}
	],
	"accessors":[
		{
			"bufferView":0,
			"componentType":5126,
			"count":20,
			"max":[
				2.1691782474517822,
				23.009702682495117,
				15.368027687072754
			],
			"min":[
				-2.2249388694763184,
				21.560646057128906,
				8.676535606384277
			],
			"type":"VEC3"
		},
		{
			"bufferView":1,
			"componentType":5126,
			"count":20,
			"type":"VEC3"
		},
		{
			"bufferView":2,
			"componentType":5126,
			"count":20,
			"type":"VEC2"
		},
		{
			"bufferView":3,
			"componentType":5123,
			"count":30,
			"type":"SCALAR"
		},
		{
			"bufferView":4,
			"componentType":5126,
			"count":412,
			"max":[
				3.249250888824463,
				24.674633026123047,
				15.713990211486816
			],
			"min":[
				-3.238098621368408,
				-23.56136131286621,
				-8.12914752960205
			],
			"type":"VEC3"
		},
		{
			"bufferView":5,
			"componentType":5126,
			"count":412,
			"type":"VEC3"
		},
		{
			"bufferView":6,
			"componentType":5126,
			"count":412,
			"type":"VEC2"
		},
		{
			"bufferView":7,
			"componentType":5123,
			"count":666,
			"type":"SCALAR"
		}
	],
	"bufferViews":[
		{
			"buffer":0,
			"byteLength":240,
			"byteOffset":0,
			"target":34962
		},
		{
			"buffer":0,
			"byteLength":240,
			"byteOffset":240,
			"target":34962
		},
		{
			"buffer":0,
			"byteLength":160,
			"byteOffset":480,
			"target":34962
		},
		{
			"buffer":0,
			"byteLength":60,
			"byteOffset":640,
			"target":34963
		},
		{
			"buffer":0,
			"byteLength":4944,
			"byteOffset":700,
			"target":34962
		},
		{
			"buffer":0,
			"byteLength":4944,
			"byteOffset":5644,
			"target":34962
		},
		{
			"buffer":0,
			"byteLength":3296,
			"byteOffset":10588,
			"target":34962
		},
		{
			"buffer":0,
			"byteLength":1332,
			"byteOffset":13884,
			"target":34963
		}
	],
	"buffers":[
		{
			"byteLength":15216,
			"uri":"LightPole_01-c19658c3e8332f618ecd1510dc32178c.bin"
		}
	]
}
