{
	"asset":{
		"generator":"Khronos glTF Blender I/O v4.3.47",
		"version":"2.0"
	},
	"scene":0,
	"scenes":[
		{
			"name":"Scene",
			"nodes":[
				0
			]
		}
	],
	"nodes":[
		{
			"mesh":0,
			"name":"Manhole_cover_02"
		}
	],
	"materials":[
		{
			"doubleSided":true,
			"name":"GrayManholecover02",
			"pbrMetallicRoughness":{
				"baseColorFactor":[
					0.13286834955215454,
					0.13286834955215454,
					0.13286834955215454,
					1
				],
				"metallicFactor":0,
				"roughnessFactor":0.5
			}
		},
		{
			"doubleSided":true,
			"name":"BlackManholecover02",
			"pbrMetallicRoughness":{
				"baseColorFactor":[
					0.013702086172997952,
					0.013702086172997952,
					0.013702086172997952,
					1
				],
				"metallicFactor":0,
				"roughnessFactor":0.5
			}
		}
	],
	"meshes":[
		{
			"name":"Cube.002",
			"primitives":[
				{
					"attributes":{
						"POSITION":0,
						"NORMAL":1,
						"TEXCOORD_0":2,
						"TANGENT":3
					},
					"indices":4,
					"material":0
				},
				{
					"attributes":{
						"POSITION":5,
						"NORMAL":6,
						"TEXCOORD_0":7,
						"TANGENT":8
					},
					"indices":9,
					"material":1
				}
			]
		}
	],
	"accessors":[
		{
			"bufferView":0,
			"componentType":5126,
			"count":212,
			"max":[
				1.3425986766815186,
				0.1482127457857132,
				1.3518935441970825
			],
			"min":[
				-1.3425986766815186,
				-0.2655048072338104,
				-1.3333038091659546
			],
			"type":"VEC3"
		},
		{
			"bufferView":1,
			"componentType":5126,
			"count":212,
			"type":"VEC3"
		},
		{
			"bufferView":2,
			"componentType":5126,
			"count":212,
			"type":"VEC2"
		},
		{
			"bufferView":3,
			"componentType":5126,
			"count":212,
			"type":"VEC4"
		},
		{
			"bufferView":4,
			"componentType":5123,
			"count":582,
			"type":"SCALAR"
		},
		{
			"bufferView":5,
			"componentType":5126,
			"count":20,
			"max":[
				1.0301072597503662,
				0.039454419165849686,
				1.0394021272659302
			],
			"min":[
				-1.0301072597503662,
				0.039454419165849686,
				-1.0476644039154053
			],
			"type":"VEC3"
		},
		{
			"bufferView":6,
			"componentType":5126,
			"count":20,
			"type":"VEC3"
		},
		{
			"bufferView":7,
			"componentType":5126,
			"count":20,
			"type":"VEC2"
		},
		{
			"bufferView":8,
			"componentType":5126,
			"count":20,
			"type":"VEC4"
		},
		{
			"bufferView":9,
			"componentType":5123,
			"count":30,
			"type":"SCALAR"
		}
	],
	"bufferViews":[
		{
			"buffer":0,
			"byteLength":2544,
			"byteOffset":0,
			"target":34962
		},
		{
			"buffer":0,
			"byteLength":2544,
			"byteOffset":2544,
			"target":34962
		},
		{
			"buffer":0,
			"byteLength":1696,
			"byteOffset":5088,
			"target":34962
		},
		{
			"buffer":0,
			"byteLength":3392,
			"byteOffset":6784,
			"target":34962
		},
		{
			"buffer":0,
			"byteLength":1164,
			"byteOffset":10176,
			"target":34963
		},
		{
			"buffer":0,
			"byteLength":240,
			"byteOffset":11340,
			"target":34962
		},
		{
			"buffer":0,
			"byteLength":240,
			"byteOffset":11580,
			"target":34962
		},
		{
			"buffer":0,
			"byteLength":160,
			"byteOffset":11820,
			"target":34962
		},
		{
			"buffer":0,
			"byteLength":320,
			"byteOffset":11980,
			"target":34962
		},
		{
			"buffer":0,
			"byteLength":60,
			"byteOffset":12300,
			"target":34963
		}
	],
	"buffers":[
		{
			"byteLength":12360,
			"uri":"Manhole_cover_02-1fe1f357479a803bbd2f4a38e897cbb2.bin"
		}
	]
}
