{
	"asset":{
		"generator":"Khronos glTF Blender I/O v4.3.47",
		"version":"2.0"
	},
	"scene":0,
	"scenes":[
		{
			"name":"Scene",
			"nodes":[
				0
			]
		}
	],
	"nodes":[
		{
			"mesh":0,
			"name":"Manhole_cover_01"
		}
	],
	"materials":[
		{
			"doubleSided":true,
			"name":"BlackManHoleCover",
			"pbrMetallicRoughness":{
				"baseColorFactor":[
					0.048171836882829666,
					0.048171836882829666,
					0.048171836882829666,
					1
				],
				"metallicFactor":0,
				"roughnessFactor":0.5
			}
		},
		{
			"doubleSided":true,
			"name":"GrayManholecover",
			"pbrMetallicRoughness":{
				"baseColorFactor":[
					0.2704978287220001,
					0.2704978287220001,
					0.2704978287220001,
					1
				],
				"metallicFactor":0,
				"roughnessFactor":0.5
			}
		}
	],
	"meshes":[
		{
			"name":"Cylinder.002",
			"primitives":[
				{
					"attributes":{
						"POSITION":0,
						"NORMAL":1,
						"TEXCOORD_0":2
					},
					"indices":3,
					"material":0
				},
				{
					"attributes":{
						"POSITION":4,
						"NORMAL":5,
						"TEXCOORD_0":6
					},
					"indices":7,
					"material":1
				}
			]
		}
	],
	"accessors":[
		{
			"bufferView":0,
			"componentType":5126,
			"count":220,
			"max":[
				2.3130173683166504,
				0.061748214066028595,
				2.4320502281188965
			],
			"min":[
				-2.3130171298980713,
				-0.23952926695346832,
				-2.4320502281188965
			],
			"type":"VEC3"
		},
		{
			"bufferView":1,
			"componentType":5126,
			"count":220,
			"type":"VEC3"
		},
		{
			"bufferView":2,
			"componentType":5126,
			"count":220,
			"type":"VEC2"
		},
		{
			"bufferView":3,
			"componentType":5123,
			"count":408,
			"type":"SCALAR"
		},
		{
			"bufferView":4,
			"componentType":5126,
			"count":20,
			"max":[
				2.0999696254730225,
				0.013662041164934635,
				2.208038806915283
			],
			"min":[
				-2.0999696254730225,
				0.013662041164934635,
				-2.208038806915283
			],
			"type":"VEC3"
		},
		{
			"bufferView":5,
			"componentType":5126,
			"count":20,
			"type":"VEC3"
		},
		{
			"bufferView":6,
			"componentType":5126,
			"count":20,
			"type":"VEC2"
		},
		{
			"bufferView":7,
			"componentType":5123,
			"count":60,
			"type":"SCALAR"
		}
	],
	"bufferViews":[
		{
			"buffer":0,
			"byteLength":2640,
			"byteOffset":0,
			"target":34962
		},
		{
			"buffer":0,
			"byteLength":2640,
			"byteOffset":2640,
			"target":34962
		},
		{
			"buffer":0,
			"byteLength":1760,
			"byteOffset":5280,
			"target":34962
		},
		{
			"buffer":0,
			"byteLength":816,
			"byteOffset":7040,
			"target":34963
		},
		{
			"buffer":0,
			"byteLength":240,
			"byteOffset":7856,
			"target":34962
		},
		{
			"buffer":0,
			"byteLength":240,
			"byteOffset":8096,
			"target":34962
		},
		{
			"buffer":0,
			"byteLength":160,
			"byteOffset":8336,
			"target":34962
		},
		{
			"buffer":0,
			"byteLength":120,
			"byteOffset":8496,
			"target":34963
		}
	],
	"buffers":[
		{
			"byteLength":8616,
			"uri":"Manhole_cover_01-fd1e38c8e016154197465fcfe89ba9cf.bin"
		}
	]
}
