{
	"asset":{
		"generator":"Khronos glTF Blender I/O v4.3.47",
		"version":"2.0"
	},
	"scene":0,
	"scenes":[
		{
			"name":"Scene",
			"nodes":[
				0
			]
		}
	],
	"nodes":[
		{
			"mesh":0,
			"name":"MeatSkewer01"
		}
	],
	"materials":[
		{
			"doubleSided":true,
			"name":"Yellow_MeatSkewer01",
			"pbrMetallicRoughness":{
				"baseColorFactor":[
					0.4672011733055115,
					0.3267139792442322,
					0.016016371548175812,
					1
				],
				"metallicFactor":0,
				"roughnessFactor":0.5
			}
		},
		{
			"doubleSided":true,
			"name":"DarkRed_MeatSkewer01",
			"pbrMetallicRoughness":{
				"baseColorFactor":[
					0.4019694924354553,
					0.055258676409721375,
					0.014012506231665611,
					1
				],
				"metallicFactor":0,
				"roughnessFactor":0.5
			}
		},
		{
			"doubleSided":true,
			"name":"DarkBrown_MeatSkewer01",
			"pbrMetallicRoughness":{
				"baseColorFactor":[
					0.09084174782037735,
					0.022173861041665077,
					0,
					1
				],
				"metallicFactor":0,
				"roughnessFactor":0.5
			}
		}
	],
	"meshes":[
		{
			"name":"Cylinder.002",
			"primitives":[
				{
					"attributes":{
						"POSITION":0,
						"NORMAL":1,
						"TEXCOORD_0":2
					},
					"indices":3,
					"material":0
				},
				{
					"attributes":{
						"POSITION":4,
						"NORMAL":5,
						"TEXCOORD_0":6
					},
					"indices":7,
					"material":1
				},
				{
					"attributes":{
						"POSITION":8,
						"NORMAL":9,
						"TEXCOORD_0":10
					},
					"indices":11,
					"material":2
				}
			]
		}
	],
	"accessors":[
		{
			"bufferView":0,
			"componentType":5126,
			"count":50,
			"max":[
				16.989660263061523,
				0.9847570061683655,
				1.0724421739578247
			],
			"min":[
				-13.313557624816895,
				-1.0152429342269897,
				-0.9275577068328857
			],
			"type":"VEC3"
		},
		{
			"bufferView":1,
			"componentType":5126,
			"count":50,
			"type":"VEC3"
		},
		{
			"bufferView":2,
			"componentType":5126,
			"count":50,
			"type":"VEC2"
		},
		{
			"bufferView":3,
			"componentType":5123,
			"count":132,
			"type":"SCALAR"
		},
		{
			"bufferView":4,
			"componentType":5126,
			"count":1265,
			"max":[
				10.123879432678223,
				2.8386147022247314,
				2.9173641204833984
			],
			"min":[
				-10.152045249938965,
				-2.896054983139038,
				-2.9132089614868164
			],
			"type":"VEC3"
		},
		{
			"bufferView":5,
			"componentType":5126,
			"count":1265,
			"type":"VEC3"
		},
		{
			"bufferView":6,
			"componentType":5126,
			"count":1265,
			"type":"VEC2"
		},
		{
			"bufferView":7,
			"componentType":5123,
			"count":5760,
			"type":"SCALAR"
		},
		{
			"bufferView":8,
			"componentType":5126,
			"count":2840,
			"max":[
				10.120255470275879,
				3.2780160903930664,
				3.3021321296691895
			],
			"min":[
				-10.148420333862305,
				-3.2848453521728516,
				-3.2851645946502686
			],
			"type":"VEC3"
		},
		{
			"bufferView":9,
			"componentType":5126,
			"count":2840,
			"type":"VEC3"
		},
		{
			"bufferView":10,
			"componentType":5126,
			"count":2840,
			"type":"VEC2"
		},
		{
			"bufferView":11,
			"componentType":5123,
			"count":13440,
			"type":"SCALAR"
		}
	],
	"bufferViews":[
		{
			"buffer":0,
			"byteLength":600,
			"byteOffset":0,
			"target":34962
		},
		{
			"buffer":0,
			"byteLength":600,
			"byteOffset":600,
			"target":34962
		},
		{
			"buffer":0,
			"byteLength":400,
			"byteOffset":1200,
			"target":34962
		},
		{
			"buffer":0,
			"byteLength":264,
			"byteOffset":1600,
			"target":34963
		},
		{
			"buffer":0,
			"byteLength":15180,
			"byteOffset":1864,
			"target":34962
		},
		{
			"buffer":0,
			"byteLength":15180,
			"byteOffset":17044,
			"target":34962
		},
		{
			"buffer":0,
			"byteLength":10120,
			"byteOffset":32224,
			"target":34962
		},
		{
			"buffer":0,
			"byteLength":11520,
			"byteOffset":42344,
			"target":34963
		},
		{
			"buffer":0,
			"byteLength":34080,
			"byteOffset":53864,
			"target":34962
		},
		{
			"buffer":0,
			"byteLength":34080,
			"byteOffset":87944,
			"target":34962
		},
		{
			"buffer":0,
			"byteLength":22720,
			"byteOffset":122024,
			"target":34962
		},
		{
			"buffer":0,
			"byteLength":26880,
			"byteOffset":144744,
			"target":34963
		}
	],
	"buffers":[
		{
			"byteLength":171624,
			"uri":"MeatSkewer01-ce1aac4dc62b444ee0d24578df1c4178.bin"
		}
	]
}
