{
	"asset":{
		"generator":"Khronos glTF Blender I/O v4.3.47",
		"version":"2.0"
	},
	"scene":0,
	"scenes":[
		{
			"name":"Scene",
			"nodes":[
				0
			]
		}
	],
	"nodes":[
		{
			"mesh":0,
			"name":"Meat01",
			"rotation":[
				0,
				0,
				-0.7071068286895752,
				0.7071068286895752
			],
			"scale":[
				0.7121089100837708,
				1.2905449867248535,
				1.2905449867248535
			],
			"translation":[
				-0.3441276550292969,
				0.00011391728185117245,
				-0.0005416469066403806
			]
		}
	],
	"materials":[
		{
			"doubleSided":true,
			"name":"DarkRed_Meat01",
			"pbrMetallicRoughness":{
				"baseColorFactor":[
					0.4019694924354553,
					0.055258676409721375,
					0.014012506231665611,
					1
				],
				"metallicFactor":0,
				"roughnessFactor":0.5
			}
		},
		{
			"doubleSided":true,
			"name":"DarkBrown_Meat01",
			"pbrMetallicRoughness":{
				"baseColorFactor":[
					0.09084174782037735,
					0.022173861041665077,
					0,
					1
				],
				"metallicFactor":0,
				"roughnessFactor":0.5
			}
		}
	],
	"meshes":[
		{
			"name":"Cylinder.002",
			"primitives":[
				{
					"attributes":{
						"POSITION":0,
						"NORMAL":1,
						"TEXCOORD_0":2,
						"TANGENT":3
					},
					"indices":4,
					"material":0
				},
				{
					"attributes":{
						"POSITION":5,
						"NORMAL":6,
						"TEXCOORD_0":7,
						"TANGENT":8
					},
					"indices":9,
					"material":1
				}
			]
		}
	],
	"accessors":[
		{
			"bufferView":0,
			"componentType":5126,
			"count":262,
			"max":[
				1.5360441207885742,
				2.838500738143921,
				2.4505093097686768
			],
			"min":[
				-1.5360655784606934,
				-4.337328910827637,
				-2.3506550788879395
			],
			"type":"VEC3"
		},
		{
			"bufferView":1,
			"componentType":5126,
			"count":262,
			"type":"VEC3"
		},
		{
			"bufferView":2,
			"componentType":5126,
			"count":262,
			"type":"VEC2"
		},
		{
			"bufferView":3,
			"componentType":5126,
			"count":262,
			"type":"VEC4"
		},
		{
			"bufferView":4,
			"componentType":5123,
			"count":1152,
			"type":"SCALAR"
		},
		{
			"bufferView":5,
			"componentType":5126,
			"count":573,
			"max":[
				1.532419204711914,
				3.277902126312256,
				2.847097158432007
			],
			"min":[
				-1.5324406623840332,
				-4.5403218269348145,
				-2.753812789916992
			],
			"type":"VEC3"
		},
		{
			"bufferView":6,
			"componentType":5126,
			"count":573,
			"type":"VEC3"
		},
		{
			"bufferView":7,
			"componentType":5126,
			"count":573,
			"type":"VEC2"
		},
		{
			"bufferView":8,
			"componentType":5126,
			"count":573,
			"type":"VEC4"
		},
		{
			"bufferView":9,
			"componentType":5123,
			"count":2688,
			"type":"SCALAR"
		}
	],
	"bufferViews":[
		{
			"buffer":0,
			"byteLength":3144,
			"byteOffset":0,
			"target":34962
		},
		{
			"buffer":0,
			"byteLength":3144,
			"byteOffset":3144,
			"target":34962
		},
		{
			"buffer":0,
			"byteLength":2096,
			"byteOffset":6288,
			"target":34962
		},
		{
			"buffer":0,
			"byteLength":4192,
			"byteOffset":8384,
			"target":34962
		},
		{
			"buffer":0,
			"byteLength":2304,
			"byteOffset":12576,
			"target":34963
		},
		{
			"buffer":0,
			"byteLength":6876,
			"byteOffset":14880,
			"target":34962
		},
		{
			"buffer":0,
			"byteLength":6876,
			"byteOffset":21756,
			"target":34962
		},
		{
			"buffer":0,
			"byteLength":4584,
			"byteOffset":28632,
			"target":34962
		},
		{
			"buffer":0,
			"byteLength":9168,
			"byteOffset":33216,
			"target":34962
		},
		{
			"buffer":0,
			"byteLength":5376,
			"byteOffset":42384,
			"target":34963
		}
	],
	"buffers":[
		{
			"byteLength":47760,
			"uri":"Meat01-f9047604e393c6b6ab5791ef03ee9a37.bin"
		}
	]
}
