{
	"asset":{
		"generator":"Khronos glTF Blender I/O v4.3.47",
		"version":"2.0"
	},
	"scene":0,
	"scenes":[
		{
			"name":"Scene",
			"nodes":[
				0
			]
		}
	],
	"nodes":[
		{
			"mesh":0,
			"name":"MilkJar01"
		}
	],
	"materials":[
		{
			"doubleSided":true,
			"name":"Brown_MilkJar01",
			"pbrMetallicRoughness":{
				"baseColorFactor":[
					0.1424006223678589,
					0.05979042872786522,
					0.005882425233721733,
					1
				],
				"metallicFactor":0,
				"roughnessFactor":0.5
			}
		},
		{
			"doubleSided":true,
			"name":"White_MilkJar01",
			"pbrMetallicRoughness":{
				"baseColorFactor":[
					0.800000011920929,
					0.800000011920929,
					0.800000011920929,
					1
				],
				"metallicFactor":0,
				"roughnessFactor":0.5
			}
		}
	],
	"meshes":[
		{
			"name":"Cylinder.003",
			"primitives":[
				{
					"attributes":{
						"POSITION":0,
						"NORMAL":1,
						"TEXCOORD_0":2,
						"TANGENT":3
					},
					"indices":4,
					"material":0
				},
				{
					"attributes":{
						"POSITION":5,
						"NORMAL":6,
						"TEXCOORD_0":7,
						"TANGENT":8
					},
					"indices":9,
					"material":1
				}
			]
		}
	],
	"accessors":[
		{
			"bufferView":0,
			"componentType":5126,
			"count":2361,
			"max":[
				3.565857172012329,
				2.5482280254364014,
				2.9871253967285156
			],
			"min":[
				-4.355079174041748,
				-5.450815677642822,
				-2.9871230125427246
			],
			"type":"VEC3"
		},
		{
			"bufferView":1,
			"componentType":5126,
			"count":2361,
			"type":"VEC3"
		},
		{
			"bufferView":2,
			"componentType":5126,
			"count":2361,
			"type":"VEC2"
		},
		{
			"bufferView":3,
			"componentType":5126,
			"count":2361,
			"type":"VEC4"
		},
		{
			"bufferView":4,
			"componentType":5123,
			"count":8664,
			"type":"SCALAR"
		},
		{
			"bufferView":5,
			"componentType":5126,
			"count":120,
			"max":[
				2.8338522911071777,
				1.9713985919952393,
				1.5288130044937134
			],
			"min":[
				-1.013853907585144,
				1.4282101392745972,
				-1.5288116931915283
			],
			"type":"VEC3"
		},
		{
			"bufferView":6,
			"componentType":5126,
			"count":120,
			"type":"VEC3"
		},
		{
			"bufferView":7,
			"componentType":5126,
			"count":120,
			"type":"VEC2"
		},
		{
			"bufferView":8,
			"componentType":5126,
			"count":120,
			"type":"VEC4"
		},
		{
			"bufferView":9,
			"componentType":5123,
			"count":360,
			"type":"SCALAR"
		}
	],
	"bufferViews":[
		{
			"buffer":0,
			"byteLength":28332,
			"byteOffset":0,
			"target":34962
		},
		{
			"buffer":0,
			"byteLength":28332,
			"byteOffset":28332,
			"target":34962
		},
		{
			"buffer":0,
			"byteLength":18888,
			"byteOffset":56664,
			"target":34962
		},
		{
			"buffer":0,
			"byteLength":37776,
			"byteOffset":75552,
			"target":34962
		},
		{
			"buffer":0,
			"byteLength":17328,
			"byteOffset":113328,
			"target":34963
		},
		{
			"buffer":0,
			"byteLength":1440,
			"byteOffset":130656,
			"target":34962
		},
		{
			"buffer":0,
			"byteLength":1440,
			"byteOffset":132096,
			"target":34962
		},
		{
			"buffer":0,
			"byteLength":960,
			"byteOffset":133536,
			"target":34962
		},
		{
			"buffer":0,
			"byteLength":1920,
			"byteOffset":134496,
			"target":34962
		},
		{
			"buffer":0,
			"byteLength":720,
			"byteOffset":136416,
			"target":34963
		}
	],
	"buffers":[
		{
			"byteLength":137136,
			"uri":"MilkJar01-f2fce283d19a2771ee15b18feb7b436e.bin"
		}
	]
}
