{
	"asset":{
		"generator":"Khronos glTF Blender I/O v4.3.47",
		"version":"2.0"
	},
	"scene":0,
	"scenes":[
		{
			"name":"Scene",
			"nodes":[
				0
			]
		}
	],
	"nodes":[
		{
			"mesh":0,
			"name":"OilDrum_01"
		}
	],
	"materials":[
		{
			"doubleSided":true,
			"name":"Iron_OilDrum",
			"pbrMetallicRoughness":{
				"baseColorFactor":[
					0.5647115707397461,
					0.09305897355079651,
					0,
					1
				],
				"metallicFactor":0,
				"roughnessFactor":0.5
			}
		},
		{
			"doubleSided":true,
			"name":"Green_OilDrum.001",
			"pbrMetallicRoughness":{
				"baseColorFactor":[
					0.0368894599378109,
					0.10461650043725967,
					0.006512089632451534,
					1
				],
				"metallicFactor":0,
				"roughnessFactor":0.5
			}
		}
	],
	"meshes":[
		{
			"name":"Cylinder.004",
			"primitives":[
				{
					"attributes":{
						"POSITION":0,
						"NORMAL":1,
						"TEXCOORD_0":2
					},
					"indices":3,
					"material":0
				},
				{
					"attributes":{
						"POSITION":4,
						"NORMAL":5,
						"TEXCOORD_0":6
					},
					"indices":7,
					"material":1
				}
			]
		}
	],
	"accessors":[
		{
			"bufferView":0,
			"componentType":5126,
			"count":72,
			"max":[
				0.4506317377090454,
				1.4689807891845703,
				1.1680846214294434
			],
			"min":[
				-0.4506317377090454,
				1.3290127515792847,
				0.1273953765630722
			],
			"type":"VEC3"
		},
		{
			"bufferView":1,
			"componentType":5126,
			"count":72,
			"type":"VEC3"
		},
		{
			"bufferView":2,
			"componentType":5126,
			"count":72,
			"type":"VEC2"
		},
		{
			"bufferView":3,
			"componentType":5123,
			"count":132,
			"type":"SCALAR"
		},
		{
			"bufferView":4,
			"componentType":5126,
			"count":304,
			"max":[
				1.6308027505874634,
				1.552939534187317,
				1.559269905090332
			],
			"min":[
				-1.630802869796753,
				-3.146711587905884,
				-1.8701848983764648
			],
			"type":"VEC3"
		},
		{
			"bufferView":5,
			"componentType":5126,
			"count":304,
			"type":"VEC3"
		},
		{
			"bufferView":6,
			"componentType":5126,
			"count":304,
			"type":"VEC2"
		},
		{
			"bufferView":7,
			"componentType":5123,
			"count":636,
			"type":"SCALAR"
		}
	],
	"bufferViews":[
		{
			"buffer":0,
			"byteLength":864,
			"byteOffset":0,
			"target":34962
		},
		{
			"buffer":0,
			"byteLength":864,
			"byteOffset":864,
			"target":34962
		},
		{
			"buffer":0,
			"byteLength":576,
			"byteOffset":1728,
			"target":34962
		},
		{
			"buffer":0,
			"byteLength":264,
			"byteOffset":2304,
			"target":34963
		},
		{
			"buffer":0,
			"byteLength":3648,
			"byteOffset":2568,
			"target":34962
		},
		{
			"buffer":0,
			"byteLength":3648,
			"byteOffset":6216,
			"target":34962
		},
		{
			"buffer":0,
			"byteLength":2432,
			"byteOffset":9864,
			"target":34962
		},
		{
			"buffer":0,
			"byteLength":1272,
			"byteOffset":12296,
			"target":34963
		}
	],
	"buffers":[
		{
			"byteLength":13568,
			"uri":"OilDrum_01-e1b56c2aa517a95111451485624cda17.bin"
		}
	]
}
