{
	"asset":{
		"generator":"Khronos glTF Blender I/O v4.3.47",
		"version":"2.0"
	},
	"scene":0,
	"scenes":[
		{
			"name":"Scene",
			"nodes":[
				0
			]
		}
	],
	"nodes":[
		{
			"mesh":0,
			"name":"OilDrum_02"
		}
	],
	"materials":[
		{
			"doubleSided":true,
			"name":"Iron_OilDrum.001",
			"pbrMetallicRoughness":{
				"baseColorFactor":[
					0.5647115707397461,
					0.09305897355079651,
					0,
					1
				],
				"metallicFactor":0,
				"roughnessFactor":0.5
			}
		},
		{
			"doubleSided":true,
			"name":"Blue_OilDrum",
			"pbrMetallicRoughness":{
				"baseColorFactor":[
					0.0009105807403102517,
					0.03189603611826897,
					0.14412851631641388,
					1
				],
				"metallicFactor":0,
				"roughnessFactor":0.5
			}
		}
	],
	"meshes":[
		{
			"name":"Cylinder.005",
			"primitives":[
				{
					"attributes":{
						"POSITION":0,
						"NORMAL":1,
						"TEXCOORD_0":2
					},
					"indices":3,
					"material":0
				},
				{
					"attributes":{
						"POSITION":4,
						"NORMAL":5,
						"TEXCOORD_0":6
					},
					"indices":7,
					"material":1
				}
			]
		}
	],
	"accessors":[
		{
			"bufferView":0,
			"componentType":5126,
			"count":72,
			"max":[
				0.4506317675113678,
				1.468979835510254,
				1.1680848598480225
			],
			"min":[
				-0.450631707906723,
				1.3290117979049683,
				0.12739555537700653
			],
			"type":"VEC3"
		},
		{
			"bufferView":1,
			"componentType":5126,
			"count":72,
			"type":"VEC3"
		},
		{
			"bufferView":2,
			"componentType":5126,
			"count":72,
			"type":"VEC2"
		},
		{
			"bufferView":3,
			"componentType":5123,
			"count":132,
			"type":"SCALAR"
		},
		{
			"bufferView":4,
			"componentType":5126,
			"count":304,
			"max":[
				1.6308027505874634,
				1.5529385805130005,
				1.5592701435089111
			],
			"min":[
				-1.630802869796753,
				-3.1467125415802,
				-1.8701846599578857
			],
			"type":"VEC3"
		},
		{
			"bufferView":5,
			"componentType":5126,
			"count":304,
			"type":"VEC3"
		},
		{
			"bufferView":6,
			"componentType":5126,
			"count":304,
			"type":"VEC2"
		},
		{
			"bufferView":7,
			"componentType":5123,
			"count":636,
			"type":"SCALAR"
		}
	],
	"bufferViews":[
		{
			"buffer":0,
			"byteLength":864,
			"byteOffset":0,
			"target":34962
		},
		{
			"buffer":0,
			"byteLength":864,
			"byteOffset":864,
			"target":34962
		},
		{
			"buffer":0,
			"byteLength":576,
			"byteOffset":1728,
			"target":34962
		},
		{
			"buffer":0,
			"byteLength":264,
			"byteOffset":2304,
			"target":34963
		},
		{
			"buffer":0,
			"byteLength":3648,
			"byteOffset":2568,
			"target":34962
		},
		{
			"buffer":0,
			"byteLength":3648,
			"byteOffset":6216,
			"target":34962
		},
		{
			"buffer":0,
			"byteLength":2432,
			"byteOffset":9864,
			"target":34962
		},
		{
			"buffer":0,
			"byteLength":1272,
			"byteOffset":12296,
			"target":34963
		}
	],
	"buffers":[
		{
			"byteLength":13568,
			"uri":"OilDrum_02-3e73b9428a6e0459310c9df7d4c0941b.bin"
		}
	]
}
