{
	"asset":{
		"generator":"Khronos glTF Blender I/O v4.3.47",
		"version":"2.0"
	},
	"scene":0,
	"scenes":[
		{
			"name":"Scene",
			"nodes":[
				0
			]
		}
	],
	"nodes":[
		{
			"mesh":0,
			"name":"OilDrum_03",
			"scale":[
				0.5203446745872498,
				0.06998401880264282,
				0.5203446745872498
			]
		}
	],
	"materials":[
		{
			"doubleSided":true,
			"name":"Iron_OilDrum.002",
			"pbrMetallicRoughness":{
				"baseColorFactor":[
					0.5647115707397461,
					0.09305897355079651,
					0,
					1
				],
				"metallicFactor":0,
				"roughnessFactor":0.5
			}
		},
		{
			"doubleSided":true,
			"name":"Red_OilDrum",
			"pbrMetallicRoughness":{
				"baseColorFactor":[
					0.20863690972328186,
					0.01032982487231493,
					0.0027317421045154333,
					1
				],
				"metallicFactor":0,
				"roughnessFactor":0.5
			}
		}
	],
	"meshes":[
		{
			"name":"Cylinder.006",
			"primitives":[
				{
					"attributes":{
						"POSITION":0,
						"NORMAL":1,
						"TEXCOORD_0":2
					},
					"indices":3,
					"material":0
				},
				{
					"attributes":{
						"POSITION":4,
						"NORMAL":5,
						"TEXCOORD_0":6
					},
					"indices":7,
					"material":1
				}
			]
		}
	],
	"accessors":[
		{
			"bufferView":0,
			"componentType":5126,
			"count":72,
			"max":[
				0.866025447845459,
				1,
				1
			],
			"min":[
				-0.866025447845459,
				-1,
				-1
			],
			"type":"VEC3"
		},
		{
			"bufferView":1,
			"componentType":5126,
			"count":72,
			"type":"VEC3"
		},
		{
			"bufferView":2,
			"componentType":5126,
			"count":72,
			"type":"VEC2"
		},
		{
			"bufferView":3,
			"componentType":5123,
			"count":132,
			"type":"SCALAR"
		},
		{
			"bufferView":4,
			"componentType":5126,
			"count":304,
			"max":[
				3.1340818405151367,
				2.1996841430664062,
				1.7517809867858887
			],
			"min":[
				-3.134082078933716,
				-64.95352172851562,
				-4.838955879211426
			],
			"type":"VEC3"
		},
		{
			"bufferView":5,
			"componentType":5126,
			"count":304,
			"type":"VEC3"
		},
		{
			"bufferView":6,
			"componentType":5126,
			"count":304,
			"type":"VEC2"
		},
		{
			"bufferView":7,
			"componentType":5123,
			"count":636,
			"type":"SCALAR"
		}
	],
	"bufferViews":[
		{
			"buffer":0,
			"byteLength":864,
			"byteOffset":0,
			"target":34962
		},
		{
			"buffer":0,
			"byteLength":864,
			"byteOffset":864,
			"target":34962
		},
		{
			"buffer":0,
			"byteLength":576,
			"byteOffset":1728,
			"target":34962
		},
		{
			"buffer":0,
			"byteLength":264,
			"byteOffset":2304,
			"target":34963
		},
		{
			"buffer":0,
			"byteLength":3648,
			"byteOffset":2568,
			"target":34962
		},
		{
			"buffer":0,
			"byteLength":3648,
			"byteOffset":6216,
			"target":34962
		},
		{
			"buffer":0,
			"byteLength":2432,
			"byteOffset":9864,
			"target":34962
		},
		{
			"buffer":0,
			"byteLength":1272,
			"byteOffset":12296,
			"target":34963
		}
	],
	"buffers":[
		{
			"byteLength":13568,
			"uri":"OilDrum_03-6de908059abc562412af6587a66929ca.bin"
		}
	]
}
