{
	"asset":{
		"generator":"Khronos glTF Blender I/O v4.3.47",
		"version":"2.0"
	},
	"scene":0,
	"scenes":[
		{
			"name":"Scene",
			"nodes":[
				0
			]
		}
	],
	"nodes":[
		{
			"mesh":0,
			"name":"Orange"
		}
	],
	"materials":[
		{
			"doubleSided":true,
			"name":"Orange_Orange",
			"pbrMetallicRoughness":{
				"baseColorFactor":[
					0.7156939506530762,
					0.19120165705680847,
					0.0012141279876232147,
					1
				],
				"metallicFactor":0,
				"roughnessFactor":0.5
			}
		},
		{
			"doubleSided":true,
			"name":"Brown_Orange",
			"pbrMetallicRoughness":{
				"baseColorFactor":[
					0.2501583993434906,
					0.14995981752872467,
					0,
					1
				],
				"metallicFactor":0,
				"roughnessFactor":0.5
			}
		},
		{
			"doubleSided":true,
			"name":"Green_Orange",
			"pbrMetallicRoughness":{
				"baseColorFactor":[
					0.031896039843559265,
					0.19120173156261444,
					0,
					1
				],
				"metallicFactor":0,
				"roughnessFactor":0.5
			}
		}
	],
	"meshes":[
		{
			"name":"Sphere.001",
			"primitives":[
				{
					"attributes":{
						"POSITION":0,
						"NORMAL":1,
						"TEXCOORD_0":2,
						"TANGENT":3
					},
					"indices":4,
					"material":0
				},
				{
					"attributes":{
						"POSITION":5,
						"NORMAL":6,
						"TEXCOORD_0":7,
						"TANGENT":8
					},
					"indices":9,
					"material":1
				},
				{
					"attributes":{
						"POSITION":10,
						"NORMAL":11,
						"TEXCOORD_0":12,
						"TANGENT":13
					},
					"indices":14,
					"material":2
				}
			]
		}
	],
	"accessors":[
		{
			"bufferView":0,
			"componentType":5126,
			"count":1261,
			"max":[
				0.9741051197052002,
				0.44104596972465515,
				0.9638386368751526
			],
			"min":[
				-0.9530072808265686,
				-1.4377448558807373,
				-0.9632738828659058
			],
			"type":"VEC3"
		},
		{
			"bufferView":1,
			"componentType":5126,
			"count":1261,
			"type":"VEC3"
		},
		{
			"bufferView":2,
			"componentType":5126,
			"count":1261,
			"type":"VEC2"
		},
		{
			"bufferView":3,
			"componentType":5126,
			"count":1261,
			"type":"VEC4"
		},
		{
			"bufferView":4,
			"componentType":5123,
			"count":5184,
			"type":"SCALAR"
		},
		{
			"bufferView":5,
			"componentType":5126,
			"count":164,
			"max":[
				0.049634601920843124,
				0.7718999981880188,
				0.03936875984072685
			],
			"min":[
				-0.02853735163807869,
				0.3353736996650696,
				-0.03880318999290466
			],
			"type":"VEC3"
		},
		{
			"bufferView":6,
			"componentType":5126,
			"count":164,
			"type":"VEC3"
		},
		{
			"bufferView":7,
			"componentType":5126,
			"count":164,
			"type":"VEC2"
		},
		{
			"bufferView":8,
			"componentType":5126,
			"count":164,
			"type":"VEC4"
		},
		{
			"bufferView":9,
			"componentType":5123,
			"count":480,
			"type":"SCALAR"
		},
		{
			"bufferView":10,
			"componentType":5126,
			"count":880,
			"max":[
				0.6648562550544739,
				0.5870788097381592,
				0.7767212986946106
			],
			"min":[
				-0.8369053602218628,
				0.24175314605236053,
				-1.4076052904129028
			],
			"type":"VEC3"
		},
		{
			"bufferView":11,
			"componentType":5126,
			"count":880,
			"type":"VEC3"
		},
		{
			"bufferView":12,
			"componentType":5126,
			"count":880,
			"type":"VEC2"
		},
		{
			"bufferView":13,
			"componentType":5126,
			"count":880,
			"type":"VEC4"
		},
		{
			"bufferView":14,
			"componentType":5123,
			"count":3024,
			"type":"SCALAR"
		}
	],
	"bufferViews":[
		{
			"buffer":0,
			"byteLength":15132,
			"byteOffset":0,
			"target":34962
		},
		{
			"buffer":0,
			"byteLength":15132,
			"byteOffset":15132,
			"target":34962
		},
		{
			"buffer":0,
			"byteLength":10088,
			"byteOffset":30264,
			"target":34962
		},
		{
			"buffer":0,
			"byteLength":20176,
			"byteOffset":40352,
			"target":34962
		},
		{
			"buffer":0,
			"byteLength":10368,
			"byteOffset":60528,
			"target":34963
		},
		{
			"buffer":0,
			"byteLength":1968,
			"byteOffset":70896,
			"target":34962
		},
		{
			"buffer":0,
			"byteLength":1968,
			"byteOffset":72864,
			"target":34962
		},
		{
			"buffer":0,
			"byteLength":1312,
			"byteOffset":74832,
			"target":34962
		},
		{
			"buffer":0,
			"byteLength":2624,
			"byteOffset":76144,
			"target":34962
		},
		{
			"buffer":0,
			"byteLength":960,
			"byteOffset":78768,
			"target":34963
		},
		{
			"buffer":0,
			"byteLength":10560,
			"byteOffset":79728,
			"target":34962
		},
		{
			"buffer":0,
			"byteLength":10560,
			"byteOffset":90288,
			"target":34962
		},
		{
			"buffer":0,
			"byteLength":7040,
			"byteOffset":100848,
			"target":34962
		},
		{
			"buffer":0,
			"byteLength":14080,
			"byteOffset":107888,
			"target":34962
		},
		{
			"buffer":0,
			"byteLength":6048,
			"byteOffset":121968,
			"target":34963
		}
	],
	"buffers":[
		{
			"byteLength":128016,
			"uri":"Orange-1bc255c3f71551a6dd11ef71be48d8f7.bin"
		}
	]
}
