{
	"asset":{
		"generator":"Khronos glTF Blender I/O v4.3.47",
		"version":"2.0"
	},
	"scene":0,
	"scenes":[
		{
			"name":"Scene",
			"nodes":[
				0
			]
		}
	],
	"nodes":[
		{
			"mesh":0,
			"name":"ParkingMeter"
		}
	],
	"materials":[
		{
			"doubleSided":true,
			"name":"ParkingMeter_white.001",
			"pbrMetallicRoughness":{
				"baseColorFactor":[
					0.913098931312561,
					0.913098931312561,
					0.913098931312561,
					1
				],
				"metallicFactor":0,
				"roughnessFactor":0.5
			}
		},
		{
			"doubleSided":true,
			"name":"GrayParkingMeter.001",
			"pbrMetallicRoughness":{
				"baseColorFactor":[
					0.43965715169906616,
					0.43965715169906616,
					0.43965715169906616,
					1
				],
				"metallicFactor":0,
				"roughnessFactor":0.5
			}
		},
		{
			"doubleSided":true,
			"name":"BlackParkingMeter.001",
			"pbrMetallicRoughness":{
				"baseColorFactor":[
					0,
					0,
					0,
					1
				],
				"metallicFactor":0,
				"roughnessFactor":0.5
			}
		}
	],
	"meshes":[
		{
			"name":"Cube.008",
			"primitives":[
				{
					"attributes":{
						"POSITION":0,
						"NORMAL":1,
						"TEXCOORD_0":2
					},
					"indices":3,
					"material":0
				},
				{
					"attributes":{
						"POSITION":4,
						"NORMAL":5,
						"TEXCOORD_0":6
					},
					"indices":7,
					"material":1
				},
				{
					"attributes":{
						"POSITION":8,
						"NORMAL":9,
						"TEXCOORD_0":10
					},
					"indices":11,
					"material":2
				}
			]
		}
	],
	"accessors":[
		{
			"bufferView":0,
			"componentType":5126,
			"count":8,
			"max":[
				0.9792384505271912,
				4.234878063201904,
				0.3572596609592438
			],
			"min":[
				-0.9792388081550598,
				2.357865333557129,
				0.3572596609592438
			],
			"type":"VEC3"
		},
		{
			"bufferView":1,
			"componentType":5126,
			"count":8,
			"type":"VEC3"
		},
		{
			"bufferView":2,
			"componentType":5126,
			"count":8,
			"type":"VEC2"
		},
		{
			"bufferView":3,
			"componentType":5123,
			"count":18,
			"type":"SCALAR"
		},
		{
			"bufferView":4,
			"componentType":5126,
			"count":200,
			"max":[
				1.8450572490692139,
				5.039311408996582,
				1.8450570106506348
			],
			"min":[
				-1.8450572490692139,
				-6.337215423583984,
				-1.8450570106506348
			],
			"type":"VEC3"
		},
		{
			"bufferView":5,
			"componentType":5126,
			"count":200,
			"type":"VEC3"
		},
		{
			"bufferView":6,
			"componentType":5126,
			"count":200,
			"type":"VEC2"
		},
		{
			"bufferView":7,
			"componentType":5123,
			"count":450,
			"type":"SCALAR"
		},
		{
			"bufferView":8,
			"componentType":5126,
			"count":16,
			"max":[
				0.9792384505271912,
				2.357865333557129,
				0.44275325536727905
			],
			"min":[
				-0.9792388081550598,
				1.4007952213287354,
				0.3572596609592438
			],
			"type":"VEC3"
		},
		{
			"bufferView":9,
			"componentType":5126,
			"count":16,
			"type":"VEC3"
		},
		{
			"bufferView":10,
			"componentType":5126,
			"count":16,
			"type":"VEC2"
		},
		{
			"bufferView":11,
			"componentType":5123,
			"count":24,
			"type":"SCALAR"
		}
	],
	"bufferViews":[
		{
			"buffer":0,
			"byteLength":96,
			"byteOffset":0,
			"target":34962
		},
		{
			"buffer":0,
			"byteLength":96,
			"byteOffset":96,
			"target":34962
		},
		{
			"buffer":0,
			"byteLength":64,
			"byteOffset":192,
			"target":34962
		},
		{
			"buffer":0,
			"byteLength":36,
			"byteOffset":256,
			"target":34963
		},
		{
			"buffer":0,
			"byteLength":2400,
			"byteOffset":292,
			"target":34962
		},
		{
			"buffer":0,
			"byteLength":2400,
			"byteOffset":2692,
			"target":34962
		},
		{
			"buffer":0,
			"byteLength":1600,
			"byteOffset":5092,
			"target":34962
		},
		{
			"buffer":0,
			"byteLength":900,
			"byteOffset":6692,
			"target":34963
		},
		{
			"buffer":0,
			"byteLength":192,
			"byteOffset":7592,
			"target":34962
		},
		{
			"buffer":0,
			"byteLength":192,
			"byteOffset":7784,
			"target":34962
		},
		{
			"buffer":0,
			"byteLength":128,
			"byteOffset":7976,
			"target":34962
		},
		{
			"buffer":0,
			"byteLength":48,
			"byteOffset":8104,
			"target":34963
		}
	],
	"buffers":[
		{
			"byteLength":8152,
			"uri":"ParkingMeter-5016b7a6d02d535be36842cfc60f2bd8.bin"
		}
	]
}
