{
	"asset":{
		"generator":"Khronos glTF Blender I/O v4.3.47",
		"version":"2.0"
	},
	"scene":0,
	"scenes":[
		{
			"name":"Scene",
			"nodes":[
				0
			]
		}
	],
	"nodes":[
		{
			"mesh":0,
			"name":"Pear"
		}
	],
	"materials":[
		{
			"doubleSided":true,
			"name":"Green_Pear",
			"pbrMetallicRoughness":{
				"baseColorFactor":[
					0.18116429448127747,
					0.3049873411655426,
					0.00604885071516037,
					1
				],
				"metallicFactor":0,
				"roughnessFactor":0.5
			}
		},
		{
			"doubleSided":true,
			"name":"Brown_Pear",
			"pbrMetallicRoughness":{
				"baseColorFactor":[
					0.1946178674697876,
					0.13013651967048645,
					0,
					1
				],
				"metallicFactor":0,
				"roughnessFactor":0.5
			}
		}
	],
	"meshes":[
		{
			"name":"Cube.001",
			"primitives":[
				{
					"attributes":{
						"POSITION":0,
						"NORMAL":1,
						"TEXCOORD_0":2,
						"TANGENT":3
					},
					"indices":4,
					"material":0
				},
				{
					"attributes":{
						"POSITION":5,
						"NORMAL":6,
						"TEXCOORD_0":7,
						"TANGENT":8
					},
					"indices":9,
					"material":1
				}
			]
		}
	],
	"accessors":[
		{
			"bufferView":0,
			"componentType":5126,
			"count":782,
			"max":[
				0.9463761448860168,
				0.6178019642829895,
				0.9710833430290222
			],
			"min":[
				-0.9957906007766724,
				-1.628899097442627,
				-0.9710833430290222
			],
			"type":"VEC3"
		},
		{
			"bufferView":1,
			"componentType":5126,
			"count":782,
			"type":"VEC3"
		},
		{
			"bufferView":2,
			"componentType":5126,
			"count":782,
			"type":"VEC2"
		},
		{
			"bufferView":3,
			"componentType":5126,
			"count":782,
			"type":"VEC4"
		},
		{
			"bufferView":4,
			"componentType":5123,
			"count":3456,
			"type":"SCALAR"
		},
		{
			"bufferView":5,
			"componentType":5126,
			"count":299,
			"max":[
				0.2575860917568207,
				1.2974717617034912,
				0.08629308640956879
			],
			"min":[
				-0.06895199418067932,
				0.5485542416572571,
				-0.08629310131072998
			],
			"type":"VEC3"
		},
		{
			"bufferView":6,
			"componentType":5126,
			"count":299,
			"type":"VEC3"
		},
		{
			"bufferView":7,
			"componentType":5126,
			"count":299,
			"type":"VEC2"
		},
		{
			"bufferView":8,
			"componentType":5126,
			"count":299,
			"type":"VEC4"
		},
		{
			"bufferView":9,
			"componentType":5123,
			"count":1056,
			"type":"SCALAR"
		}
	],
	"bufferViews":[
		{
			"buffer":0,
			"byteLength":9384,
			"byteOffset":0,
			"target":34962
		},
		{
			"buffer":0,
			"byteLength":9384,
			"byteOffset":9384,
			"target":34962
		},
		{
			"buffer":0,
			"byteLength":6256,
			"byteOffset":18768,
			"target":34962
		},
		{
			"buffer":0,
			"byteLength":12512,
			"byteOffset":25024,
			"target":34962
		},
		{
			"buffer":0,
			"byteLength":6912,
			"byteOffset":37536,
			"target":34963
		},
		{
			"buffer":0,
			"byteLength":3588,
			"byteOffset":44448,
			"target":34962
		},
		{
			"buffer":0,
			"byteLength":3588,
			"byteOffset":48036,
			"target":34962
		},
		{
			"buffer":0,
			"byteLength":2392,
			"byteOffset":51624,
			"target":34962
		},
		{
			"buffer":0,
			"byteLength":4784,
			"byteOffset":54016,
			"target":34962
		},
		{
			"buffer":0,
			"byteLength":2112,
			"byteOffset":58800,
			"target":34963
		}
	],
	"buffers":[
		{
			"byteLength":60912,
			"uri":"Pear-04c93fc7055accf048676378e00fd3b6.bin"
		}
	]
}
