{
	"asset":{
		"generator":"Khronos glTF Blender I/O v4.3.47",
		"version":"2.0"
	},
	"extensionsUsed":[
		"KHR_materials_specular",
		"KHR_materials_ior"
	],
	"scene":0,
	"scenes":[
		{
			"name":"Scene",
			"nodes":[
				0
			]
		}
	],
	"nodes":[
		{
			"mesh":0,
			"name":"PhoneBooth_02"
		}
	],
	"materials":[
		{
			"doubleSided":true,
			"name":"GrayPhoneBooth_02",
			"pbrMetallicRoughness":{
				"baseColorFactor":[
					0.2704978287220001,
					0.2704978287220001,
					0.2704978287220001,
					1
				],
				"metallicFactor":0,
				"roughnessFactor":0.5
			}
		},
		{
			"doubleSided":true,
			"name":"BlackPhoneBooth_02",
			"pbrMetallicRoughness":{
				"baseColorFactor":[
					0.013702086172997952,
					0.013702086172997952,
					0.013702086172997952,
					1
				],
				"metallicFactor":0,
				"roughnessFactor":0.5
			}
		},
		{
			"doubleSided":true,
			"name":"BluePhoneBooth_02",
			"pbrMetallicRoughness":{
				"baseColorFactor":[
					0.04518618434667587,
					0.10224174708127975,
					0.2158605456352234,
					1
				],
				"metallicFactor":0,
				"roughnessFactor":0.5
			}
		},
		{
			"doubleSided":true,
			"extensions":{
				"KHR_materials_specular":{
					"specularFactor":0
				},
				"KHR_materials_ior":{
					"ior":1.4500000476837158
				}
			},
			"name":"Material.007",
			"pbrMetallicRoughness":{
				"baseColorFactor":[
					0.0014983558794483542,
					0.13521137833595276,
					0.005269656423479319,
					1
				],
				"metallicFactor":0,
				"roughnessFactor":0.5
			}
		}
	],
	"meshes":[
		{
			"name":"Cube.006",
			"primitives":[
				{
					"attributes":{
						"POSITION":0,
						"NORMAL":1,
						"TEXCOORD_0":2
					},
					"indices":3,
					"material":0
				},
				{
					"attributes":{
						"POSITION":4,
						"NORMAL":5,
						"TEXCOORD_0":6
					},
					"indices":7,
					"material":1
				},
				{
					"attributes":{
						"POSITION":8,
						"NORMAL":9,
						"TEXCOORD_0":10
					},
					"indices":11,
					"material":2
				},
				{
					"attributes":{
						"POSITION":12,
						"NORMAL":13,
						"TEXCOORD_0":14
					},
					"indices":15,
					"material":3
				}
			]
		}
	],
	"accessors":[
		{
			"bufferView":0,
			"componentType":5126,
			"count":128,
			"max":[
				2.2702527046203613,
				4.493732929229736,
				0.8580281734466553
			],
			"min":[
				-2.239853858947754,
				-8.351706504821777,
				-1.455737829208374
			],
			"type":"VEC3"
		},
		{
			"bufferView":1,
			"componentType":5126,
			"count":128,
			"type":"VEC3"
		},
		{
			"bufferView":2,
			"componentType":5126,
			"count":128,
			"type":"VEC2"
		},
		{
			"bufferView":3,
			"componentType":5123,
			"count":282,
			"type":"SCALAR"
		},
		{
			"bufferView":4,
			"componentType":5126,
			"count":32,
			"max":[
				2.05865216255188,
				2.7135491371154785,
				1.7445980310440063
			],
			"min":[
				-2.0282533168792725,
				-8.472932815551758,
				-2.3423073291778564
			],
			"type":"VEC3"
		},
		{
			"bufferView":5,
			"componentType":5126,
			"count":32,
			"type":"VEC3"
		},
		{
			"bufferView":6,
			"componentType":5126,
			"count":32,
			"type":"VEC2"
		},
		{
			"bufferView":7,
			"componentType":5123,
			"count":48,
			"type":"SCALAR"
		},
		{
			"bufferView":8,
			"componentType":5126,
			"count":8,
			"max":[
				2.003364086151123,
				3.892401933670044,
				-0.5011436939239502
			],
			"min":[
				-1.9729652404785156,
				2.7135491371154785,
				-0.7417014837265015
			],
			"type":"VEC3"
		},
		{
			"bufferView":9,
			"componentType":5126,
			"count":8,
			"type":"VEC3"
		},
		{
			"bufferView":10,
			"componentType":5126,
			"count":8,
			"type":"VEC2"
		},
		{
			"bufferView":11,
			"componentType":5123,
			"count":18,
			"type":"SCALAR"
		},
		{
			"bufferView":12,
			"componentType":5126,
			"count":204,
			"max":[
				0.4502168893814087,
				2.7632904052734375,
				0.9934361577033997
			],
			"min":[
				-0.4605107605457306,
				-1.0989476442337036,
				-0.6089736819267273
			],
			"type":"VEC3"
		},
		{
			"bufferView":13,
			"componentType":5126,
			"count":204,
			"type":"VEC3"
		},
		{
			"bufferView":14,
			"componentType":5126,
			"count":204,
			"type":"VEC2"
		},
		{
			"bufferView":15,
			"componentType":5123,
			"count":312,
			"type":"SCALAR"
		}
	],
	"bufferViews":[
		{
			"buffer":0,
			"byteLength":1536,
			"byteOffset":0,
			"target":34962
		},
		{
			"buffer":0,
			"byteLength":1536,
			"byteOffset":1536,
			"target":34962
		},
		{
			"buffer":0,
			"byteLength":1024,
			"byteOffset":3072,
			"target":34962
		},
		{
			"buffer":0,
			"byteLength":564,
			"byteOffset":4096,
			"target":34963
		},
		{
			"buffer":0,
			"byteLength":384,
			"byteOffset":4660,
			"target":34962
		},
		{
			"buffer":0,
			"byteLength":384,
			"byteOffset":5044,
			"target":34962
		},
		{
			"buffer":0,
			"byteLength":256,
			"byteOffset":5428,
			"target":34962
		},
		{
			"buffer":0,
			"byteLength":96,
			"byteOffset":5684,
			"target":34963
		},
		{
			"buffer":0,
			"byteLength":96,
			"byteOffset":5780,
			"target":34962
		},
		{
			"buffer":0,
			"byteLength":96,
			"byteOffset":5876,
			"target":34962
		},
		{
			"buffer":0,
			"byteLength":64,
			"byteOffset":5972,
			"target":34962
		},
		{
			"buffer":0,
			"byteLength":36,
			"byteOffset":6036,
			"target":34963
		},
		{
			"buffer":0,
			"byteLength":2448,
			"byteOffset":6072,
			"target":34962
		},
		{
			"buffer":0,
			"byteLength":2448,
			"byteOffset":8520,
			"target":34962
		},
		{
			"buffer":0,
			"byteLength":1632,
			"byteOffset":10968,
			"target":34962
		},
		{
			"buffer":0,
			"byteLength":624,
			"byteOffset":12600,
			"target":34963
		}
	],
	"buffers":[
		{
			"byteLength":13224,
			"uri":"PhoneBooth_02-8cda39c865ab92eaa081d781160a5c71.bin"
		}
	]
}
