{
	"asset":{
		"generator":"Khronos glTF Blender I/O v4.3.47",
		"version":"2.0"
	},
	"scene":0,
	"scenes":[
		{
			"name":"Scene",
			"nodes":[
				0
			]
		}
	],
	"nodes":[
		{
			"mesh":0,
			"name":"PhoneBooth_01"
		}
	],
	"materials":[
		{
			"doubleSided":true,
			"name":"PhoneBooth_01Windows",
			"pbrMetallicRoughness":{
				"baseColorFactor":[
					0,
					0,
					0,
					1
				],
				"metallicFactor":0,
				"roughnessFactor":0.5
			}
		},
		{
			"doubleSided":true,
			"name":"PhoneBooth_Blue",
			"pbrMetallicRoughness":{
				"baseColorFactor":[
					0.04551776871085167,
					0.10307151079177856,
					0.2140354961156845,
					1
				],
				"metallicFactor":0,
				"roughnessFactor":0.5
			}
		},
		{
			"doubleSided":true,
			"name":"PhoneBooth_01DoorHandle",
			"pbrMetallicRoughness":{
				"baseColorFactor":[
					0.13286834955215454,
					0.13286834955215454,
					0.13286834955215454,
					1
				],
				"metallicFactor":0,
				"roughnessFactor":0.5
			}
		}
	],
	"meshes":[
		{
			"name":"Cube.001",
			"primitives":[
				{
					"attributes":{
						"POSITION":0,
						"NORMAL":1,
						"TEXCOORD_0":2,
						"TANGENT":3
					},
					"indices":4,
					"material":0
				},
				{
					"attributes":{
						"POSITION":5,
						"NORMAL":6,
						"TEXCOORD_0":7,
						"TANGENT":8
					},
					"indices":9,
					"material":1
				},
				{
					"attributes":{
						"POSITION":10,
						"NORMAL":11,
						"TEXCOORD_0":12,
						"TANGENT":13
					},
					"indices":14,
					"material":2
				}
			]
		}
	],
	"accessors":[
		{
			"bufferView":0,
			"componentType":5126,
			"count":46,
			"max":[
				2.889190673828125,
				4.868511199951172,
				2.8780834674835205
			],
			"min":[
				-3.310299873352051,
				-7.904849529266357,
				-3.147484540939331
			],
			"type":"VEC3"
		},
		{
			"bufferView":1,
			"componentType":5126,
			"count":46,
			"type":"VEC3"
		},
		{
			"bufferView":2,
			"componentType":5126,
			"count":46,
			"type":"VEC2"
		},
		{
			"bufferView":3,
			"componentType":5126,
			"count":46,
			"type":"VEC4"
		},
		{
			"bufferView":4,
			"componentType":5123,
			"count":78,
			"type":"SCALAR"
		},
		{
			"bufferView":5,
			"componentType":5126,
			"count":353,
			"max":[
				3.628735303878784,
				6.634882926940918,
				3.852109670639038
			],
			"min":[
				-4.0498456954956055,
				-8.577131271362305,
				-3.826472043991089
			],
			"type":"VEC3"
		},
		{
			"bufferView":6,
			"componentType":5126,
			"count":353,
			"type":"VEC3"
		},
		{
			"bufferView":7,
			"componentType":5126,
			"count":353,
			"type":"VEC2"
		},
		{
			"bufferView":8,
			"componentType":5126,
			"count":353,
			"type":"VEC4"
		},
		{
			"bufferView":9,
			"componentType":5123,
			"count":834,
			"type":"SCALAR"
		},
		{
			"bufferView":10,
			"componentType":5126,
			"count":48,
			"max":[
				1.9926512241363525,
				0.6782369613647461,
				3.3124685287475586
			],
			"min":[
				1.4464060068130493,
				-1.321763038635254,
				2.473869562149048
			],
			"type":"VEC3"
		},
		{
			"bufferView":11,
			"componentType":5126,
			"count":48,
			"type":"VEC3"
		},
		{
			"bufferView":12,
			"componentType":5126,
			"count":48,
			"type":"VEC2"
		},
		{
			"bufferView":13,
			"componentType":5126,
			"count":48,
			"type":"VEC4"
		},
		{
			"bufferView":14,
			"componentType":5123,
			"count":96,
			"type":"SCALAR"
		}
	],
	"bufferViews":[
		{
			"buffer":0,
			"byteLength":552,
			"byteOffset":0,
			"target":34962
		},
		{
			"buffer":0,
			"byteLength":552,
			"byteOffset":552,
			"target":34962
		},
		{
			"buffer":0,
			"byteLength":368,
			"byteOffset":1104,
			"target":34962
		},
		{
			"buffer":0,
			"byteLength":736,
			"byteOffset":1472,
			"target":34962
		},
		{
			"buffer":0,
			"byteLength":156,
			"byteOffset":2208,
			"target":34963
		},
		{
			"buffer":0,
			"byteLength":4236,
			"byteOffset":2364,
			"target":34962
		},
		{
			"buffer":0,
			"byteLength":4236,
			"byteOffset":6600,
			"target":34962
		},
		{
			"buffer":0,
			"byteLength":2824,
			"byteOffset":10836,
			"target":34962
		},
		{
			"buffer":0,
			"byteLength":5648,
			"byteOffset":13660,
			"target":34962
		},
		{
			"buffer":0,
			"byteLength":1668,
			"byteOffset":19308,
			"target":34963
		},
		{
			"buffer":0,
			"byteLength":576,
			"byteOffset":20976,
			"target":34962
		},
		{
			"buffer":0,
			"byteLength":576,
			"byteOffset":21552,
			"target":34962
		},
		{
			"buffer":0,
			"byteLength":384,
			"byteOffset":22128,
			"target":34962
		},
		{
			"buffer":0,
			"byteLength":768,
			"byteOffset":22512,
			"target":34962
		},
		{
			"buffer":0,
			"byteLength":192,
			"byteOffset":23280,
			"target":34963
		}
	],
	"buffers":[
		{
			"byteLength":23472,
			"uri":"PhoneBooth_01-630710381c67043815dec467af07ff92.bin"
		}
	]
}
