{
	"asset":{
		"generator":"Khronos glTF Blender I/O v4.3.47",
		"version":"2.0"
	},
	"scene":0,
	"scenes":[
		{
			"name":"Scene",
			"nodes":[
				0
			]
		}
	],
	"nodes":[
		{
			"mesh":0,
			"name":"Pie01"
		}
	],
	"materials":[
		{
			"doubleSided":true,
			"name":"White_Pie01",
			"pbrMetallicRoughness":{
				"baseColorFactor":[
					0.800000011920929,
					0.800000011920929,
					0.800000011920929,
					1
				],
				"metallicFactor":0,
				"roughnessFactor":0.5
			}
		},
		{
			"doubleSided":true,
			"name":"DarkOrange_Pie01",
			"pbrMetallicRoughness":{
				"baseColorFactor":[
					0.3757499158382416,
					0.15460288524627686,
					0.02660524658858776,
					1
				],
				"metallicFactor":0,
				"roughnessFactor":0.5
			}
		},
		{
			"doubleSided":true,
			"name":"Orange_Pie01",
			"pbrMetallicRoughness":{
				"baseColorFactor":[
					0.5775806307792664,
					0.2766115367412567,
					0.03602773696184158,
					1
				],
				"metallicFactor":0,
				"roughnessFactor":0.5
			}
		}
	],
	"meshes":[
		{
			"name":"Cylinder.005",
			"primitives":[
				{
					"attributes":{
						"POSITION":0,
						"NORMAL":1,
						"TEXCOORD_0":2,
						"TANGENT":3
					},
					"indices":4,
					"material":0
				},
				{
					"attributes":{
						"POSITION":5,
						"NORMAL":6,
						"TEXCOORD_0":7,
						"TANGENT":8
					},
					"indices":9,
					"material":1
				},
				{
					"attributes":{
						"POSITION":10,
						"NORMAL":11,
						"TEXCOORD_0":12,
						"TANGENT":13
					},
					"indices":14,
					"material":2
				}
			]
		}
	],
	"accessors":[
		{
			"bufferView":0,
			"componentType":5126,
			"count":3703,
			"max":[
				0.29728513956069946,
				0.3424193263053894,
				0.2916921079158783
			],
			"min":[
				-0.2941884398460388,
				-0.12695415318012238,
				-0.29790884256362915
			],
			"type":"VEC3"
		},
		{
			"bufferView":1,
			"componentType":5126,
			"count":3703,
			"type":"VEC3"
		},
		{
			"bufferView":2,
			"componentType":5126,
			"count":3703,
			"type":"VEC2"
		},
		{
			"bufferView":3,
			"componentType":5126,
			"count":3703,
			"type":"VEC4"
		},
		{
			"bufferView":4,
			"componentType":5123,
			"count":13728,
			"type":"SCALAR"
		},
		{
			"bufferView":5,
			"componentType":5126,
			"count":1296,
			"max":[
				1.025974154472351,
				-0.06693620979785919,
				1.0256551504135132
			],
			"min":[
				-1.025335431098938,
				-0.48567068576812744,
				-1.0256545543670654
			],
			"type":"VEC3"
		},
		{
			"bufferView":6,
			"componentType":5126,
			"count":1296,
			"type":"VEC3"
		},
		{
			"bufferView":7,
			"componentType":5126,
			"count":1296,
			"type":"VEC2"
		},
		{
			"bufferView":8,
			"componentType":5126,
			"count":1296,
			"type":"VEC4"
		},
		{
			"bufferView":9,
			"componentType":5123,
			"count":4884,
			"type":"SCALAR"
		},
		{
			"bufferView":10,
			"componentType":5126,
			"count":983,
			"max":[
				1.0342633724212646,
				0.01652269810438156,
				1.0339446067810059
			],
			"min":[
				-1.0336247682571411,
				-0.0879637598991394,
				-1.0339438915252686
			],
			"type":"VEC3"
		},
		{
			"bufferView":11,
			"componentType":5126,
			"count":983,
			"type":"VEC3"
		},
		{
			"bufferView":12,
			"componentType":5126,
			"count":983,
			"type":"VEC2"
		},
		{
			"bufferView":13,
			"componentType":5126,
			"count":983,
			"type":"VEC4"
		},
		{
			"bufferView":14,
			"componentType":5123,
			"count":3276,
			"type":"SCALAR"
		}
	],
	"bufferViews":[
		{
			"buffer":0,
			"byteLength":44436,
			"byteOffset":0,
			"target":34962
		},
		{
			"buffer":0,
			"byteLength":44436,
			"byteOffset":44436,
			"target":34962
		},
		{
			"buffer":0,
			"byteLength":29624,
			"byteOffset":88872,
			"target":34962
		},
		{
			"buffer":0,
			"byteLength":59248,
			"byteOffset":118496,
			"target":34962
		},
		{
			"buffer":0,
			"byteLength":27456,
			"byteOffset":177744,
			"target":34963
		},
		{
			"buffer":0,
			"byteLength":15552,
			"byteOffset":205200,
			"target":34962
		},
		{
			"buffer":0,
			"byteLength":15552,
			"byteOffset":220752,
			"target":34962
		},
		{
			"buffer":0,
			"byteLength":10368,
			"byteOffset":236304,
			"target":34962
		},
		{
			"buffer":0,
			"byteLength":20736,
			"byteOffset":246672,
			"target":34962
		},
		{
			"buffer":0,
			"byteLength":9768,
			"byteOffset":267408,
			"target":34963
		},
		{
			"buffer":0,
			"byteLength":11796,
			"byteOffset":277176,
			"target":34962
		},
		{
			"buffer":0,
			"byteLength":11796,
			"byteOffset":288972,
			"target":34962
		},
		{
			"buffer":0,
			"byteLength":7864,
			"byteOffset":300768,
			"target":34962
		},
		{
			"buffer":0,
			"byteLength":15728,
			"byteOffset":308632,
			"target":34962
		},
		{
			"buffer":0,
			"byteLength":6552,
			"byteOffset":324360,
			"target":34963
		}
	],
	"buffers":[
		{
			"byteLength":330912,
			"uri":"Pie01-70a1eceb08c19eb4a4852413f985f02c.bin"
		}
	]
}
