{
	"asset":{
		"generator":"Khronos glTF Blender I/O v4.3.47",
		"version":"2.0"
	},
	"scene":0,
	"scenes":[
		{
			"name":"Scene",
			"nodes":[
				0
			]
		}
	],
	"nodes":[
		{
			"mesh":0,
			"name":"Pie02",
			"translation":[
				0.00014043737610336393,
				-0.12052427232265472,
				7.471201388398185e-05
			]
		}
	],
	"materials":[
		{
			"doubleSided":true,
			"name":"Orange_Pie02",
			"pbrMetallicRoughness":{
				"baseColorFactor":[
					0.5382245182991028,
					0.24717102944850922,
					0.023430366069078445,
					1
				],
				"metallicFactor":0,
				"roughnessFactor":0.5
			}
		},
		{
			"doubleSided":true,
			"name":"DarkBrown_Pie02",
			"pbrMetallicRoughness":{
				"baseColorFactor":[
					0.2917707860469818,
					0.10461645573377609,
					0.004391452297568321,
					1
				],
				"metallicFactor":0,
				"roughnessFactor":0.5
			}
		}
	],
	"meshes":[
		{
			"name":"Cylinder.009",
			"primitives":[
				{
					"attributes":{
						"POSITION":0,
						"NORMAL":1,
						"TEXCOORD_0":2
					},
					"indices":3,
					"material":0
				},
				{
					"attributes":{
						"POSITION":4,
						"NORMAL":5,
						"TEXCOORD_0":6
					},
					"indices":7,
					"material":1
				}
			]
		}
	],
	"accessors":[
		{
			"bufferView":0,
			"componentType":5126,
			"count":2973,
			"max":[
				0.9356227517127991,
				0.2650020718574524,
				0.9357056617736816
			],
			"min":[
				-0.935974657535553,
				-0.29014497995376587,
				-0.9359108209609985
			],
			"type":"VEC3"
		},
		{
			"bufferView":1,
			"componentType":5126,
			"count":2973,
			"type":"VEC3"
		},
		{
			"bufferView":2,
			"componentType":5126,
			"count":2973,
			"type":"VEC2"
		},
		{
			"bufferView":3,
			"componentType":5123,
			"count":14640,
			"type":"SCALAR"
		},
		{
			"bufferView":4,
			"componentType":5126,
			"count":1916,
			"max":[
				0.8469610214233398,
				0.27222901582717896,
				0.8470455408096313
			],
			"min":[
				-0.8473206758499146,
				-0.5156529545783997,
				-0.8472360968589783
			],
			"type":"VEC3"
		},
		{
			"bufferView":5,
			"componentType":5126,
			"count":1916,
			"type":"VEC3"
		},
		{
			"bufferView":6,
			"componentType":5126,
			"count":1916,
			"type":"VEC2"
		},
		{
			"bufferView":7,
			"componentType":5123,
			"count":7764,
			"type":"SCALAR"
		}
	],
	"bufferViews":[
		{
			"buffer":0,
			"byteLength":35676,
			"byteOffset":0,
			"target":34962
		},
		{
			"buffer":0,
			"byteLength":35676,
			"byteOffset":35676,
			"target":34962
		},
		{
			"buffer":0,
			"byteLength":23784,
			"byteOffset":71352,
			"target":34962
		},
		{
			"buffer":0,
			"byteLength":29280,
			"byteOffset":95136,
			"target":34963
		},
		{
			"buffer":0,
			"byteLength":22992,
			"byteOffset":124416,
			"target":34962
		},
		{
			"buffer":0,
			"byteLength":22992,
			"byteOffset":147408,
			"target":34962
		},
		{
			"buffer":0,
			"byteLength":15328,
			"byteOffset":170400,
			"target":34962
		},
		{
			"buffer":0,
			"byteLength":15528,
			"byteOffset":185728,
			"target":34963
		}
	],
	"buffers":[
		{
			"byteLength":201256,
			"uri":"Pie02-581a9d86612af2084e4405b5add357ea.bin"
		}
	]
}
