{
	"asset":{
		"generator":"Khronos glTF Blender I/O v4.3.47",
		"version":"2.0"
	},
	"scene":0,
	"scenes":[
		{
			"name":"Scene",
			"nodes":[
				0
			]
		}
	],
	"nodes":[
		{
			"mesh":0,
			"name":"Pie03"
		}
	],
	"materials":[
		{
			"doubleSided":true,
			"name":"DarkYellow_Pie03",
			"pbrMetallicRoughness":{
				"baseColorFactor":[
					0.4109383523464203,
					0.22302906215190887,
					0.022919485345482826,
					1
				],
				"metallicFactor":0,
				"roughnessFactor":0.5
			}
		},
		{
			"doubleSided":true,
			"name":"DarkRed_Pie03",
			"pbrMetallicRoughness":{
				"baseColorFactor":[
					0.20863693952560425,
					0.007499001454561949,
					0.009134063497185707,
					1
				],
				"metallicFactor":0,
				"roughnessFactor":0.5
			}
		},
		{
			"doubleSided":true,
			"name":"DarkBrown_Pie03",
			"pbrMetallicRoughness":{
				"baseColorFactor":[
					0.35055607557296753,
					0.1496441811323166,
					0.011070388369262218,
					1
				],
				"metallicFactor":0,
				"roughnessFactor":0.5
			}
		}
	],
	"meshes":[
		{
			"name":"Cube.007",
			"primitives":[
				{
					"attributes":{
						"POSITION":0,
						"NORMAL":1,
						"TEXCOORD_0":2
					},
					"indices":3,
					"material":0
				},
				{
					"attributes":{
						"POSITION":4,
						"NORMAL":5,
						"TEXCOORD_0":6
					},
					"indices":7,
					"material":1
				},
				{
					"attributes":{
						"POSITION":8,
						"NORMAL":9,
						"TEXCOORD_0":10
					},
					"indices":11,
					"material":2
				}
			]
		}
	],
	"accessors":[
		{
			"bufferView":0,
			"componentType":5126,
			"count":4099,
			"max":[
				1.0306061506271362,
				0.08029282093048096,
				1.0610716342926025
			],
			"min":[
				-1.050248146057129,
				-0.08279003202915192,
				-1.018488883972168
			],
			"type":"VEC3"
		},
		{
			"bufferView":1,
			"componentType":5126,
			"count":4099,
			"type":"VEC3"
		},
		{
			"bufferView":2,
			"componentType":5126,
			"count":4099,
			"type":"VEC2"
		},
		{
			"bufferView":3,
			"componentType":5123,
			"count":14088,
			"type":"SCALAR"
		},
		{
			"bufferView":4,
			"componentType":5126,
			"count":100,
			"max":[
				1.0188466310501099,
				0.06061651185154915,
				1.036548137664795
			],
			"min":[
				-1.0253742933273315,
				-0.05422117933630943,
				-1.007672905921936
			],
			"type":"VEC3"
		},
		{
			"bufferView":5,
			"componentType":5126,
			"count":100,
			"type":"VEC3"
		},
		{
			"bufferView":6,
			"componentType":5126,
			"count":100,
			"type":"VEC2"
		},
		{
			"bufferView":7,
			"componentType":5123,
			"count":534,
			"type":"SCALAR"
		},
		{
			"bufferView":8,
			"componentType":5126,
			"count":143,
			"max":[
				1.116117000579834,
				0.04336069896817207,
				1.1338183879852295
			],
			"min":[
				-1.1226445436477661,
				-0.3931029438972473,
				-1.1049431562423706
			],
			"type":"VEC3"
		},
		{
			"bufferView":9,
			"componentType":5126,
			"count":143,
			"type":"VEC3"
		},
		{
			"bufferView":10,
			"componentType":5126,
			"count":143,
			"type":"VEC2"
		},
		{
			"bufferView":11,
			"componentType":5123,
			"count":654,
			"type":"SCALAR"
		}
	],
	"bufferViews":[
		{
			"buffer":0,
			"byteLength":49188,
			"byteOffset":0,
			"target":34962
		},
		{
			"buffer":0,
			"byteLength":49188,
			"byteOffset":49188,
			"target":34962
		},
		{
			"buffer":0,
			"byteLength":32792,
			"byteOffset":98376,
			"target":34962
		},
		{
			"buffer":0,
			"byteLength":28176,
			"byteOffset":131168,
			"target":34963
		},
		{
			"buffer":0,
			"byteLength":1200,
			"byteOffset":159344,
			"target":34962
		},
		{
			"buffer":0,
			"byteLength":1200,
			"byteOffset":160544,
			"target":34962
		},
		{
			"buffer":0,
			"byteLength":800,
			"byteOffset":161744,
			"target":34962
		},
		{
			"buffer":0,
			"byteLength":1068,
			"byteOffset":162544,
			"target":34963
		},
		{
			"buffer":0,
			"byteLength":1716,
			"byteOffset":163612,
			"target":34962
		},
		{
			"buffer":0,
			"byteLength":1716,
			"byteOffset":165328,
			"target":34962
		},
		{
			"buffer":0,
			"byteLength":1144,
			"byteOffset":167044,
			"target":34962
		},
		{
			"buffer":0,
			"byteLength":1308,
			"byteOffset":168188,
			"target":34963
		}
	],
	"buffers":[
		{
			"byteLength":169496,
			"uri":"Pie03-add17844443bde5663c2c7e940378df6.bin"
		}
	]
}
