{
	"asset":{
		"generator":"Khronos glTF Blender I/O v4.3.47",
		"version":"2.0"
	},
	"scene":0,
	"scenes":[
		{
			"name":"Scene",
			"nodes":[
				0
			]
		}
	],
	"nodes":[
		{
			"mesh":0,
			"name":"PowerGenerator_02"
		}
	],
	"materials":[
		{
			"doubleSided":true,
			"name":"YellowPowerGenerator_01.001",
			"pbrMetallicRoughness":{
				"baseColorFactor":[
					0.9386858344078064,
					0.7681511044502258,
					0.01850022003054619,
					1
				],
				"metallicFactor":0,
				"roughnessFactor":0.5
			}
		},
		{
			"doubleSided":true,
			"name":"DarkBluePowerGenerator_02",
			"pbrMetallicRoughness":{
				"baseColorFactor":[
					0.24836213886737823,
					0.36246442794799805,
					0.41093873977661133,
					1
				],
				"metallicFactor":0,
				"roughnessFactor":0.5
			}
		},
		{
			"doubleSided":true,
			"name":"LightBluePowerGenerator_02",
			"pbrMetallicRoughness":{
				"baseColorFactor":[
					0.5520114898681641,
					0.6938718557357788,
					0.7529424428939819,
					1
				],
				"metallicFactor":0,
				"roughnessFactor":0.5
			}
		}
	],
	"meshes":[
		{
			"name":"Cube.012",
			"primitives":[
				{
					"attributes":{
						"POSITION":0,
						"NORMAL":1,
						"TEXCOORD_0":2,
						"TANGENT":3
					},
					"indices":4,
					"material":0
				},
				{
					"attributes":{
						"POSITION":5,
						"NORMAL":6,
						"TEXCOORD_0":7,
						"TANGENT":8
					},
					"indices":9,
					"material":1
				},
				{
					"attributes":{
						"POSITION":10,
						"NORMAL":11,
						"TEXCOORD_0":12,
						"TANGENT":13
					},
					"indices":14,
					"material":2
				}
			]
		}
	],
	"accessors":[
		{
			"bufferView":0,
			"componentType":5126,
			"count":24,
			"max":[
				-2.5384559631347656,
				1.1750208139419556,
				0.8338366150856018
			],
			"min":[
				-3.8126583099365234,
				-0.09918155521154404,
				0.6469190120697021
			],
			"type":"VEC3"
		},
		{
			"bufferView":1,
			"componentType":5126,
			"count":24,
			"type":"VEC3"
		},
		{
			"bufferView":2,
			"componentType":5126,
			"count":24,
			"type":"VEC2"
		},
		{
			"bufferView":3,
			"componentType":5126,
			"count":24,
			"type":"VEC4"
		},
		{
			"bufferView":4,
			"componentType":5123,
			"count":36,
			"type":"SCALAR"
		},
		{
			"bufferView":5,
			"componentType":5126,
			"count":151,
			"max":[
				4.4577412605285645,
				1.6628371477127075,
				0.7215255498886108
			],
			"min":[
				-3.9333600997924805,
				-2.1058764457702637,
				0.6846401691436768
			],
			"type":"VEC3"
		},
		{
			"bufferView":6,
			"componentType":5126,
			"count":151,
			"type":"VEC3"
		},
		{
			"bufferView":7,
			"componentType":5126,
			"count":151,
			"type":"VEC2"
		},
		{
			"bufferView":8,
			"componentType":5126,
			"count":151,
			"type":"VEC4"
		},
		{
			"bufferView":9,
			"componentType":5123,
			"count":282,
			"type":"SCALAR"
		},
		{
			"bufferView":10,
			"componentType":5126,
			"count":291,
			"max":[
				4.736793041229248,
				2.446208953857422,
				0.7215255498886108
			],
			"min":[
				-4.212413311004639,
				-4.7638678550720215,
				-2.9111790657043457
			],
			"type":"VEC3"
		},
		{
			"bufferView":11,
			"componentType":5126,
			"count":291,
			"type":"VEC3"
		},
		{
			"bufferView":12,
			"componentType":5126,
			"count":291,
			"type":"VEC2"
		},
		{
			"bufferView":13,
			"componentType":5126,
			"count":291,
			"type":"VEC4"
		},
		{
			"bufferView":14,
			"componentType":5123,
			"count":714,
			"type":"SCALAR"
		}
	],
	"bufferViews":[
		{
			"buffer":0,
			"byteLength":288,
			"byteOffset":0,
			"target":34962
		},
		{
			"buffer":0,
			"byteLength":288,
			"byteOffset":288,
			"target":34962
		},
		{
			"buffer":0,
			"byteLength":192,
			"byteOffset":576,
			"target":34962
		},
		{
			"buffer":0,
			"byteLength":384,
			"byteOffset":768,
			"target":34962
		},
		{
			"buffer":0,
			"byteLength":72,
			"byteOffset":1152,
			"target":34963
		},
		{
			"buffer":0,
			"byteLength":1812,
			"byteOffset":1224,
			"target":34962
		},
		{
			"buffer":0,
			"byteLength":1812,
			"byteOffset":3036,
			"target":34962
		},
		{
			"buffer":0,
			"byteLength":1208,
			"byteOffset":4848,
			"target":34962
		},
		{
			"buffer":0,
			"byteLength":2416,
			"byteOffset":6056,
			"target":34962
		},
		{
			"buffer":0,
			"byteLength":564,
			"byteOffset":8472,
			"target":34963
		},
		{
			"buffer":0,
			"byteLength":3492,
			"byteOffset":9036,
			"target":34962
		},
		{
			"buffer":0,
			"byteLength":3492,
			"byteOffset":12528,
			"target":34962
		},
		{
			"buffer":0,
			"byteLength":2328,
			"byteOffset":16020,
			"target":34962
		},
		{
			"buffer":0,
			"byteLength":4656,
			"byteOffset":18348,
			"target":34962
		},
		{
			"buffer":0,
			"byteLength":1428,
			"byteOffset":23004,
			"target":34963
		}
	],
	"buffers":[
		{
			"byteLength":24432,
			"uri":"PowerGenerator_02-e16d55c6c1a1ad8f1638e55349319f8a.bin"
		}
	]
}
