{
	"asset":{
		"generator":"Khronos glTF Blender I/O v4.3.47",
		"version":"2.0"
	},
	"scene":0,
	"scenes":[
		{
			"name":"Scene",
			"nodes":[
				0
			]
		}
	],
	"nodes":[
		{
			"mesh":0,
			"name":"PowerGenerator_01"
		}
	],
	"materials":[
		{
			"doubleSided":true,
			"name":"GrayPowerGenerator_01",
			"pbrMetallicRoughness":{
				"baseColorFactor":[
					0.6172067523002625,
					0.6172067523002625,
					0.6172067523002625,
					1
				],
				"metallicFactor":0,
				"roughnessFactor":0.5
			}
		},
		{
			"doubleSided":true,
			"name":"DarkowerGenerator_01",
			"pbrMetallicRoughness":{
				"baseColorFactor":[
					0.43965715169906616,
					0.43965715169906616,
					0.43965715169906616,
					1
				],
				"metallicFactor":0,
				"roughnessFactor":0.5
			}
		},
		{
			"doubleSided":true,
			"name":"YellowPowerGenerator_01",
			"pbrMetallicRoughness":{
				"baseColorFactor":[
					0.9386858344078064,
					0.7681511044502258,
					0.01850022003054619,
					1
				],
				"metallicFactor":0,
				"roughnessFactor":0.5
			}
		}
	],
	"meshes":[
		{
			"name":"Cube.009",
			"primitives":[
				{
					"attributes":{
						"POSITION":0,
						"NORMAL":1,
						"TEXCOORD_0":2,
						"TANGENT":3
					},
					"indices":4,
					"material":0
				},
				{
					"attributes":{
						"POSITION":5,
						"NORMAL":6,
						"TEXCOORD_0":7,
						"TANGENT":8
					},
					"indices":9,
					"material":1
				},
				{
					"attributes":{
						"POSITION":10,
						"NORMAL":11,
						"TEXCOORD_0":12,
						"TANGENT":13
					},
					"indices":14,
					"material":2
				}
			]
		}
	],
	"accessors":[
		{
			"bufferView":0,
			"componentType":5126,
			"count":128,
			"max":[
				3.665743827819824,
				3.5839788913726807,
				1.157156229019165
			],
			"min":[
				-3.232898712158203,
				-3.314663887023926,
				-2.3320884704589844
			],
			"type":"VEC3"
		},
		{
			"bufferView":1,
			"componentType":5126,
			"count":128,
			"type":"VEC3"
		},
		{
			"bufferView":2,
			"componentType":5126,
			"count":128,
			"type":"VEC2"
		},
		{
			"bufferView":3,
			"componentType":5126,
			"count":128,
			"type":"VEC4"
		},
		{
			"bufferView":4,
			"componentType":5123,
			"count":312,
			"type":"SCALAR"
		},
		{
			"bufferView":5,
			"componentType":5126,
			"count":8,
			"max":[
				3.2370479106903076,
				2.3665311336517334,
				0.9002774953842163
			],
			"min":[
				-2.8042025566101074,
				-2.5651707649230957,
				0.9002774953842163
			],
			"type":"VEC3"
		},
		{
			"bufferView":6,
			"componentType":5126,
			"count":8,
			"type":"VEC3"
		},
		{
			"bufferView":7,
			"componentType":5126,
			"count":8,
			"type":"VEC2"
		},
		{
			"bufferView":8,
			"componentType":5126,
			"count":8,
			"type":"VEC4"
		},
		{
			"bufferView":9,
			"componentType":5123,
			"count":12,
			"type":"SCALAR"
		},
		{
			"bufferView":10,
			"componentType":5126,
			"count":24,
			"max":[
				-0.5149590373039246,
				1.1102951765060425,
				0.9501425623893738
			],
			"min":[
				-2.5149588584899902,
				-0.8897047638893127,
				0.8096503019332886
			],
			"type":"VEC3"
		},
		{
			"bufferView":11,
			"componentType":5126,
			"count":24,
			"type":"VEC3"
		},
		{
			"bufferView":12,
			"componentType":5126,
			"count":24,
			"type":"VEC2"
		},
		{
			"bufferView":13,
			"componentType":5126,
			"count":24,
			"type":"VEC4"
		},
		{
			"bufferView":14,
			"componentType":5123,
			"count":36,
			"type":"SCALAR"
		}
	],
	"bufferViews":[
		{
			"buffer":0,
			"byteLength":1536,
			"byteOffset":0,
			"target":34962
		},
		{
			"buffer":0,
			"byteLength":1536,
			"byteOffset":1536,
			"target":34962
		},
		{
			"buffer":0,
			"byteLength":1024,
			"byteOffset":3072,
			"target":34962
		},
		{
			"buffer":0,
			"byteLength":2048,
			"byteOffset":4096,
			"target":34962
		},
		{
			"buffer":0,
			"byteLength":624,
			"byteOffset":6144,
			"target":34963
		},
		{
			"buffer":0,
			"byteLength":96,
			"byteOffset":6768,
			"target":34962
		},
		{
			"buffer":0,
			"byteLength":96,
			"byteOffset":6864,
			"target":34962
		},
		{
			"buffer":0,
			"byteLength":64,
			"byteOffset":6960,
			"target":34962
		},
		{
			"buffer":0,
			"byteLength":128,
			"byteOffset":7024,
			"target":34962
		},
		{
			"buffer":0,
			"byteLength":24,
			"byteOffset":7152,
			"target":34963
		},
		{
			"buffer":0,
			"byteLength":288,
			"byteOffset":7176,
			"target":34962
		},
		{
			"buffer":0,
			"byteLength":288,
			"byteOffset":7464,
			"target":34962
		},
		{
			"buffer":0,
			"byteLength":192,
			"byteOffset":7752,
			"target":34962
		},
		{
			"buffer":0,
			"byteLength":384,
			"byteOffset":7944,
			"target":34962
		},
		{
			"buffer":0,
			"byteLength":72,
			"byteOffset":8328,
			"target":34963
		}
	],
	"buffers":[
		{
			"byteLength":8400,
			"uri":"PowerGenerator_01-3bc591a4cabf7735c977a6769e4a17b0.bin"
		}
	]
}
