{
	"asset":{
		"generator":"Khronos glTF Blender I/O v4.3.47",
		"version":"2.0"
	},
	"scene":0,
	"scenes":[
		{
			"name":"Scene",
			"nodes":[
				0
			]
		}
	],
	"nodes":[
		{
			"mesh":0,
			"name":"Pudding01"
		}
	],
	"materials":[
		{
			"doubleSided":true,
			"name":"Yellow_Pdding",
			"pbrMetallicRoughness":{
				"baseColorFactor":[
					0.6038274168968201,
					0.4735315144062042,
					0.06480330228805542,
					1
				],
				"metallicFactor":0,
				"roughnessFactor":0.5
			}
		},
		{
			"doubleSided":true,
			"name":"Cherry_Pudding01",
			"pbrMetallicRoughness":{
				"baseColorFactor":[
					0.5028865933418274,
					0.054480213671922684,
					0.11193244159221649,
					1
				],
				"metallicFactor":0,
				"roughnessFactor":0.5
			}
		}
	],
	"meshes":[
		{
			"name":"Cylinder.003",
			"primitives":[
				{
					"attributes":{
						"POSITION":0,
						"NORMAL":1,
						"TEXCOORD_0":2
					},
					"indices":3,
					"material":0
				},
				{
					"attributes":{
						"POSITION":4,
						"NORMAL":5,
						"TEXCOORD_0":6
					},
					"indices":7,
					"material":1
				}
			]
		}
	],
	"accessors":[
		{
			"bufferView":0,
			"componentType":5126,
			"count":145,
			"max":[
				2.0297446250915527,
				0.2916966378688812,
				2.0245320796966553
			],
			"min":[
				-2.030418634414673,
				-2.1882059574127197,
				-2.035630941390991
			],
			"type":"VEC3"
		},
		{
			"bufferView":1,
			"componentType":5126,
			"count":145,
			"type":"VEC3"
		},
		{
			"bufferView":2,
			"componentType":5126,
			"count":145,
			"type":"VEC2"
		},
		{
			"bufferView":3,
			"componentType":5123,
			"count":588,
			"type":"SCALAR"
		},
		{
			"bufferView":4,
			"componentType":5126,
			"count":5460,
			"max":[
				1.6641764640808105,
				0.8090623617172241,
				1.6589641571044922
			],
			"min":[
				-1.6648503541946411,
				-0.9139256477355957,
				-1.6700630187988281
			],
			"type":"VEC3"
		},
		{
			"bufferView":5,
			"componentType":5126,
			"count":5460,
			"type":"VEC3"
		},
		{
			"bufferView":6,
			"componentType":5126,
			"count":5460,
			"type":"VEC2"
		},
		{
			"bufferView":7,
			"componentType":5123,
			"count":27432,
			"type":"SCALAR"
		}
	],
	"bufferViews":[
		{
			"buffer":0,
			"byteLength":1740,
			"byteOffset":0,
			"target":34962
		},
		{
			"buffer":0,
			"byteLength":1740,
			"byteOffset":1740,
			"target":34962
		},
		{
			"buffer":0,
			"byteLength":1160,
			"byteOffset":3480,
			"target":34962
		},
		{
			"buffer":0,
			"byteLength":1176,
			"byteOffset":4640,
			"target":34963
		},
		{
			"buffer":0,
			"byteLength":65520,
			"byteOffset":5816,
			"target":34962
		},
		{
			"buffer":0,
			"byteLength":65520,
			"byteOffset":71336,
			"target":34962
		},
		{
			"buffer":0,
			"byteLength":43680,
			"byteOffset":136856,
			"target":34962
		},
		{
			"buffer":0,
			"byteLength":54864,
			"byteOffset":180536,
			"target":34963
		}
	],
	"buffers":[
		{
			"byteLength":235400,
			"uri":"Pudding01-20a391f319a9e5117fb947007659f580.bin"
		}
	]
}
