{
	"asset":{
		"generator":"Khronos glTF Blender I/O v4.3.47",
		"version":"2.0"
	},
	"scene":0,
	"scenes":[
		{
			"name":"Scene",
			"nodes":[
				0
			]
		}
	],
	"nodes":[
		{
			"mesh":0,
			"name":"Pumpkin01"
		}
	],
	"materials":[
		{
			"doubleSided":true,
			"name":"Orange_Pumpkin01",
			"pbrMetallicRoughness":{
				"baseColorFactor":[
					0.5173332095146179,
					0.12193264067173004,
					0.013183867558836937,
					1
				],
				"metallicFactor":0,
				"roughnessFactor":0.5
			}
		},
		{
			"doubleSided":true,
			"name":"Green_Pumpkin01",
			"pbrMetallicRoughness":{
				"baseColorFactor":[
					0,
					0.09758736938238144,
					0.004776959307491779,
					1
				],
				"metallicFactor":0,
				"roughnessFactor":0.5
			}
		}
	],
	"meshes":[
		{
			"name":"Sphere",
			"primitives":[
				{
					"attributes":{
						"POSITION":0,
						"NORMAL":1,
						"TEXCOORD_0":2,
						"TANGENT":3
					},
					"indices":4,
					"material":0
				},
				{
					"attributes":{
						"POSITION":5,
						"NORMAL":6,
						"TEXCOORD_0":7,
						"TANGENT":8
					},
					"indices":9,
					"material":1
				}
			]
		}
	],
	"accessors":[
		{
			"bufferView":0,
			"componentType":5126,
			"count":976,
			"max":[
				3.1827502250671387,
				1.20085608959198,
				3.1911470890045166
			],
			"min":[
				-3.182750701904297,
				-3.62450909614563,
				-3.140812397003174
			],
			"type":"VEC3"
		},
		{
			"bufferView":1,
			"componentType":5126,
			"count":976,
			"type":"VEC3"
		},
		{
			"bufferView":2,
			"componentType":5126,
			"count":976,
			"type":"VEC2"
		},
		{
			"bufferView":3,
			"componentType":5126,
			"count":976,
			"type":"VEC4"
		},
		{
			"bufferView":4,
			"componentType":5123,
			"count":4644,
			"type":"SCALAR"
		},
		{
			"bufferView":5,
			"componentType":5126,
			"count":956,
			"max":[
				0.6987175941467285,
				2.9964396953582764,
				0.6769689917564392
			],
			"min":[
				-0.7279281616210938,
				1.180168628692627,
				-0.7567694187164307
			],
			"type":"VEC3"
		},
		{
			"bufferView":6,
			"componentType":5126,
			"count":956,
			"type":"VEC3"
		},
		{
			"bufferView":7,
			"componentType":5126,
			"count":956,
			"type":"VEC2"
		},
		{
			"bufferView":8,
			"componentType":5126,
			"count":956,
			"type":"VEC4"
		},
		{
			"bufferView":9,
			"componentType":5123,
			"count":2916,
			"type":"SCALAR"
		}
	],
	"bufferViews":[
		{
			"buffer":0,
			"byteLength":11712,
			"byteOffset":0,
			"target":34962
		},
		{
			"buffer":0,
			"byteLength":11712,
			"byteOffset":11712,
			"target":34962
		},
		{
			"buffer":0,
			"byteLength":7808,
			"byteOffset":23424,
			"target":34962
		},
		{
			"buffer":0,
			"byteLength":15616,
			"byteOffset":31232,
			"target":34962
		},
		{
			"buffer":0,
			"byteLength":9288,
			"byteOffset":46848,
			"target":34963
		},
		{
			"buffer":0,
			"byteLength":11472,
			"byteOffset":56136,
			"target":34962
		},
		{
			"buffer":0,
			"byteLength":11472,
			"byteOffset":67608,
			"target":34962
		},
		{
			"buffer":0,
			"byteLength":7648,
			"byteOffset":79080,
			"target":34962
		},
		{
			"buffer":0,
			"byteLength":15296,
			"byteOffset":86728,
			"target":34962
		},
		{
			"buffer":0,
			"byteLength":5832,
			"byteOffset":102024,
			"target":34963
		}
	],
	"buffers":[
		{
			"byteLength":107856,
			"uri":"Pumpkin01-5f52ca5b24e5ab745dc8cf60f2a08955.bin"
		}
	]
}
