{
	"asset":{
		"generator":"Khronos glTF Blender I/O v4.3.47",
		"version":"2.0"
	},
	"scene":0,
	"scenes":[
		{
			"name":"Scene",
			"nodes":[
				0
			]
		}
	],
	"nodes":[
		{
			"mesh":0,
			"name":"Ribs01",
			"rotation":[
				0,
				0,
				-0.7071068286895752,
				0.7071068286895752
			],
			"scale":[
				0.8081836700439453,
				1,
				1
			]
		}
	],
	"materials":[
		{
			"doubleSided":true,
			"name":"Gray_Ribs01",
			"pbrMetallicRoughness":{
				"baseColorFactor":[
					0.3672376573085785,
					0.3672376573085785,
					0.3672376573085785,
					1
				],
				"metallicFactor":0,
				"roughnessFactor":0.5
			}
		},
		{
			"doubleSided":true,
			"name":"DarkRed_rRibs01",
			"pbrMetallicRoughness":{
				"baseColorFactor":[
					0.19598782062530518,
					0.03796116262674332,
					0.0014791684225201607,
					1
				],
				"metallicFactor":0,
				"roughnessFactor":0.5
			}
		}
	],
	"meshes":[
		{
			"name":"Cylinder",
			"primitives":[
				{
					"attributes":{
						"POSITION":0,
						"NORMAL":1,
						"TEXCOORD_0":2
					},
					"indices":3,
					"material":0
				},
				{
					"attributes":{
						"POSITION":4,
						"NORMAL":5,
						"TEXCOORD_0":6
					},
					"indices":7,
					"material":1
				}
			]
		}
	],
	"accessors":[
		{
			"bufferView":0,
			"componentType":5126,
			"count":492,
			"max":[
				0.48794135451316833,
				3.9722304344177246,
				4.716228485107422
			],
			"min":[
				-0.48794126510620117,
				-4.153154373168945,
				-4.716235160827637
			],
			"type":"VEC3"
		},
		{
			"bufferView":1,
			"componentType":5126,
			"count":492,
			"type":"VEC3"
		},
		{
			"bufferView":2,
			"componentType":5126,
			"count":492,
			"type":"VEC2"
		},
		{
			"bufferView":3,
			"componentType":5123,
			"count":1368,
			"type":"SCALAR"
		},
		{
			"bufferView":4,
			"componentType":5126,
			"count":1860,
			"max":[
				1.1956486701965332,
				2.937560796737671,
				5.473874092102051
			],
			"min":[
				-1.1956486701965332,
				-2.952921152114868,
				-5.473880767822266
			],
			"type":"VEC3"
		},
		{
			"bufferView":5,
			"componentType":5126,
			"count":1860,
			"type":"VEC3"
		},
		{
			"bufferView":6,
			"componentType":5126,
			"count":1860,
			"type":"VEC2"
		},
		{
			"bufferView":7,
			"componentType":5123,
			"count":8064,
			"type":"SCALAR"
		}
	],
	"bufferViews":[
		{
			"buffer":0,
			"byteLength":5904,
			"byteOffset":0,
			"target":34962
		},
		{
			"buffer":0,
			"byteLength":5904,
			"byteOffset":5904,
			"target":34962
		},
		{
			"buffer":0,
			"byteLength":3936,
			"byteOffset":11808,
			"target":34962
		},
		{
			"buffer":0,
			"byteLength":2736,
			"byteOffset":15744,
			"target":34963
		},
		{
			"buffer":0,
			"byteLength":22320,
			"byteOffset":18480,
			"target":34962
		},
		{
			"buffer":0,
			"byteLength":22320,
			"byteOffset":40800,
			"target":34962
		},
		{
			"buffer":0,
			"byteLength":14880,
			"byteOffset":63120,
			"target":34962
		},
		{
			"buffer":0,
			"byteLength":16128,
			"byteOffset":78000,
			"target":34963
		}
	],
	"buffers":[
		{
			"byteLength":94128,
			"uri":"RIbs01-104e4feb192b3df55dbd20d425d2cbeb.bin"
		}
	]
}
