{
	"asset":{
		"generator":"Khronos glTF Blender I/O v4.3.47",
		"version":"2.0"
	},
	"scene":0,
	"scenes":[
		{
			"name":"Scene",
			"nodes":[
				0
			]
		}
	],
	"nodes":[
		{
			"mesh":0,
			"name":"Roof01_house05"
		}
	],
	"materials":[
		{
			"doubleSided":true,
			"name":"Roof_house05",
			"pbrMetallicRoughness":{
				"baseColorFactor":[
					0.3762621283531189,
					0.35153263807296753,
					0.2541521489620209,
					1
				],
				"metallicFactor":0,
				"roughnessFactor":0.5
			}
		}
	],
	"meshes":[
		{
			"name":"Cube.001",
			"primitives":[
				{
					"attributes":{
						"POSITION":0,
						"NORMAL":1,
						"TEXCOORD_0":2,
						"TANGENT":3
					},
					"indices":4,
					"material":0
				}
			]
		}
	],
	"accessors":[
		{
			"bufferView":0,
			"componentType":5126,
			"count":188,
			"max":[
				1.4110246896743774,
				2.490963935852051,
				1.7718021869659424
			],
			"min":[
				-1.411024570465088,
				-2.821179151535034,
				-1.896916389465332
			],
			"type":"VEC3"
		},
		{
			"bufferView":1,
			"componentType":5126,
			"count":188,
			"type":"VEC3"
		},
		{
			"bufferView":2,
			"componentType":5126,
			"count":188,
			"type":"VEC2"
		},
		{
			"bufferView":3,
			"componentType":5126,
			"count":188,
			"type":"VEC4"
		},
		{
			"bufferView":4,
			"componentType":5123,
			"count":324,
			"type":"SCALAR"
		}
	],
	"bufferViews":[
		{
			"buffer":0,
			"byteLength":2256,
			"byteOffset":0,
			"target":34962
		},
		{
			"buffer":0,
			"byteLength":2256,
			"byteOffset":2256,
			"target":34962
		},
		{
			"buffer":0,
			"byteLength":1504,
			"byteOffset":4512,
			"target":34962
		},
		{
			"buffer":0,
			"byteLength":3008,
			"byteOffset":6016,
			"target":34962
		},
		{
			"buffer":0,
			"byteLength":648,
			"byteOffset":9024,
			"target":34963
		}
	],
	"buffers":[
		{
			"byteLength":9672,
			"uri":"Roof01_house5-8494f70fa195f897a80adc58a7a24745.bin"
		}
	]
}
