{
	"asset":{
		"generator":"Khronos glTF Blender I/O v4.3.47",
		"version":"2.0"
	},
	"scene":0,
	"scenes":[
		{
			"name":"Scene",
			"nodes":[
				0
			]
		}
	],
	"nodes":[
		{
			"mesh":0,
			"name":"Roof"
		}
	],
	"materials":[
		{
			"doubleSided":true,
			"name":"GreenRoof_house1",
			"pbrMetallicRoughness":{
				"baseColorFactor":[
					0.21141326427459717,
					0.42922651767730713,
					0.18649345636367798,
					1
				],
				"metallicFactor":0,
				"roughnessFactor":0.5
			}
		}
	],
	"meshes":[
		{
			"name":"Cube.006",
			"primitives":[
				{
					"attributes":{
						"POSITION":0,
						"NORMAL":1,
						"TEXCOORD_0":2,
						"TANGENT":3
					},
					"indices":4,
					"material":0
				}
			]
		}
	],
	"accessors":[
		{
			"bufferView":0,
			"componentType":5126,
			"count":766,
			"max":[
				2.9105496406555176,
				1.7157049179077148,
				1.769934892654419
			],
			"min":[
				-3.0614099502563477,
				-1.6826003789901733,
				-1.7354676723480225
			],
			"type":"VEC3"
		},
		{
			"bufferView":1,
			"componentType":5126,
			"count":766,
			"type":"VEC3"
		},
		{
			"bufferView":2,
			"componentType":5126,
			"count":766,
			"type":"VEC2"
		},
		{
			"bufferView":3,
			"componentType":5126,
			"count":766,
			"type":"VEC4"
		},
		{
			"bufferView":4,
			"componentType":5123,
			"count":1344,
			"type":"SCALAR"
		}
	],
	"bufferViews":[
		{
			"buffer":0,
			"byteLength":9192,
			"byteOffset":0,
			"target":34962
		},
		{
			"buffer":0,
			"byteLength":9192,
			"byteOffset":9192,
			"target":34962
		},
		{
			"buffer":0,
			"byteLength":6128,
			"byteOffset":18384,
			"target":34962
		},
		{
			"buffer":0,
			"byteLength":12256,
			"byteOffset":24512,
			"target":34962
		},
		{
			"buffer":0,
			"byteLength":2688,
			"byteOffset":36768,
			"target":34963
		}
	],
	"buffers":[
		{
			"byteLength":39456,
			"uri":"Roof_house01-659303cb093eda82d3ddfd51a8dc3253.bin"
		}
	]
}
