{
	"asset":{
		"generator":"Khronos glTF Blender I/O v4.3.47",
		"version":"2.0"
	},
	"scene":0,
	"scenes":[
		{
			"name":"Scene",
			"nodes":[
				0
			]
		}
	],
	"nodes":[
		{
			"mesh":0,
			"name":"Roof01_house2"
		}
	],
	"materials":[
		{
			"doubleSided":true,
			"name":"BlueRoof_House02",
			"pbrMetallicRoughness":{
				"baseColorFactor":[
					0.2541521489620209,
					0.48514997959136963,
					0.597201943397522,
					1
				],
				"metallicFactor":0,
				"roughnessFactor":0.5
			}
		},
		{
			"doubleSided":true,
			"name":"White_House02",
			"pbrMetallicRoughness":{
				"baseColorFactor":[
					0.9822508096694946,
					0.9473068714141846,
					0.921582043170929,
					1
				],
				"metallicFactor":0,
				"roughnessFactor":0.5
			}
		}
	],
	"meshes":[
		{
			"name":"Cube",
			"primitives":[
				{
					"attributes":{
						"POSITION":0,
						"NORMAL":1,
						"TEXCOORD_0":2,
						"TANGENT":3
					},
					"indices":4,
					"material":0
				},
				{
					"attributes":{
						"POSITION":5,
						"NORMAL":6,
						"TEXCOORD_0":7,
						"TANGENT":8
					},
					"indices":9,
					"material":1
				}
			]
		}
	],
	"accessors":[
		{
			"bufferView":0,
			"componentType":5126,
			"count":680,
			"max":[
				1.486384391784668,
				1.4698255062103271,
				1.1293472051620483
			],
			"min":[
				-1.4942148923873901,
				-1.606318712234497,
				-1.2392679452896118
			],
			"type":"VEC3"
		},
		{
			"bufferView":1,
			"componentType":5126,
			"count":680,
			"type":"VEC3"
		},
		{
			"bufferView":2,
			"componentType":5126,
			"count":680,
			"type":"VEC2"
		},
		{
			"bufferView":3,
			"componentType":5126,
			"count":680,
			"type":"VEC4"
		},
		{
			"bufferView":4,
			"componentType":5123,
			"count":1200,
			"type":"SCALAR"
		},
		{
			"bufferView":5,
			"componentType":5126,
			"count":40,
			"max":[
				1.5207597017288208,
				1.6603450775146484,
				1.4545931816101074
			],
			"min":[
				-1.506700038909912,
				-1.6623120307922363,
				-1.1149117946624756
			],
			"type":"VEC3"
		},
		{
			"bufferView":6,
			"componentType":5126,
			"count":40,
			"type":"VEC3"
		},
		{
			"bufferView":7,
			"componentType":5126,
			"count":40,
			"type":"VEC2"
		},
		{
			"bufferView":8,
			"componentType":5126,
			"count":40,
			"type":"VEC4"
		},
		{
			"bufferView":9,
			"componentType":5123,
			"count":60,
			"type":"SCALAR"
		}
	],
	"bufferViews":[
		{
			"buffer":0,
			"byteLength":8160,
			"byteOffset":0,
			"target":34962
		},
		{
			"buffer":0,
			"byteLength":8160,
			"byteOffset":8160,
			"target":34962
		},
		{
			"buffer":0,
			"byteLength":5440,
			"byteOffset":16320,
			"target":34962
		},
		{
			"buffer":0,
			"byteLength":10880,
			"byteOffset":21760,
			"target":34962
		},
		{
			"buffer":0,
			"byteLength":2400,
			"byteOffset":32640,
			"target":34963
		},
		{
			"buffer":0,
			"byteLength":480,
			"byteOffset":35040,
			"target":34962
		},
		{
			"buffer":0,
			"byteLength":480,
			"byteOffset":35520,
			"target":34962
		},
		{
			"buffer":0,
			"byteLength":320,
			"byteOffset":36000,
			"target":34962
		},
		{
			"buffer":0,
			"byteLength":640,
			"byteOffset":36320,
			"target":34962
		},
		{
			"buffer":0,
			"byteLength":120,
			"byteOffset":36960,
			"target":34963
		}
	],
	"buffers":[
		{
			"byteLength":37080,
			"uri":"Roof01_house2-bd099401c2ae66ae64e650165f07be77.bin"
		}
	]
}
