{
	"asset":{
		"generator":"Khronos glTF Blender I/O v4.3.47",
		"version":"2.0"
	},
	"extensionsUsed":[
		"KHR_lights_punctual"
	],
	"extensionsRequired":[
		"KHR_lights_punctual"
	],
	"extensions":{
		"KHR_lights_punctual":{
			"lights":[
				{
					"color":[
						1,
						1,
						1
					],
					"intensity":54351.41306588226,
					"type":"point",
					"name":"Light"
				}
			]
		}
	},
	"scene":0,
	"scenes":[
		{
			"name":"Scene",
			"nodes":[
				0,
				1,
				2
			]
		}
	],
	"nodes":[
		{
			"extensions":{
				"KHR_lights_punctual":{
					"light":0
				}
			},
			"name":"Light",
			"rotation":[
				-0.28416627645492554,
				0.7269423007965088,
				0.34203392267227173,
				0.5232754945755005
			],
			"translation":[
				4.076245307922363,
				5.903861999511719,
				-1.0054539442062378
			]
		},
		{
			"camera":0,
			"name":"Camera",
			"rotation":[
				-0.20997299253940582,
				0.3857799470424652,
				0.09062844514846802,
				0.8937962055206299
			],
			"translation":[
				7.358891487121582,
				4.958309173583984,
				6.925790786743164
			]
		},
		{
			"mesh":0,
			"name":"Roses"
		}
	],
	"cameras":[
		{
			"name":"Camera",
			"perspective":{
				"aspectRatio":1.7777777777777777,
				"yfov":0.39959652046304894,
				"zfar":100,
				"znear":0.10000000149011612
			},
			"type":"perspective"
		}
	],
	"materials":[
		{
			"doubleSided":true,
			"name":"Rose",
			"pbrMetallicRoughness":{
				"baseColorFactor":[
					0.310813844203949,
					0.008252507075667381,
					0.0021719341166317463,
					1
				],
				"metallicFactor":0,
				"roughnessFactor":0.5
			}
		},
		{
			"doubleSided":true,
			"name":"Leafs",
			"pbrMetallicRoughness":{
				"baseColorFactor":[
					0.0368894599378109,
					0.10461650043725967,
					0.006512089632451534,
					1
				],
				"metallicFactor":0,
				"roughnessFactor":0.5
			}
		}
	],
	"meshes":[
		{
			"name":"Icosphere",
			"primitives":[
				{
					"attributes":{
						"POSITION":0,
						"NORMAL":1,
						"TEXCOORD_0":2
					},
					"indices":3,
					"material":0
				},
				{
					"attributes":{
						"POSITION":4,
						"NORMAL":5,
						"TEXCOORD_0":6
					},
					"indices":7,
					"material":1
				}
			]
		}
	],
	"accessors":[
		{
			"bufferView":0,
			"componentType":5126,
			"count":900,
			"max":[
				0.40218594670295715,
				1.183633804321289,
				0.6136283278465271
			],
			"min":[
				-0.4162294864654541,
				0.583549976348877,
				-0.5113558173179626
			],
			"type":"VEC3"
		},
		{
			"bufferView":1,
			"componentType":5126,
			"count":900,
			"type":"VEC3"
		},
		{
			"bufferView":2,
			"componentType":5126,
			"count":900,
			"type":"VEC2"
		},
		{
			"bufferView":3,
			"componentType":5123,
			"count":1080,
			"type":"SCALAR"
		},
		{
			"bufferView":4,
			"componentType":5126,
			"count":804,
			"max":[
				0.3266841173171997,
				0.9627839922904968,
				0.4934641122817993
			],
			"min":[
				-0.2907240390777588,
				-0.015872683376073837,
				-0.4441859722137451
			],
			"type":"VEC3"
		},
		{
			"bufferView":5,
			"componentType":5126,
			"count":804,
			"type":"VEC3"
		},
		{
			"bufferView":6,
			"componentType":5126,
			"count":804,
			"type":"VEC2"
		},
		{
			"bufferView":7,
			"componentType":5123,
			"count":1224,
			"type":"SCALAR"
		}
	],
	"bufferViews":[
		{
			"buffer":0,
			"byteLength":10800,
			"byteOffset":0,
			"target":34962
		},
		{
			"buffer":0,
			"byteLength":10800,
			"byteOffset":10800,
			"target":34962
		},
		{
			"buffer":0,
			"byteLength":7200,
			"byteOffset":21600,
			"target":34962
		},
		{
			"buffer":0,
			"byteLength":2160,
			"byteOffset":28800,
			"target":34963
		},
		{
			"buffer":0,
			"byteLength":9648,
			"byteOffset":30960,
			"target":34962
		},
		{
			"buffer":0,
			"byteLength":9648,
			"byteOffset":40608,
			"target":34962
		},
		{
			"buffer":0,
			"byteLength":6432,
			"byteOffset":50256,
			"target":34962
		},
		{
			"buffer":0,
			"byteLength":2448,
			"byteOffset":56688,
			"target":34963
		}
	],
	"buffers":[
		{
			"byteLength":59136,
			"uri":"Rose-e4b05e333f9f675ad86b1e6fddb05cf9.bin"
		}
	]
}
