{
	"asset":{
		"generator":"Khronos glTF Blender I/O v4.3.47",
		"version":"2.0"
	},
	"scene":0,
	"scenes":[
		{
			"name":"Scene",
			"nodes":[
				0
			]
		}
	],
	"nodes":[
		{
			"mesh":0,
			"name":"RoundedCheese01"
		}
	],
	"materials":[
		{
			"doubleSided":true,
			"name":"Yellow_RoundedCheese01",
			"pbrMetallicRoughness":{
				"baseColorFactor":[
					0.6583747863769531,
					0.6104958057403564,
					0.14412856101989746,
					1
				],
				"metallicFactor":0,
				"roughnessFactor":0.5
			}
		}
	],
	"meshes":[
		{
			"name":"Cylinder",
			"primitives":[
				{
					"attributes":{
						"POSITION":0,
						"NORMAL":1,
						"TEXCOORD_0":2,
						"TANGENT":3
					},
					"indices":4,
					"material":0
				}
			]
		}
	],
	"accessors":[
		{
			"bufferView":0,
			"componentType":5126,
			"count":843,
			"max":[
				4.210394382476807,
				1.7757847309112549,
				4.2103962898254395
			],
			"min":[
				-4.210394382476807,
				-1.7757846117019653,
				-4.21039342880249
			],
			"type":"VEC3"
		},
		{
			"bufferView":1,
			"componentType":5126,
			"count":843,
			"type":"VEC3"
		},
		{
			"bufferView":2,
			"componentType":5126,
			"count":843,
			"type":"VEC2"
		},
		{
			"bufferView":3,
			"componentType":5126,
			"count":843,
			"type":"VEC4"
		},
		{
			"bufferView":4,
			"componentType":5123,
			"count":2640,
			"type":"SCALAR"
		}
	],
	"bufferViews":[
		{
			"buffer":0,
			"byteLength":10116,
			"byteOffset":0,
			"target":34962
		},
		{
			"buffer":0,
			"byteLength":10116,
			"byteOffset":10116,
			"target":34962
		},
		{
			"buffer":0,
			"byteLength":6744,
			"byteOffset":20232,
			"target":34962
		},
		{
			"buffer":0,
			"byteLength":13488,
			"byteOffset":26976,
			"target":34962
		},
		{
			"buffer":0,
			"byteLength":5280,
			"byteOffset":40464,
			"target":34963
		}
	],
	"buffers":[
		{
			"byteLength":45744,
			"uri":"RoundedCheese01-2ae9a516eb6af82711d716030b6cc295.bin"
		}
	]
}
