{
	"asset":{
		"generator":"Khronos glTF Blender I/O v4.3.47",
		"version":"2.0"
	},
	"scene":0,
	"scenes":[
		{
			"name":"Scene",
			"nodes":[
				0
			]
		}
	],
	"nodes":[
		{
			"mesh":0,
			"name":"Sausage01"
		}
	],
	"materials":[
		{
			"doubleSided":true,
			"name":"DarkOrange_Sausage01",
			"pbrMetallicRoughness":{
				"baseColorFactor":[
					0.37574970722198486,
					0.11121600866317749,
					0.025071313604712486,
					1
				],
				"metallicFactor":0,
				"roughnessFactor":0.5
			}
		}
	],
	"meshes":[
		{
			"name":"Cylinder.004",
			"primitives":[
				{
					"attributes":{
						"POSITION":0,
						"NORMAL":1
					},
					"indices":2,
					"material":0
				}
			]
		}
	],
	"accessors":[
		{
			"bufferView":0,
			"componentType":5126,
			"count":546,
			"max":[
				0.36758559942245483,
				0.45759791135787964,
				1.4833297729492188
			],
			"min":[
				-0.3675854206085205,
				-0.4741002917289734,
				-1.4833297729492188
			],
			"type":"VEC3"
		},
		{
			"bufferView":1,
			"componentType":5126,
			"count":546,
			"type":"VEC3"
		},
		{
			"bufferView":2,
			"componentType":5123,
			"count":3264,
			"type":"SCALAR"
		}
	],
	"bufferViews":[
		{
			"buffer":0,
			"byteLength":6552,
			"byteOffset":0,
			"target":34962
		},
		{
			"buffer":0,
			"byteLength":6552,
			"byteOffset":6552,
			"target":34962
		},
		{
			"buffer":0,
			"byteLength":6528,
			"byteOffset":13104,
			"target":34963
		}
	],
	"buffers":[
		{
			"byteLength":19632,
			"uri":"Sausage-1479668111bac87f3fb0c4cf65ff9381.bin"
		}
	]
}
