{
	"asset":{
		"generator":"Khronos glTF Blender I/O v4.3.47",
		"version":"2.0"
	},
	"scene":0,
	"scenes":[
		{
			"name":"Scene",
			"nodes":[
				0
			]
		}
	],
	"nodes":[
		{
			"mesh":0,
			"name":"SignBoard_06",
			"scale":[
				0.51043701171875,
				0.51043701171875,
				0.51043701171875
			],
			"translation":[
				4.023179531097412,
				4.039515495300293,
				0
			]
		}
	],
	"materials":[
		{
			"doubleSided":true,
			"name":"GreenBoard.005",
			"pbrMetallicRoughness":{
				"baseColorFactor":[
					0.012274323962628841,
					0.09850451350212097,
					0.0059775616973638535,
					1
				],
				"metallicFactor":0,
				"roughnessFactor":0.5
			}
		},
		{
			"doubleSided":true,
			"name":"MetalSignBoard.005",
			"pbrMetallicRoughness":{
				"baseColorFactor":[
					0.43965715169906616,
					0.43965715169906616,
					0.43965715169906616,
					1
				],
				"metallicFactor":0,
				"roughnessFactor":0.5
			}
		}
	],
	"meshes":[
		{
			"name":"Cylinder.024",
			"primitives":[
				{
					"attributes":{
						"POSITION":0,
						"NORMAL":1,
						"TEXCOORD_0":2
					},
					"indices":3,
					"material":0
				},
				{
					"attributes":{
						"POSITION":4,
						"NORMAL":5,
						"TEXCOORD_0":6
					},
					"indices":7,
					"material":1
				}
			]
		}
	],
	"accessors":[
		{
			"bufferView":0,
			"componentType":5126,
			"count":48,
			"max":[
				8.699694633483887,
				16.324390411376953,
				1.049442172050476
			],
			"min":[
				-8.833645820617676,
				1.9238653182983398,
				-1.049442172050476
			],
			"type":"VEC3"
		},
		{
			"bufferView":1,
			"componentType":5126,
			"count":48,
			"type":"VEC3"
		},
		{
			"bufferView":2,
			"componentType":5126,
			"count":48,
			"type":"VEC2"
		},
		{
			"bufferView":3,
			"componentType":5123,
			"count":72,
			"type":"SCALAR"
		},
		{
			"bufferView":4,
			"componentType":5126,
			"count":132,
			"max":[
				8.861912727355957,
				13.10073471069336,
				1.080147385597229
			],
			"min":[
				-8.817268371582031,
				-11.816365242004395,
				-1.080147385597229
			],
			"type":"VEC3"
		},
		{
			"bufferView":5,
			"componentType":5126,
			"count":132,
			"type":"VEC3"
		},
		{
			"bufferView":6,
			"componentType":5126,
			"count":132,
			"type":"VEC2"
		},
		{
			"bufferView":7,
			"componentType":5123,
			"count":240,
			"type":"SCALAR"
		}
	],
	"bufferViews":[
		{
			"buffer":0,
			"byteLength":576,
			"byteOffset":0,
			"target":34962
		},
		{
			"buffer":0,
			"byteLength":576,
			"byteOffset":576,
			"target":34962
		},
		{
			"buffer":0,
			"byteLength":384,
			"byteOffset":1152,
			"target":34962
		},
		{
			"buffer":0,
			"byteLength":144,
			"byteOffset":1536,
			"target":34963
		},
		{
			"buffer":0,
			"byteLength":1584,
			"byteOffset":1680,
			"target":34962
		},
		{
			"buffer":0,
			"byteLength":1584,
			"byteOffset":3264,
			"target":34962
		},
		{
			"buffer":0,
			"byteLength":1056,
			"byteOffset":4848,
			"target":34962
		},
		{
			"buffer":0,
			"byteLength":480,
			"byteOffset":5904,
			"target":34963
		}
	],
	"buffers":[
		{
			"byteLength":6384,
			"uri":"SignBoard_06-355a72e8c30c088d9cd8e2672565d6ab.bin"
		}
	]
}
