{
	"asset":{
		"generator":"Khronos glTF Blender I/O v4.3.47",
		"version":"2.0"
	},
	"scene":0,
	"scenes":[
		{
			"name":"Scene",
			"nodes":[
				0
			]
		}
	],
	"nodes":[
		{
			"mesh":0,
			"name":"SignBoard_08"
		}
	],
	"materials":[
		{
			"doubleSided":true,
			"name":"MetalSignBoard.007",
			"pbrMetallicRoughness":{
				"baseColorFactor":[
					0.43965715169906616,
					0.43965715169906616,
					0.43965715169906616,
					1
				],
				"metallicFactor":0,
				"roughnessFactor":0.5
			}
		},
		{
			"doubleSided":true,
			"name":"GreenBoard.007",
			"pbrMetallicRoughness":{
				"baseColorFactor":[
					0.012274323962628841,
					0.09850451350212097,
					0.0059775616973638535,
					1
				],
				"metallicFactor":0,
				"roughnessFactor":0.5
			}
		}
	],
	"meshes":[
		{
			"name":"Cylinder.032",
			"primitives":[
				{
					"attributes":{
						"POSITION":0,
						"NORMAL":1,
						"TEXCOORD_0":2
					},
					"indices":3,
					"material":0
				},
				{
					"attributes":{
						"POSITION":4,
						"NORMAL":5,
						"TEXCOORD_0":6
					},
					"indices":7,
					"material":1
				}
			]
		}
	],
	"accessors":[
		{
			"bufferView":0,
			"componentType":5126,
			"count":132,
			"max":[
				4.052219390869141,
				7.072281837463379,
				0.5513471961021423
			],
			"min":[
				-4.052221298217773,
				-5.646328449249268,
				-0.5513471961021423
			],
			"type":"VEC3"
		},
		{
			"bufferView":1,
			"componentType":5126,
			"count":132,
			"type":"VEC3"
		},
		{
			"bufferView":2,
			"componentType":5126,
			"count":132,
			"type":"VEC2"
		},
		{
			"bufferView":3,
			"componentType":5123,
			"count":240,
			"type":"SCALAR"
		},
		{
			"bufferView":4,
			"componentType":5126,
			"count":24,
			"max":[
				4.690639972686768,
				9.442742347717285,
				0.5863340497016907
			],
			"min":[
				-4.690643310546875,
				4.56427001953125,
				-0.5863340497016907
			],
			"type":"VEC3"
		},
		{
			"bufferView":5,
			"componentType":5126,
			"count":24,
			"type":"VEC3"
		},
		{
			"bufferView":6,
			"componentType":5126,
			"count":24,
			"type":"VEC2"
		},
		{
			"bufferView":7,
			"componentType":5123,
			"count":36,
			"type":"SCALAR"
		}
	],
	"bufferViews":[
		{
			"buffer":0,
			"byteLength":1584,
			"byteOffset":0,
			"target":34962
		},
		{
			"buffer":0,
			"byteLength":1584,
			"byteOffset":1584,
			"target":34962
		},
		{
			"buffer":0,
			"byteLength":1056,
			"byteOffset":3168,
			"target":34962
		},
		{
			"buffer":0,
			"byteLength":480,
			"byteOffset":4224,
			"target":34963
		},
		{
			"buffer":0,
			"byteLength":288,
			"byteOffset":4704,
			"target":34962
		},
		{
			"buffer":0,
			"byteLength":288,
			"byteOffset":4992,
			"target":34962
		},
		{
			"buffer":0,
			"byteLength":192,
			"byteOffset":5280,
			"target":34962
		},
		{
			"buffer":0,
			"byteLength":72,
			"byteOffset":5472,
			"target":34963
		}
	],
	"buffers":[
		{
			"byteLength":5544,
			"uri":"SignBoard_08-6dd898f594905635fc03fc7d77d048b7.bin"
		}
	]
}
