{
	"asset":{
		"generator":"Khronos glTF Blender I/O v4.3.47",
		"version":"2.0"
	},
	"scene":0,
	"scenes":[
		{
			"name":"Scene",
			"nodes":[
				0
			]
		}
	],
	"nodes":[
		{
			"mesh":0,
			"name":"SignBoard_03"
		}
	],
	"materials":[
		{
			"doubleSided":true,
			"name":"GreenBoard.002",
			"pbrMetallicRoughness":{
				"baseColorFactor":[
					0.012274323962628841,
					0.09850451350212097,
					0.0059775616973638535,
					1
				],
				"metallicFactor":0,
				"roughnessFactor":0.5
			}
		},
		{
			"doubleSided":true,
			"name":"MetalSignBoard.002",
			"pbrMetallicRoughness":{
				"baseColorFactor":[
					0.43965715169906616,
					0.43965715169906616,
					0.43965715169906616,
					1
				],
				"metallicFactor":0,
				"roughnessFactor":0.5
			}
		}
	],
	"meshes":[
		{
			"name":"Cylinder.019",
			"primitives":[
				{
					"attributes":{
						"POSITION":0,
						"NORMAL":1,
						"TEXCOORD_0":2
					},
					"indices":3,
					"material":0
				},
				{
					"attributes":{
						"POSITION":4,
						"NORMAL":5,
						"TEXCOORD_0":6
					},
					"indices":7,
					"material":1
				}
			]
		}
	],
	"accessors":[
		{
			"bufferView":0,
			"componentType":5126,
			"count":48,
			"max":[
				2.3801960945129395,
				7.757757186889648,
				0.5369409918785095
			],
			"min":[
				-2.3801026344299316,
				2.9974582195281982,
				-0.5369409918785095
			],
			"type":"VEC3"
		},
		{
			"bufferView":1,
			"componentType":5126,
			"count":48,
			"type":"VEC3"
		},
		{
			"bufferView":2,
			"componentType":5126,
			"count":48,
			"type":"VEC2"
		},
		{
			"bufferView":3,
			"componentType":5123,
			"count":84,
			"type":"SCALAR"
		},
		{
			"bufferView":4,
			"componentType":5126,
			"count":72,
			"max":[
				0.47744959592819214,
				3.457439422607422,
				0.5513471961021423
			],
			"min":[
				-0.47751182317733765,
				-7.66514253616333,
				-0.5513471961021423
			],
			"type":"VEC3"
		},
		{
			"bufferView":5,
			"componentType":5126,
			"count":72,
			"type":"VEC3"
		},
		{
			"bufferView":6,
			"componentType":5126,
			"count":72,
			"type":"VEC2"
		},
		{
			"bufferView":7,
			"componentType":5123,
			"count":132,
			"type":"SCALAR"
		}
	],
	"bufferViews":[
		{
			"buffer":0,
			"byteLength":576,
			"byteOffset":0,
			"target":34962
		},
		{
			"buffer":0,
			"byteLength":576,
			"byteOffset":576,
			"target":34962
		},
		{
			"buffer":0,
			"byteLength":384,
			"byteOffset":1152,
			"target":34962
		},
		{
			"buffer":0,
			"byteLength":168,
			"byteOffset":1536,
			"target":34963
		},
		{
			"buffer":0,
			"byteLength":864,
			"byteOffset":1704,
			"target":34962
		},
		{
			"buffer":0,
			"byteLength":864,
			"byteOffset":2568,
			"target":34962
		},
		{
			"buffer":0,
			"byteLength":576,
			"byteOffset":3432,
			"target":34962
		},
		{
			"buffer":0,
			"byteLength":264,
			"byteOffset":4008,
			"target":34963
		}
	],
	"buffers":[
		{
			"byteLength":4272,
			"uri":"SignBoard_03-0b481f363f9cbe56fc1401e7f17c94ff.bin"
		}
	]
}
