{
	"asset":{
		"generator":"Khronos glTF Blender I/O v4.3.47",
		"version":"2.0"
	},
	"scene":0,
	"scenes":[
		{
			"name":"Scene",
			"nodes":[
				0
			]
		}
	],
	"nodes":[
		{
			"mesh":0,
			"name":"SignBoard_02"
		}
	],
	"materials":[
		{
			"doubleSided":true,
			"name":"MetalSignBoard.001",
			"pbrMetallicRoughness":{
				"baseColorFactor":[
					0.43965715169906616,
					0.43965715169906616,
					0.43965715169906616,
					1
				],
				"metallicFactor":0,
				"roughnessFactor":0.5
			}
		},
		{
			"doubleSided":true,
			"name":"GreenBoard.001",
			"pbrMetallicRoughness":{
				"baseColorFactor":[
					0.012274323962628841,
					0.09850451350212097,
					0.0059775616973638535,
					1
				],
				"metallicFactor":0,
				"roughnessFactor":0.5
			}
		}
	],
	"meshes":[
		{
			"name":"Cylinder.011",
			"primitives":[
				{
					"attributes":{
						"POSITION":0,
						"NORMAL":1,
						"TEXCOORD_0":2
					},
					"indices":3,
					"material":0
				},
				{
					"attributes":{
						"POSITION":4,
						"NORMAL":5,
						"TEXCOORD_0":6
					},
					"indices":7,
					"material":1
				}
			]
		}
	],
	"accessors":[
		{
			"bufferView":0,
			"componentType":5126,
			"count":72,
			"max":[
				0.5090487003326416,
				1.9825670719146729,
				0.5513471961021423
			],
			"min":[
				-0.4459126591682434,
				-9.1400146484375,
				-0.5513471961021423
			],
			"type":"VEC3"
		},
		{
			"bufferView":1,
			"componentType":5126,
			"count":72,
			"type":"VEC3"
		},
		{
			"bufferView":2,
			"componentType":5126,
			"count":72,
			"type":"VEC2"
		},
		{
			"bufferView":3,
			"componentType":5123,
			"count":132,
			"type":"SCALAR"
		},
		{
			"bufferView":4,
			"componentType":5126,
			"count":96,
			"max":[
				3.441835641860962,
				8.536941528320312,
				0.3638840317726135
			],
			"min":[
				-3.504971504211426,
				1.5829498767852783,
				-0.3638840317726135
			],
			"type":"VEC3"
		},
		{
			"bufferView":5,
			"componentType":5126,
			"count":96,
			"type":"VEC3"
		},
		{
			"bufferView":6,
			"componentType":5126,
			"count":96,
			"type":"VEC2"
		},
		{
			"bufferView":7,
			"componentType":5123,
			"count":132,
			"type":"SCALAR"
		}
	],
	"bufferViews":[
		{
			"buffer":0,
			"byteLength":864,
			"byteOffset":0,
			"target":34962
		},
		{
			"buffer":0,
			"byteLength":864,
			"byteOffset":864,
			"target":34962
		},
		{
			"buffer":0,
			"byteLength":576,
			"byteOffset":1728,
			"target":34962
		},
		{
			"buffer":0,
			"byteLength":264,
			"byteOffset":2304,
			"target":34963
		},
		{
			"buffer":0,
			"byteLength":1152,
			"byteOffset":2568,
			"target":34962
		},
		{
			"buffer":0,
			"byteLength":1152,
			"byteOffset":3720,
			"target":34962
		},
		{
			"buffer":0,
			"byteLength":768,
			"byteOffset":4872,
			"target":34962
		},
		{
			"buffer":0,
			"byteLength":264,
			"byteOffset":5640,
			"target":34963
		}
	],
	"buffers":[
		{
			"byteLength":5904,
			"uri":"SignBoard_02-61c808c8f37533280b93592abe797d39.bin"
		}
	]
}
