{
	"asset":{
		"generator":"Khronos glTF Blender I/O v4.3.47",
		"version":"2.0"
	},
	"scene":0,
	"scenes":[
		{
			"name":"Scene",
			"nodes":[
				0
			]
		}
	],
	"nodes":[
		{
			"mesh":0,
			"name":"SignBoard_07"
		}
	],
	"materials":[
		{
			"doubleSided":true,
			"name":"GreenBoard.006",
			"pbrMetallicRoughness":{
				"baseColorFactor":[
					0.012274323962628841,
					0.09850451350212097,
					0.0059775616973638535,
					1
				],
				"metallicFactor":0,
				"roughnessFactor":0.5
			}
		},
		{
			"doubleSided":true,
			"name":"MetalSignBoard.006",
			"pbrMetallicRoughness":{
				"baseColorFactor":[
					0.43965715169906616,
					0.43965715169906616,
					0.43965715169906616,
					1
				],
				"metallicFactor":0,
				"roughnessFactor":0.5
			}
		}
	],
	"meshes":[
		{
			"name":"Cylinder.031",
			"primitives":[
				{
					"attributes":{
						"POSITION":0,
						"NORMAL":1,
						"TEXCOORD_0":2
					},
					"indices":3,
					"material":0
				},
				{
					"attributes":{
						"POSITION":4,
						"NORMAL":5,
						"TEXCOORD_0":6
					},
					"indices":7,
					"material":1
				}
			]
		}
	],
	"accessors":[
		{
			"bufferView":0,
			"componentType":5126,
			"count":90,
			"max":[
				6.266422271728516,
				5.682277679443359,
				0.42355138063430786
			],
			"min":[
				-6.259337425231934,
				-0.7601231336593628,
				-0.4235519468784332
			],
			"type":"VEC3"
		},
		{
			"bufferView":1,
			"componentType":5126,
			"count":90,
			"type":"VEC3"
		},
		{
			"bufferView":2,
			"componentType":5126,
			"count":90,
			"type":"VEC2"
		},
		{
			"bufferView":3,
			"componentType":5123,
			"count":192,
			"type":"SCALAR"
		},
		{
			"bufferView":4,
			"componentType":5126,
			"count":66,
			"max":[
				0.4721672832965851,
				4.547914505004883,
				0.5513471961021423
			],
			"min":[
				-0.4827941060066223,
				-8.170695304870605,
				-0.5513471961021423
			],
			"type":"VEC3"
		},
		{
			"bufferView":5,
			"componentType":5126,
			"count":66,
			"type":"VEC3"
		},
		{
			"bufferView":6,
			"componentType":5126,
			"count":66,
			"type":"VEC2"
		},
		{
			"bufferView":7,
			"componentType":5123,
			"count":120,
			"type":"SCALAR"
		}
	],
	"bufferViews":[
		{
			"buffer":0,
			"byteLength":1080,
			"byteOffset":0,
			"target":34962
		},
		{
			"buffer":0,
			"byteLength":1080,
			"byteOffset":1080,
			"target":34962
		},
		{
			"buffer":0,
			"byteLength":720,
			"byteOffset":2160,
			"target":34962
		},
		{
			"buffer":0,
			"byteLength":384,
			"byteOffset":2880,
			"target":34963
		},
		{
			"buffer":0,
			"byteLength":792,
			"byteOffset":3264,
			"target":34962
		},
		{
			"buffer":0,
			"byteLength":792,
			"byteOffset":4056,
			"target":34962
		},
		{
			"buffer":0,
			"byteLength":528,
			"byteOffset":4848,
			"target":34962
		},
		{
			"buffer":0,
			"byteLength":240,
			"byteOffset":5376,
			"target":34963
		}
	],
	"buffers":[
		{
			"byteLength":5616,
			"uri":"SignBoard_07-73e7f80407792d3c0c05ae5232da1655.bin"
		}
	]
}
