{
	"asset":{
		"generator":"Khronos glTF Blender I/O v4.3.47",
		"version":"2.0"
	},
	"scene":0,
	"scenes":[
		{
			"name":"Scene",
			"nodes":[
				0
			]
		}
	],
	"nodes":[
		{
			"mesh":0,
			"name":"Strawberry"
		}
	],
	"materials":[
		{
			"doubleSided":true,
			"name":"Green_StrawBerry",
			"pbrMetallicRoughness":{
				"baseColorFactor":[
					0.1412632167339325,
					0.7011021375656128,
					0.01938239485025406,
					1
				],
				"metallicFactor":0,
				"roughnessFactor":0.5
			}
		},
		{
			"doubleSided":true,
			"name":"Red_StrawBerry",
			"pbrMetallicRoughness":{
				"baseColorFactor":[
					0.4452013075351715,
					0.0228763185441494,
					0.013250471092760563,
					1
				],
				"metallicFactor":0,
				"roughnessFactor":0.5
			}
		}
	],
	"meshes":[
		{
			"name":"Cylinder.001",
			"primitives":[
				{
					"attributes":{
						"POSITION":0,
						"NORMAL":1,
						"TEXCOORD_0":2,
						"TANGENT":3
					},
					"indices":4,
					"material":0
				},
				{
					"attributes":{
						"POSITION":5,
						"NORMAL":6,
						"TEXCOORD_0":7,
						"TANGENT":8
					},
					"indices":9,
					"material":1
				}
			]
		}
	],
	"accessors":[
		{
			"bufferView":0,
			"componentType":5126,
			"count":2596,
			"max":[
				1.0699806213378906,
				0.552800714969635,
				1.0256776809692383
			],
			"min":[
				-1.0699806213378906,
				0.16595536470413208,
				-1.0256776809692383
			],
			"type":"VEC3"
		},
		{
			"bufferView":1,
			"componentType":5126,
			"count":2596,
			"type":"VEC3"
		},
		{
			"bufferView":2,
			"componentType":5126,
			"count":2596,
			"type":"VEC2"
		},
		{
			"bufferView":3,
			"componentType":5126,
			"count":2596,
			"type":"VEC4"
		},
		{
			"bufferView":4,
			"componentType":5123,
			"count":8400,
			"type":"SCALAR"
		},
		{
			"bufferView":5,
			"componentType":5126,
			"count":546,
			"max":[
				0.940077006816864,
				0.5322235226631165,
				0.9263433814048767
			],
			"min":[
				-0.940077006816864,
				-1.6173492670059204,
				-0.9263433814048767
			],
			"type":"VEC3"
		},
		{
			"bufferView":6,
			"componentType":5126,
			"count":546,
			"type":"VEC3"
		},
		{
			"bufferView":7,
			"componentType":5126,
			"count":546,
			"type":"VEC2"
		},
		{
			"bufferView":8,
			"componentType":5126,
			"count":546,
			"type":"VEC4"
		},
		{
			"bufferView":9,
			"componentType":5123,
			"count":2304,
			"type":"SCALAR"
		}
	],
	"bufferViews":[
		{
			"buffer":0,
			"byteLength":31152,
			"byteOffset":0,
			"target":34962
		},
		{
			"buffer":0,
			"byteLength":31152,
			"byteOffset":31152,
			"target":34962
		},
		{
			"buffer":0,
			"byteLength":20768,
			"byteOffset":62304,
			"target":34962
		},
		{
			"buffer":0,
			"byteLength":41536,
			"byteOffset":83072,
			"target":34962
		},
		{
			"buffer":0,
			"byteLength":16800,
			"byteOffset":124608,
			"target":34963
		},
		{
			"buffer":0,
			"byteLength":6552,
			"byteOffset":141408,
			"target":34962
		},
		{
			"buffer":0,
			"byteLength":6552,
			"byteOffset":147960,
			"target":34962
		},
		{
			"buffer":0,
			"byteLength":4368,
			"byteOffset":154512,
			"target":34962
		},
		{
			"buffer":0,
			"byteLength":8736,
			"byteOffset":158880,
			"target":34962
		},
		{
			"buffer":0,
			"byteLength":4608,
			"byteOffset":167616,
			"target":34963
		}
	],
	"buffers":[
		{
			"byteLength":172224,
			"uri":"Strawberry-72719e80b06e14ff710aeae3e258f6e3.bin"
		}
	]
}
