{
	"asset":{
		"generator":"Khronos glTF Blender I/O v4.3.47",
		"version":"2.0"
	},
	"scene":0,
	"scenes":[
		{
			"name":"Scene",
			"nodes":[
				0
			]
		}
	],
	"nodes":[
		{
			"mesh":0,
			"name":"Thigh01"
		}
	],
	"materials":[
		{
			"doubleSided":true,
			"name":"Gray_Thigh01",
			"pbrMetallicRoughness":{
				"baseColorFactor":[
					0.28829672932624817,
					0.28829672932624817,
					0.28829672932624817,
					1
				],
				"metallicFactor":0,
				"roughnessFactor":0.5
			}
		},
		{
			"doubleSided":true,
			"name":"Brown_Thigh01",
			"pbrMetallicRoughness":{
				"baseColorFactor":[
					0.4019778370857239,
					0.16826936602592468,
					0.040915217250585556,
					1
				],
				"metallicFactor":0,
				"roughnessFactor":0.5
			}
		}
	],
	"meshes":[
		{
			"name":"Sphere.002",
			"primitives":[
				{
					"attributes":{
						"POSITION":0,
						"NORMAL":1,
						"TEXCOORD_0":2
					},
					"indices":3,
					"material":0
				},
				{
					"attributes":{
						"POSITION":4,
						"NORMAL":5,
						"TEXCOORD_0":6
					},
					"indices":7,
					"material":1
				}
			]
		}
	],
	"accessors":[
		{
			"bufferView":0,
			"componentType":5126,
			"count":730,
			"max":[
				1.6815229654312134,
				0.41755321621894836,
				0.6747769117355347
			],
			"min":[
				-0.16683518886566162,
				-0.41755321621894836,
				-0.6747768521308899
			],
			"type":"VEC3"
		},
		{
			"bufferView":1,
			"componentType":5126,
			"count":730,
			"type":"VEC3"
		},
		{
			"bufferView":2,
			"componentType":5126,
			"count":730,
			"type":"VEC2"
		},
		{
			"bufferView":3,
			"componentType":5123,
			"count":2916,
			"type":"SCALAR"
		},
		{
			"bufferView":4,
			"componentType":5126,
			"count":458,
			"max":[
				0.024066485464572906,
				1.3253875970840454,
				1.4939745664596558
			],
			"min":[
				-4.526788234710693,
				-1.3253874778747559,
				-1.4939743280410767
			],
			"type":"VEC3"
		},
		{
			"bufferView":5,
			"componentType":5126,
			"count":458,
			"type":"VEC3"
		},
		{
			"bufferView":6,
			"componentType":5126,
			"count":458,
			"type":"VEC2"
		},
		{
			"bufferView":7,
			"componentType":5123,
			"count":2112,
			"type":"SCALAR"
		}
	],
	"bufferViews":[
		{
			"buffer":0,
			"byteLength":8760,
			"byteOffset":0,
			"target":34962
		},
		{
			"buffer":0,
			"byteLength":8760,
			"byteOffset":8760,
			"target":34962
		},
		{
			"buffer":0,
			"byteLength":5840,
			"byteOffset":17520,
			"target":34962
		},
		{
			"buffer":0,
			"byteLength":5832,
			"byteOffset":23360,
			"target":34963
		},
		{
			"buffer":0,
			"byteLength":5496,
			"byteOffset":29192,
			"target":34962
		},
		{
			"buffer":0,
			"byteLength":5496,
			"byteOffset":34688,
			"target":34962
		},
		{
			"buffer":0,
			"byteLength":3664,
			"byteOffset":40184,
			"target":34962
		},
		{
			"buffer":0,
			"byteLength":4224,
			"byteOffset":43848,
			"target":34963
		}
	],
	"buffers":[
		{
			"byteLength":48072,
			"uri":"Thigh01-02a21614032eee6430dd2cbfec1bbfe9.bin"
		}
	]
}
