{
	"asset":{
		"generator":"Khronos glTF Blender I/O v4.3.47",
		"version":"2.0"
	},
	"scene":0,
	"scenes":[
		{
			"name":"Scene",
			"nodes":[
				0
			]
		}
	],
	"nodes":[
		{
			"mesh":0,
			"name":"TrafficBarrier_03",
			"scale":[
				6.354238033294678,
				0.8006061911582947,
				2.5359392166137695
			],
			"translation":[
				-72.84640502929688,
				-2.2487645149230957,
				0
			]
		}
	],
	"materials":[
		{
			"doubleSided":true,
			"name":"Blacktraffic barrier",
			"pbrMetallicRoughness":{
				"baseColorFactor":[
					0.013702086172997952,
					0.013702086172997952,
					0.013702086172997952,
					1
				],
				"metallicFactor":0,
				"roughnessFactor":0.5
			}
		},
		{
			"doubleSided":true,
			"name":"YellowTraficBarrier.001",
			"pbrMetallicRoughness":{
				"baseColorFactor":[
					0.7379105091094971,
					0.47353148460388184,
					0.0030352696776390076,
					1
				],
				"metallicFactor":0,
				"roughnessFactor":0.5
			}
		}
	],
	"meshes":[
		{
			"name":"Cube.023",
			"primitives":[
				{
					"attributes":{
						"POSITION":0,
						"NORMAL":1,
						"TEXCOORD_0":2,
						"TANGENT":3
					},
					"indices":4,
					"material":0
				},
				{
					"attributes":{
						"POSITION":5,
						"NORMAL":6,
						"TEXCOORD_0":7,
						"TANGENT":8
					},
					"indices":9,
					"material":1
				}
			]
		}
	],
	"accessors":[
		{
			"bufferView":0,
			"componentType":5126,
			"count":104,
			"max":[
				1,
				9.319598197937012,
				1
			],
			"min":[
				-1,
				-1,
				-1
			],
			"type":"VEC3"
		},
		{
			"bufferView":1,
			"componentType":5126,
			"count":104,
			"type":"VEC3"
		},
		{
			"bufferView":2,
			"componentType":5126,
			"count":104,
			"type":"VEC2"
		},
		{
			"bufferView":3,
			"componentType":5126,
			"count":104,
			"type":"VEC4"
		},
		{
			"bufferView":4,
			"componentType":5123,
			"count":156,
			"type":"SCALAR"
		},
		{
			"bufferView":5,
			"componentType":5126,
			"count":104,
			"max":[
				1,
				9.319598197937012,
				1
			],
			"min":[
				-1,
				-1,
				-1
			],
			"type":"VEC3"
		},
		{
			"bufferView":6,
			"componentType":5126,
			"count":104,
			"type":"VEC3"
		},
		{
			"bufferView":7,
			"componentType":5126,
			"count":104,
			"type":"VEC2"
		},
		{
			"bufferView":8,
			"componentType":5126,
			"count":104,
			"type":"VEC4"
		},
		{
			"bufferView":9,
			"componentType":5123,
			"count":156,
			"type":"SCALAR"
		}
	],
	"bufferViews":[
		{
			"buffer":0,
			"byteLength":1248,
			"byteOffset":0,
			"target":34962
		},
		{
			"buffer":0,
			"byteLength":1248,
			"byteOffset":1248,
			"target":34962
		},
		{
			"buffer":0,
			"byteLength":832,
			"byteOffset":2496,
			"target":34962
		},
		{
			"buffer":0,
			"byteLength":1664,
			"byteOffset":3328,
			"target":34962
		},
		{
			"buffer":0,
			"byteLength":312,
			"byteOffset":4992,
			"target":34963
		},
		{
			"buffer":0,
			"byteLength":1248,
			"byteOffset":5304,
			"target":34962
		},
		{
			"buffer":0,
			"byteLength":1248,
			"byteOffset":6552,
			"target":34962
		},
		{
			"buffer":0,
			"byteLength":832,
			"byteOffset":7800,
			"target":34962
		},
		{
			"buffer":0,
			"byteLength":1664,
			"byteOffset":8632,
			"target":34962
		},
		{
			"buffer":0,
			"byteLength":312,
			"byteOffset":10296,
			"target":34963
		}
	],
	"buffers":[
		{
			"byteLength":10608,
			"uri":"TrafficBarrier_03-f0ad79815eae74765b84ea1f79affab2.bin"
		}
	]
}
