{
	"asset":{
		"generator":"Khronos glTF Blender I/O v4.3.47",
		"version":"2.0"
	},
	"scene":0,
	"scenes":[
		{
			"name":"Scene",
			"nodes":[
				0
			]
		}
	],
	"nodes":[
		{
			"mesh":0,
			"name":"TraficLight_01"
		}
	],
	"materials":[
		{
			"doubleSided":true,
			"name":"Black_TraficLight",
			"pbrMetallicRoughness":{
				"baseColorFactor":[
					0,
					0,
					0,
					1
				],
				"metallicFactor":0,
				"roughnessFactor":0.5
			}
		},
		{
			"doubleSided":true,
			"name":"Gray_LihgtPole.001",
			"pbrMetallicRoughness":{
				"baseColorFactor":[
					0.2704978287220001,
					0.2704978287220001,
					0.2704978287220001,
					1
				],
				"metallicFactor":0,
				"roughnessFactor":0.5
			}
		},
		{
			"doubleSided":true,
			"name":"Yellow_LightPole.001",
			"pbrMetallicRoughness":{
				"baseColorFactor":[
					0.9386858344078064,
					0.7681511044502258,
					0.01850022003054619,
					1
				],
				"metallicFactor":0,
				"roughnessFactor":0.5
			}
		},
		{
			"doubleSided":true,
			"name":"Red_TraficLight.001",
			"pbrMetallicRoughness":{
				"baseColorFactor":[
					0.40724021196365356,
					0.0423114150762558,
					0.012286489829421043,
					1
				],
				"metallicFactor":0,
				"roughnessFactor":0.5
			}
		},
		{
			"doubleSided":true,
			"name":"Orange_TraficLight.001",
			"pbrMetallicRoughness":{
				"baseColorFactor":[
					0.8713672757148743,
					0.19120171666145325,
					0,
					1
				],
				"metallicFactor":0,
				"roughnessFactor":0.5
			}
		},
		{
			"doubleSided":true,
			"name":"Green_TraficLight.001",
			"pbrMetallicRoughness":{
				"baseColorFactor":[
					0.011939476244151592,
					0.10461372882127762,
					0.004064103588461876,
					1
				],
				"metallicFactor":0,
				"roughnessFactor":0.5
			}
		}
	],
	"meshes":[
		{
			"name":"Cube.044",
			"primitives":[
				{
					"attributes":{
						"POSITION":0,
						"NORMAL":1,
						"TEXCOORD_0":2
					},
					"indices":3,
					"material":0
				},
				{
					"attributes":{
						"POSITION":4,
						"NORMAL":5,
						"TEXCOORD_0":6
					},
					"indices":7,
					"material":1
				},
				{
					"attributes":{
						"POSITION":8,
						"NORMAL":9,
						"TEXCOORD_0":10
					},
					"indices":11,
					"material":2
				},
				{
					"attributes":{
						"POSITION":12,
						"NORMAL":13,
						"TEXCOORD_0":14
					},
					"indices":15,
					"material":3
				},
				{
					"attributes":{
						"POSITION":16,
						"NORMAL":17,
						"TEXCOORD_0":18
					},
					"indices":15,
					"material":4
				},
				{
					"attributes":{
						"POSITION":19,
						"NORMAL":20,
						"TEXCOORD_0":21
					},
					"indices":15,
					"material":5
				}
			]
		}
	],
	"accessors":[
		{
			"bufferView":0,
			"componentType":5126,
			"count":132,
			"max":[
				1.886504054069519,
				11.722153663635254,
				23.49591064453125
			],
			"min":[
				-1.989424705505371,
				1.8836555480957031,
				17.696792602539062
			],
			"type":"VEC3"
		},
		{
			"bufferView":1,
			"componentType":5126,
			"count":132,
			"type":"VEC3"
		},
		{
			"bufferView":2,
			"componentType":5126,
			"count":132,
			"type":"VEC2"
		},
		{
			"bufferView":3,
			"componentType":5123,
			"count":252,
			"type":"SCALAR"
		},
		{
			"bufferView":4,
			"componentType":5126,
			"count":468,
			"max":[
				2.5249226093292236,
				19.060712814331055,
				27.99576187133789
			],
			"min":[
				-3.9624264240264893,
				-29.175277709960938,
				-21.82709503173828
			],
			"type":"VEC3"
		},
		{
			"bufferView":5,
			"componentType":5126,
			"count":468,
			"type":"VEC3"
		},
		{
			"bufferView":6,
			"componentType":5126,
			"count":468,
			"type":"VEC2"
		},
		{
			"bufferView":7,
			"componentType":5123,
			"count":762,
			"type":"SCALAR"
		},
		{
			"bufferView":8,
			"componentType":5126,
			"count":20,
			"max":[
				1.4448461532592773,
				17.39578628540039,
				1.6700780391693115
			],
			"min":[
				-2.9492712020874023,
				15.94672679901123,
				-5.021412372589111
			],
			"type":"VEC3"
		},
		{
			"bufferView":9,
			"componentType":5126,
			"count":20,
			"type":"VEC3"
		},
		{
			"bufferView":10,
			"componentType":5126,
			"count":20,
			"type":"VEC2"
		},
		{
			"bufferView":11,
			"componentType":5123,
			"count":30,
			"type":"SCALAR"
		},
		{
			"bufferView":12,
			"componentType":5126,
			"count":36,
			"max":[
				1.6997793912887573,
				11.131209373474121,
				22.130142211914062
			],
			"min":[
				1.266783595085144,
				8.474601745605469,
				19.06256103515625
			],
			"type":"VEC3"
		},
		{
			"bufferView":13,
			"componentType":5126,
			"count":36,
			"type":"VEC3"
		},
		{
			"bufferView":14,
			"componentType":5126,
			"count":36,
			"type":"VEC2"
		},
		{
			"bufferView":15,
			"componentType":5123,
			"count":60,
			"type":"SCALAR"
		},
		{
			"bufferView":16,
			"componentType":5126,
			"count":36,
			"max":[
				1.69981849193573,
				8.155815124511719,
				22.130142211914062
			],
			"min":[
				1.2668226957321167,
				5.499205589294434,
				19.06256103515625
			],
			"type":"VEC3"
		},
		{
			"bufferView":17,
			"componentType":5126,
			"count":36,
			"type":"VEC3"
		},
		{
			"bufferView":18,
			"componentType":5126,
			"count":36,
			"type":"VEC2"
		},
		{
			"bufferView":19,
			"componentType":5126,
			"count":36,
			"max":[
				1.6998575925827026,
				5.180419445037842,
				22.130142211914062
			],
			"min":[
				1.2668617963790894,
				2.5238099098205566,
				19.06256103515625
			],
			"type":"VEC3"
		},
		{
			"bufferView":20,
			"componentType":5126,
			"count":36,
			"type":"VEC3"
		},
		{
			"bufferView":21,
			"componentType":5126,
			"count":36,
			"type":"VEC2"
		}
	],
	"bufferViews":[
		{
			"buffer":0,
			"byteLength":1584,
			"byteOffset":0,
			"target":34962
		},
		{
			"buffer":0,
			"byteLength":1584,
			"byteOffset":1584,
			"target":34962
		},
		{
			"buffer":0,
			"byteLength":1056,
			"byteOffset":3168,
			"target":34962
		},
		{
			"buffer":0,
			"byteLength":504,
			"byteOffset":4224,
			"target":34963
		},
		{
			"buffer":0,
			"byteLength":5616,
			"byteOffset":4728,
			"target":34962
		},
		{
			"buffer":0,
			"byteLength":5616,
			"byteOffset":10344,
			"target":34962
		},
		{
			"buffer":0,
			"byteLength":3744,
			"byteOffset":15960,
			"target":34962
		},
		{
			"buffer":0,
			"byteLength":1524,
			"byteOffset":19704,
			"target":34963
		},
		{
			"buffer":0,
			"byteLength":240,
			"byteOffset":21228,
			"target":34962
		},
		{
			"buffer":0,
			"byteLength":240,
			"byteOffset":21468,
			"target":34962
		},
		{
			"buffer":0,
			"byteLength":160,
			"byteOffset":21708,
			"target":34962
		},
		{
			"buffer":0,
			"byteLength":60,
			"byteOffset":21868,
			"target":34963
		},
		{
			"buffer":0,
			"byteLength":432,
			"byteOffset":21928,
			"target":34962
		},
		{
			"buffer":0,
			"byteLength":432,
			"byteOffset":22360,
			"target":34962
		},
		{
			"buffer":0,
			"byteLength":288,
			"byteOffset":22792,
			"target":34962
		},
		{
			"buffer":0,
			"byteLength":120,
			"byteOffset":23080,
			"target":34963
		},
		{
			"buffer":0,
			"byteLength":432,
			"byteOffset":23200,
			"target":34962
		},
		{
			"buffer":0,
			"byteLength":432,
			"byteOffset":23632,
			"target":34962
		},
		{
			"buffer":0,
			"byteLength":288,
			"byteOffset":24064,
			"target":34962
		},
		{
			"buffer":0,
			"byteLength":432,
			"byteOffset":24352,
			"target":34962
		},
		{
			"buffer":0,
			"byteLength":432,
			"byteOffset":24784,
			"target":34962
		},
		{
			"buffer":0,
			"byteLength":288,
			"byteOffset":25216,
			"target":34962
		}
	],
	"buffers":[
		{
			"byteLength":25504,
			"uri":"TraficLight_01-d104c2c9a1b44c6a7fc233ef800fcbe7.bin"
		}
	]
}
