{
	"asset":{
		"generator":"Khronos glTF Blender I/O v4.3.47",
		"version":"2.0"
	},
	"scene":0,
	"scenes":[
		{
			"name":"Scene",
			"nodes":[
				0
			]
		}
	],
	"nodes":[
		{
			"mesh":0,
			"name":"TraficLight_02"
		}
	],
	"materials":[
		{
			"doubleSided":true,
			"name":"Black_TraficLight.002",
			"pbrMetallicRoughness":{
				"baseColorFactor":[
					0,
					0,
					0,
					1
				],
				"metallicFactor":0,
				"roughnessFactor":0.5
			}
		},
		{
			"doubleSided":true,
			"name":"Gray_LihgtPole.003",
			"pbrMetallicRoughness":{
				"baseColorFactor":[
					0.2704978287220001,
					0.2704978287220001,
					0.2704978287220001,
					1
				],
				"metallicFactor":0,
				"roughnessFactor":0.5
			}
		},
		{
			"doubleSided":true,
			"name":"Yellow_LightPole.003",
			"pbrMetallicRoughness":{
				"baseColorFactor":[
					0.9386858344078064,
					0.7681511044502258,
					0.01850022003054619,
					1
				],
				"metallicFactor":0,
				"roughnessFactor":0.5
			}
		},
		{
			"doubleSided":true,
			"name":"Red_TraficLight.002",
			"pbrMetallicRoughness":{
				"baseColorFactor":[
					0.40724021196365356,
					0.0423114150762558,
					0.012286489829421043,
					1
				],
				"metallicFactor":0,
				"roughnessFactor":0.5
			}
		},
		{
			"doubleSided":true,
			"name":"Orange_TraficLight.002",
			"pbrMetallicRoughness":{
				"baseColorFactor":[
					0.8713672757148743,
					0.19120171666145325,
					0,
					1
				],
				"metallicFactor":0,
				"roughnessFactor":0.5
			}
		},
		{
			"doubleSided":true,
			"name":"Green_TraficLight.002",
			"pbrMetallicRoughness":{
				"baseColorFactor":[
					0.011939476244151592,
					0.10461372882127762,
					0.004064103588461876,
					1
				],
				"metallicFactor":0,
				"roughnessFactor":0.5
			}
		}
	],
	"meshes":[
		{
			"name":"Cube.045",
			"primitives":[
				{
					"attributes":{
						"POSITION":0,
						"NORMAL":1,
						"TEXCOORD_0":2
					},
					"indices":3,
					"material":0
				},
				{
					"attributes":{
						"POSITION":4,
						"NORMAL":5,
						"TEXCOORD_0":6
					},
					"indices":7,
					"material":1
				},
				{
					"attributes":{
						"POSITION":8,
						"NORMAL":9,
						"TEXCOORD_0":10
					},
					"indices":11,
					"material":2
				},
				{
					"attributes":{
						"POSITION":12,
						"NORMAL":13,
						"TEXCOORD_0":14
					},
					"indices":15,
					"material":3
				},
				{
					"attributes":{
						"POSITION":16,
						"NORMAL":17,
						"TEXCOORD_0":18
					},
					"indices":15,
					"material":4
				},
				{
					"attributes":{
						"POSITION":19,
						"NORMAL":20,
						"TEXCOORD_0":21
					},
					"indices":15,
					"material":5
				}
			]
		}
	],
	"accessors":[
		{
			"bufferView":0,
			"componentType":5126,
			"count":264,
			"max":[
				1.2148243188858032,
				9.877548217773438,
				31.66581153869629
			],
			"min":[
				-2.661104917526245,
				0.03904913365840912,
				-2.133307695388794
			],
			"type":"VEC3"
		},
		{
			"bufferView":1,
			"componentType":5126,
			"count":264,
			"type":"VEC3"
		},
		{
			"bufferView":2,
			"componentType":5126,
			"count":264,
			"type":"VEC2"
		},
		{
			"bufferView":3,
			"componentType":5123,
			"count":504,
			"type":"SCALAR"
		},
		{
			"bufferView":4,
			"componentType":5126,
			"count":468,
			"max":[
				2.5914666652679443,
				17.216100692749023,
				35.1656608581543
			],
			"min":[
				-3.8958823680877686,
				-31.019887924194336,
				-27.657196044921875
			],
			"type":"VEC3"
		},
		{
			"bufferView":5,
			"componentType":5126,
			"count":468,
			"type":"VEC3"
		},
		{
			"bufferView":6,
			"componentType":5126,
			"count":468,
			"type":"VEC2"
		},
		{
			"bufferView":7,
			"componentType":5123,
			"count":762,
			"type":"SCALAR"
		},
		{
			"bufferView":8,
			"componentType":5126,
			"count":20,
			"max":[
				1.5113900899887085,
				15.551175117492676,
				-4.160022258758545
			],
			"min":[
				-2.8827273845672607,
				14.102116584777832,
				-10.851512908935547
			],
			"type":"VEC3"
		},
		{
			"bufferView":9,
			"componentType":5126,
			"count":20,
			"type":"VEC3"
		},
		{
			"bufferView":10,
			"componentType":5126,
			"count":20,
			"type":"VEC2"
		},
		{
			"bufferView":11,
			"componentType":5123,
			"count":30,
			"type":"SCALAR"
		},
		{
			"bufferView":12,
			"componentType":5126,
			"count":72,
			"max":[
				1.0280909538269043,
				9.286600112915039,
				30.30004119873047
			],
			"min":[
				0.595095157623291,
				6.629991054534912,
				-0.7675382494926453
			],
			"type":"VEC3"
		},
		{
			"bufferView":13,
			"componentType":5126,
			"count":72,
			"type":"VEC3"
		},
		{
			"bufferView":14,
			"componentType":5126,
			"count":72,
			"type":"VEC2"
		},
		{
			"bufferView":15,
			"componentType":5123,
			"count":120,
			"type":"SCALAR"
		},
		{
			"bufferView":16,
			"componentType":5126,
			"count":72,
			"max":[
				1.028130054473877,
				6.311203956604004,
				30.30004119873047
			],
			"min":[
				0.5951342582702637,
				3.654595136642456,
				-0.7675382494926453
			],
			"type":"VEC3"
		},
		{
			"bufferView":17,
			"componentType":5126,
			"count":72,
			"type":"VEC3"
		},
		{
			"bufferView":18,
			"componentType":5126,
			"count":72,
			"type":"VEC2"
		},
		{
			"bufferView":19,
			"componentType":5126,
			"count":72,
			"max":[
				1.0281691551208496,
				3.335808753967285,
				30.30004119873047
			],
			"min":[
				0.5951733589172363,
				0.6791994571685791,
				-0.7675382494926453
			],
			"type":"VEC3"
		},
		{
			"bufferView":20,
			"componentType":5126,
			"count":72,
			"type":"VEC3"
		},
		{
			"bufferView":21,
			"componentType":5126,
			"count":72,
			"type":"VEC2"
		}
	],
	"bufferViews":[
		{
			"buffer":0,
			"byteLength":3168,
			"byteOffset":0,
			"target":34962
		},
		{
			"buffer":0,
			"byteLength":3168,
			"byteOffset":3168,
			"target":34962
		},
		{
			"buffer":0,
			"byteLength":2112,
			"byteOffset":6336,
			"target":34962
		},
		{
			"buffer":0,
			"byteLength":1008,
			"byteOffset":8448,
			"target":34963
		},
		{
			"buffer":0,
			"byteLength":5616,
			"byteOffset":9456,
			"target":34962
		},
		{
			"buffer":0,
			"byteLength":5616,
			"byteOffset":15072,
			"target":34962
		},
		{
			"buffer":0,
			"byteLength":3744,
			"byteOffset":20688,
			"target":34962
		},
		{
			"buffer":0,
			"byteLength":1524,
			"byteOffset":24432,
			"target":34963
		},
		{
			"buffer":0,
			"byteLength":240,
			"byteOffset":25956,
			"target":34962
		},
		{
			"buffer":0,
			"byteLength":240,
			"byteOffset":26196,
			"target":34962
		},
		{
			"buffer":0,
			"byteLength":160,
			"byteOffset":26436,
			"target":34962
		},
		{
			"buffer":0,
			"byteLength":60,
			"byteOffset":26596,
			"target":34963
		},
		{
			"buffer":0,
			"byteLength":864,
			"byteOffset":26656,
			"target":34962
		},
		{
			"buffer":0,
			"byteLength":864,
			"byteOffset":27520,
			"target":34962
		},
		{
			"buffer":0,
			"byteLength":576,
			"byteOffset":28384,
			"target":34962
		},
		{
			"buffer":0,
			"byteLength":240,
			"byteOffset":28960,
			"target":34963
		},
		{
			"buffer":0,
			"byteLength":864,
			"byteOffset":29200,
			"target":34962
		},
		{
			"buffer":0,
			"byteLength":864,
			"byteOffset":30064,
			"target":34962
		},
		{
			"buffer":0,
			"byteLength":576,
			"byteOffset":30928,
			"target":34962
		},
		{
			"buffer":0,
			"byteLength":864,
			"byteOffset":31504,
			"target":34962
		},
		{
			"buffer":0,
			"byteLength":864,
			"byteOffset":32368,
			"target":34962
		},
		{
			"buffer":0,
			"byteLength":576,
			"byteOffset":33232,
			"target":34962
		}
	],
	"buffers":[
		{
			"byteLength":33808,
			"uri":"TraficLight_02-31fa91d0a6b1e0f250fb366ff01eb9e0.bin"
		}
	]
}
