{
	"asset":{
		"generator":"Khronos glTF Blender I/O v4.3.47",
		"version":"2.0"
	},
	"scene":0,
	"scenes":[
		{
			"name":"Scene",
			"nodes":[
				0
			]
		}
	],
	"nodes":[
		{
			"mesh":0,
			"name":"TrafficBarrier_02"
		}
	],
	"materials":[
		{
			"doubleSided":true,
			"name":"YellowTraficBarrier",
			"pbrMetallicRoughness":{
				"baseColorFactor":[
					0.7379105091094971,
					0.47353148460388184,
					0.0030352696776390076,
					1
				],
				"metallicFactor":0,
				"roughnessFactor":0.5
			}
		},
		{
			"doubleSided":true,
			"name":"DarkYellowTrafficBarrier",
			"pbrMetallicRoughness":{
				"baseColorFactor":[
					0.3031977415084839,
					0.19725029170513153,
					0.0020342899952083826,
					1
				],
				"metallicFactor":0,
				"roughnessFactor":0.5
			}
		}
	],
	"meshes":[
		{
			"name":"Cube.022",
			"primitives":[
				{
					"attributes":{
						"POSITION":0,
						"NORMAL":1,
						"TEXCOORD_0":2,
						"TANGENT":3
					},
					"indices":4,
					"material":0
				},
				{
					"attributes":{
						"POSITION":5,
						"NORMAL":6,
						"TEXCOORD_0":7,
						"TANGENT":8
					},
					"indices":9,
					"material":1
				}
			]
		}
	],
	"accessors":[
		{
			"bufferView":0,
			"componentType":5126,
			"count":262,
			"max":[
				7.711275577545166,
				3.253481388092041,
				4.603606700897217
			],
			"min":[
				-7.711275577545166,
				-4.036357402801514,
				-4.603606700897217
			],
			"type":"VEC3"
		},
		{
			"bufferView":1,
			"componentType":5126,
			"count":262,
			"type":"VEC3"
		},
		{
			"bufferView":2,
			"componentType":5126,
			"count":262,
			"type":"VEC2"
		},
		{
			"bufferView":3,
			"componentType":5126,
			"count":262,
			"type":"VEC4"
		},
		{
			"bufferView":4,
			"componentType":5123,
			"count":564,
			"type":"SCALAR"
		},
		{
			"bufferView":5,
			"componentType":5126,
			"count":32,
			"max":[
				6.680713176727295,
				2.8919827938079834,
				1.1696643829345703
			],
			"min":[
				-6.680713176727295,
				-0.9699079394340515,
				-1.1696643829345703
			],
			"type":"VEC3"
		},
		{
			"bufferView":6,
			"componentType":5126,
			"count":32,
			"type":"VEC3"
		},
		{
			"bufferView":7,
			"componentType":5126,
			"count":32,
			"type":"VEC2"
		},
		{
			"bufferView":8,
			"componentType":5126,
			"count":32,
			"type":"VEC4"
		},
		{
			"bufferView":9,
			"componentType":5123,
			"count":48,
			"type":"SCALAR"
		}
	],
	"bufferViews":[
		{
			"buffer":0,
			"byteLength":3144,
			"byteOffset":0,
			"target":34962
		},
		{
			"buffer":0,
			"byteLength":3144,
			"byteOffset":3144,
			"target":34962
		},
		{
			"buffer":0,
			"byteLength":2096,
			"byteOffset":6288,
			"target":34962
		},
		{
			"buffer":0,
			"byteLength":4192,
			"byteOffset":8384,
			"target":34962
		},
		{
			"buffer":0,
			"byteLength":1128,
			"byteOffset":12576,
			"target":34963
		},
		{
			"buffer":0,
			"byteLength":384,
			"byteOffset":13704,
			"target":34962
		},
		{
			"buffer":0,
			"byteLength":384,
			"byteOffset":14088,
			"target":34962
		},
		{
			"buffer":0,
			"byteLength":256,
			"byteOffset":14472,
			"target":34962
		},
		{
			"buffer":0,
			"byteLength":512,
			"byteOffset":14728,
			"target":34962
		},
		{
			"buffer":0,
			"byteLength":96,
			"byteOffset":15240,
			"target":34963
		}
	],
	"buffers":[
		{
			"byteLength":15336,
			"uri":"TrafficBarrier_02-8878c1714f679ea7a3b400e6ed32216a.bin"
		}
	]
}
