{
	"asset":{
		"generator":"Khronos glTF Blender I/O v4.3.47",
		"version":"2.0"
	},
	"scene":0,
	"scenes":[
		{
			"name":"Scene",
			"nodes":[
				0
			]
		}
	],
	"nodes":[
		{
			"mesh":0,
			"name":"TrafficBarrier_01",
			"rotation":[
				0,
				-0.984442412853241,
				-0.17570760846138,
				1.603860368959431e-07
			],
			"scale":[
				4.2789154052734375,
				0.8965876698493958,
				0.09550151228904724
			],
			"translation":[
				-2.865966796875,
				-0.15476727485656738,
				-4.359431743621826
			]
		}
	],
	"materials":[
		{
			"doubleSided":true,
			"name":"RedCone.002",
			"pbrMetallicRoughness":{
				"baseColorFactor":[
					0.7156935930252075,
					0.10224173218011856,
					0.0423114150762558,
					1
				],
				"metallicFactor":0,
				"roughnessFactor":0.5
			}
		},
		{
			"doubleSided":true,
			"name":"WhiteCone.002",
			"pbrMetallicRoughness":{
				"baseColorFactor":[
					0.913098931312561,
					0.913098931312561,
					0.913098931312561,
					1
				],
				"metallicFactor":0,
				"roughnessFactor":0.5
			}
		},
		{
			"doubleSided":true,
			"name":"BlackCone",
			"pbrMetallicRoughness":{
				"baseColorFactor":[
					0,
					0,
					0,
					1
				],
				"metallicFactor":0,
				"roughnessFactor":0.5
			}
		}
	],
	"meshes":[
		{
			"name":"Cube.021",
			"primitives":[
				{
					"attributes":{
						"POSITION":0,
						"NORMAL":1,
						"TEXCOORD_0":2
					},
					"indices":3,
					"material":0
				},
				{
					"attributes":{
						"POSITION":4,
						"NORMAL":5,
						"TEXCOORD_0":6
					},
					"indices":7,
					"material":1
				},
				{
					"attributes":{
						"POSITION":8,
						"NORMAL":9,
						"TEXCOORD_0":10
					},
					"indices":11,
					"material":2
				}
			]
		}
	],
	"accessors":[
		{
			"bufferView":0,
			"componentType":5126,
			"count":144,
			"max":[
				1.0000003576278687,
				4.775120258331299,
				4.436033248901367
			],
			"min":[
				-1,
				-1,
				-43.453529357910156
			],
			"type":"VEC3"
		},
		{
			"bufferView":1,
			"componentType":5126,
			"count":144,
			"type":"VEC3"
		},
		{
			"bufferView":2,
			"componentType":5126,
			"count":144,
			"type":"VEC2"
		},
		{
			"bufferView":3,
			"componentType":5123,
			"count":216,
			"type":"SCALAR"
		},
		{
			"bufferView":4,
			"componentType":5126,
			"count":144,
			"max":[
				1.0000003576278687,
				4.775120735168457,
				4.436033248901367
			],
			"min":[
				-1,
				-1,
				-43.453521728515625
			],
			"type":"VEC3"
		},
		{
			"bufferView":5,
			"componentType":5126,
			"count":144,
			"type":"VEC3"
		},
		{
			"bufferView":6,
			"componentType":5126,
			"count":144,
			"type":"VEC2"
		},
		{
			"bufferView":7,
			"componentType":5123,
			"count":216,
			"type":"SCALAR"
		},
		{
			"bufferView":8,
			"componentType":5126,
			"count":144,
			"max":[
				0.9143710136413574,
				5.256554126739502,
				3.6006622314453125
			],
			"min":[
				-0.9143706560134888,
				-2.9605090618133545,
				-52.367645263671875
			],
			"type":"VEC3"
		},
		{
			"bufferView":9,
			"componentType":5126,
			"count":144,
			"type":"VEC3"
		},
		{
			"bufferView":10,
			"componentType":5126,
			"count":144,
			"type":"VEC2"
		},
		{
			"bufferView":11,
			"componentType":5123,
			"count":240,
			"type":"SCALAR"
		}
	],
	"bufferViews":[
		{
			"buffer":0,
			"byteLength":1728,
			"byteOffset":0,
			"target":34962
		},
		{
			"buffer":0,
			"byteLength":1728,
			"byteOffset":1728,
			"target":34962
		},
		{
			"buffer":0,
			"byteLength":1152,
			"byteOffset":3456,
			"target":34962
		},
		{
			"buffer":0,
			"byteLength":432,
			"byteOffset":4608,
			"target":34963
		},
		{
			"buffer":0,
			"byteLength":1728,
			"byteOffset":5040,
			"target":34962
		},
		{
			"buffer":0,
			"byteLength":1728,
			"byteOffset":6768,
			"target":34962
		},
		{
			"buffer":0,
			"byteLength":1152,
			"byteOffset":8496,
			"target":34962
		},
		{
			"buffer":0,
			"byteLength":432,
			"byteOffset":9648,
			"target":34963
		},
		{
			"buffer":0,
			"byteLength":1728,
			"byteOffset":10080,
			"target":34962
		},
		{
			"buffer":0,
			"byteLength":1728,
			"byteOffset":11808,
			"target":34962
		},
		{
			"buffer":0,
			"byteLength":1152,
			"byteOffset":13536,
			"target":34962
		},
		{
			"buffer":0,
			"byteLength":480,
			"byteOffset":14688,
			"target":34963
		}
	],
	"buffers":[
		{
			"byteLength":15168,
			"uri":"TrafficBarrier_01-a909845765f386968816ed874d376619.bin"
		}
	]
}
