{
	"asset":{
		"generator":"Khronos glTF Blender I/O v4.3.47",
		"version":"2.0"
	},
	"scene":0,
	"scenes":[
		{
			"name":"Scene",
			"nodes":[
				0
			]
		}
	],
	"nodes":[
		{
			"mesh":0,
			"name":"TrashCan_02"
		}
	],
	"materials":[
		{
			"doubleSided":true,
			"name":"BlackTrashCan02",
			"pbrMetallicRoughness":{
				"baseColorFactor":[
					0.013702086172997952,
					0.013702086172997952,
					0.013702086172997952,
					1
				],
				"metallicFactor":0,
				"roughnessFactor":0.5
			}
		}
	],
	"meshes":[
		{
			"name":"Cylinder.009",
			"primitives":[
				{
					"attributes":{
						"POSITION":0,
						"NORMAL":1,
						"TEXCOORD_0":2
					},
					"indices":3,
					"material":0
				}
			]
		}
	],
	"accessors":[
		{
			"bufferView":0,
			"componentType":5126,
			"count":280,
			"max":[
				1.5739567279815674,
				1.7500873804092407,
				1.6549559831619263
			],
			"min":[
				-1.5739566087722778,
				-1.8765344619750977,
				-1.6549559831619263
			],
			"type":"VEC3"
		},
		{
			"bufferView":1,
			"componentType":5126,
			"count":280,
			"type":"VEC3"
		},
		{
			"bufferView":2,
			"componentType":5126,
			"count":280,
			"type":"VEC2"
		},
		{
			"bufferView":3,
			"componentType":5123,
			"count":528,
			"type":"SCALAR"
		}
	],
	"bufferViews":[
		{
			"buffer":0,
			"byteLength":3360,
			"byteOffset":0,
			"target":34962
		},
		{
			"buffer":0,
			"byteLength":3360,
			"byteOffset":3360,
			"target":34962
		},
		{
			"buffer":0,
			"byteLength":2240,
			"byteOffset":6720,
			"target":34962
		},
		{
			"buffer":0,
			"byteLength":1056,
			"byteOffset":8960,
			"target":34963
		}
	],
	"buffers":[
		{
			"byteLength":10016,
			"uri":"TrashCan_02-99390a805fbad9828a64aa248604fd3e.bin"
		}
	]
}
