{
	"asset":{
		"generator":"Khronos glTF Blender I/O v4.3.47",
		"version":"2.0"
	},
	"scene":0,
	"scenes":[
		{
			"name":"Scene",
			"nodes":[
				0,
				1
			]
		}
	],
	"nodes":[
		{
			"camera":0,
			"name":"Camera",
			"rotation":[
				-0.20997299253940582,
				0.3857799470424652,
				0.09062844514846802,
				0.8937962055206299
			],
			"translation":[
				7.358891487121582,
				4.958309173583984,
				6.925790786743164
			]
		},
		{
			"mesh":0,
			"name":"TreeGreen_02"
		}
	],
	"cameras":[
		{
			"name":"Camera",
			"perspective":{
				"aspectRatio":1.7777777777777777,
				"yfov":0.39959652046304894,
				"zfar":100,
				"znear":0.10000000149011612
			},
			"type":"perspective"
		}
	],
	"materials":[
		{
			"doubleSided":true,
			"name":"WoodTrunk_Tree02",
			"pbrMetallicRoughness":{
				"baseColorFactor":[
					0.10247376561164856,
					0.033741842955350876,
					0,
					1
				],
				"metallicFactor":0,
				"roughnessFactor":0.5
			}
		},
		{
			"alphaMode":"BLEND",
			"doubleSided":true,
			"name":"GreenLeaf_Tree02",
			"pbrMetallicRoughness":{
				"metallicFactor":0,
				"roughnessFactor":0.5
			}
		}
	],
	"meshes":[
		{
			"name":"Circle",
			"primitives":[
				{
					"attributes":{
						"POSITION":0,
						"NORMAL":1,
						"TEXCOORD_0":2
					},
					"indices":3,
					"material":0
				},
				{
					"attributes":{
						"POSITION":4,
						"NORMAL":5,
						"TEXCOORD_0":6
					},
					"indices":7,
					"material":1
				}
			]
		}
	],
	"accessors":[
		{
			"bufferView":0,
			"componentType":5126,
			"count":1304,
			"max":[
				4.488851547241211,
				12.430156707763672,
				6.464023590087891
			],
			"min":[
				-5.2392401695251465,
				-0.03426380455493927,
				-7.602075099945068
			],
			"type":"VEC3"
		},
		{
			"bufferView":1,
			"componentType":5126,
			"count":1304,
			"type":"VEC3"
		},
		{
			"bufferView":2,
			"componentType":5126,
			"count":1304,
			"type":"VEC2"
		},
		{
			"bufferView":3,
			"componentType":5123,
			"count":2100,
			"type":"SCALAR"
		},
		{
			"bufferView":4,
			"componentType":5126,
			"count":6108,
			"max":[
				6.050307273864746,
				14.562357902526855,
				8.458200454711914
			],
			"min":[
				-7.389272689819336,
				3.0917234420776367,
				-9.677587509155273
			],
			"type":"VEC3"
		},
		{
			"bufferView":5,
			"componentType":5126,
			"count":6108,
			"type":"VEC3"
		},
		{
			"bufferView":6,
			"componentType":5126,
			"count":6108,
			"type":"VEC2"
		},
		{
			"bufferView":7,
			"componentType":5123,
			"count":9162,
			"type":"SCALAR"
		}
	],
	"bufferViews":[
		{
			"buffer":0,
			"byteLength":15648,
			"byteOffset":0,
			"target":34962
		},
		{
			"buffer":0,
			"byteLength":15648,
			"byteOffset":15648,
			"target":34962
		},
		{
			"buffer":0,
			"byteLength":10432,
			"byteOffset":31296,
			"target":34962
		},
		{
			"buffer":0,
			"byteLength":4200,
			"byteOffset":41728,
			"target":34963
		},
		{
			"buffer":0,
			"byteLength":73296,
			"byteOffset":45928,
			"target":34962
		},
		{
			"buffer":0,
			"byteLength":73296,
			"byteOffset":119224,
			"target":34962
		},
		{
			"buffer":0,
			"byteLength":48864,
			"byteOffset":192520,
			"target":34962
		},
		{
			"buffer":0,
			"byteLength":18324,
			"byteOffset":241384,
			"target":34963
		}
	],
	"buffers":[
		{
			"byteLength":259708,
			"uri":"Tree_Green_02-79345ff85c1742679721aec756557f0e.bin"
		}
	]
}
