{
	"asset":{
		"generator":"Khronos glTF Blender I/O v4.3.47",
		"version":"2.0"
	},
	"scene":0,
	"scenes":[
		{
			"name":"Scene",
			"nodes":[
				0
			]
		}
	],
	"nodes":[
		{
			"mesh":0,
			"name":"Tree_green01"
		}
	],
	"materials":[
		{
			"doubleSided":true,
			"name":"Wood_Tree01",
			"pbrMetallicRoughness":{
				"baseColorFactor":[
					0.09462588280439377,
					0.034974440932273865,
					0.003927948884665966,
					1
				],
				"metallicFactor":0,
				"roughnessFactor":0.5
			}
		},
		{
			"alphaMode":"BLEND",
			"doubleSided":true,
			"name":"GreenLeaf_Tree01",
			"pbrMetallicRoughness":{
				"metallicFactor":0,
				"roughnessFactor":0.5
			}
		}
	],
	"meshes":[
		{
			"name":"Cube.007",
			"primitives":[
				{
					"attributes":{
						"POSITION":0,
						"NORMAL":1,
						"TEXCOORD_0":2
					},
					"indices":3,
					"material":0
				},
				{
					"attributes":{
						"POSITION":4,
						"NORMAL":5,
						"TEXCOORD_0":6
					},
					"indices":7,
					"material":1
				}
			]
		}
	],
	"accessors":[
		{
			"bufferView":0,
			"componentType":5126,
			"count":890,
			"max":[
				5.229507923126221,
				10.891010284423828,
				4.363451957702637
			],
			"min":[
				-5.200443267822266,
				-3.259732750393596e-07,
				-4.254072189331055
			],
			"type":"VEC3"
		},
		{
			"bufferView":1,
			"componentType":5126,
			"count":890,
			"type":"VEC3"
		},
		{
			"bufferView":2,
			"componentType":5126,
			"count":890,
			"type":"VEC2"
		},
		{
			"bufferView":3,
			"componentType":5123,
			"count":1338,
			"type":"SCALAR"
		},
		{
			"bufferView":4,
			"componentType":5126,
			"count":1528,
			"max":[
				7.0045061111450195,
				13.16341781616211,
				6.313601493835449
			],
			"min":[
				-7.102592945098877,
				3.1702327728271484,
				-6.011104106903076
			],
			"type":"VEC3"
		},
		{
			"bufferView":5,
			"componentType":5126,
			"count":1528,
			"type":"VEC3"
		},
		{
			"bufferView":6,
			"componentType":5126,
			"count":1528,
			"type":"VEC2"
		},
		{
			"bufferView":7,
			"componentType":5123,
			"count":2292,
			"type":"SCALAR"
		}
	],
	"bufferViews":[
		{
			"buffer":0,
			"byteLength":10680,
			"byteOffset":0,
			"target":34962
		},
		{
			"buffer":0,
			"byteLength":10680,
			"byteOffset":10680,
			"target":34962
		},
		{
			"buffer":0,
			"byteLength":7120,
			"byteOffset":21360,
			"target":34962
		},
		{
			"buffer":0,
			"byteLength":2676,
			"byteOffset":28480,
			"target":34963
		},
		{
			"buffer":0,
			"byteLength":18336,
			"byteOffset":31156,
			"target":34962
		},
		{
			"buffer":0,
			"byteLength":18336,
			"byteOffset":49492,
			"target":34962
		},
		{
			"buffer":0,
			"byteLength":12224,
			"byteOffset":67828,
			"target":34962
		},
		{
			"buffer":0,
			"byteLength":4584,
			"byteOffset":80052,
			"target":34963
		}
	],
	"buffers":[
		{
			"byteLength":84636,
			"uri":"Tree_Green_01-bcd8aeb755f41bf7c8402b78a42981ff.bin"
		}
	]
}
