{
	"asset":{
		"generator":"Khronos glTF Blender I/O v4.3.47",
		"version":"2.0"
	},
	"scene":0,
	"scenes":[
		{
			"name":"Scene",
			"nodes":[
				0
			]
		}
	],
	"nodes":[
		{
			"mesh":0,
			"name":"Tree_Green_03"
		}
	],
	"materials":[
		{
			"alphaMode":"BLEND",
			"doubleSided":true,
			"name":"Material.001",
			"pbrMetallicRoughness":{
				"metallicFactor":0,
				"roughnessFactor":0.5
			}
		},
		{
			"doubleSided":true,
			"name":"Wood_bark03",
			"pbrMetallicRoughness":{
				"baseColorFactor":[
					0.09462378919124603,
					0.046937450766563416,
					0.005151808727532625,
					1
				],
				"metallicFactor":0,
				"roughnessFactor":0.5
			}
		}
	],
	"meshes":[
		{
			"name":"Plane.024",
			"primitives":[
				{
					"attributes":{
						"POSITION":0,
						"NORMAL":1,
						"TEXCOORD_0":2
					},
					"indices":3,
					"material":0
				},
				{
					"attributes":{
						"POSITION":4,
						"NORMAL":5,
						"TEXCOORD_0":6
					},
					"indices":7,
					"material":1
				}
			]
		}
	],
	"accessors":[
		{
			"bufferView":0,
			"componentType":5126,
			"count":2240,
			"max":[
				9.910750389099121,
				11.466550827026367,
				8.869399070739746
			],
			"min":[
				-9.27992057800293,
				4.527665138244629,
				-9.01711654663086
			],
			"type":"VEC3"
		},
		{
			"bufferView":1,
			"componentType":5126,
			"count":2240,
			"type":"VEC3"
		},
		{
			"bufferView":2,
			"componentType":5126,
			"count":2240,
			"type":"VEC2"
		},
		{
			"bufferView":3,
			"componentType":5123,
			"count":3360,
			"type":"SCALAR"
		},
		{
			"bufferView":4,
			"componentType":5126,
			"count":1140,
			"max":[
				5.638955116271973,
				10.88780689239502,
				4.291753768920898
			],
			"min":[
				-5.059152126312256,
				-0.010270265862345695,
				-5.830761909484863
			],
			"type":"VEC3"
		},
		{
			"bufferView":5,
			"componentType":5126,
			"count":1140,
			"type":"VEC3"
		},
		{
			"bufferView":6,
			"componentType":5126,
			"count":1140,
			"type":"VEC2"
		},
		{
			"bufferView":7,
			"componentType":5123,
			"count":1722,
			"type":"SCALAR"
		}
	],
	"bufferViews":[
		{
			"buffer":0,
			"byteLength":26880,
			"byteOffset":0,
			"target":34962
		},
		{
			"buffer":0,
			"byteLength":26880,
			"byteOffset":26880,
			"target":34962
		},
		{
			"buffer":0,
			"byteLength":17920,
			"byteOffset":53760,
			"target":34962
		},
		{
			"buffer":0,
			"byteLength":6720,
			"byteOffset":71680,
			"target":34963
		},
		{
			"buffer":0,
			"byteLength":13680,
			"byteOffset":78400,
			"target":34962
		},
		{
			"buffer":0,
			"byteLength":13680,
			"byteOffset":92080,
			"target":34962
		},
		{
			"buffer":0,
			"byteLength":9120,
			"byteOffset":105760,
			"target":34962
		},
		{
			"buffer":0,
			"byteLength":3444,
			"byteOffset":114880,
			"target":34963
		}
	],
	"buffers":[
		{
			"byteLength":118324,
			"uri":"Tree_Green_03-cb4429c1681b940303f100ba1cb5e4aa.bin"
		}
	]
}
