{
	"asset":{
		"generator":"Khronos glTF Blender I/O v4.3.47",
		"version":"2.0"
	},
	"extensionsUsed":[
		"KHR_lights_punctual"
	],
	"extensionsRequired":[
		"KHR_lights_punctual"
	],
	"extensions":{
		"KHR_lights_punctual":{
			"lights":[
				{
					"color":[
						1,
						1,
						1
					],
					"intensity":54351.41306588226,
					"type":"point",
					"name":"Light"
				}
			]
		}
	},
	"scene":0,
	"scenes":[
		{
			"name":"Scene",
			"nodes":[
				0,
				1,
				2
			]
		}
	],
	"nodes":[
		{
			"extensions":{
				"KHR_lights_punctual":{
					"light":0
				}
			},
			"name":"Light",
			"rotation":[
				-0.28416627645492554,
				0.7269423007965088,
				0.34203392267227173,
				0.5232754945755005
			],
			"translation":[
				4.076245307922363,
				5.903861999511719,
				-1.0054539442062378
			]
		},
		{
			"camera":0,
			"name":"Camera",
			"rotation":[
				-0.20997299253940582,
				0.3857799470424652,
				0.09062844514846802,
				0.8937962055206299
			],
			"translation":[
				7.358891487121582,
				4.958309173583984,
				6.925790786743164
			]
		},
		{
			"mesh":0,
			"name":"Wall03_house5"
		}
	],
	"cameras":[
		{
			"name":"Camera",
			"perspective":{
				"aspectRatio":1.7777777777777777,
				"yfov":0.39959652046304894,
				"zfar":100,
				"znear":0.10000000149011612
			},
			"type":"perspective"
		}
	],
	"materials":[
		{
			"doubleSided":true,
			"name":"Tiles_house05",
			"pbrMetallicRoughness":{
				"baseColorFactor":[
					0.19598864018917084,
					0.04342792183160782,
					0.007737726904451847,
					1
				],
				"metallicFactor":0,
				"roughnessFactor":0.5
			}
		},
		{
			"doubleSided":true,
			"name":"WallTile_house05",
			"pbrMetallicRoughness":{
				"baseColorFactor":[
					0.24619503319263458,
					0.08552613854408264,
					0.02514219656586647,
					1
				],
				"metallicFactor":0,
				"roughnessFactor":0.5
			}
		}
	],
	"meshes":[
		{
			"name":"Cube.002",
			"primitives":[
				{
					"attributes":{
						"POSITION":0,
						"NORMAL":1,
						"TEXCOORD_0":2,
						"TANGENT":3
					},
					"indices":4,
					"material":0
				},
				{
					"attributes":{
						"POSITION":5,
						"NORMAL":6,
						"TEXCOORD_0":7,
						"TANGENT":8
					},
					"indices":9,
					"material":1
				}
			]
		}
	],
	"accessors":[
		{
			"bufferView":0,
			"componentType":5126,
			"count":2496,
			"max":[
				2.436148166656494,
				1.6391592025756836,
				0.5317296981811523
			],
			"min":[
				-2.436070442199707,
				-1.644207239151001,
				-0.5312161445617676
			],
			"type":"VEC3"
		},
		{
			"bufferView":1,
			"componentType":5126,
			"count":2496,
			"type":"VEC3"
		},
		{
			"bufferView":2,
			"componentType":5126,
			"count":2496,
			"type":"VEC2"
		},
		{
			"bufferView":3,
			"componentType":5126,
			"count":2496,
			"type":"VEC4"
		},
		{
			"bufferView":4,
			"componentType":5123,
			"count":3432,
			"type":"SCALAR"
		},
		{
			"bufferView":5,
			"componentType":5126,
			"count":24,
			"max":[
				2.4425888061523438,
				1.7290993928909302,
				0.4488336145877838
			],
			"min":[
				-2.4486188888549805,
				-1.7280250787734985,
				-0.48889920115470886
			],
			"type":"VEC3"
		},
		{
			"bufferView":6,
			"componentType":5126,
			"count":24,
			"type":"VEC3"
		},
		{
			"bufferView":7,
			"componentType":5126,
			"count":24,
			"type":"VEC2"
		},
		{
			"bufferView":8,
			"componentType":5126,
			"count":24,
			"type":"VEC4"
		},
		{
			"bufferView":9,
			"componentType":5123,
			"count":36,
			"type":"SCALAR"
		}
	],
	"bufferViews":[
		{
			"buffer":0,
			"byteLength":29952,
			"byteOffset":0,
			"target":34962
		},
		{
			"buffer":0,
			"byteLength":29952,
			"byteOffset":29952,
			"target":34962
		},
		{
			"buffer":0,
			"byteLength":19968,
			"byteOffset":59904,
			"target":34962
		},
		{
			"buffer":0,
			"byteLength":39936,
			"byteOffset":79872,
			"target":34962
		},
		{
			"buffer":0,
			"byteLength":6864,
			"byteOffset":119808,
			"target":34963
		},
		{
			"buffer":0,
			"byteLength":288,
			"byteOffset":126672,
			"target":34962
		},
		{
			"buffer":0,
			"byteLength":288,
			"byteOffset":126960,
			"target":34962
		},
		{
			"buffer":0,
			"byteLength":192,
			"byteOffset":127248,
			"target":34962
		},
		{
			"buffer":0,
			"byteLength":384,
			"byteOffset":127440,
			"target":34962
		},
		{
			"buffer":0,
			"byteLength":72,
			"byteOffset":127824,
			"target":34963
		}
	],
	"buffers":[
		{
			"byteLength":127896,
			"uri":"Wall03_house5-214ea0e3d4387ee0d7351a29845d4622.bin"
		}
	]
}
