{
	"asset":{
		"generator":"Khronos glTF Blender I/O v4.3.47",
		"version":"2.0"
	},
	"scene":0,
	"scenes":[
		{
			"name":"Scene",
			"nodes":[
				0
			]
		}
	],
	"nodes":[
		{
			"mesh":0,
			"name":"wall03_house01"
		}
	],
	"materials":[
		{
			"doubleSided":true,
			"name":"LightBrown_House01",
			"pbrMetallicRoughness":{
				"baseColorFactor":[
					0.6724432706832886,
					0.5906189680099487,
					0.5149176716804504,
					1
				],
				"metallicFactor":0,
				"roughnessFactor":0.5
			}
		},
		{
			"doubleSided":true,
			"name":"Cream_House01",
			"pbrMetallicRoughness":{
				"baseColorFactor":[
					0.8713672757148743,
					0.8631572127342224,
					0.84687340259552,
					1
				],
				"metallicFactor":0,
				"roughnessFactor":0.4000000059604645
			}
		}
	],
	"meshes":[
		{
			"name":"Cube.018",
			"primitives":[
				{
					"attributes":{
						"POSITION":0,
						"NORMAL":1,
						"TEXCOORD_0":2
					},
					"indices":3,
					"material":0
				},
				{
					"attributes":{
						"POSITION":4,
						"NORMAL":5,
						"TEXCOORD_0":6
					},
					"indices":7,
					"material":1
				}
			]
		}
	],
	"accessors":[
		{
			"bufferView":0,
			"componentType":5126,
			"count":222,
			"max":[
				0.1977480798959732,
				2.992743968963623,
				2.482426643371582
			],
			"min":[
				-0.21650123596191406,
				-0.9625839591026306,
				-2.482426166534424
			],
			"type":"VEC3"
		},
		{
			"bufferView":1,
			"componentType":5126,
			"count":222,
			"type":"VEC3"
		},
		{
			"bufferView":2,
			"componentType":5126,
			"count":222,
			"type":"VEC2"
		},
		{
			"bufferView":3,
			"componentType":5123,
			"count":366,
			"type":"SCALAR"
		},
		{
			"bufferView":4,
			"componentType":5126,
			"count":12,
			"max":[
				0.1286967694759369,
				2.991764545440674,
				2.1839993000030518
			],
			"min":[
				-0.1313031166791916,
				0.1331358253955841,
				-2.1839993000030518
			],
			"type":"VEC3"
		},
		{
			"bufferView":5,
			"componentType":5126,
			"count":12,
			"type":"VEC3"
		},
		{
			"bufferView":6,
			"componentType":5126,
			"count":12,
			"type":"VEC2"
		},
		{
			"bufferView":7,
			"componentType":5123,
			"count":18,
			"type":"SCALAR"
		}
	],
	"bufferViews":[
		{
			"buffer":0,
			"byteLength":2664,
			"byteOffset":0,
			"target":34962
		},
		{
			"buffer":0,
			"byteLength":2664,
			"byteOffset":2664,
			"target":34962
		},
		{
			"buffer":0,
			"byteLength":1776,
			"byteOffset":5328,
			"target":34962
		},
		{
			"buffer":0,
			"byteLength":732,
			"byteOffset":7104,
			"target":34963
		},
		{
			"buffer":0,
			"byteLength":144,
			"byteOffset":7836,
			"target":34962
		},
		{
			"buffer":0,
			"byteLength":144,
			"byteOffset":7980,
			"target":34962
		},
		{
			"buffer":0,
			"byteLength":96,
			"byteOffset":8124,
			"target":34962
		},
		{
			"buffer":0,
			"byteLength":36,
			"byteOffset":8220,
			"target":34963
		}
	],
	"buffers":[
		{
			"byteLength":8256,
			"uri":"Wall03_house01-5a510491fa09f92aba139b25a28c0ec8.bin"
		}
	]
}
