{
	"asset":{
		"generator":"Khronos glTF Blender I/O v4.3.47",
		"version":"2.0"
	},
	"scene":0,
	"scenes":[
		{
			"name":"Scene",
			"nodes":[
				0
			]
		}
	],
	"nodes":[
		{
			"mesh":0,
			"name":"Wall02_house02"
		}
	],
	"materials":[
		{
			"doubleSided":true,
			"name":"Cream_House02",
			"pbrMetallicRoughness":{
				"baseColorFactor":[
					0.8796226382255554,
					0.854992687702179,
					0.7379105091094971,
					1
				],
				"metallicFactor":0,
				"roughnessFactor":0.5
			}
		},
		{
			"doubleSided":true,
			"name":"Gray_House02",
			"pbrMetallicRoughness":{
				"baseColorFactor":[
					0.5840784907341003,
					0.5775806307792664,
					0.5520114898681641,
					1
				],
				"metallicFactor":0,
				"roughnessFactor":0.5
			}
		}
	],
	"meshes":[
		{
			"name":"Cube.004",
			"primitives":[
				{
					"attributes":{
						"POSITION":0,
						"NORMAL":1,
						"TEXCOORD_0":2,
						"TANGENT":3
					},
					"indices":4,
					"material":0
				},
				{
					"attributes":{
						"POSITION":5,
						"NORMAL":6,
						"TEXCOORD_0":7,
						"TANGENT":8
					},
					"indices":9,
					"material":1
				}
			]
		}
	],
	"accessors":[
		{
			"bufferView":0,
			"componentType":5126,
			"count":24,
			"max":[
				0.1300000250339508,
				1.5028793811798096,
				2.5305771827697754
			],
			"min":[
				-0.1300000250339508,
				-1.501631736755371,
				-1.5686101913452148
			],
			"type":"VEC3"
		},
		{
			"bufferView":1,
			"componentType":5126,
			"count":24,
			"type":"VEC3"
		},
		{
			"bufferView":2,
			"componentType":5126,
			"count":24,
			"type":"VEC2"
		},
		{
			"bufferView":3,
			"componentType":5126,
			"count":24,
			"type":"VEC4"
		},
		{
			"bufferView":4,
			"componentType":5123,
			"count":36,
			"type":"SCALAR"
		},
		{
			"bufferView":5,
			"componentType":5126,
			"count":91,
			"max":[
				0.17085199058055878,
				1.8467772006988525,
				2.5251636505126953
			],
			"min":[
				-0.17085199058055878,
				-1.8258004188537598,
				-1.9239342212677002
			],
			"type":"VEC3"
		},
		{
			"bufferView":6,
			"componentType":5126,
			"count":91,
			"type":"VEC3"
		},
		{
			"bufferView":7,
			"componentType":5126,
			"count":91,
			"type":"VEC2"
		},
		{
			"bufferView":8,
			"componentType":5126,
			"count":91,
			"type":"VEC4"
		},
		{
			"bufferView":9,
			"componentType":5123,
			"count":180,
			"type":"SCALAR"
		}
	],
	"bufferViews":[
		{
			"buffer":0,
			"byteLength":288,
			"byteOffset":0,
			"target":34962
		},
		{
			"buffer":0,
			"byteLength":288,
			"byteOffset":288,
			"target":34962
		},
		{
			"buffer":0,
			"byteLength":192,
			"byteOffset":576,
			"target":34962
		},
		{
			"buffer":0,
			"byteLength":384,
			"byteOffset":768,
			"target":34962
		},
		{
			"buffer":0,
			"byteLength":72,
			"byteOffset":1152,
			"target":34963
		},
		{
			"buffer":0,
			"byteLength":1092,
			"byteOffset":1224,
			"target":34962
		},
		{
			"buffer":0,
			"byteLength":1092,
			"byteOffset":2316,
			"target":34962
		},
		{
			"buffer":0,
			"byteLength":728,
			"byteOffset":3408,
			"target":34962
		},
		{
			"buffer":0,
			"byteLength":1456,
			"byteOffset":4136,
			"target":34962
		},
		{
			"buffer":0,
			"byteLength":360,
			"byteOffset":5592,
			"target":34963
		}
	],
	"buffers":[
		{
			"byteLength":5952,
			"uri":"Wall02_house2-dd6510c17bb7681182e1ad76a28bb69d.bin"
		}
	]
}
