{
	"asset":{
		"generator":"Khronos glTF Blender I/O v4.3.47",
		"version":"2.0"
	},
	"scene":0,
	"scenes":[
		{
			"name":"Scene",
			"nodes":[
				0
			]
		}
	],
	"nodes":[
		{
			"mesh":0,
			"name":"Wall02_house3"
		}
	],
	"materials":[
		{
			"doubleSided":true,
			"name":"Green_house03",
			"pbrMetallicRoughness":{
				"baseColorFactor":[
					0.5088812708854675,
					0.7304609417915344,
					0.597201943397522,
					1
				],
				"metallicFactor":0,
				"roughnessFactor":0.4000000059604645
			}
		},
		{
			"doubleSided":true,
			"name":"Cream_house03",
			"pbrMetallicRoughness":{
				"baseColorFactor":[
					0.8962693810462952,
					0.8796226382255554,
					0.760524570941925,
					1
				],
				"metallicFactor":0,
				"roughnessFactor":0.5
			}
		}
	],
	"meshes":[
		{
			"name":"Cube",
			"primitives":[
				{
					"attributes":{
						"POSITION":0,
						"NORMAL":1,
						"TEXCOORD_0":2,
						"TANGENT":3
					},
					"indices":4,
					"material":0
				},
				{
					"attributes":{
						"POSITION":5,
						"NORMAL":6,
						"TEXCOORD_0":7,
						"TANGENT":8
					},
					"indices":9,
					"material":1
				}
			]
		}
	],
	"accessors":[
		{
			"bufferView":0,
			"componentType":5126,
			"count":427,
			"max":[
				1.7687352895736694,
				1.680706262588501,
				0.2347782403230667
			],
			"min":[
				-1.6745818853378296,
				-1.5693010091781616,
				-0.2347782403230667
			],
			"type":"VEC3"
		},
		{
			"bufferView":1,
			"componentType":5126,
			"count":427,
			"type":"VEC3"
		},
		{
			"bufferView":2,
			"componentType":5126,
			"count":427,
			"type":"VEC2"
		},
		{
			"bufferView":3,
			"componentType":5126,
			"count":427,
			"type":"VEC4"
		},
		{
			"bufferView":4,
			"componentType":5123,
			"count":660,
			"type":"SCALAR"
		},
		{
			"bufferView":5,
			"componentType":5126,
			"count":435,
			"max":[
				1.7687352895736694,
				1.680706262588501,
				0.23477822542190552
			],
			"min":[
				-1.6745818853378296,
				-1.5693010091781616,
				-0.2050015777349472
			],
			"type":"VEC3"
		},
		{
			"bufferView":6,
			"componentType":5126,
			"count":435,
			"type":"VEC3"
		},
		{
			"bufferView":7,
			"componentType":5126,
			"count":435,
			"type":"VEC2"
		},
		{
			"bufferView":8,
			"componentType":5126,
			"count":435,
			"type":"VEC4"
		},
		{
			"bufferView":9,
			"componentType":5123,
			"count":810,
			"type":"SCALAR"
		}
	],
	"bufferViews":[
		{
			"buffer":0,
			"byteLength":5124,
			"byteOffset":0,
			"target":34962
		},
		{
			"buffer":0,
			"byteLength":5124,
			"byteOffset":5124,
			"target":34962
		},
		{
			"buffer":0,
			"byteLength":3416,
			"byteOffset":10248,
			"target":34962
		},
		{
			"buffer":0,
			"byteLength":6832,
			"byteOffset":13664,
			"target":34962
		},
		{
			"buffer":0,
			"byteLength":1320,
			"byteOffset":20496,
			"target":34963
		},
		{
			"buffer":0,
			"byteLength":5220,
			"byteOffset":21816,
			"target":34962
		},
		{
			"buffer":0,
			"byteLength":5220,
			"byteOffset":27036,
			"target":34962
		},
		{
			"buffer":0,
			"byteLength":3480,
			"byteOffset":32256,
			"target":34962
		},
		{
			"buffer":0,
			"byteLength":6960,
			"byteOffset":35736,
			"target":34962
		},
		{
			"buffer":0,
			"byteLength":1620,
			"byteOffset":42696,
			"target":34963
		}
	],
	"buffers":[
		{
			"byteLength":44316,
			"uri":"Wall02_house3-4fea095679faa10b907e709680d62195.bin"
		}
	]
}
