{
	"asset":{
		"generator":"Khronos glTF Blender I/O v4.3.47",
		"version":"2.0"
	},
	"scene":0,
	"scenes":[
		{
			"name":"Scene",
			"nodes":[
				0
			]
		}
	],
	"nodes":[
		{
			"mesh":0,
			"name":"Wall01_house02"
		}
	],
	"materials":[
		{
			"doubleSided":true,
			"name":"Cream_House02",
			"pbrMetallicRoughness":{
				"baseColorFactor":[
					0.8796226382255554,
					0.854992687702179,
					0.7379105091094971,
					1
				],
				"metallicFactor":0,
				"roughnessFactor":0.5
			}
		},
		{
			"doubleSided":true,
			"name":"Gray_House02",
			"pbrMetallicRoughness":{
				"baseColorFactor":[
					0.5840784907341003,
					0.5775806307792664,
					0.5520114898681641,
					1
				],
				"metallicFactor":0,
				"roughnessFactor":0.5
			}
		}
	],
	"meshes":[
		{
			"name":"Cube.004",
			"primitives":[
				{
					"attributes":{
						"POSITION":0,
						"NORMAL":1,
						"TEXCOORD_0":2,
						"TANGENT":3
					},
					"indices":4,
					"material":0
				},
				{
					"attributes":{
						"POSITION":5,
						"NORMAL":6,
						"TEXCOORD_0":7,
						"TANGENT":8
					},
					"indices":9,
					"material":1
				}
			]
		}
	],
	"accessors":[
		{
			"bufferView":0,
			"componentType":5126,
			"count":24,
			"max":[
				0.1300000250339508,
				1.502905249595642,
				2.049593687057495
			],
			"min":[
				-0.1300000250339508,
				-1.5016058683395386,
				-2.049593687057495
			],
			"type":"VEC3"
		},
		{
			"bufferView":1,
			"componentType":5126,
			"count":24,
			"type":"VEC3"
		},
		{
			"bufferView":2,
			"componentType":5126,
			"count":24,
			"type":"VEC2"
		},
		{
			"bufferView":3,
			"componentType":5126,
			"count":24,
			"type":"VEC4"
		},
		{
			"bufferView":4,
			"componentType":5123,
			"count":36,
			"type":"SCALAR"
		},
		{
			"bufferView":5,
			"componentType":5126,
			"count":114,
			"max":[
				0.17085199058055878,
				1.846803069114685,
				2.4049177169799805
			],
			"min":[
				-0.17085199058055878,
				-1.8257745504379272,
				-2.4049177169799805
			],
			"type":"VEC3"
		},
		{
			"bufferView":6,
			"componentType":5126,
			"count":114,
			"type":"VEC3"
		},
		{
			"bufferView":7,
			"componentType":5126,
			"count":114,
			"type":"VEC2"
		},
		{
			"bufferView":8,
			"componentType":5126,
			"count":114,
			"type":"VEC4"
		},
		{
			"bufferView":9,
			"componentType":5123,
			"count":246,
			"type":"SCALAR"
		}
	],
	"bufferViews":[
		{
			"buffer":0,
			"byteLength":288,
			"byteOffset":0,
			"target":34962
		},
		{
			"buffer":0,
			"byteLength":288,
			"byteOffset":288,
			"target":34962
		},
		{
			"buffer":0,
			"byteLength":192,
			"byteOffset":576,
			"target":34962
		},
		{
			"buffer":0,
			"byteLength":384,
			"byteOffset":768,
			"target":34962
		},
		{
			"buffer":0,
			"byteLength":72,
			"byteOffset":1152,
			"target":34963
		},
		{
			"buffer":0,
			"byteLength":1368,
			"byteOffset":1224,
			"target":34962
		},
		{
			"buffer":0,
			"byteLength":1368,
			"byteOffset":2592,
			"target":34962
		},
		{
			"buffer":0,
			"byteLength":912,
			"byteOffset":3960,
			"target":34962
		},
		{
			"buffer":0,
			"byteLength":1824,
			"byteOffset":4872,
			"target":34962
		},
		{
			"buffer":0,
			"byteLength":492,
			"byteOffset":6696,
			"target":34963
		}
	],
	"buffers":[
		{
			"byteLength":7188,
			"uri":"Wall01_house2-aaaba7f159ed4a4192604df426d60852.bin"
		}
	]
}
