{
	"asset":{
		"generator":"Khronos glTF Blender I/O v4.3.47",
		"version":"2.0"
	},
	"scene":0,
	"scenes":[
		{
			"name":"Scene",
			"nodes":[
				0
			]
		}
	],
	"nodes":[
		{
			"mesh":0,
			"name":"Wall01_house03"
		}
	],
	"materials":[
		{
			"doubleSided":true,
			"name":"Green_house03",
			"pbrMetallicRoughness":{
				"baseColorFactor":[
					0.5088812708854675,
					0.7304609417915344,
					0.597201943397522,
					1
				],
				"metallicFactor":0,
				"roughnessFactor":0.4000000059604645
			}
		}
	],
	"meshes":[
		{
			"name":"Cube.004",
			"primitives":[
				{
					"attributes":{
						"POSITION":0,
						"NORMAL":1,
						"TEXCOORD_0":2
					},
					"indices":3,
					"material":0
				}
			]
		}
	],
	"accessors":[
		{
			"bufferView":0,
			"componentType":5126,
			"count":303,
			"max":[
				0.20298609137535095,
				1.5995712280273438,
				1.721658706665039
			],
			"min":[
				-0.20298609137535095,
				-1.7053911685943604,
				-1.721658706665039
			],
			"type":"VEC3"
		},
		{
			"bufferView":1,
			"componentType":5126,
			"count":303,
			"type":"VEC3"
		},
		{
			"bufferView":2,
			"componentType":5126,
			"count":303,
			"type":"VEC2"
		},
		{
			"bufferView":3,
			"componentType":5123,
			"count":588,
			"type":"SCALAR"
		}
	],
	"bufferViews":[
		{
			"buffer":0,
			"byteLength":3636,
			"byteOffset":0,
			"target":34962
		},
		{
			"buffer":0,
			"byteLength":3636,
			"byteOffset":3636,
			"target":34962
		},
		{
			"buffer":0,
			"byteLength":2424,
			"byteOffset":7272,
			"target":34962
		},
		{
			"buffer":0,
			"byteLength":1176,
			"byteOffset":9696,
			"target":34963
		}
	],
	"buffers":[
		{
			"byteLength":10872,
			"uri":"Wall01_house3-ba96c305ef19bcdb223720ddf1a8623c.bin"
		}
	]
}
