{
	"asset":{
		"generator":"Khronos glTF Blender I/O v4.3.47",
		"version":"2.0"
	},
	"scene":0,
	"scenes":[
		{
			"name":"Scene",
			"nodes":[
				0
			]
		}
	],
	"nodes":[
		{
			"mesh":0,
			"name":"Watermelon"
		}
	],
	"materials":[
		{
			"doubleSided":true,
			"name":"DarkGreen_Watermelon",
			"pbrMetallicRoughness":{
				"baseColorFactor":[
					0,
					0.24228116869926453,
					0.012983039021492004,
					1
				],
				"metallicFactor":0,
				"roughnessFactor":0.5
			}
		},
		{
			"doubleSided":true,
			"name":"LightGreen_Watermelon",
			"pbrMetallicRoughness":{
				"baseColorFactor":[
					0.06300994753837585,
					0.5972022414207458,
					0.09530752897262573,
					1
				],
				"metallicFactor":0,
				"roughnessFactor":0.5
			}
		}
	],
	"meshes":[
		{
			"name":"Sphere",
			"primitives":[
				{
					"attributes":{
						"POSITION":0,
						"NORMAL":1,
						"TEXCOORD_0":2,
						"TANGENT":3
					},
					"indices":4,
					"material":0
				},
				{
					"attributes":{
						"POSITION":5,
						"NORMAL":6,
						"TEXCOORD_0":7,
						"TANGENT":8
					},
					"indices":9,
					"material":1
				}
			]
		}
	],
	"accessors":[
		{
			"bufferView":0,
			"componentType":5126,
			"count":556,
			"max":[
				0.9587263464927673,
				0.9587263464927673,
				1.1032971143722534
			],
			"min":[
				-0.958726167678833,
				-0.9587262868881226,
				-1.1032971143722534
			],
			"type":"VEC3"
		},
		{
			"bufferView":1,
			"componentType":5126,
			"count":556,
			"type":"VEC3"
		},
		{
			"bufferView":2,
			"componentType":5126,
			"count":556,
			"type":"VEC2"
		},
		{
			"bufferView":3,
			"componentType":5126,
			"count":556,
			"type":"VEC4"
		},
		{
			"bufferView":4,
			"componentType":5123,
			"count":1824,
			"type":"SCALAR"
		},
		{
			"bufferView":5,
			"componentType":5126,
			"count":565,
			"max":[
				0.9587263464927673,
				0.9587263464927673,
				1.1032971143722534
			],
			"min":[
				-0.958726167678833,
				-0.9587262868881226,
				-1.1032971143722534
			],
			"type":"VEC3"
		},
		{
			"bufferView":6,
			"componentType":5126,
			"count":565,
			"type":"VEC3"
		},
		{
			"bufferView":7,
			"componentType":5126,
			"count":565,
			"type":"VEC2"
		},
		{
			"bufferView":8,
			"componentType":5126,
			"count":565,
			"type":"VEC4"
		},
		{
			"bufferView":9,
			"componentType":5123,
			"count":1824,
			"type":"SCALAR"
		}
	],
	"bufferViews":[
		{
			"buffer":0,
			"byteLength":6672,
			"byteOffset":0,
			"target":34962
		},
		{
			"buffer":0,
			"byteLength":6672,
			"byteOffset":6672,
			"target":34962
		},
		{
			"buffer":0,
			"byteLength":4448,
			"byteOffset":13344,
			"target":34962
		},
		{
			"buffer":0,
			"byteLength":8896,
			"byteOffset":17792,
			"target":34962
		},
		{
			"buffer":0,
			"byteLength":3648,
			"byteOffset":26688,
			"target":34963
		},
		{
			"buffer":0,
			"byteLength":6780,
			"byteOffset":30336,
			"target":34962
		},
		{
			"buffer":0,
			"byteLength":6780,
			"byteOffset":37116,
			"target":34962
		},
		{
			"buffer":0,
			"byteLength":4520,
			"byteOffset":43896,
			"target":34962
		},
		{
			"buffer":0,
			"byteLength":9040,
			"byteOffset":48416,
			"target":34962
		},
		{
			"buffer":0,
			"byteLength":3648,
			"byteOffset":57456,
			"target":34963
		}
	],
	"buffers":[
		{
			"byteLength":61104,
			"uri":"Watermelon-27637a0dba98c4ace17dd7841535b5f6.bin"
		}
	]
}
