{
	"asset":{
		"generator":"Khronos glTF Blender I/O v4.3.47",
		"version":"2.0"
	},
	"scene":0,
	"scenes":[
		{
			"name":"Scene",
			"nodes":[
				0
			]
		}
	],
	"nodes":[
		{
			"mesh":0,
			"name":"Window02_house05",
			"scale":[
				0.45000001788139343,
				0.45000001788139343,
				0.45000001788139343
			]
		}
	],
	"materials":[
		{
			"doubleSided":true,
			"name":"Wood_house05.001",
			"pbrMetallicRoughness":{
				"baseColorFactor":[
					0.7011020183563232,
					0.42869052290916443,
					0.11697068810462952,
					1
				],
				"metallicFactor":0,
				"roughnessFactor":0.5
			}
		},
		{
			"doubleSided":true,
			"name":"Cream_house05",
			"pbrMetallicRoughness":{
				"baseColorFactor":[
					0.8713672757148743,
					0.6172067523002625,
					0.35153263807296753,
					1
				],
				"metallicFactor":0,
				"roughnessFactor":0.5
			}
		},
		{
			"doubleSided":true,
			"name":"Window_house05.001",
			"pbrMetallicRoughness":{
				"baseColorFactor":[
					0.07558076083660126,
					0.20353354513645172,
					0.7011020183563232,
					1
				],
				"metallicFactor":0,
				"roughnessFactor":0.5
			}
		},
		{
			"doubleSided":true,
			"name":"Brown_house05",
			"pbrMetallicRoughness":{
				"baseColorFactor":[
					0.34191441535949707,
					0.2015562802553177,
					0.1247718334197998,
					1
				],
				"metallicFactor":0,
				"roughnessFactor":0.5
			}
		},
		{
			"doubleSided":true,
			"name":"Green_house06",
			"pbrMetallicRoughness":{
				"baseColorFactor":[
					0.3762621283531189,
					0.35153263807296753,
					0.2541521489620209,
					1
				],
				"metallicFactor":0,
				"roughnessFactor":0.5
			}
		}
	],
	"meshes":[
		{
			"name":"Cube.025",
			"primitives":[
				{
					"attributes":{
						"POSITION":0,
						"NORMAL":1,
						"TEXCOORD_0":2
					},
					"indices":3,
					"material":0
				},
				{
					"attributes":{
						"POSITION":4,
						"NORMAL":5,
						"TEXCOORD_0":6
					},
					"indices":7,
					"material":1
				},
				{
					"attributes":{
						"POSITION":8,
						"NORMAL":9,
						"TEXCOORD_0":10
					},
					"indices":11,
					"material":2
				},
				{
					"attributes":{
						"POSITION":12,
						"NORMAL":13,
						"TEXCOORD_0":14
					},
					"indices":11,
					"material":3
				},
				{
					"attributes":{
						"POSITION":15,
						"NORMAL":16,
						"TEXCOORD_0":17
					},
					"indices":11,
					"material":4
				}
			]
		}
	],
	"accessors":[
		{
			"bufferView":0,
			"componentType":5126,
			"count":400,
			"max":[
				3.1850717067718506,
				2.6717159748077393,
				0.26000022888183594
			],
			"min":[
				-3.1850717067718506,
				-3.3373067378997803,
				-0.26000022888183594
			],
			"type":"VEC3"
		},
		{
			"bufferView":1,
			"componentType":5126,
			"count":400,
			"type":"VEC3"
		},
		{
			"bufferView":2,
			"componentType":5126,
			"count":400,
			"type":"VEC2"
		},
		{
			"bufferView":3,
			"componentType":5123,
			"count":720,
			"type":"SCALAR"
		},
		{
			"bufferView":4,
			"componentType":5126,
			"count":132,
			"max":[
				1.4420636892318726,
				2.603846311569214,
				0.1443132609128952
			],
			"min":[
				-1.4420636892318726,
				-3.152432680130005,
				-0.1443132609128952
			],
			"type":"VEC3"
		},
		{
			"bufferView":5,
			"componentType":5126,
			"count":132,
			"type":"VEC3"
		},
		{
			"bufferView":6,
			"componentType":5126,
			"count":132,
			"type":"VEC2"
		},
		{
			"bufferView":7,
			"componentType":5123,
			"count":348,
			"type":"SCALAR"
		},
		{
			"bufferView":8,
			"componentType":5126,
			"count":24,
			"max":[
				1.3012266159057617,
				2.8096373081207275,
				0.05107324197888374
			],
			"min":[
				-1.3012266159057617,
				-2.983247756958008,
				-0.05107324197888374
			],
			"type":"VEC3"
		},
		{
			"bufferView":9,
			"componentType":5126,
			"count":24,
			"type":"VEC3"
		},
		{
			"bufferView":10,
			"componentType":5126,
			"count":24,
			"type":"VEC2"
		},
		{
			"bufferView":11,
			"componentType":5123,
			"count":36,
			"type":"SCALAR"
		},
		{
			"bufferView":12,
			"componentType":5126,
			"count":24,
			"max":[
				3.186647891998291,
				3.316951274871826,
				0.34315982460975647
			],
			"min":[
				-3.186647891998291,
				2.6160967350006104,
				-0.34315982460975647
			],
			"type":"VEC3"
		},
		{
			"bufferView":13,
			"componentType":5126,
			"count":24,
			"type":"VEC3"
		},
		{
			"bufferView":14,
			"componentType":5126,
			"count":24,
			"type":"VEC2"
		},
		{
			"bufferView":15,
			"componentType":5126,
			"count":24,
			"max":[
				3.1476986408233643,
				7.981034278869629,
				0.30657440423965454
			],
			"min":[
				-3.1476986408233643,
				3.1049039363861084,
				-0.30657440423965454
			],
			"type":"VEC3"
		},
		{
			"bufferView":16,
			"componentType":5126,
			"count":24,
			"type":"VEC3"
		},
		{
			"bufferView":17,
			"componentType":5126,
			"count":24,
			"type":"VEC2"
		}
	],
	"bufferViews":[
		{
			"buffer":0,
			"byteLength":4800,
			"byteOffset":0,
			"target":34962
		},
		{
			"buffer":0,
			"byteLength":4800,
			"byteOffset":4800,
			"target":34962
		},
		{
			"buffer":0,
			"byteLength":3200,
			"byteOffset":9600,
			"target":34962
		},
		{
			"buffer":0,
			"byteLength":1440,
			"byteOffset":12800,
			"target":34963
		},
		{
			"buffer":0,
			"byteLength":1584,
			"byteOffset":14240,
			"target":34962
		},
		{
			"buffer":0,
			"byteLength":1584,
			"byteOffset":15824,
			"target":34962
		},
		{
			"buffer":0,
			"byteLength":1056,
			"byteOffset":17408,
			"target":34962
		},
		{
			"buffer":0,
			"byteLength":696,
			"byteOffset":18464,
			"target":34963
		},
		{
			"buffer":0,
			"byteLength":288,
			"byteOffset":19160,
			"target":34962
		},
		{
			"buffer":0,
			"byteLength":288,
			"byteOffset":19448,
			"target":34962
		},
		{
			"buffer":0,
			"byteLength":192,
			"byteOffset":19736,
			"target":34962
		},
		{
			"buffer":0,
			"byteLength":72,
			"byteOffset":19928,
			"target":34963
		},
		{
			"buffer":0,
			"byteLength":288,
			"byteOffset":20000,
			"target":34962
		},
		{
			"buffer":0,
			"byteLength":288,
			"byteOffset":20288,
			"target":34962
		},
		{
			"buffer":0,
			"byteLength":192,
			"byteOffset":20576,
			"target":34962
		},
		{
			"buffer":0,
			"byteLength":288,
			"byteOffset":20768,
			"target":34962
		},
		{
			"buffer":0,
			"byteLength":288,
			"byteOffset":21056,
			"target":34962
		},
		{
			"buffer":0,
			"byteLength":192,
			"byteOffset":21344,
			"target":34962
		}
	],
	"buffers":[
		{
			"byteLength":21536,
			"uri":"Window02_house5-21d614e561a6a2415ee930245ea76cb2.bin"
		}
	]
}
