{
	"asset":{
		"generator":"Khronos glTF Blender I/O v4.3.47",
		"version":"2.0"
	},
	"extensionsUsed":[
		"KHR_lights_punctual"
	],
	"extensionsRequired":[
		"KHR_lights_punctual"
	],
	"extensions":{
		"KHR_lights_punctual":{
			"lights":[
				{
					"color":[
						1,
						1,
						1
					],
					"intensity":54351.41306588226,
					"type":"point",
					"name":"Light"
				}
			]
		}
	},
	"scene":0,
	"scenes":[
		{
			"name":"Scene",
			"nodes":[
				0,
				1,
				2
			]
		}
	],
	"nodes":[
		{
			"extensions":{
				"KHR_lights_punctual":{
					"light":0
				}
			},
			"name":"Light",
			"rotation":[
				-0.28416627645492554,
				0.7269423007965088,
				0.34203392267227173,
				0.5232754945755005
			],
			"translation":[
				4.076245307922363,
				5.903861999511719,
				-1.0054539442062378
			]
		},
		{
			"camera":0,
			"name":"Camera",
			"rotation":[
				-0.20997299253940582,
				0.3857799470424652,
				0.09062844514846802,
				0.8937962055206299
			],
			"translation":[
				7.358891487121582,
				4.958309173583984,
				6.925790786743164
			]
		},
		{
			"mesh":0,
			"name":"Window01_house03"
		}
	],
	"cameras":[
		{
			"name":"Camera",
			"perspective":{
				"aspectRatio":1.7777777777777777,
				"yfov":0.39959652046304894,
				"zfar":100,
				"znear":0.10000000149011612
			},
			"type":"perspective"
		}
	],
	"materials":[
		{
			"doubleSided":true,
			"name":"Green_house03",
			"pbrMetallicRoughness":{
				"baseColorFactor":[
					0.5088812708854675,
					0.7304609417915344,
					0.597201943397522,
					1
				],
				"metallicFactor":0,
				"roughnessFactor":0.4000000059604645
			}
		},
		{
			"doubleSided":true,
			"name":"Cream_house03",
			"pbrMetallicRoughness":{
				"baseColorFactor":[
					0.8962693810462952,
					0.8796226382255554,
					0.760524570941925,
					1
				],
				"metallicFactor":0,
				"roughnessFactor":0.5
			}
		},
		{
			"doubleSided":true,
			"name":"Wood_house03",
			"pbrMetallicRoughness":{
				"baseColorFactor":[
					0.7304609417915344,
					0.5840784907341003,
					0.4125426411628723,
					1
				],
				"metallicFactor":0,
				"roughnessFactor":0.5
			}
		},
		{
			"doubleSided":true,
			"name":"Window_house03",
			"pbrMetallicRoughness":{
				"baseColorFactor":[
					0.5149176716804504,
					0.6514057517051697,
					0.7912980914115906,
					1
				],
				"metallicFactor":0,
				"roughnessFactor":0.5
			}
		}
	],
	"meshes":[
		{
			"name":"Cube.004",
			"primitives":[
				{
					"attributes":{
						"POSITION":0,
						"NORMAL":1,
						"TEXCOORD_0":2
					},
					"indices":3,
					"material":0
				},
				{
					"attributes":{
						"POSITION":4,
						"NORMAL":5,
						"TEXCOORD_0":6
					},
					"indices":7,
					"material":1
				},
				{
					"attributes":{
						"POSITION":8,
						"NORMAL":9,
						"TEXCOORD_0":10
					},
					"indices":11,
					"material":2
				},
				{
					"attributes":{
						"POSITION":12,
						"NORMAL":13,
						"TEXCOORD_0":14
					},
					"indices":15,
					"material":3
				}
			]
		}
	],
	"accessors":[
		{
			"bufferView":0,
			"componentType":5126,
			"count":471,
			"max":[
				0.20085972547531128,
				1.4564967155456543,
				1.7216588258743286
			],
			"min":[
				-0.20511245727539062,
				-1.8484656810760498,
				-1.7216585874557495
			],
			"type":"VEC3"
		},
		{
			"bufferView":1,
			"componentType":5126,
			"count":471,
			"type":"VEC3"
		},
		{
			"bufferView":2,
			"componentType":5126,
			"count":471,
			"type":"VEC2"
		},
		{
			"bufferView":3,
			"componentType":5123,
			"count":936,
			"type":"SCALAR"
		},
		{
			"bufferView":4,
			"componentType":5126,
			"count":104,
			"max":[
				0.2926303446292877,
				1.087700366973877,
				1.0169087648391724
			],
			"min":[
				-0.247976616024971,
				-0.9744828939437866,
				-1.0169085264205933
			],
			"type":"VEC3"
		},
		{
			"bufferView":5,
			"componentType":5126,
			"count":104,
			"type":"VEC3"
		},
		{
			"bufferView":6,
			"componentType":5126,
			"count":104,
			"type":"VEC2"
		},
		{
			"bufferView":7,
			"componentType":5123,
			"count":252,
			"type":"SCALAR"
		},
		{
			"bufferView":8,
			"componentType":5126,
			"count":532,
			"max":[
				0.08774299919605255,
				0.8702516555786133,
				0.7985133528709412
			],
			"min":[
				-0.0919957309961319,
				-0.7779903411865234,
				-0.7985132336616516
			],
			"type":"VEC3"
		},
		{
			"bufferView":9,
			"componentType":5126,
			"count":532,
			"type":"VEC3"
		},
		{
			"bufferView":10,
			"componentType":5126,
			"count":532,
			"type":"VEC2"
		},
		{
			"bufferView":11,
			"componentType":5123,
			"count":1614,
			"type":"SCALAR"
		},
		{
			"bufferView":12,
			"componentType":5126,
			"count":24,
			"max":[
				0.0006203455850481987,
				0.841891348361969,
				0.7269049882888794
			],
			"min":[
				-0.0048730759881436825,
				-0.7760995030403137,
				-0.7269048690795898
			],
			"type":"VEC3"
		},
		{
			"bufferView":13,
			"componentType":5126,
			"count":24,
			"type":"VEC3"
		},
		{
			"bufferView":14,
			"componentType":5126,
			"count":24,
			"type":"VEC2"
		},
		{
			"bufferView":15,
			"componentType":5123,
			"count":36,
			"type":"SCALAR"
		}
	],
	"bufferViews":[
		{
			"buffer":0,
			"byteLength":5652,
			"byteOffset":0,
			"target":34962
		},
		{
			"buffer":0,
			"byteLength":5652,
			"byteOffset":5652,
			"target":34962
		},
		{
			"buffer":0,
			"byteLength":3768,
			"byteOffset":11304,
			"target":34962
		},
		{
			"buffer":0,
			"byteLength":1872,
			"byteOffset":15072,
			"target":34963
		},
		{
			"buffer":0,
			"byteLength":1248,
			"byteOffset":16944,
			"target":34962
		},
		{
			"buffer":0,
			"byteLength":1248,
			"byteOffset":18192,
			"target":34962
		},
		{
			"buffer":0,
			"byteLength":832,
			"byteOffset":19440,
			"target":34962
		},
		{
			"buffer":0,
			"byteLength":504,
			"byteOffset":20272,
			"target":34963
		},
		{
			"buffer":0,
			"byteLength":6384,
			"byteOffset":20776,
			"target":34962
		},
		{
			"buffer":0,
			"byteLength":6384,
			"byteOffset":27160,
			"target":34962
		},
		{
			"buffer":0,
			"byteLength":4256,
			"byteOffset":33544,
			"target":34962
		},
		{
			"buffer":0,
			"byteLength":3228,
			"byteOffset":37800,
			"target":34963
		},
		{
			"buffer":0,
			"byteLength":288,
			"byteOffset":41028,
			"target":34962
		},
		{
			"buffer":0,
			"byteLength":288,
			"byteOffset":41316,
			"target":34962
		},
		{
			"buffer":0,
			"byteLength":192,
			"byteOffset":41604,
			"target":34962
		},
		{
			"buffer":0,
			"byteLength":72,
			"byteOffset":41796,
			"target":34963
		}
	],
	"buffers":[
		{
			"byteLength":41868,
			"uri":"Window01_house03-c62195df9a37e8afd36e54a5e74fdfda.bin"
		}
	]
}
