{
	"asset":{
		"generator":"Khronos glTF Blender I/O v4.3.47",
		"version":"2.0"
	},
	"scene":0,
	"scenes":[
		{
			"name":"Scene",
			"nodes":[
				0
			]
		}
	],
	"nodes":[
		{
			"mesh":0,
			"name":"Window01_house05"
		}
	],
	"materials":[
		{
			"doubleSided":true,
			"name":"Brown_house05",
			"pbrMetallicRoughness":{
				"baseColorFactor":[
					0.34191441535949707,
					0.2015562802553177,
					0.1247718334197998,
					1
				],
				"metallicFactor":0,
				"roughnessFactor":0.5
			}
		},
		{
			"doubleSided":true,
			"name":"Wood_house05",
			"pbrMetallicRoughness":{
				"baseColorFactor":[
					0.7011020183563232,
					0.42869052290916443,
					0.11697068810462952,
					1
				],
				"metallicFactor":0,
				"roughnessFactor":0.5
			}
		},
		{
			"doubleSided":true,
			"name":"Window_house05",
			"pbrMetallicRoughness":{
				"baseColorFactor":[
					0.07558076083660126,
					0.20353354513645172,
					0.7011020183563232,
					1
				],
				"metallicFactor":0,
				"roughnessFactor":0.5
			}
		}
	],
	"meshes":[
		{
			"name":"Cube.012",
			"primitives":[
				{
					"attributes":{
						"POSITION":0,
						"NORMAL":1,
						"TEXCOORD_0":2
					},
					"indices":3,
					"material":0
				},
				{
					"attributes":{
						"POSITION":4,
						"NORMAL":5,
						"TEXCOORD_0":6
					},
					"indices":7,
					"material":1
				},
				{
					"attributes":{
						"POSITION":8,
						"NORMAL":9,
						"TEXCOORD_0":10
					},
					"indices":11,
					"material":2
				}
			]
		}
	],
	"accessors":[
		{
			"bufferView":0,
			"componentType":5126,
			"count":480,
			"max":[
				0.886341392993927,
				0.7001546025276184,
				0.13714733719825745
			],
			"min":[
				-0.886341392993927,
				-0.70494145154953,
				-0.13714733719825745
			],
			"type":"VEC3"
		},
		{
			"bufferView":1,
			"componentType":5126,
			"count":480,
			"type":"VEC3"
		},
		{
			"bufferView":2,
			"componentType":5126,
			"count":480,
			"type":"VEC2"
		},
		{
			"bufferView":3,
			"componentType":5123,
			"count":1392,
			"type":"SCALAR"
		},
		{
			"bufferView":4,
			"componentType":5126,
			"count":228,
			"max":[
				1.5925358533859253,
				0.8504055142402649,
				0.13000011444091797
			],
			"min":[
				-1.5925358533859253,
				-0.9222561717033386,
				-0.13000011444091797
			],
			"type":"VEC3"
		},
		{
			"bufferView":5,
			"componentType":5126,
			"count":228,
			"type":"VEC3"
		},
		{
			"bufferView":6,
			"componentType":5126,
			"count":228,
			"type":"VEC2"
		},
		{
			"bufferView":7,
			"componentType":5123,
			"count":420,
			"type":"SCALAR"
		},
		{
			"bufferView":8,
			"componentType":5126,
			"count":24,
			"max":[
				0.5538879036903381,
				0.4376526474952698,
				0.07322092354297638
			],
			"min":[
				-0.5538879036903381,
				-0.4424394965171814,
				-0.07322092354297638
			],
			"type":"VEC3"
		},
		{
			"bufferView":9,
			"componentType":5126,
			"count":24,
			"type":"VEC3"
		},
		{
			"bufferView":10,
			"componentType":5126,
			"count":24,
			"type":"VEC2"
		},
		{
			"bufferView":11,
			"componentType":5123,
			"count":36,
			"type":"SCALAR"
		}
	],
	"bufferViews":[
		{
			"buffer":0,
			"byteLength":5760,
			"byteOffset":0,
			"target":34962
		},
		{
			"buffer":0,
			"byteLength":5760,
			"byteOffset":5760,
			"target":34962
		},
		{
			"buffer":0,
			"byteLength":3840,
			"byteOffset":11520,
			"target":34962
		},
		{
			"buffer":0,
			"byteLength":2784,
			"byteOffset":15360,
			"target":34963
		},
		{
			"buffer":0,
			"byteLength":2736,
			"byteOffset":18144,
			"target":34962
		},
		{
			"buffer":0,
			"byteLength":2736,
			"byteOffset":20880,
			"target":34962
		},
		{
			"buffer":0,
			"byteLength":1824,
			"byteOffset":23616,
			"target":34962
		},
		{
			"buffer":0,
			"byteLength":840,
			"byteOffset":25440,
			"target":34963
		},
		{
			"buffer":0,
			"byteLength":288,
			"byteOffset":26280,
			"target":34962
		},
		{
			"buffer":0,
			"byteLength":288,
			"byteOffset":26568,
			"target":34962
		},
		{
			"buffer":0,
			"byteLength":192,
			"byteOffset":26856,
			"target":34962
		},
		{
			"buffer":0,
			"byteLength":72,
			"byteOffset":27048,
			"target":34963
		}
	],
	"buffers":[
		{
			"byteLength":27120,
			"uri":"Window01_house5-12c934bd65f7b44cc8c303486213efc7.bin"
		}
	]
}
