{
	"asset":{
		"generator":"Khronos glTF Blender I/O v4.3.47",
		"version":"2.0"
	},
	"scene":0,
	"scenes":[
		{
			"name":"Scene",
			"nodes":[
				0
			]
		}
	],
	"nodes":[
		{
			"mesh":0,
			"name":"Window_house01"
		}
	],
	"materials":[
		{
			"doubleSided":true,
			"name":"LightBrown_House01",
			"pbrMetallicRoughness":{
				"baseColorFactor":[
					0.6724432706832886,
					0.5906189680099487,
					0.5149176716804504,
					1
				],
				"metallicFactor":0,
				"roughnessFactor":0.5
			}
		},
		{
			"doubleSided":true,
			"name":"Cream_House01",
			"pbrMetallicRoughness":{
				"baseColorFactor":[
					0.8713672757148743,
					0.8631572127342224,
					0.84687340259552,
					1
				],
				"metallicFactor":0,
				"roughnessFactor":0.4000000059604645
			}
		},
		{
			"doubleSided":true,
			"name":"Window_House01",
			"pbrMetallicRoughness":{
				"baseColorFactor":[
					0.20863690972328186,
					0.3277781009674072,
					0.6653873324394226,
					1
				],
				"metallicFactor":0,
				"roughnessFactor":0.5
			}
		}
	],
	"meshes":[
		{
			"name":"Cube.003",
			"primitives":[
				{
					"attributes":{
						"POSITION":0,
						"NORMAL":1,
						"TEXCOORD_0":2
					},
					"indices":3,
					"material":0
				},
				{
					"attributes":{
						"POSITION":4,
						"NORMAL":5,
						"TEXCOORD_0":6
					},
					"indices":7,
					"material":1
				},
				{
					"attributes":{
						"POSITION":8,
						"NORMAL":9,
						"TEXCOORD_0":10
					},
					"indices":11,
					"material":2
				}
			]
		}
	],
	"accessors":[
		{
			"bufferView":0,
			"componentType":5126,
			"count":253,
			"max":[
				0.30887481570243835,
				1.4507933855056763,
				1.2879916429519653
			],
			"min":[
				-0.34553268551826477,
				-1.8571523427963257,
				-1.2879918813705444
			],
			"type":"VEC3"
		},
		{
			"bufferView":1,
			"componentType":5126,
			"count":253,
			"type":"VEC3"
		},
		{
			"bufferView":2,
			"componentType":5126,
			"count":253,
			"type":"VEC2"
		},
		{
			"bufferView":3,
			"componentType":5123,
			"count":432,
			"type":"SCALAR"
		},
		{
			"bufferView":4,
			"componentType":5126,
			"count":48,
			"max":[
				0.11204693466424942,
				1.174479603767395,
				1.0506783723831177
			],
			"min":[
				-0.1479531079530716,
				-1.8300318717956543,
				-1.0506782531738281
			],
			"type":"VEC3"
		},
		{
			"bufferView":5,
			"componentType":5126,
			"count":48,
			"type":"VEC3"
		},
		{
			"bufferView":6,
			"componentType":5126,
			"count":48,
			"type":"VEC2"
		},
		{
			"bufferView":7,
			"componentType":5123,
			"count":96,
			"type":"SCALAR"
		},
		{
			"bufferView":8,
			"componentType":5126,
			"count":32,
			"max":[
				0.016651365906000137,
				0.5683858394622803,
				0.5336288213729858
			],
			"min":[
				-0.05330924689769745,
				-0.8007933497428894,
				-0.5336287021636963
			],
			"type":"VEC3"
		},
		{
			"bufferView":9,
			"componentType":5126,
			"count":32,
			"type":"VEC3"
		},
		{
			"bufferView":10,
			"componentType":5126,
			"count":32,
			"type":"VEC2"
		},
		{
			"bufferView":11,
			"componentType":5123,
			"count":60,
			"type":"SCALAR"
		}
	],
	"bufferViews":[
		{
			"buffer":0,
			"byteLength":3036,
			"byteOffset":0,
			"target":34962
		},
		{
			"buffer":0,
			"byteLength":3036,
			"byteOffset":3036,
			"target":34962
		},
		{
			"buffer":0,
			"byteLength":2024,
			"byteOffset":6072,
			"target":34962
		},
		{
			"buffer":0,
			"byteLength":864,
			"byteOffset":8096,
			"target":34963
		},
		{
			"buffer":0,
			"byteLength":576,
			"byteOffset":8960,
			"target":34962
		},
		{
			"buffer":0,
			"byteLength":576,
			"byteOffset":9536,
			"target":34962
		},
		{
			"buffer":0,
			"byteLength":384,
			"byteOffset":10112,
			"target":34962
		},
		{
			"buffer":0,
			"byteLength":192,
			"byteOffset":10496,
			"target":34963
		},
		{
			"buffer":0,
			"byteLength":384,
			"byteOffset":10688,
			"target":34962
		},
		{
			"buffer":0,
			"byteLength":384,
			"byteOffset":11072,
			"target":34962
		},
		{
			"buffer":0,
			"byteLength":256,
			"byteOffset":11456,
			"target":34962
		},
		{
			"buffer":0,
			"byteLength":120,
			"byteOffset":11712,
			"target":34963
		}
	],
	"buffers":[
		{
			"byteLength":11832,
			"uri":"Window_house01-367742498171f3a821e6a291a32b0646.bin"
		}
	]
}
