{
	"asset":{
		"generator":"Khronos glTF Blender I/O v4.3.47",
		"version":"2.0"
	},
	"extensionsUsed":[
		"KHR_lights_punctual"
	],
	"extensionsRequired":[
		"KHR_lights_punctual"
	],
	"extensions":{
		"KHR_lights_punctual":{
			"lights":[
				{
					"color":[
						1,
						1,
						1
					],
					"intensity":54351.41306588226,
					"type":"point",
					"name":"Light"
				}
			]
		}
	},
	"scene":0,
	"scenes":[
		{
			"name":"Scene",
			"nodes":[
				0,
				1,
				2
			]
		}
	],
	"nodes":[
		{
			"extensions":{
				"KHR_lights_punctual":{
					"light":0
				}
			},
			"name":"Light",
			"rotation":[
				-0.28416627645492554,
				0.7269423007965088,
				0.34203392267227173,
				0.5232754945755005
			],
			"translation":[
				4.076245307922363,
				5.903861999511719,
				-1.0054539442062378
			]
		},
		{
			"camera":0,
			"name":"Camera",
			"rotation":[
				-0.20997299253940582,
				0.3857799470424652,
				0.09062844514846802,
				0.8937962055206299
			],
			"translation":[
				7.358891487121582,
				4.958309173583984,
				6.925790786743164
			]
		},
		{
			"mesh":0,
			"name":"Window02_house3",
			"scale":[
				0.39858704805374146,
				1,
				1.5113115310668945
			]
		}
	],
	"cameras":[
		{
			"name":"Camera",
			"perspective":{
				"aspectRatio":1.7777777777777777,
				"yfov":0.39959652046304894,
				"zfar":100,
				"znear":0.10000000149011612
			},
			"type":"perspective"
		}
	],
	"materials":[
		{
			"doubleSided":true,
			"name":"Wood_house03",
			"pbrMetallicRoughness":{
				"baseColorFactor":[
					0.7304609417915344,
					0.5840784907341003,
					0.4125426411628723,
					1
				],
				"metallicFactor":0,
				"roughnessFactor":0.5
			}
		},
		{
			"doubleSided":true,
			"name":"Window_house03",
			"pbrMetallicRoughness":{
				"baseColorFactor":[
					0.5149176716804504,
					0.6514057517051697,
					0.7912980914115906,
					1
				],
				"metallicFactor":0,
				"roughnessFactor":0.5
			}
		},
		{
			"doubleSided":true,
			"name":"Cream_house03",
			"pbrMetallicRoughness":{
				"baseColorFactor":[
					0.8962693810462952,
					0.8796226382255554,
					0.760524570941925,
					1
				],
				"metallicFactor":0,
				"roughnessFactor":0.5
			}
		},
		{
			"doubleSided":true,
			"name":"Green_house03",
			"pbrMetallicRoughness":{
				"baseColorFactor":[
					0.5088812708854675,
					0.7304609417915344,
					0.597201943397522,
					1
				],
				"metallicFactor":0,
				"roughnessFactor":0.4000000059604645
			}
		}
	],
	"meshes":[
		{
			"name":"Cube.006",
			"primitives":[
				{
					"attributes":{
						"POSITION":0,
						"NORMAL":1,
						"TEXCOORD_0":2
					},
					"indices":3,
					"material":0
				},
				{
					"attributes":{
						"POSITION":4,
						"NORMAL":5,
						"TEXCOORD_0":6
					},
					"indices":7,
					"material":1
				},
				{
					"attributes":{
						"POSITION":8,
						"NORMAL":9,
						"TEXCOORD_0":10
					},
					"indices":11,
					"material":2
				},
				{
					"attributes":{
						"POSITION":12,
						"NORMAL":13,
						"TEXCOORD_0":14
					},
					"indices":15,
					"material":3
				}
			]
		}
	],
	"accessors":[
		{
			"bufferView":0,
			"componentType":5126,
			"count":296,
			"max":[
				0.26875749230384827,
				1.7703067064285278,
				1
			],
			"min":[
				-0.23459841310977936,
				-1.5503392219543457,
				-1
			],
			"type":"VEC3"
		},
		{
			"bufferView":1,
			"componentType":5126,
			"count":296,
			"type":"VEC3"
		},
		{
			"bufferView":2,
			"componentType":5126,
			"count":296,
			"type":"VEC2"
		},
		{
			"bufferView":3,
			"componentType":5123,
			"count":636,
			"type":"SCALAR"
		},
		{
			"bufferView":4,
			"componentType":5126,
			"count":48,
			"max":[
				0.05780421197414398,
				1.70030677318573,
				0.9399999976158142
			],
			"min":[
				-0.023645151406526566,
				-1.4903395175933838,
				-0.9399999976158142
			],
			"type":"VEC3"
		},
		{
			"bufferView":5,
			"componentType":5126,
			"count":48,
			"type":"VEC3"
		},
		{
			"bufferView":6,
			"componentType":5126,
			"count":48,
			"type":"VEC2"
		},
		{
			"bufferView":7,
			"componentType":5123,
			"count":72,
			"type":"SCALAR"
		},
		{
			"bufferView":8,
			"componentType":5126,
			"count":88,
			"max":[
				0.6809827089309692,
				3.3514723777770996,
				1.799790382385254
			],
			"min":[
				-0.7663804292678833,
				-2.9482622146606445,
				-1.799790382385254
			],
			"type":"VEC3"
		},
		{
			"bufferView":9,
			"componentType":5126,
			"count":88,
			"type":"VEC3"
		},
		{
			"bufferView":10,
			"componentType":5126,
			"count":88,
			"type":"VEC2"
		},
		{
			"bufferView":11,
			"componentType":5123,
			"count":192,
			"type":"SCALAR"
		},
		{
			"bufferView":12,
			"componentType":5126,
			"count":48,
			"max":[
				0.8933952450752258,
				0.36371922492980957,
				1.8457751274108887
			],
			"min":[
				-0.9787928462028503,
				-2.960508346557617,
				-1.8457750082015991
			],
			"type":"VEC3"
		},
		{
			"bufferView":13,
			"componentType":5126,
			"count":48,
			"type":"VEC3"
		},
		{
			"bufferView":14,
			"componentType":5126,
			"count":48,
			"type":"VEC2"
		},
		{
			"bufferView":15,
			"componentType":5123,
			"count":72,
			"type":"SCALAR"
		}
	],
	"bufferViews":[
		{
			"buffer":0,
			"byteLength":3552,
			"byteOffset":0,
			"target":34962
		},
		{
			"buffer":0,
			"byteLength":3552,
			"byteOffset":3552,
			"target":34962
		},
		{
			"buffer":0,
			"byteLength":2368,
			"byteOffset":7104,
			"target":34962
		},
		{
			"buffer":0,
			"byteLength":1272,
			"byteOffset":9472,
			"target":34963
		},
		{
			"buffer":0,
			"byteLength":576,
			"byteOffset":10744,
			"target":34962
		},
		{
			"buffer":0,
			"byteLength":576,
			"byteOffset":11320,
			"target":34962
		},
		{
			"buffer":0,
			"byteLength":384,
			"byteOffset":11896,
			"target":34962
		},
		{
			"buffer":0,
			"byteLength":144,
			"byteOffset":12280,
			"target":34963
		},
		{
			"buffer":0,
			"byteLength":1056,
			"byteOffset":12424,
			"target":34962
		},
		{
			"buffer":0,
			"byteLength":1056,
			"byteOffset":13480,
			"target":34962
		},
		{
			"buffer":0,
			"byteLength":704,
			"byteOffset":14536,
			"target":34962
		},
		{
			"buffer":0,
			"byteLength":384,
			"byteOffset":15240,
			"target":34963
		},
		{
			"buffer":0,
			"byteLength":576,
			"byteOffset":15624,
			"target":34962
		},
		{
			"buffer":0,
			"byteLength":576,
			"byteOffset":16200,
			"target":34962
		},
		{
			"buffer":0,
			"byteLength":384,
			"byteOffset":16776,
			"target":34962
		},
		{
			"buffer":0,
			"byteLength":144,
			"byteOffset":17160,
			"target":34963
		}
	],
	"buffers":[
		{
			"byteLength":17304,
			"uri":"Window02_house3-e06deb96288c1da161f3bd93d900f8f1.bin"
		}
	]
}
