{
	"asset":{
		"generator":"Khronos glTF Blender I/O v4.3.47",
		"version":"2.0"
	},
	"extensionsUsed":[
		"KHR_lights_punctual"
	],
	"extensionsRequired":[
		"KHR_lights_punctual"
	],
	"extensions":{
		"KHR_lights_punctual":{
			"lights":[
				{
					"color":[
						1,
						1,
						1
					],
					"intensity":54351.41306588226,
					"type":"point",
					"name":"Light"
				}
			]
		}
	},
	"scene":0,
	"scenes":[
		{
			"name":"Scene",
			"nodes":[
				0,
				1,
				2
			]
		}
	],
	"nodes":[
		{
			"extensions":{
				"KHR_lights_punctual":{
					"light":0
				}
			},
			"name":"Light",
			"rotation":[
				-0.28416627645492554,
				0.7269423007965088,
				0.34203392267227173,
				0.5232754945755005
			],
			"translation":[
				4.076245307922363,
				5.903861999511719,
				-1.0054539442062378
			]
		},
		{
			"camera":0,
			"name":"Camera",
			"rotation":[
				-0.20997299253940582,
				0.3857799470424652,
				0.09062844514846802,
				0.8937962055206299
			],
			"translation":[
				7.358891487121582,
				4.958309173583984,
				6.925790786743164
			]
		},
		{
			"mesh":0,
			"name":"Window03_house04"
		}
	],
	"cameras":[
		{
			"name":"Camera",
			"perspective":{
				"aspectRatio":1.7777777777777777,
				"yfov":0.39959652046304894,
				"zfar":100,
				"znear":0.10000000149011612
			},
			"type":"perspective"
		}
	],
	"materials":[
		{
			"doubleSided":true,
			"name":"Wood_house04",
			"pbrMetallicRoughness":{
				"baseColorFactor":[
					0.6938718557357788,
					0.5583405494689941,
					0.29177066683769226,
					1
				],
				"metallicFactor":0,
				"roughnessFactor":0.5
			}
		},
		{
			"doubleSided":true,
			"name":"Cream_house04",
			"pbrMetallicRoughness":{
				"baseColorFactor":[
					0.8796226382255554,
					0.8713672757148743,
					0.8307698369026184,
					1
				],
				"metallicFactor":0,
				"roughnessFactor":0.5
			}
		},
		{
			"doubleSided":true,
			"name":"Window_house04",
			"pbrMetallicRoughness":{
				"baseColorFactor":[
					0.31398868560791016,
					0.40724021196365356,
					0.6724432706832886,
					1
				],
				"metallicFactor":0,
				"roughnessFactor":0.5
			}
		}
	],
	"meshes":[
		{
			"name":"Cube.013",
			"primitives":[
				{
					"attributes":{
						"POSITION":0,
						"NORMAL":1,
						"TEXCOORD_0":2
					},
					"indices":3,
					"material":0
				},
				{
					"attributes":{
						"POSITION":4,
						"NORMAL":5,
						"TEXCOORD_0":6
					},
					"indices":7,
					"material":1
				},
				{
					"attributes":{
						"POSITION":8,
						"NORMAL":9,
						"TEXCOORD_0":10
					},
					"indices":11,
					"material":2
				}
			]
		}
	],
	"accessors":[
		{
			"bufferView":0,
			"componentType":5126,
			"count":216,
			"max":[
				2.7327921390533447,
				0.7064424753189087,
				0.1834016889333725
			],
			"min":[
				-2.7327921390533447,
				-0.7114676237106323,
				-0.1801341325044632
			],
			"type":"VEC3"
		},
		{
			"bufferView":1,
			"componentType":5126,
			"count":216,
			"type":"VEC3"
		},
		{
			"bufferView":2,
			"componentType":5126,
			"count":216,
			"type":"VEC2"
		},
		{
			"bufferView":3,
			"componentType":5123,
			"count":396,
			"type":"SCALAR"
		},
		{
			"bufferView":4,
			"componentType":5126,
			"count":336,
			"max":[
				1.529961347579956,
				0.5530549883842468,
				0.2403607815504074
			],
			"min":[
				-1.529961347579956,
				-0.5462521910667419,
				-0.2370932251214981
			],
			"type":"VEC3"
		},
		{
			"bufferView":5,
			"componentType":5126,
			"count":336,
			"type":"VEC3"
		},
		{
			"bufferView":6,
			"componentType":5126,
			"count":336,
			"type":"VEC2"
		},
		{
			"bufferView":7,
			"componentType":5123,
			"count":600,
			"type":"SCALAR"
		},
		{
			"bufferView":8,
			"componentType":5126,
			"count":24,
			"max":[
				1.4406540393829346,
				0.48859158158302307,
				0.012065878137946129
			],
			"min":[
				-1.4406540393829346,
				-0.4817887246608734,
				-0.008798320777714252
			],
			"type":"VEC3"
		},
		{
			"bufferView":9,
			"componentType":5126,
			"count":24,
			"type":"VEC3"
		},
		{
			"bufferView":10,
			"componentType":5126,
			"count":24,
			"type":"VEC2"
		},
		{
			"bufferView":11,
			"componentType":5123,
			"count":36,
			"type":"SCALAR"
		}
	],
	"bufferViews":[
		{
			"buffer":0,
			"byteLength":2592,
			"byteOffset":0,
			"target":34962
		},
		{
			"buffer":0,
			"byteLength":2592,
			"byteOffset":2592,
			"target":34962
		},
		{
			"buffer":0,
			"byteLength":1728,
			"byteOffset":5184,
			"target":34962
		},
		{
			"buffer":0,
			"byteLength":792,
			"byteOffset":6912,
			"target":34963
		},
		{
			"buffer":0,
			"byteLength":4032,
			"byteOffset":7704,
			"target":34962
		},
		{
			"buffer":0,
			"byteLength":4032,
			"byteOffset":11736,
			"target":34962
		},
		{
			"buffer":0,
			"byteLength":2688,
			"byteOffset":15768,
			"target":34962
		},
		{
			"buffer":0,
			"byteLength":1200,
			"byteOffset":18456,
			"target":34963
		},
		{
			"buffer":0,
			"byteLength":288,
			"byteOffset":19656,
			"target":34962
		},
		{
			"buffer":0,
			"byteLength":288,
			"byteOffset":19944,
			"target":34962
		},
		{
			"buffer":0,
			"byteLength":192,
			"byteOffset":20232,
			"target":34962
		},
		{
			"buffer":0,
			"byteLength":72,
			"byteOffset":20424,
			"target":34963
		}
	],
	"buffers":[
		{
			"byteLength":20496,
			"uri":"Window03_house4-442647fb5daa157ee43594d52aa8fa30.bin"
		}
	]
}
