{
	"asset":{
		"generator":"Khronos glTF Blender I/O v4.3.47",
		"version":"2.0"
	},
	"extensionsUsed":[
		"KHR_lights_punctual"
	],
	"extensionsRequired":[
		"KHR_lights_punctual"
	],
	"extensions":{
		"KHR_lights_punctual":{
			"lights":[
				{
					"color":[
						1,
						1,
						1
					],
					"intensity":54351.41306588226,
					"type":"point",
					"name":"Light"
				}
			]
		}
	},
	"scene":0,
	"scenes":[
		{
			"name":"Scene",
			"nodes":[
				0,
				1,
				2
			]
		}
	],
	"nodes":[
		{
			"extensions":{
				"KHR_lights_punctual":{
					"light":0
				}
			},
			"name":"Light",
			"rotation":[
				-0.28416627645492554,
				0.7269423007965088,
				0.34203392267227173,
				0.5232754945755005
			],
			"translation":[
				4.076245307922363,
				5.903861999511719,
				-1.0054539442062378
			]
		},
		{
			"camera":0,
			"name":"Camera",
			"rotation":[
				-0.20997299253940582,
				0.3857799470424652,
				0.09062844514846802,
				0.8937962055206299
			],
			"translation":[
				7.358891487121582,
				4.958309173583984,
				6.925790786743164
			]
		},
		{
			"mesh":0,
			"name":"Window01_house04"
		}
	],
	"cameras":[
		{
			"name":"Camera",
			"perspective":{
				"aspectRatio":1.7777777777777777,
				"yfov":0.39959652046304894,
				"zfar":100,
				"znear":0.10000000149011612
			},
			"type":"perspective"
		}
	],
	"materials":[
		{
			"doubleSided":true,
			"name":"Cream_house04",
			"pbrMetallicRoughness":{
				"baseColorFactor":[
					0.8796226382255554,
					0.8713672757148743,
					0.8307698369026184,
					1
				],
				"metallicFactor":0,
				"roughnessFactor":0.5
			}
		},
		{
			"doubleSided":true,
			"name":"Window_house04",
			"pbrMetallicRoughness":{
				"baseColorFactor":[
					0.31398868560791016,
					0.40724021196365356,
					0.6724432706832886,
					1
				],
				"metallicFactor":0,
				"roughnessFactor":0.5
			}
		},
		{
			"doubleSided":true,
			"name":"Wood_house04",
			"pbrMetallicRoughness":{
				"baseColorFactor":[
					0.6938718557357788,
					0.5583405494689941,
					0.29177066683769226,
					1
				],
				"metallicFactor":0,
				"roughnessFactor":0.5
			}
		}
	],
	"meshes":[
		{
			"name":"Cube.002",
			"primitives":[
				{
					"attributes":{
						"POSITION":0,
						"NORMAL":1,
						"TEXCOORD_0":2
					},
					"indices":3,
					"material":0
				},
				{
					"attributes":{
						"POSITION":4,
						"NORMAL":5,
						"TEXCOORD_0":6
					},
					"indices":7,
					"material":1
				},
				{
					"attributes":{
						"POSITION":8,
						"NORMAL":9,
						"TEXCOORD_0":10
					},
					"indices":11,
					"material":2
				}
			]
		}
	],
	"accessors":[
		{
			"bufferView":0,
			"componentType":5126,
			"count":400,
			"max":[
				1.1588627099990845,
				1.1829917430877686,
				0.3762875497341156
			],
			"min":[
				-1.1668163537979126,
				-1.1815330982208252,
				-0.3762875497341156
			],
			"type":"VEC3"
		},
		{
			"bufferView":1,
			"componentType":5126,
			"count":400,
			"type":"VEC3"
		},
		{
			"bufferView":2,
			"componentType":5126,
			"count":400,
			"type":"VEC2"
		},
		{
			"bufferView":3,
			"componentType":5123,
			"count":792,
			"type":"SCALAR"
		},
		{
			"bufferView":4,
			"componentType":5126,
			"count":24,
			"max":[
				0.9600955843925476,
				1.0462285280227661,
				0.0020468079019337893
			],
			"min":[
				-1.0399043560028076,
				-1.349281907081604,
				-0.0020468037109822035
			],
			"type":"VEC3"
		},
		{
			"bufferView":5,
			"componentType":5126,
			"count":24,
			"type":"VEC3"
		},
		{
			"bufferView":6,
			"componentType":5126,
			"count":24,
			"type":"VEC2"
		},
		{
			"bufferView":7,
			"componentType":5123,
			"count":36,
			"type":"SCALAR"
		},
		{
			"bufferView":8,
			"componentType":5126,
			"count":472,
			"max":[
				1.7478126287460327,
				1.5009546279907227,
				0.197836771607399
			],
			"min":[
				-1.7557662725448608,
				-1.8040080070495605,
				-0.197836771607399
			],
			"type":"VEC3"
		},
		{
			"bufferView":9,
			"componentType":5126,
			"count":472,
			"type":"VEC3"
		},
		{
			"bufferView":10,
			"componentType":5126,
			"count":472,
			"type":"VEC2"
		},
		{
			"bufferView":11,
			"componentType":5123,
			"count":936,
			"type":"SCALAR"
		}
	],
	"bufferViews":[
		{
			"buffer":0,
			"byteLength":4800,
			"byteOffset":0,
			"target":34962
		},
		{
			"buffer":0,
			"byteLength":4800,
			"byteOffset":4800,
			"target":34962
		},
		{
			"buffer":0,
			"byteLength":3200,
			"byteOffset":9600,
			"target":34962
		},
		{
			"buffer":0,
			"byteLength":1584,
			"byteOffset":12800,
			"target":34963
		},
		{
			"buffer":0,
			"byteLength":288,
			"byteOffset":14384,
			"target":34962
		},
		{
			"buffer":0,
			"byteLength":288,
			"byteOffset":14672,
			"target":34962
		},
		{
			"buffer":0,
			"byteLength":192,
			"byteOffset":14960,
			"target":34962
		},
		{
			"buffer":0,
			"byteLength":72,
			"byteOffset":15152,
			"target":34963
		},
		{
			"buffer":0,
			"byteLength":5664,
			"byteOffset":15224,
			"target":34962
		},
		{
			"buffer":0,
			"byteLength":5664,
			"byteOffset":20888,
			"target":34962
		},
		{
			"buffer":0,
			"byteLength":3776,
			"byteOffset":26552,
			"target":34962
		},
		{
			"buffer":0,
			"byteLength":1872,
			"byteOffset":30328,
			"target":34963
		}
	],
	"buffers":[
		{
			"byteLength":32200,
			"uri":"Window01_house4-41a337ce590d22e0636b9e72b504ed99.bin"
		}
	]
}
