{
	"asset":{
		"generator":"Khronos glTF Blender I/O v4.3.47",
		"version":"2.0"
	},
	"scene":0,
	"scenes":[
		{
			"name":"Scene",
			"nodes":[
				0
			]
		}
	],
	"nodes":[
		{
			"mesh":0,
			"name":"Window04_house05"
		}
	],
	"materials":[
		{
			"doubleSided":true,
			"name":"Cream_house05",
			"pbrMetallicRoughness":{
				"baseColorFactor":[
					0.8713672757148743,
					0.6172067523002625,
					0.35153263807296753,
					1
				],
				"metallicFactor":0,
				"roughnessFactor":0.5
			}
		},
		{
			"doubleSided":true,
			"name":"Wood_house05",
			"pbrMetallicRoughness":{
				"baseColorFactor":[
					0.7011020183563232,
					0.42869052290916443,
					0.11697068810462952,
					1
				],
				"metallicFactor":0,
				"roughnessFactor":0.5
			}
		},
		{
			"doubleSided":true,
			"name":"Window_house05",
			"pbrMetallicRoughness":{
				"baseColorFactor":[
					0.07558076083660126,
					0.20353354513645172,
					0.7011020183563232,
					1
				],
				"metallicFactor":0,
				"roughnessFactor":0.5
			}
		}
	],
	"meshes":[
		{
			"name":"Cube.017",
			"primitives":[
				{
					"attributes":{
						"POSITION":0,
						"NORMAL":1,
						"TEXCOORD_0":2
					},
					"indices":3,
					"material":0
				},
				{
					"attributes":{
						"POSITION":4,
						"NORMAL":5,
						"TEXCOORD_0":6
					},
					"indices":7,
					"material":1
				},
				{
					"attributes":{
						"POSITION":8,
						"NORMAL":9,
						"TEXCOORD_0":10
					},
					"indices":11,
					"material":2
				}
			]
		}
	],
	"accessors":[
		{
			"bufferView":0,
			"componentType":5126,
			"count":308,
			"max":[
				0.9969022274017334,
				0.9314911365509033,
				0.055283766239881516
			],
			"min":[
				-0.9969022274017334,
				-1.382462978363037,
				-0.055283766239881516
			],
			"type":"VEC3"
		},
		{
			"bufferView":1,
			"componentType":5126,
			"count":308,
			"type":"VEC3"
		},
		{
			"bufferView":2,
			"componentType":5126,
			"count":308,
			"type":"VEC2"
		},
		{
			"bufferView":3,
			"componentType":5123,
			"count":852,
			"type":"SCALAR"
		},
		{
			"bufferView":4,
			"componentType":5126,
			"count":400,
			"max":[
				1.5479449033737183,
				1.4941248893737793,
				0.12636011838912964
			],
			"min":[
				-1.5479449033737183,
				-1.4262603521347046,
				-0.12636011838912964
			],
			"type":"VEC3"
		},
		{
			"bufferView":5,
			"componentType":5126,
			"count":400,
			"type":"VEC3"
		},
		{
			"bufferView":6,
			"componentType":5126,
			"count":400,
			"type":"VEC2"
		},
		{
			"bufferView":7,
			"componentType":5123,
			"count":720,
			"type":"SCALAR"
		},
		{
			"bufferView":8,
			"componentType":5126,
			"count":24,
			"max":[
				0.902709424495697,
				0.9545988440513611,
				0.013240386731922626
			],
			"min":[
				-0.9027095437049866,
				-1.325897216796875,
				-0.013240386731922626
			],
			"type":"VEC3"
		},
		{
			"bufferView":9,
			"componentType":5126,
			"count":24,
			"type":"VEC3"
		},
		{
			"bufferView":10,
			"componentType":5126,
			"count":24,
			"type":"VEC2"
		},
		{
			"bufferView":11,
			"componentType":5123,
			"count":36,
			"type":"SCALAR"
		}
	],
	"bufferViews":[
		{
			"buffer":0,
			"byteLength":3696,
			"byteOffset":0,
			"target":34962
		},
		{
			"buffer":0,
			"byteLength":3696,
			"byteOffset":3696,
			"target":34962
		},
		{
			"buffer":0,
			"byteLength":2464,
			"byteOffset":7392,
			"target":34962
		},
		{
			"buffer":0,
			"byteLength":1704,
			"byteOffset":9856,
			"target":34963
		},
		{
			"buffer":0,
			"byteLength":4800,
			"byteOffset":11560,
			"target":34962
		},
		{
			"buffer":0,
			"byteLength":4800,
			"byteOffset":16360,
			"target":34962
		},
		{
			"buffer":0,
			"byteLength":3200,
			"byteOffset":21160,
			"target":34962
		},
		{
			"buffer":0,
			"byteLength":1440,
			"byteOffset":24360,
			"target":34963
		},
		{
			"buffer":0,
			"byteLength":288,
			"byteOffset":25800,
			"target":34962
		},
		{
			"buffer":0,
			"byteLength":288,
			"byteOffset":26088,
			"target":34962
		},
		{
			"buffer":0,
			"byteLength":192,
			"byteOffset":26376,
			"target":34962
		},
		{
			"buffer":0,
			"byteLength":72,
			"byteOffset":26568,
			"target":34963
		}
	],
	"buffers":[
		{
			"byteLength":26640,
			"uri":"Window04_house5-15a86247901707ebb5008de1a6ef93c1.bin"
		}
	]
}
