{
	"asset":{
		"generator":"Khronos glTF Blender I/O v4.3.47",
		"version":"2.0"
	},
	"scene":0,
	"scenes":[
		{
			"name":"Scene",
			"nodes":[
				0
			]
		}
	],
	"nodes":[
		{
			"mesh":0,
			"name":"Window03_house05",
			"scale":[
				0.5,
				0.5,
				0.5
			]
		}
	],
	"materials":[
		{
			"doubleSided":true,
			"name":"Wood_house05",
			"pbrMetallicRoughness":{
				"baseColorFactor":[
					0.7011020183563232,
					0.42869052290916443,
					0.11697068810462952,
					1
				],
				"metallicFactor":0,
				"roughnessFactor":0.5
			}
		},
		{
			"doubleSided":true,
			"name":"Cream_house05",
			"pbrMetallicRoughness":{
				"baseColorFactor":[
					0.8713672757148743,
					0.6172067523002625,
					0.35153263807296753,
					1
				],
				"metallicFactor":0,
				"roughnessFactor":0.5
			}
		},
		{
			"doubleSided":true,
			"name":"Window_house05",
			"pbrMetallicRoughness":{
				"baseColorFactor":[
					0.07558076083660126,
					0.20353354513645172,
					0.7011020183563232,
					1
				],
				"metallicFactor":0,
				"roughnessFactor":0.5
			}
		}
	],
	"meshes":[
		{
			"name":"Cube.029",
			"primitives":[
				{
					"attributes":{
						"POSITION":0,
						"NORMAL":1,
						"TEXCOORD_0":2
					},
					"indices":3,
					"material":0
				},
				{
					"attributes":{
						"POSITION":4,
						"NORMAL":5,
						"TEXCOORD_0":6
					},
					"indices":7,
					"material":1
				},
				{
					"attributes":{
						"POSITION":8,
						"NORMAL":9,
						"TEXCOORD_0":10
					},
					"indices":11,
					"material":2
				}
			]
		}
	],
	"accessors":[
		{
			"bufferView":0,
			"componentType":5126,
			"count":360,
			"max":[
				3.1850717067718506,
				3.4564015865325928,
				0.26000022888183594
			],
			"min":[
				-3.1850717067718506,
				-2.5526211261749268,
				-0.2600002884864807
			],
			"type":"VEC3"
		},
		{
			"bufferView":1,
			"componentType":5126,
			"count":360,
			"type":"VEC3"
		},
		{
			"bufferView":2,
			"componentType":5126,
			"count":360,
			"type":"VEC2"
		},
		{
			"bufferView":3,
			"componentType":5123,
			"count":636,
			"type":"SCALAR"
		},
		{
			"bufferView":4,
			"componentType":5126,
			"count":160,
			"max":[
				2.28664231300354,
				1.8414361476898193,
				0.31605157256126404
			],
			"min":[
				-2.28664231300354,
				-2.565176010131836,
				-0.31605157256126404
			],
			"type":"VEC3"
		},
		{
			"bufferView":5,
			"componentType":5126,
			"count":160,
			"type":"VEC3"
		},
		{
			"bufferView":6,
			"componentType":5126,
			"count":160,
			"type":"VEC2"
		},
		{
			"bufferView":7,
			"componentType":5123,
			"count":408,
			"type":"SCALAR"
		},
		{
			"bufferView":8,
			"componentType":5126,
			"count":24,
			"max":[
				2.2367169857025146,
				1.798906683921814,
				0.05235045403242111
			],
			"min":[
				-2.2367169857025146,
				-2.513995885848999,
				-0.05235045403242111
			],
			"type":"VEC3"
		},
		{
			"bufferView":9,
			"componentType":5126,
			"count":24,
			"type":"VEC3"
		},
		{
			"bufferView":10,
			"componentType":5126,
			"count":24,
			"type":"VEC2"
		},
		{
			"bufferView":11,
			"componentType":5123,
			"count":36,
			"type":"SCALAR"
		}
	],
	"bufferViews":[
		{
			"buffer":0,
			"byteLength":4320,
			"byteOffset":0,
			"target":34962
		},
		{
			"buffer":0,
			"byteLength":4320,
			"byteOffset":4320,
			"target":34962
		},
		{
			"buffer":0,
			"byteLength":2880,
			"byteOffset":8640,
			"target":34962
		},
		{
			"buffer":0,
			"byteLength":1272,
			"byteOffset":11520,
			"target":34963
		},
		{
			"buffer":0,
			"byteLength":1920,
			"byteOffset":12792,
			"target":34962
		},
		{
			"buffer":0,
			"byteLength":1920,
			"byteOffset":14712,
			"target":34962
		},
		{
			"buffer":0,
			"byteLength":1280,
			"byteOffset":16632,
			"target":34962
		},
		{
			"buffer":0,
			"byteLength":816,
			"byteOffset":17912,
			"target":34963
		},
		{
			"buffer":0,
			"byteLength":288,
			"byteOffset":18728,
			"target":34962
		},
		{
			"buffer":0,
			"byteLength":288,
			"byteOffset":19016,
			"target":34962
		},
		{
			"buffer":0,
			"byteLength":192,
			"byteOffset":19304,
			"target":34962
		},
		{
			"buffer":0,
			"byteLength":72,
			"byteOffset":19496,
			"target":34963
		}
	],
	"buffers":[
		{
			"byteLength":19568,
			"uri":"Window03_house5-d0ad899710146ab7a0e4d205eab71936.bin"
		}
	]
}
