{
	"asset":{
		"generator":"Khronos glTF Blender I/O v4.3.47",
		"version":"2.0"
	},
	"extensionsUsed":[
		"KHR_lights_punctual"
	],
	"extensionsRequired":[
		"KHR_lights_punctual"
	],
	"extensions":{
		"KHR_lights_punctual":{
			"lights":[
				{
					"color":[
						1,
						1,
						1
					],
					"intensity":54351.41306588226,
					"type":"point",
					"name":"Light"
				}
			]
		}
	},
	"scene":0,
	"scenes":[
		{
			"name":"Scene",
			"nodes":[
				0,
				1,
				2
			]
		}
	],
	"nodes":[
		{
			"extensions":{
				"KHR_lights_punctual":{
					"light":0
				}
			},
			"name":"Light",
			"rotation":[
				-0.28416627645492554,
				0.7269423007965088,
				0.34203392267227173,
				0.5232754945755005
			],
			"translation":[
				4.076245307922363,
				5.903861999511719,
				-1.0054539442062378
			]
		},
		{
			"camera":0,
			"name":"Camera",
			"rotation":[
				-0.20997299253940582,
				0.3857799470424652,
				0.09062844514846802,
				0.8937962055206299
			],
			"translation":[
				7.358891487121582,
				4.958309173583984,
				6.925790786743164
			]
		},
		{
			"mesh":0,
			"name":"Window01_house02"
		}
	],
	"cameras":[
		{
			"name":"Camera",
			"perspective":{
				"aspectRatio":1.7777777777777777,
				"yfov":0.39959652046304894,
				"zfar":100,
				"znear":0.10000000149011612
			},
			"type":"perspective"
		}
	],
	"materials":[
		{
			"doubleSided":true,
			"name":"Gray_House02",
			"pbrMetallicRoughness":{
				"baseColorFactor":[
					0.5840784907341003,
					0.5775806307792664,
					0.5520114898681641,
					1
				],
				"metallicFactor":0,
				"roughnessFactor":0.5
			}
		},
		{
			"doubleSided":true,
			"name":"Brown_House02",
			"pbrMetallicRoughness":{
				"baseColorFactor":[
					0.47353148460388184,
					0.28744083642959595,
					0.17788845300674438,
					1
				],
				"metallicFactor":0,
				"roughnessFactor":0.5
			}
		},
		{
			"doubleSided":true,
			"name":"Cream_House02",
			"pbrMetallicRoughness":{
				"baseColorFactor":[
					0.8796226382255554,
					0.854992687702179,
					0.7379105091094971,
					1
				],
				"metallicFactor":0,
				"roughnessFactor":0.5
			}
		},
		{
			"doubleSided":true,
			"name":"Window_House02",
			"pbrMetallicRoughness":{
				"baseColorFactor":[
					0.2614840865135193,
					0.33923548460006714,
					0.597201943397522,
					1
				],
				"metallicFactor":0,
				"roughnessFactor":0.5
			}
		}
	],
	"meshes":[
		{
			"name":"Cube.001",
			"primitives":[
				{
					"attributes":{
						"POSITION":0,
						"NORMAL":1,
						"TEXCOORD_0":2
					},
					"indices":3,
					"material":0
				},
				{
					"attributes":{
						"POSITION":4,
						"NORMAL":5,
						"TEXCOORD_0":6
					},
					"indices":7,
					"material":1
				},
				{
					"attributes":{
						"POSITION":8,
						"NORMAL":9,
						"TEXCOORD_0":10
					},
					"indices":11,
					"material":2
				},
				{
					"attributes":{
						"POSITION":12,
						"NORMAL":13,
						"TEXCOORD_0":14
					},
					"indices":15,
					"material":3
				}
			]
		}
	],
	"accessors":[
		{
			"bufferView":0,
			"componentType":5126,
			"count":100,
			"max":[
				0.1681787520647049,
				1.4814186096191406,
				2.395238161087036
			],
			"min":[
				-0.17352522909641266,
				-2.1911590099334717,
				-2.414597511291504
			],
			"type":"VEC3"
		},
		{
			"bufferView":1,
			"componentType":5126,
			"count":100,
			"type":"VEC3"
		},
		{
			"bufferView":2,
			"componentType":5126,
			"count":100,
			"type":"VEC2"
		},
		{
			"bufferView":3,
			"componentType":5123,
			"count":246,
			"type":"SCALAR"
		},
		{
			"bufferView":4,
			"componentType":5126,
			"count":660,
			"max":[
				0.06892789900302887,
				0.869224488735199,
				1.4797059297561646
			],
			"min":[
				-0.07319673150777817,
				-0.6524882316589355,
				-1.453660011291504
			],
			"type":"VEC3"
		},
		{
			"bufferView":5,
			"componentType":5126,
			"count":660,
			"type":"VEC3"
		},
		{
			"bufferView":6,
			"componentType":5126,
			"count":660,
			"type":"VEC2"
		},
		{
			"bufferView":7,
			"componentType":5123,
			"count":1422,
			"type":"SCALAR"
		},
		{
			"bufferView":8,
			"componentType":5126,
			"count":52,
			"max":[
				0.12732680141925812,
				1.1375207901000977,
				2.039914131164551
			],
			"min":[
				-0.13267329335212708,
				-1.866990566253662,
				-2.0592734813690186
			],
			"type":"VEC3"
		},
		{
			"bufferView":9,
			"componentType":5126,
			"count":52,
			"type":"VEC3"
		},
		{
			"bufferView":10,
			"componentType":5126,
			"count":52,
			"type":"VEC2"
		},
		{
			"bufferView":11,
			"componentType":5123,
			"count":108,
			"type":"SCALAR"
		},
		{
			"bufferView":12,
			"componentType":5126,
			"count":72,
			"max":[
				0.02528129518032074,
				0.7701576352119446,
				1.3345108032226562
			],
			"min":[
				-0.02955014258623123,
				-0.5534213781356812,
				-1.3773642778396606
			],
			"type":"VEC3"
		},
		{
			"bufferView":13,
			"componentType":5126,
			"count":72,
			"type":"VEC3"
		},
		{
			"bufferView":14,
			"componentType":5126,
			"count":72,
			"type":"VEC2"
		},
		{
			"bufferView":15,
			"componentType":5123,
			"count":108,
			"type":"SCALAR"
		}
	],
	"bufferViews":[
		{
			"buffer":0,
			"byteLength":1200,
			"byteOffset":0,
			"target":34962
		},
		{
			"buffer":0,
			"byteLength":1200,
			"byteOffset":1200,
			"target":34962
		},
		{
			"buffer":0,
			"byteLength":800,
			"byteOffset":2400,
			"target":34962
		},
		{
			"buffer":0,
			"byteLength":492,
			"byteOffset":3200,
			"target":34963
		},
		{
			"buffer":0,
			"byteLength":7920,
			"byteOffset":3692,
			"target":34962
		},
		{
			"buffer":0,
			"byteLength":7920,
			"byteOffset":11612,
			"target":34962
		},
		{
			"buffer":0,
			"byteLength":5280,
			"byteOffset":19532,
			"target":34962
		},
		{
			"buffer":0,
			"byteLength":2844,
			"byteOffset":24812,
			"target":34963
		},
		{
			"buffer":0,
			"byteLength":624,
			"byteOffset":27656,
			"target":34962
		},
		{
			"buffer":0,
			"byteLength":624,
			"byteOffset":28280,
			"target":34962
		},
		{
			"buffer":0,
			"byteLength":416,
			"byteOffset":28904,
			"target":34962
		},
		{
			"buffer":0,
			"byteLength":216,
			"byteOffset":29320,
			"target":34963
		},
		{
			"buffer":0,
			"byteLength":864,
			"byteOffset":29536,
			"target":34962
		},
		{
			"buffer":0,
			"byteLength":864,
			"byteOffset":30400,
			"target":34962
		},
		{
			"buffer":0,
			"byteLength":576,
			"byteOffset":31264,
			"target":34962
		},
		{
			"buffer":0,
			"byteLength":216,
			"byteOffset":31840,
			"target":34963
		}
	],
	"buffers":[
		{
			"byteLength":32056,
			"uri":"Window01_house2-f86a4fe606077ae8a1e788368d90947e.bin"
		}
	]
}
