{
	"asset":{
		"generator":"Khronos glTF Blender I/O v4.3.47",
		"version":"2.0"
	},
	"scene":0,
	"scenes":[
		{
			"name":"Scene",
			"nodes":[
				0
			]
		}
	],
	"nodes":[
		{
			"mesh":0,
			"name":"Window02_house02"
		}
	],
	"materials":[
		{
			"doubleSided":true,
			"name":"Cream_House02",
			"pbrMetallicRoughness":{
				"baseColorFactor":[
					0.8796226382255554,
					0.854992687702179,
					0.7379105091094971,
					1
				],
				"metallicFactor":0,
				"roughnessFactor":0.5
			}
		},
		{
			"doubleSided":true,
			"name":"Gray_House02",
			"pbrMetallicRoughness":{
				"baseColorFactor":[
					0.5840784907341003,
					0.5775806307792664,
					0.5520114898681641,
					1
				],
				"metallicFactor":0,
				"roughnessFactor":0.5
			}
		},
		{
			"doubleSided":true,
			"name":"Brown_House02",
			"pbrMetallicRoughness":{
				"baseColorFactor":[
					0.47353148460388184,
					0.28744083642959595,
					0.17788845300674438,
					1
				],
				"metallicFactor":0,
				"roughnessFactor":0.5
			}
		},
		{
			"doubleSided":true,
			"name":"Window_House02",
			"pbrMetallicRoughness":{
				"baseColorFactor":[
					0.2614840865135193,
					0.33923548460006714,
					0.597201943397522,
					1
				],
				"metallicFactor":0,
				"roughnessFactor":0.5
			}
		}
	],
	"meshes":[
		{
			"name":"Cube.004",
			"primitives":[
				{
					"attributes":{
						"POSITION":0,
						"NORMAL":1,
						"TEXCOORD_0":2
					},
					"indices":3,
					"material":0
				},
				{
					"attributes":{
						"POSITION":4,
						"NORMAL":5,
						"TEXCOORD_0":6
					},
					"indices":7,
					"material":1
				},
				{
					"attributes":{
						"POSITION":8,
						"NORMAL":9,
						"TEXCOORD_0":10
					},
					"indices":11,
					"material":2
				},
				{
					"attributes":{
						"POSITION":12,
						"NORMAL":13,
						"TEXCOORD_0":14
					},
					"indices":15,
					"material":3
				}
			]
		}
	],
	"accessors":[
		{
			"bufferView":0,
			"componentType":5126,
			"count":50,
			"max":[
				0.12519168853759766,
				1.504729151725769,
				2.0536437034606934
			],
			"min":[
				-0.13480837643146515,
				-1.4997819662094116,
				-2.045543670654297
			],
			"type":"VEC3"
		},
		{
			"bufferView":1,
			"componentType":5126,
			"count":50,
			"type":"VEC3"
		},
		{
			"bufferView":2,
			"componentType":5126,
			"count":50,
			"type":"VEC2"
		},
		{
			"bufferView":3,
			"componentType":5123,
			"count":102,
			"type":"SCALAR"
		},
		{
			"bufferView":4,
			"componentType":5126,
			"count":100,
			"max":[
				0.16604363918304443,
				1.848626971244812,
				2.4089677333831787
			],
			"min":[
				-0.17566034197807312,
				-1.8239506483078003,
				-2.4008677005767822
			],
			"type":"VEC3"
		},
		{
			"bufferView":5,
			"componentType":5126,
			"count":100,
			"type":"VEC3"
		},
		{
			"bufferView":6,
			"componentType":5126,
			"count":100,
			"type":"VEC2"
		},
		{
			"bufferView":7,
			"componentType":5123,
			"count":246,
			"type":"SCALAR"
		},
		{
			"bufferView":8,
			"componentType":5126,
			"count":424,
			"max":[
				0.036972422152757645,
				1.27061128616333,
				1.2393016815185547
			],
			"min":[
				-0.03371371328830719,
				-1.177491307258606,
				-1.2312016487121582
			],
			"type":"VEC3"
		},
		{
			"bufferView":9,
			"componentType":5126,
			"count":424,
			"type":"VEC3"
		},
		{
			"bufferView":10,
			"componentType":5126,
			"count":424,
			"type":"VEC2"
		},
		{
			"bufferView":11,
			"componentType":5123,
			"count":1152,
			"type":"SCALAR"
		},
		{
			"bufferView":12,
			"componentType":5126,
			"count":72,
			"max":[
				0.009663686156272888,
				1.2035598754882812,
				1.1769440174102783
			],
			"min":[
				-0.00640498474240303,
				-1.1104398965835571,
				-1.1688439846038818
			],
			"type":"VEC3"
		},
		{
			"bufferView":13,
			"componentType":5126,
			"count":72,
			"type":"VEC3"
		},
		{
			"bufferView":14,
			"componentType":5126,
			"count":72,
			"type":"VEC2"
		},
		{
			"bufferView":15,
			"componentType":5123,
			"count":108,
			"type":"SCALAR"
		}
	],
	"bufferViews":[
		{
			"buffer":0,
			"byteLength":600,
			"byteOffset":0,
			"target":34962
		},
		{
			"buffer":0,
			"byteLength":600,
			"byteOffset":600,
			"target":34962
		},
		{
			"buffer":0,
			"byteLength":400,
			"byteOffset":1200,
			"target":34962
		},
		{
			"buffer":0,
			"byteLength":204,
			"byteOffset":1600,
			"target":34963
		},
		{
			"buffer":0,
			"byteLength":1200,
			"byteOffset":1804,
			"target":34962
		},
		{
			"buffer":0,
			"byteLength":1200,
			"byteOffset":3004,
			"target":34962
		},
		{
			"buffer":0,
			"byteLength":800,
			"byteOffset":4204,
			"target":34962
		},
		{
			"buffer":0,
			"byteLength":492,
			"byteOffset":5004,
			"target":34963
		},
		{
			"buffer":0,
			"byteLength":5088,
			"byteOffset":5496,
			"target":34962
		},
		{
			"buffer":0,
			"byteLength":5088,
			"byteOffset":10584,
			"target":34962
		},
		{
			"buffer":0,
			"byteLength":3392,
			"byteOffset":15672,
			"target":34962
		},
		{
			"buffer":0,
			"byteLength":2304,
			"byteOffset":19064,
			"target":34963
		},
		{
			"buffer":0,
			"byteLength":864,
			"byteOffset":21368,
			"target":34962
		},
		{
			"buffer":0,
			"byteLength":864,
			"byteOffset":22232,
			"target":34962
		},
		{
			"buffer":0,
			"byteLength":576,
			"byteOffset":23096,
			"target":34962
		},
		{
			"buffer":0,
			"byteLength":216,
			"byteOffset":23672,
			"target":34963
		}
	],
	"buffers":[
		{
			"byteLength":23888,
			"uri":"Window02_house2-f33e31e64000742bf7c025e983ca8587.bin"
		}
	]
}
