{
	"asset":{
		"generator":"Khronos glTF Blender I/O v4.3.47",
		"version":"2.0"
	},
	"scene":0,
	"scenes":[
		{
			"name":"Scene",
			"nodes":[
				0
			]
		}
	],
	"nodes":[
		{
			"mesh":0,
			"name":"Window02_House01"
		}
	],
	"materials":[
		{
			"doubleSided":true,
			"name":"Cream_House01",
			"pbrMetallicRoughness":{
				"baseColorFactor":[
					0.8713672757148743,
					0.8631572127342224,
					0.84687340259552,
					1
				],
				"metallicFactor":0,
				"roughnessFactor":0.4000000059604645
			}
		},
		{
			"doubleSided":true,
			"name":"Window_House01",
			"pbrMetallicRoughness":{
				"baseColorFactor":[
					0.20863690972328186,
					0.3277781009674072,
					0.6653873324394226,
					1
				],
				"metallicFactor":0,
				"roughnessFactor":0.5
			}
		},
		{
			"doubleSided":true,
			"name":"LightBrown_House01",
			"pbrMetallicRoughness":{
				"baseColorFactor":[
					0.6724432706832886,
					0.5906189680099487,
					0.5149176716804504,
					1
				],
				"metallicFactor":0,
				"roughnessFactor":0.5
			}
		}
	],
	"meshes":[
		{
			"name":"Cube.001",
			"primitives":[
				{
					"attributes":{
						"POSITION":0,
						"NORMAL":1,
						"TEXCOORD_0":2
					},
					"indices":3,
					"material":0
				},
				{
					"attributes":{
						"POSITION":4,
						"NORMAL":5,
						"TEXCOORD_0":6
					},
					"indices":7,
					"material":1
				},
				{
					"attributes":{
						"POSITION":8,
						"NORMAL":9,
						"TEXCOORD_0":10
					},
					"indices":11,
					"material":2
				}
			]
		}
	],
	"accessors":[
		{
			"bufferView":0,
			"componentType":5126,
			"count":96,
			"max":[
				0.15013320744037628,
				1.4242643117904663,
				1.5925359725952148
			],
			"min":[
				-0.10986688733100891,
				-1.580247163772583,
				-1.5925359725952148
			],
			"type":"VEC3"
		},
		{
			"bufferView":1,
			"componentType":5126,
			"count":96,
			"type":"VEC3"
		},
		{
			"bufferView":2,
			"componentType":5126,
			"count":96,
			"type":"VEC2"
		},
		{
			"bufferView":3,
			"componentType":5123,
			"count":168,
			"type":"SCALAR"
		},
		{
			"bufferView":4,
			"componentType":5126,
			"count":24,
			"max":[
				-0.003995474893599749,
				0.6916252970695496,
				0.7273063063621521
			],
			"min":[
				-0.006071113515645266,
				-0.6742938756942749,
				-0.7273063063621521
			],
			"type":"VEC3"
		},
		{
			"bufferView":5,
			"componentType":5126,
			"count":24,
			"type":"VEC3"
		},
		{
			"bufferView":6,
			"componentType":5126,
			"count":24,
			"type":"VEC2"
		},
		{
			"bufferView":7,
			"componentType":5123,
			"count":36,
			"type":"SCALAR"
		},
		{
			"bufferView":8,
			"componentType":5126,
			"count":148,
			"max":[
				0.26890575885772705,
				0.8696437478065491,
				1.0413225889205933
			],
			"min":[
				-0.278972327709198,
				-0.8523122072219849,
				-1.0413225889205933
			],
			"type":"VEC3"
		},
		{
			"bufferView":9,
			"componentType":5126,
			"count":148,
			"type":"VEC3"
		},
		{
			"bufferView":10,
			"componentType":5126,
			"count":148,
			"type":"VEC2"
		},
		{
			"bufferView":11,
			"componentType":5123,
			"count":240,
			"type":"SCALAR"
		}
	],
	"bufferViews":[
		{
			"buffer":0,
			"byteLength":1152,
			"byteOffset":0,
			"target":34962
		},
		{
			"buffer":0,
			"byteLength":1152,
			"byteOffset":1152,
			"target":34962
		},
		{
			"buffer":0,
			"byteLength":768,
			"byteOffset":2304,
			"target":34962
		},
		{
			"buffer":0,
			"byteLength":336,
			"byteOffset":3072,
			"target":34963
		},
		{
			"buffer":0,
			"byteLength":288,
			"byteOffset":3408,
			"target":34962
		},
		{
			"buffer":0,
			"byteLength":288,
			"byteOffset":3696,
			"target":34962
		},
		{
			"buffer":0,
			"byteLength":192,
			"byteOffset":3984,
			"target":34962
		},
		{
			"buffer":0,
			"byteLength":72,
			"byteOffset":4176,
			"target":34963
		},
		{
			"buffer":0,
			"byteLength":1776,
			"byteOffset":4248,
			"target":34962
		},
		{
			"buffer":0,
			"byteLength":1776,
			"byteOffset":6024,
			"target":34962
		},
		{
			"buffer":0,
			"byteLength":1184,
			"byteOffset":7800,
			"target":34962
		},
		{
			"buffer":0,
			"byteLength":480,
			"byteOffset":8984,
			"target":34963
		}
	],
	"buffers":[
		{
			"byteLength":9464,
			"uri":"Window02_house01-d174c6cdacee20265f98ba95fa854acd.bin"
		}
	]
}
