{
	"asset":{
		"generator":"Khronos glTF Blender I/O v4.3.47",
		"version":"2.0"
	},
	"scene":0,
	"scenes":[
		{
			"name":"Scene",
			"nodes":[
				0
			]
		}
	],
	"nodes":[
		{
			"mesh":0,
			"name":"Window03"
		}
	],
	"materials":[
		{
			"doubleSided":true,
			"name":"Cream_House01",
			"pbrMetallicRoughness":{
				"baseColorFactor":[
					0.8713672757148743,
					0.8631572127342224,
					0.84687340259552,
					1
				],
				"metallicFactor":0,
				"roughnessFactor":0.4000000059604645
			}
		},
		{
			"doubleSided":true,
			"name":"LightBrown_House01",
			"pbrMetallicRoughness":{
				"baseColorFactor":[
					0.6724432706832886,
					0.5906189680099487,
					0.5149176716804504,
					1
				],
				"metallicFactor":0,
				"roughnessFactor":0.5
			}
		},
		{
			"doubleSided":true,
			"name":"Window_House01",
			"pbrMetallicRoughness":{
				"baseColorFactor":[
					0.20863690972328186,
					0.3277781009674072,
					0.6653873324394226,
					1
				],
				"metallicFactor":0,
				"roughnessFactor":0.5
			}
		}
	],
	"meshes":[
		{
			"name":"Cube.016",
			"primitives":[
				{
					"attributes":{
						"POSITION":0,
						"NORMAL":1,
						"TEXCOORD_0":2
					},
					"indices":3,
					"material":0
				},
				{
					"attributes":{
						"POSITION":4,
						"NORMAL":5,
						"TEXCOORD_0":6
					},
					"indices":7,
					"material":1
				},
				{
					"attributes":{
						"POSITION":8,
						"NORMAL":9,
						"TEXCOORD_0":10
					},
					"indices":11,
					"material":2
				}
			]
		}
	],
	"accessors":[
		{
			"bufferView":0,
			"componentType":5126,
			"count":204,
			"max":[
				0.18313559889793396,
				1.829607367515564,
				2.212583541870117
			],
			"min":[
				-0.1831229031085968,
				-2.074902296066284,
				-2.1554148197174072
			],
			"type":"VEC3"
		},
		{
			"bufferView":1,
			"componentType":5126,
			"count":204,
			"type":"VEC3"
		},
		{
			"bufferView":2,
			"componentType":5126,
			"count":204,
			"type":"VEC2"
		},
		{
			"bufferView":3,
			"componentType":5123,
			"count":480,
			"type":"SCALAR"
		},
		{
			"bufferView":4,
			"componentType":5126,
			"count":770,
			"max":[
				0.38822221755981445,
				1.8458623886108398,
				2.482426881790161
			],
			"min":[
				-0.3882094621658325,
				-2.1094658374786377,
				-2.482426166534424
			],
			"type":"VEC3"
		},
		{
			"bufferView":5,
			"componentType":5126,
			"count":770,
			"type":"VEC3"
		},
		{
			"bufferView":6,
			"componentType":5126,
			"count":770,
			"type":"VEC2"
		},
		{
			"bufferView":7,
			"componentType":5123,
			"count":1362,
			"type":"SCALAR"
		},
		{
			"bufferView":8,
			"componentType":5126,
			"count":24,
			"max":[
				0.012725300155580044,
				1.4025884866714478,
				1.134537935256958
			],
			"min":[
				-0.009566393680870533,
				-0.5553238391876221,
				-1.0773690938949585
			],
			"type":"VEC3"
		},
		{
			"bufferView":9,
			"componentType":5126,
			"count":24,
			"type":"VEC3"
		},
		{
			"bufferView":10,
			"componentType":5126,
			"count":24,
			"type":"VEC2"
		},
		{
			"bufferView":11,
			"componentType":5123,
			"count":36,
			"type":"SCALAR"
		}
	],
	"bufferViews":[
		{
			"buffer":0,
			"byteLength":2448,
			"byteOffset":0,
			"target":34962
		},
		{
			"buffer":0,
			"byteLength":2448,
			"byteOffset":2448,
			"target":34962
		},
		{
			"buffer":0,
			"byteLength":1632,
			"byteOffset":4896,
			"target":34962
		},
		{
			"buffer":0,
			"byteLength":960,
			"byteOffset":6528,
			"target":34963
		},
		{
			"buffer":0,
			"byteLength":9240,
			"byteOffset":7488,
			"target":34962
		},
		{
			"buffer":0,
			"byteLength":9240,
			"byteOffset":16728,
			"target":34962
		},
		{
			"buffer":0,
			"byteLength":6160,
			"byteOffset":25968,
			"target":34962
		},
		{
			"buffer":0,
			"byteLength":2724,
			"byteOffset":32128,
			"target":34963
		},
		{
			"buffer":0,
			"byteLength":288,
			"byteOffset":34852,
			"target":34962
		},
		{
			"buffer":0,
			"byteLength":288,
			"byteOffset":35140,
			"target":34962
		},
		{
			"buffer":0,
			"byteLength":192,
			"byteOffset":35428,
			"target":34962
		},
		{
			"buffer":0,
			"byteLength":72,
			"byteOffset":35620,
			"target":34963
		}
	],
	"buffers":[
		{
			"byteLength":35692,
			"uri":"Window03_house01-e63b0099891cfa43d4b9308e172f41b8.bin"
		}
	]
}
