{
	"asset":{
		"generator":"Khronos glTF Blender I/O v4.3.47",
		"version":"2.0"
	},
	"scene":0,
	"scenes":[
		{
			"name":"Scene",
			"nodes":[
				0
			]
		}
	],
	"nodes":[
		{
			"mesh":0,
			"name":"WineBottle01"
		}
	],
	"materials":[
		{
			"doubleSided":true,
			"name":"White_WineBottle01",
			"pbrMetallicRoughness":{
				"baseColorFactor":[
					0.800000011920929,
					0.800000011920929,
					0.800000011920929,
					1
				],
				"metallicFactor":0,
				"roughnessFactor":0.5
			}
		},
		{
			"doubleSided":true,
			"name":"DarkRed_WineBottle01",
			"pbrMetallicRoughness":{
				"baseColorFactor":[
					0.21586059033870697,
					0.015208489261567593,
					0.007499038241803646,
					1
				],
				"metallicFactor":0,
				"roughnessFactor":0.5
			}
		},
		{
			"doubleSided":true,
			"name":"Gray_WineBottle01",
			"pbrMetallicRoughness":{
				"baseColorFactor":[
					0.14240051805973053,
					0.14240051805973053,
					0.14240051805973053,
					1
				],
				"metallicFactor":0,
				"roughnessFactor":0.5
			}
		}
	],
	"meshes":[
		{
			"name":"Cylinder",
			"primitives":[
				{
					"attributes":{
						"POSITION":0,
						"NORMAL":1,
						"TEXCOORD_0":2,
						"TANGENT":3
					},
					"indices":4,
					"material":0
				},
				{
					"attributes":{
						"POSITION":5,
						"NORMAL":6,
						"TEXCOORD_0":7,
						"TANGENT":8
					},
					"indices":9,
					"material":1
				},
				{
					"attributes":{
						"POSITION":10,
						"NORMAL":11,
						"TEXCOORD_0":12,
						"TANGENT":13
					},
					"indices":14,
					"material":2
				}
			]
		}
	],
	"accessors":[
		{
			"bufferView":0,
			"componentType":5126,
			"count":190,
			"max":[
				1.0736732482910156,
				-1.80357027053833,
				1.0736738443374634
			],
			"min":[
				-1.0736732482910156,
				-3.9397244453430176,
				-1.0736730098724365
			],
			"type":"VEC3"
		},
		{
			"bufferView":1,
			"componentType":5126,
			"count":190,
			"type":"VEC3"
		},
		{
			"bufferView":2,
			"componentType":5126,
			"count":190,
			"type":"VEC2"
		},
		{
			"bufferView":3,
			"componentType":5126,
			"count":190,
			"type":"VEC4"
		},
		{
			"bufferView":4,
			"componentType":5123,
			"count":720,
			"type":"SCALAR"
		},
		{
			"bufferView":5,
			"componentType":5126,
			"count":1430,
			"max":[
				1.081409215927124,
				2.165497064590454,
				1.0814096927642822
			],
			"min":[
				-1.0814093351364136,
				-4.885934829711914,
				-1.081408977508545
			],
			"type":"VEC3"
		},
		{
			"bufferView":6,
			"componentType":5126,
			"count":1430,
			"type":"VEC3"
		},
		{
			"bufferView":7,
			"componentType":5126,
			"count":1430,
			"type":"VEC2"
		},
		{
			"bufferView":8,
			"componentType":5126,
			"count":1430,
			"type":"VEC4"
		},
		{
			"bufferView":9,
			"componentType":5123,
			"count":4200,
			"type":"SCALAR"
		},
		{
			"bufferView":10,
			"componentType":5126,
			"count":1499,
			"max":[
				0.49171650409698486,
				3.22070050239563,
				0.4917167127132416
			],
			"min":[
				-0.49171653389930725,
				2.165497064590454,
				-0.4917164146900177
			],
			"type":"VEC3"
		},
		{
			"bufferView":11,
			"componentType":5126,
			"count":1499,
			"type":"VEC3"
		},
		{
			"bufferView":12,
			"componentType":5126,
			"count":1499,
			"type":"VEC2"
		},
		{
			"bufferView":13,
			"componentType":5126,
			"count":1499,
			"type":"VEC4"
		},
		{
			"bufferView":14,
			"componentType":5123,
			"count":4440,
			"type":"SCALAR"
		}
	],
	"bufferViews":[
		{
			"buffer":0,
			"byteLength":2280,
			"byteOffset":0,
			"target":34962
		},
		{
			"buffer":0,
			"byteLength":2280,
			"byteOffset":2280,
			"target":34962
		},
		{
			"buffer":0,
			"byteLength":1520,
			"byteOffset":4560,
			"target":34962
		},
		{
			"buffer":0,
			"byteLength":3040,
			"byteOffset":6080,
			"target":34962
		},
		{
			"buffer":0,
			"byteLength":1440,
			"byteOffset":9120,
			"target":34963
		},
		{
			"buffer":0,
			"byteLength":17160,
			"byteOffset":10560,
			"target":34962
		},
		{
			"buffer":0,
			"byteLength":17160,
			"byteOffset":27720,
			"target":34962
		},
		{
			"buffer":0,
			"byteLength":11440,
			"byteOffset":44880,
			"target":34962
		},
		{
			"buffer":0,
			"byteLength":22880,
			"byteOffset":56320,
			"target":34962
		},
		{
			"buffer":0,
			"byteLength":8400,
			"byteOffset":79200,
			"target":34963
		},
		{
			"buffer":0,
			"byteLength":17988,
			"byteOffset":87600,
			"target":34962
		},
		{
			"buffer":0,
			"byteLength":17988,
			"byteOffset":105588,
			"target":34962
		},
		{
			"buffer":0,
			"byteLength":11992,
			"byteOffset":123576,
			"target":34962
		},
		{
			"buffer":0,
			"byteLength":23984,
			"byteOffset":135568,
			"target":34962
		},
		{
			"buffer":0,
			"byteLength":8880,
			"byteOffset":159552,
			"target":34963
		}
	],
	"buffers":[
		{
			"byteLength":168432,
			"uri":"WineBottle01-f29ae347bb078772ba6c5f0806c281f6.bin"
		}
	]
}
