{
	"asset":{
		"generator":"Khronos glTF Blender I/O v4.3.47",
		"version":"2.0"
	},
	"extensionsUsed":[
		"KHR_materials_clearcoat",
		"KHR_materials_specular",
		"KHR_materials_ior"
	],
	"scene":0,
	"scenes":[
		{
			"name":"Scene",
			"nodes":[
				0
			]
		}
	],
	"nodes":[
		{
			"mesh":0,
			"name":"Wine01"
		}
	],
	"materials":[
		{
			"doubleSided":true,
			"extensions":{
				"KHR_materials_clearcoat":{
					"clearcoatRoughnessFactor":0
				},
				"KHR_materials_specular":{
					"specularFactor":0.8151515126228333
				},
				"KHR_materials_ior":{
					"ior":0
				}
			},
			"name":"Glass_Wine01",
			"pbrMetallicRoughness":{
				"baseColorFactor":[
					0.9999861121177673,
					0.9999861121177673,
					0.9999861121177673,
					1
				],
				"metallicFactor":0,
				"roughnessFactor":0
			}
		},
		{
			"doubleSided":true,
			"name":"Wine_Wine01",
			"pbrMetallicRoughness":{
				"baseColorFactor":[
					0.08650048822164536,
					0.00030351465102285147,
					0.0036765087861567736,
					1
				],
				"metallicFactor":0
			}
		}
	],
	"meshes":[
		{
			"name":"Cylinder.002",
			"primitives":[
				{
					"attributes":{
						"POSITION":0,
						"NORMAL":1,
						"TEXCOORD_0":2,
						"TANGENT":3
					},
					"indices":4,
					"material":0
				},
				{
					"attributes":{
						"POSITION":5,
						"NORMAL":6,
						"TEXCOORD_0":7,
						"TANGENT":8
					},
					"indices":9,
					"material":1
				}
			]
		}
	],
	"accessors":[
		{
			"bufferView":0,
			"componentType":5126,
			"count":3859,
			"max":[
				1.248939037322998,
				1.4636247158050537,
				1.2492672204971313
			],
			"min":[
				-1.2493184804916382,
				-1.900208830833435,
				-1.2489906549453735
			],
			"type":"VEC3"
		},
		{
			"bufferView":1,
			"componentType":5126,
			"count":3859,
			"type":"VEC3"
		},
		{
			"bufferView":2,
			"componentType":5126,
			"count":3859,
			"type":"VEC2"
		},
		{
			"bufferView":3,
			"componentType":5126,
			"count":3859,
			"type":"VEC4"
		},
		{
			"bufferView":4,
			"componentType":5123,
			"count":12696,
			"type":"SCALAR"
		},
		{
			"bufferView":5,
			"componentType":5126,
			"count":923,
			"max":[
				1.1583153009414673,
				0.9953592419624329,
				1.1586432456970215
			],
			"min":[
				-1.158694863319397,
				-0.44710034132003784,
				-1.1583669185638428
			],
			"type":"VEC3"
		},
		{
			"bufferView":6,
			"componentType":5126,
			"count":923,
			"type":"VEC3"
		},
		{
			"bufferView":7,
			"componentType":5126,
			"count":923,
			"type":"VEC2"
		},
		{
			"bufferView":8,
			"componentType":5126,
			"count":923,
			"type":"VEC4"
		},
		{
			"bufferView":9,
			"componentType":5123,
			"count":2664,
			"type":"SCALAR"
		}
	],
	"bufferViews":[
		{
			"buffer":0,
			"byteLength":46308,
			"byteOffset":0,
			"target":34962
		},
		{
			"buffer":0,
			"byteLength":46308,
			"byteOffset":46308,
			"target":34962
		},
		{
			"buffer":0,
			"byteLength":30872,
			"byteOffset":92616,
			"target":34962
		},
		{
			"buffer":0,
			"byteLength":61744,
			"byteOffset":123488,
			"target":34962
		},
		{
			"buffer":0,
			"byteLength":25392,
			"byteOffset":185232,
			"target":34963
		},
		{
			"buffer":0,
			"byteLength":11076,
			"byteOffset":210624,
			"target":34962
		},
		{
			"buffer":0,
			"byteLength":11076,
			"byteOffset":221700,
			"target":34962
		},
		{
			"buffer":0,
			"byteLength":7384,
			"byteOffset":232776,
			"target":34962
		},
		{
			"buffer":0,
			"byteLength":14768,
			"byteOffset":240160,
			"target":34962
		},
		{
			"buffer":0,
			"byteLength":5328,
			"byteOffset":254928,
			"target":34963
		}
	],
	"buffers":[
		{
			"byteLength":260256,
			"uri":"Wine01-d0f42d54eb61ee4762a59409e207d374.bin"
		}
	]
}
