{
	"asset":{
		"generator":"Khronos glTF Blender I/O v4.3.47",
		"version":"2.0"
	},
	"scene":0,
	"scenes":[
		{
			"name":"Scene",
			"nodes":[
				0
			]
		}
	],
	"nodes":[
		{
			"mesh":0,
			"name":"Wizard_tree"
		}
	],
	"materials":[
		{
			"doubleSided":true,
			"name":"Wood_treeWizard",
			"pbrMetallicRoughness":{
				"baseColorFactor":[
					0.23954208195209503,
					0.06864677369594574,
					0.01425267569720745,
					1
				],
				"metallicFactor":0,
				"roughnessFactor":0.5
			}
		},
		{
			"alphaMode":"BLEND",
			"doubleSided":true,
			"name":"Leaf_WizardTree",
			"pbrMetallicRoughness":{
				"metallicFactor":0,
				"roughnessFactor":0.5
			}
		}
	],
	"meshes":[
		{
			"name":"Circle",
			"primitives":[
				{
					"attributes":{
						"POSITION":0,
						"NORMAL":1,
						"TEXCOORD_0":2
					},
					"indices":3,
					"material":0
				},
				{
					"attributes":{
						"POSITION":4,
						"NORMAL":5,
						"TEXCOORD_0":6
					},
					"indices":7,
					"material":1
				}
			]
		}
	],
	"accessors":[
		{
			"bufferView":0,
			"componentType":5126,
			"count":1930,
			"max":[
				8.983072280883789,
				15.908010482788086,
				9.823734283447266
			],
			"min":[
				-8.889652252197266,
				0,
				-6.819797039031982
			],
			"type":"VEC3"
		},
		{
			"bufferView":1,
			"componentType":5126,
			"count":1930,
			"type":"VEC3"
		},
		{
			"bufferView":2,
			"componentType":5126,
			"count":1930,
			"type":"VEC2"
		},
		{
			"bufferView":3,
			"componentType":5123,
			"count":2964,
			"type":"SCALAR"
		},
		{
			"bufferView":4,
			"componentType":5126,
			"count":1596,
			"max":[
				11.878108978271484,
				18.096906661987305,
				11.24384880065918
			],
			"min":[
				-12.17031478881836,
				0.4810190498828888,
				-9.846736907958984
			],
			"type":"VEC3"
		},
		{
			"bufferView":5,
			"componentType":5126,
			"count":1596,
			"type":"VEC3"
		},
		{
			"bufferView":6,
			"componentType":5126,
			"count":1596,
			"type":"VEC2"
		},
		{
			"bufferView":7,
			"componentType":5123,
			"count":2394,
			"type":"SCALAR"
		}
	],
	"bufferViews":[
		{
			"buffer":0,
			"byteLength":23160,
			"byteOffset":0,
			"target":34962
		},
		{
			"buffer":0,
			"byteLength":23160,
			"byteOffset":23160,
			"target":34962
		},
		{
			"buffer":0,
			"byteLength":15440,
			"byteOffset":46320,
			"target":34962
		},
		{
			"buffer":0,
			"byteLength":5928,
			"byteOffset":61760,
			"target":34963
		},
		{
			"buffer":0,
			"byteLength":19152,
			"byteOffset":67688,
			"target":34962
		},
		{
			"buffer":0,
			"byteLength":19152,
			"byteOffset":86840,
			"target":34962
		},
		{
			"buffer":0,
			"byteLength":12768,
			"byteOffset":105992,
			"target":34962
		},
		{
			"buffer":0,
			"byteLength":4788,
			"byteOffset":118760,
			"target":34963
		}
	],
	"buffers":[
		{
			"byteLength":123548,
			"uri":"WizardTree-bf2f9e4371011d494e64f950124f1335.bin"
		}
	]
}
